G75*
G70*
%OFA0B0*%
%FSLAX24Y24*%
%IPPOS*%
%LPD*%
%AMOC8*
5,1,8,0,0,1.08239X$1,22.5*
%
%ADD10C,0.1261*%
%ADD11C,0.0880*%
%ADD12R,0.0820X0.0820*%
%ADD13OC8,0.0820*%
%ADD14OC8,0.0552*%
%ADD15OC8,0.0680*%
%ADD16C,0.0417*%
%ADD17OC8,0.0456*%
%ADD18OC8,0.0580*%
%ADD19OC8,0.0417*%
%ADD20OC8,0.0553*%
%ADD21R,0.0456X0.0456*%
D10*
X012548Y018454D03*
D11*
X020985Y012548D03*
X022785Y012548D03*
D12*
X008037Y020135D03*
D13*
X008037Y019135D03*
X007037Y019135D03*
X007037Y020135D03*
X006037Y020135D03*
X006037Y019135D03*
D14*
X004674Y016289D03*
X004674Y015304D03*
X004674Y014320D03*
X010777Y014320D03*
X012942Y012942D03*
X012155Y012155D03*
X014517Y011171D03*
X014123Y016879D03*
X014123Y017863D03*
X011859Y020816D03*
X013730Y021407D03*
X017667Y021997D03*
X020226Y013730D03*
X022785Y013730D03*
D15*
X019052Y007068D03*
X018052Y007068D03*
X018052Y006068D03*
X018052Y005068D03*
X018052Y004068D03*
X018052Y003068D03*
X019052Y003068D03*
X019052Y004068D03*
X019052Y005068D03*
X019052Y006068D03*
D16*
X016190Y001328D03*
X013237Y004576D03*
X011663Y004576D03*
X013139Y007135D03*
X012647Y009300D03*
X010875Y009399D03*
X009694Y007332D03*
X008907Y007135D03*
X008611Y009202D03*
X007037Y014123D03*
X007037Y016289D03*
X009734Y022155D03*
D17*
X011367Y022785D03*
X012942Y020619D03*
X014517Y020619D03*
X010186Y018060D03*
X017667Y009596D03*
X019045Y015895D03*
X020619Y021013D03*
D18*
X007726Y006052D03*
X010777Y011958D03*
X010777Y012548D03*
X011761Y014517D03*
X012352Y014517D03*
X014320Y012548D03*
X014320Y011958D03*
D19*
X007430Y018060D03*
X011466Y021505D03*
D20*
X012540Y013290D03*
X011810Y012540D03*
X012540Y011820D03*
X013270Y012530D03*
D21*
X017667Y008119D03*
M02*
