%
M48
M72
T01C0.0197
T02C0.0236
T03C0.0315
T04C0.0315
T05C0.0400
T06C0.0800
T07C0.1181
%
T01
X8907Y7135
X9694Y7332
X8611Y9202
X10875Y9399
X12647Y9300
X13139Y7135
X13237Y4576
X11663Y4576
X16190Y1328
X7037Y14123
X7037Y16289
X7430Y18060
X11466Y21505
X9734Y22155
T02
X7726Y6052
X10777Y11958
X10777Y12548
X11761Y14517
X12352Y14517
X14320Y12548
X14320Y11958
X17667Y9596
X17667Y8119
X19045Y15895
X14517Y20619
X12942Y20619
X11367Y22785
X10186Y18060
X20619Y21013
T03
X17667Y21997
X13730Y21407
X11859Y20816
X14123Y17863
X14123Y16879
X10777Y14320
X12942Y12942
X12155Y12155
X14517Y11171
X20226Y13730
X22785Y13730
X4674Y14320
X4674Y15304
X4674Y16289
T04
X11810Y12540
X12540Y11820
X13270Y12530
X12540Y13290
T05
X8037Y19135
X8037Y20135
X7037Y20135
X7037Y19135
X6037Y19135
X6037Y20135
X18052Y7068
X18052Y6068
X18052Y5068
X18052Y4068
X18052Y3068
X19052Y3068
X19052Y4068
X19052Y5068
X19052Y6068
X19052Y7068
T06
X20985Y12548
X22785Y12548
T07
X12548Y18454
M30
