G75*
G70*
%OFA0B0*%
%FSLAX24Y24*%
%IPPOS*%
%LPD*%
%AMOC8*
5,1,8,0,0,1.08239X$1,22.5*
%
%ADD10R,0.1102X0.0945*%
%ADD11R,0.0740X0.0740*%
%ADD12OC8,0.0740*%
%ADD13R,0.0512X0.0591*%
%ADD14R,0.0300X0.0450*%
%ADD15R,0.0217X0.0315*%
%ADD16R,0.0472X0.0472*%
%ADD17R,0.0787X0.2362*%
%ADD18R,0.2362X0.0787*%
%ADD19R,0.0591X0.0512*%
%ADD20R,0.0315X0.0217*%
%ADD21R,0.0591X0.0591*%
%ADD22C,0.1969*%
%ADD23R,0.0394X0.0472*%
%ADD24R,0.0472X0.0394*%
%ADD25OC8,0.0472*%
%ADD26R,0.0276X0.0394*%
%ADD27R,0.0870X0.0240*%
%ADD28R,0.0669X0.0984*%
%ADD29R,0.0551X0.1181*%
%ADD30R,0.0787X0.0394*%
%ADD31R,0.0472X0.0787*%
%ADD32OC8,0.0600*%
%ADD33R,0.0472X0.0512*%
%ADD34C,0.0295*%
%ADD35C,0.0681*%
%ADD36R,0.0748X0.0925*%
%ADD37R,0.1339X0.0591*%
%ADD38C,0.0079*%
%ADD39C,0.0197*%
%ADD40C,0.0337*%
%ADD41OC8,0.0376*%
%ADD42OC8,0.0500*%
%ADD43C,0.0394*%
%ADD44C,0.0472*%
%ADD45C,0.0315*%
%ADD46OC8,0.0337*%
%ADD47C,0.0100*%
%ADD48OC8,0.0473*%
%ADD49R,0.0376X0.0376*%
%ADD50C,0.0236*%
%ADD51C,0.0400*%
D10*
X020383Y010304D03*
X022785Y010304D03*
X022785Y014793D03*
X020383Y014793D03*
D11*
X008037Y020135D03*
D12*
X008037Y019135D03*
X007037Y019135D03*
X007037Y020135D03*
X006037Y020135D03*
X006037Y019135D03*
D13*
X008237Y018060D03*
X008985Y018060D03*
X008985Y017076D03*
X008237Y017076D03*
X006033Y016289D03*
X005285Y016289D03*
X005285Y015304D03*
X006033Y015304D03*
X006029Y014336D03*
X005281Y014336D03*
X004064Y014320D03*
X003316Y014320D03*
X003316Y015304D03*
X004064Y015304D03*
X004064Y016289D03*
X003316Y016289D03*
X003316Y013139D03*
X004064Y013139D03*
X004064Y011958D03*
X003316Y011958D03*
X009419Y010580D03*
X010167Y010580D03*
X015127Y013926D03*
X015875Y013926D03*
X015678Y016879D03*
X014930Y016879D03*
X014930Y017863D03*
X015678Y017863D03*
X015678Y018848D03*
X014930Y018848D03*
X016111Y021013D03*
X016859Y021013D03*
X016859Y021997D03*
X016111Y021997D03*
X015678Y023178D03*
X014930Y023178D03*
X011348Y018848D03*
X010600Y018848D03*
D14*
X010446Y019918D03*
X009946Y019918D03*
X009446Y019918D03*
X010946Y019918D03*
X011446Y019918D03*
X011946Y019918D03*
X012446Y019918D03*
X012946Y019918D03*
X013446Y019918D03*
X013946Y019918D03*
X013946Y023658D03*
X013446Y023668D03*
X012946Y023668D03*
X012446Y023668D03*
X011946Y023668D03*
X011446Y023668D03*
X010946Y023668D03*
X010446Y023668D03*
X009946Y023668D03*
X009446Y023668D03*
D15*
X008985Y016171D03*
X008611Y016171D03*
X008237Y016171D03*
X008237Y015226D03*
X008611Y015226D03*
X008985Y015226D03*
X006623Y012824D03*
X006249Y012824D03*
X005875Y012824D03*
X005875Y011879D03*
X006249Y011879D03*
X006623Y011879D03*
D16*
X008041Y014123D03*
X009182Y014123D03*
X013926Y014930D03*
X013926Y016072D03*
X016111Y010186D03*
X017253Y010186D03*
D17*
X017135Y012155D03*
X015442Y012155D03*
X009655Y012352D03*
X007962Y012352D03*
D18*
X012155Y015442D03*
X012155Y017135D03*
X019241Y018395D03*
X019241Y020088D03*
D19*
X018454Y017253D03*
X018454Y016505D03*
X022391Y018080D03*
X022391Y018828D03*
X022982Y017056D03*
X022982Y016308D03*
X023808Y015678D03*
X023808Y014930D03*
X010186Y015324D03*
X010186Y016072D03*
D20*
X016997Y014891D03*
X016997Y014517D03*
X016997Y014143D03*
X017942Y014143D03*
X017942Y014517D03*
X017942Y014891D03*
D21*
X013730Y013730D03*
X013730Y011367D03*
X011367Y011367D03*
X011367Y013730D03*
D22*
X012548Y012548D03*
D23*
X011269Y013119D03*
X013828Y013119D03*
D24*
X013100Y013828D03*
X013119Y011269D03*
D25*
X012155Y012155D03*
X012942Y012942D03*
X014517Y011171D03*
X010777Y014320D03*
X014123Y016879D03*
X014123Y017863D03*
X011859Y020816D03*
X013730Y021407D03*
X017667Y021997D03*
X020226Y013730D03*
X022785Y013730D03*
X004674Y014320D03*
X004674Y015304D03*
X004674Y016289D03*
D26*
X019651Y009359D03*
X020025Y009359D03*
X020399Y009359D03*
X020399Y008336D03*
X020025Y008336D03*
X019651Y008336D03*
D27*
X019983Y015932D03*
X019983Y016432D03*
X019983Y016932D03*
X019983Y017432D03*
X022043Y017432D03*
X022043Y016932D03*
X022043Y016432D03*
X022043Y015932D03*
D28*
X021210Y018454D03*
X021210Y020029D03*
D29*
X022096Y008966D03*
X022096Y007076D03*
D30*
X019409Y021604D03*
X018287Y021604D03*
D31*
X003966Y004674D03*
X005777Y004674D03*
X005580Y017667D03*
X003769Y017667D03*
D32*
X018052Y007068D03*
X018052Y006068D03*
X018052Y005068D03*
X018052Y004068D03*
X018052Y003068D03*
X019052Y003068D03*
X019052Y004068D03*
X019052Y005068D03*
X019052Y006068D03*
X019052Y007068D03*
D33*
X010193Y001249D03*
X009393Y001249D03*
D34*
X009240Y002046D02*
X009240Y002302D01*
X009240Y002046D02*
X009140Y002046D01*
X009140Y002302D01*
X009240Y002302D01*
X009740Y002302D02*
X009740Y002046D01*
X009640Y002046D01*
X009640Y002302D01*
X009740Y002302D01*
X010240Y002302D02*
X010240Y002046D01*
X010140Y002046D01*
X010140Y002302D01*
X010240Y002302D01*
X010740Y002302D02*
X010740Y002046D01*
X010640Y002046D01*
X010640Y002302D01*
X010740Y002302D01*
X011240Y002302D02*
X011240Y002046D01*
X011140Y002046D01*
X011140Y002302D01*
X011240Y002302D01*
X011740Y002302D02*
X011740Y002046D01*
X011640Y002046D01*
X011640Y002302D01*
X011740Y002302D01*
X012240Y002302D02*
X012240Y002046D01*
X012140Y002046D01*
X012140Y002302D01*
X012240Y002302D01*
X012740Y002302D02*
X012740Y002046D01*
X012640Y002046D01*
X012640Y002302D01*
X012740Y002302D01*
X013240Y002302D02*
X013240Y002046D01*
X013140Y002046D01*
X013140Y002302D01*
X013240Y002302D01*
X013740Y002302D02*
X013740Y002046D01*
X013640Y002046D01*
X013640Y002302D01*
X013740Y002302D01*
X014240Y002302D02*
X014240Y002046D01*
X014140Y002046D01*
X014140Y002302D01*
X014240Y002302D01*
X014740Y002302D02*
X014740Y002046D01*
X014640Y002046D01*
X014640Y002302D01*
X014740Y002302D01*
X015240Y002302D02*
X015240Y002046D01*
X015140Y002046D01*
X015140Y002302D01*
X015240Y002302D01*
X015740Y002302D02*
X015740Y002046D01*
X015640Y002046D01*
X015640Y002302D01*
X015740Y002302D01*
X016240Y002302D02*
X016240Y002046D01*
X016140Y002046D01*
X016140Y002302D01*
X016240Y002302D01*
X016140Y007834D02*
X016140Y008090D01*
X016240Y008090D01*
X016240Y007834D01*
X016140Y007834D01*
X015640Y007834D02*
X015640Y008090D01*
X015740Y008090D01*
X015740Y007834D01*
X015640Y007834D01*
X015140Y007834D02*
X015140Y008090D01*
X015240Y008090D01*
X015240Y007834D01*
X015140Y007834D01*
X014640Y007834D02*
X014640Y008090D01*
X014740Y008090D01*
X014740Y007834D01*
X014640Y007834D01*
X014140Y007834D02*
X014140Y008090D01*
X014240Y008090D01*
X014240Y007834D01*
X014140Y007834D01*
X013640Y007834D02*
X013640Y008090D01*
X013740Y008090D01*
X013740Y007834D01*
X013640Y007834D01*
X013140Y007834D02*
X013140Y008090D01*
X013240Y008090D01*
X013240Y007834D01*
X013140Y007834D01*
X012640Y007834D02*
X012640Y008090D01*
X012740Y008090D01*
X012740Y007834D01*
X012640Y007834D01*
X012140Y007834D02*
X012140Y008090D01*
X012240Y008090D01*
X012240Y007834D01*
X012140Y007834D01*
X011640Y007834D02*
X011640Y008090D01*
X011740Y008090D01*
X011740Y007834D01*
X011640Y007834D01*
X011140Y007834D02*
X011140Y008090D01*
X011240Y008090D01*
X011240Y007834D01*
X011140Y007834D01*
X010640Y007834D02*
X010640Y008090D01*
X010740Y008090D01*
X010740Y007834D01*
X010640Y007834D01*
X010140Y007834D02*
X010140Y008090D01*
X010240Y008090D01*
X010240Y007834D01*
X010140Y007834D01*
X009640Y007834D02*
X009640Y008090D01*
X009740Y008090D01*
X009740Y007834D01*
X009640Y007834D01*
X009140Y007834D02*
X009140Y008090D01*
X009240Y008090D01*
X009240Y007834D01*
X009140Y007834D01*
X008640Y007834D02*
X008640Y008090D01*
X008740Y008090D01*
X008740Y007834D01*
X008640Y007834D01*
X008140Y007834D02*
X008140Y008090D01*
X008240Y008090D01*
X008240Y007834D01*
X008140Y007834D01*
X007640Y007834D02*
X007640Y008090D01*
X007740Y008090D01*
X007740Y007834D01*
X007640Y007834D01*
X006987Y007018D02*
X006731Y007018D01*
X006731Y007118D01*
X006987Y007118D01*
X006987Y007018D01*
X006987Y006518D02*
X006731Y006518D01*
X006731Y006618D01*
X006987Y006618D01*
X006987Y006518D01*
X006987Y006018D02*
X006731Y006018D01*
X006731Y006118D01*
X006987Y006118D01*
X006987Y006018D01*
X006987Y005518D02*
X006731Y005518D01*
X006731Y005618D01*
X006987Y005618D01*
X006987Y005518D01*
X007740Y002302D02*
X007740Y002046D01*
X007640Y002046D01*
X007640Y002302D01*
X007740Y002302D01*
X008240Y002302D02*
X008240Y002046D01*
X008140Y002046D01*
X008140Y002302D01*
X008240Y002302D01*
X008740Y002302D02*
X008740Y002046D01*
X008640Y002046D01*
X008640Y002302D01*
X008740Y002302D01*
D35*
X003792Y006978D03*
D36*
X002769Y007913D03*
X002769Y006043D03*
X004816Y006043D03*
X004816Y007913D03*
D37*
X003792Y008080D03*
X003792Y005875D03*
D38*
X002903Y008611D02*
X007627Y008611D01*
X007824Y008415D01*
X008415Y008415D01*
X008690Y008139D01*
X008690Y007962D01*
X009104Y008048D02*
X009190Y007962D01*
X009190Y007419D01*
X008907Y007135D01*
X009694Y007332D02*
X009694Y007958D01*
X009690Y007962D01*
X008316Y008808D02*
X011859Y008808D01*
X012352Y009300D01*
X012647Y009300D01*
X012942Y008611D02*
X013190Y008363D01*
X013190Y007962D01*
X012690Y007962D02*
X012690Y007584D01*
X013139Y007135D01*
X012155Y006052D02*
X011190Y005088D01*
X011190Y002174D01*
X011663Y002202D02*
X011690Y002174D01*
X011663Y002202D02*
X011663Y004576D01*
X012190Y005005D02*
X012190Y002174D01*
X012690Y002174D02*
X012690Y001777D01*
X012844Y001623D01*
X016978Y001623D01*
X017568Y002214D01*
X018198Y002214D01*
X019052Y003068D01*
X018560Y004576D02*
X013237Y004576D01*
X012745Y005560D02*
X012190Y005005D01*
X012745Y005560D02*
X018545Y005560D01*
X019052Y006068D01*
X018552Y006545D02*
X014615Y006545D01*
X014123Y006052D01*
X012155Y006052D01*
X012942Y008611D02*
X008119Y008611D01*
X007922Y008808D01*
X003001Y008808D01*
X001426Y010383D01*
X001426Y016387D01*
X002509Y017470D01*
X002509Y018651D01*
X003690Y019832D01*
X003690Y020422D01*
X005167Y021899D01*
X005757Y021899D01*
X006052Y022194D01*
X008119Y022194D01*
X008611Y022686D01*
X008808Y022686D01*
X009104Y022982D01*
X009399Y022982D01*
X009446Y023029D01*
X009446Y023668D01*
X009946Y023668D02*
X009946Y024009D01*
X009793Y024163D01*
X009202Y024163D01*
X008907Y023867D01*
X008907Y023375D01*
X007922Y022391D01*
X005954Y022391D01*
X005659Y022096D01*
X005167Y022096D01*
X003493Y020422D01*
X003493Y019930D01*
X002312Y018749D01*
X002312Y017568D01*
X001230Y016485D01*
X001230Y010285D01*
X002903Y008611D01*
X003100Y009005D02*
X008119Y009005D01*
X008316Y008808D01*
X008611Y009202D02*
X003198Y009202D01*
X001820Y010580D01*
X001820Y016190D01*
X002903Y017273D01*
X002903Y018454D01*
X004084Y019635D01*
X004084Y020226D01*
X005363Y021505D01*
X005954Y021505D01*
X006249Y021800D01*
X008415Y021800D01*
X008907Y022293D01*
X009104Y022293D01*
X009399Y022588D01*
X010580Y022588D01*
X010946Y022954D01*
X010946Y023668D01*
X010446Y023668D02*
X010383Y023605D01*
X010383Y022982D01*
X010186Y022785D01*
X009202Y022785D01*
X008907Y022489D01*
X008710Y022489D01*
X008218Y021997D01*
X006151Y021997D01*
X005856Y021702D01*
X005265Y021702D01*
X003887Y020324D01*
X003887Y019734D01*
X002706Y018552D01*
X002706Y017371D01*
X001623Y016289D01*
X001623Y010482D01*
X003100Y009005D01*
X003100Y009596D02*
X002017Y010678D01*
X002017Y016092D01*
X003100Y017174D01*
X003100Y018356D01*
X004281Y019537D01*
X004281Y020127D01*
X005462Y021308D01*
X006052Y021308D01*
X006348Y021604D01*
X008611Y021604D01*
X009104Y022096D01*
X009734Y022096D01*
X009734Y022155D01*
X009891Y021407D02*
X010875Y022391D01*
X012548Y022391D01*
X012942Y022785D01*
X012942Y023664D01*
X012946Y023668D01*
X012627Y024045D02*
X012446Y023863D01*
X012446Y023668D01*
X012430Y023684D01*
X012627Y024045D02*
X013336Y024045D01*
X013446Y023934D01*
X013446Y023668D01*
X013446Y022895D01*
X012745Y022194D01*
X010974Y022194D01*
X009989Y021210D01*
X006545Y021210D01*
X006249Y020915D01*
X005659Y020915D01*
X004674Y019930D01*
X004674Y016289D01*
X004871Y016879D02*
X005442Y016879D01*
X006033Y016289D01*
X005856Y016879D02*
X006446Y016879D01*
X007037Y016289D01*
X008237Y016171D02*
X008237Y017076D01*
X008985Y017076D02*
X008985Y018060D01*
X008985Y018237D01*
X010186Y019438D01*
X010777Y019438D01*
X010974Y019635D01*
X010974Y019891D01*
X010946Y019918D01*
X010446Y019918D02*
X010446Y020359D01*
X010186Y020619D01*
X007521Y020619D01*
X007037Y020135D01*
X006718Y020816D02*
X006037Y020135D01*
X005659Y019635D02*
X005068Y019045D01*
X005068Y017076D01*
X005659Y017076D01*
X005856Y016879D01*
X005580Y017667D02*
X007037Y019123D01*
X007037Y019135D01*
X007521Y018651D01*
X008415Y018651D01*
X009446Y019682D01*
X009446Y019918D01*
X009946Y019918D02*
X009946Y020072D01*
X009596Y020422D01*
X008324Y020422D01*
X008037Y020135D01*
X008037Y020045D01*
X007627Y019635D01*
X005659Y019635D01*
X004871Y019832D02*
X004871Y016879D01*
X003316Y016289D02*
X003316Y018277D01*
X004478Y019438D01*
X004478Y020029D01*
X005560Y021111D01*
X006151Y021111D01*
X006446Y021407D01*
X009891Y021407D01*
X010088Y021013D02*
X006643Y021013D01*
X006348Y020718D01*
X005757Y020718D01*
X004871Y019832D01*
X006718Y020816D02*
X010285Y020816D01*
X011269Y021800D01*
X012548Y021800D01*
X013946Y020403D01*
X013946Y019918D01*
X014032Y019832D01*
X014694Y019832D01*
X015678Y018848D01*
X014930Y018100D01*
X014930Y017863D01*
X014123Y017863D02*
X014123Y018848D01*
X013446Y019525D01*
X013446Y019918D01*
X012946Y019918D02*
X012942Y019922D01*
X012942Y020619D01*
X012446Y020919D02*
X011859Y021505D01*
X011466Y021505D01*
X011072Y021997D02*
X012942Y021997D01*
X013926Y022982D01*
X013926Y023639D01*
X013946Y023658D01*
X013446Y023668D02*
X013336Y023778D01*
X011072Y021997D02*
X010088Y021013D01*
X011446Y019918D02*
X011446Y019694D01*
X010600Y018848D01*
X010600Y018474D01*
X010186Y018060D01*
X011348Y018848D02*
X011946Y019446D01*
X011946Y019918D01*
X011946Y019844D01*
X012352Y019438D01*
X013139Y019438D01*
X014123Y018454D01*
X014123Y017863D01*
X012446Y019918D02*
X012446Y020919D01*
X014517Y020619D02*
X014911Y021013D01*
X016111Y021013D01*
X016111Y021997D01*
X016859Y021997D02*
X017667Y021997D01*
X016859Y021013D02*
X016859Y015974D01*
X017942Y014891D01*
X019045Y015895D02*
X019045Y015915D01*
X019027Y015932D01*
X019983Y015932D01*
X019983Y016432D02*
X019275Y016432D01*
X018454Y017253D01*
X018454Y016505D02*
X019027Y015932D01*
X022043Y015932D02*
X022297Y015678D01*
X023808Y015678D01*
X023572Y015915D01*
X023572Y017273D01*
X023178Y017667D01*
X022804Y017667D01*
X022391Y018080D01*
X022391Y018828D02*
X021978Y019241D01*
X020088Y019241D01*
X019241Y020088D01*
X022043Y016932D02*
X022858Y016932D01*
X022982Y017056D01*
X022858Y016432D02*
X022982Y016308D01*
X022858Y016432D02*
X022043Y016432D01*
X022922Y014930D02*
X023808Y014930D01*
X022922Y014930D02*
X022785Y014793D01*
X023966Y011367D02*
X020029Y011367D01*
X019651Y010989D01*
X019651Y009359D01*
X019052Y007068D02*
X019052Y007045D01*
X018552Y006545D01*
X019052Y005068D02*
X018560Y004576D01*
X016190Y001328D02*
X011072Y001328D01*
X010690Y001710D01*
X010690Y002174D01*
X010875Y009399D02*
X010678Y009596D01*
X003100Y009596D01*
X003316Y011958D02*
X003316Y012548D01*
X004674Y012548D01*
X005462Y013336D01*
X006643Y013336D01*
X007037Y013730D01*
X007037Y014123D01*
X005875Y012824D02*
X005009Y011958D01*
X004064Y011958D01*
X003316Y012548D02*
X003316Y013139D01*
D39*
X004064Y013139D02*
X004064Y014320D01*
X003316Y014320D02*
X003316Y015304D01*
X003493Y015797D02*
X003887Y015797D01*
X004064Y015619D01*
X004064Y015304D01*
X003493Y015797D02*
X003316Y015974D01*
X003316Y016289D01*
X004064Y016289D02*
X004064Y017371D01*
X003769Y017667D01*
X005560Y015797D02*
X005285Y015521D01*
X005285Y015304D01*
X005560Y015797D02*
X005954Y015797D01*
X006052Y015895D01*
X006052Y016269D01*
X006033Y016289D01*
X006029Y015300D02*
X006029Y014336D01*
X007430Y018060D02*
X008237Y018060D01*
X011446Y019918D02*
X011466Y019938D01*
X011466Y020718D01*
X011564Y020816D01*
X011859Y020816D01*
X013730Y021407D02*
X013730Y021978D01*
X014930Y023178D01*
X014930Y023592D01*
X015108Y023769D01*
X016289Y023769D01*
X017273Y022785D01*
X018228Y022785D01*
X019409Y021604D01*
X019409Y020255D01*
X019241Y020088D01*
X018907Y020088D01*
X017667Y018848D01*
X017667Y016092D01*
X018454Y015304D01*
X018454Y013730D01*
X018257Y013533D01*
X018257Y010186D01*
X017667Y009596D01*
X019045Y008942D02*
X019505Y008482D01*
X019045Y008942D02*
X019045Y015108D01*
X019438Y015501D01*
X020619Y015501D01*
X021111Y015993D01*
X021111Y016190D01*
X021354Y016432D01*
X022043Y016432D01*
X021210Y020029D02*
X021210Y020422D01*
X020619Y021013D01*
X018287Y021604D02*
X018060Y021604D01*
X017667Y021997D01*
X016859Y021997D02*
X016859Y022411D01*
X016092Y023178D01*
X015678Y023178D01*
X015108Y023769D02*
X014517Y024359D01*
X012155Y024359D01*
X011946Y024151D01*
X011946Y023668D01*
X011446Y023668D02*
X011367Y023589D01*
X011367Y022785D01*
X013946Y019918D02*
X013926Y019899D01*
X014930Y018848D02*
X014123Y018041D01*
X014123Y017863D01*
X015678Y017863D02*
X015678Y016879D01*
X017667Y008119D02*
X018749Y008119D01*
X020127Y006741D01*
X020127Y005363D01*
X019340Y004576D01*
X018848Y004576D01*
X018060Y003789D01*
X018060Y003001D01*
X018060Y003789D02*
X018060Y004060D01*
X018052Y004068D01*
X018052Y005068D02*
X012942Y005068D01*
X012647Y004773D01*
X012647Y003493D01*
X013041Y003100D01*
X015698Y003100D01*
X016190Y002608D01*
X016190Y002174D01*
X014025Y006545D02*
X010482Y006545D01*
X009190Y005253D01*
X009190Y002174D01*
X009202Y002163D01*
X009202Y001722D01*
X009989Y001722D01*
X010186Y001525D01*
X010186Y001256D01*
X010193Y001249D01*
X009393Y001249D02*
X008981Y001249D01*
X008607Y001623D01*
X007529Y001623D01*
X005068Y004084D01*
X005068Y005659D01*
X005159Y005568D01*
X005068Y005659D02*
X005068Y005806D01*
X005039Y005836D01*
X004816Y006043D01*
X005039Y005836D02*
X003792Y005875D01*
X004015Y006003D01*
X002769Y006043D01*
X003159Y005482D01*
X003966Y004674D01*
X005777Y004674D02*
X006446Y004674D01*
X007690Y003430D01*
X008690Y002430D01*
X008690Y002174D01*
X007690Y002174D02*
X007690Y003430D01*
X006852Y005560D02*
X006859Y005568D01*
X007210Y006568D02*
X007552Y006568D01*
X008218Y007234D01*
X008218Y007934D01*
X008190Y007962D01*
X004816Y007913D02*
X004350Y007873D01*
X003792Y008080D01*
X003326Y008041D01*
X002769Y007913D01*
X014025Y006545D02*
X014517Y007037D01*
X016584Y007037D01*
X017667Y008119D01*
D40*
X013139Y007135D03*
X012647Y009300D03*
X010875Y009399D03*
X009694Y007332D03*
X008907Y007135D03*
X008611Y009202D03*
X011663Y004576D03*
X013237Y004576D03*
X016190Y001328D03*
X007037Y014123D03*
X007037Y016289D03*
X009734Y022155D03*
D41*
X011367Y022785D03*
X012942Y020619D03*
X014517Y020619D03*
X010186Y018060D03*
X017667Y009596D03*
X019045Y015895D03*
X020619Y021013D03*
D42*
X012352Y014517D03*
X011761Y014517D03*
X010777Y012548D03*
X010777Y011958D03*
X014320Y011958D03*
X014320Y012548D03*
X007726Y006052D03*
D43*
X009419Y010580D02*
X009419Y012115D01*
X009655Y012352D01*
X010167Y010580D02*
X010383Y010580D01*
X010974Y010580D01*
X011564Y011171D01*
X011367Y011171D01*
X011367Y011367D01*
X011564Y011171D02*
X012982Y011171D01*
X013533Y010186D02*
X016111Y010186D01*
X014320Y011958D02*
X013926Y011958D01*
X013533Y012352D01*
X013730Y012548D02*
X014320Y011958D01*
X014320Y012548D01*
X013730Y012548D01*
X012548Y012548D01*
X012352Y012548D01*
X011958Y012942D01*
X011958Y014517D01*
X012352Y014517D01*
X012352Y012548D01*
X013730Y013730D02*
X013926Y013926D01*
X013926Y014714D01*
X013926Y014930D01*
X013926Y016072D02*
X012863Y017135D01*
X012155Y017135D01*
X011525Y016072D02*
X012155Y015442D01*
X011525Y016072D02*
X010186Y016072D01*
X011761Y014517D02*
X011958Y014517D01*
X015304Y012352D02*
X015304Y012293D01*
X015442Y012155D01*
X015442Y013139D01*
X015521Y012568D02*
X015304Y012352D01*
X016997Y012293D02*
X016997Y014143D01*
X017942Y014143D01*
X016997Y012293D02*
X017135Y012155D01*
X020226Y013730D02*
X020422Y013926D01*
X020422Y014714D01*
X020383Y014793D02*
X022785Y014793D01*
X022785Y014123D01*
X023966Y012942D01*
X023966Y011367D01*
X023966Y009793D01*
X023139Y008966D01*
X022096Y008966D01*
X022785Y010304D02*
X020383Y010304D01*
X020383Y009934D01*
X020399Y009359D02*
X020399Y009104D01*
X020399Y008336D01*
X022785Y013730D02*
X022785Y014123D01*
D44*
X012155Y012155D02*
X011761Y012548D01*
X010777Y012548D01*
X010777Y012155D01*
X012155Y012155D01*
X010777Y012155D02*
X010777Y011958D01*
D45*
X009655Y012352D02*
X009655Y013001D01*
X009793Y013139D01*
X011249Y013139D01*
X011269Y013119D01*
X011367Y013730D02*
X010777Y014320D01*
X010186Y015127D02*
X009182Y014123D01*
X008828Y013769D01*
X008808Y013769D01*
X008808Y009989D01*
X009989Y009989D01*
X010383Y010383D01*
X010383Y010580D01*
X007962Y012352D02*
X006623Y012352D01*
X006623Y011879D01*
X006623Y012352D02*
X006623Y012548D01*
X006623Y012824D01*
X005875Y011879D02*
X005167Y011171D01*
X003100Y011171D01*
X002706Y011564D01*
X002706Y013710D01*
X003316Y014320D01*
X004064Y014320D02*
X004674Y014320D01*
X004674Y016289D01*
X005285Y016289D01*
X004674Y016289D02*
X004064Y016289D01*
X004674Y014320D02*
X005265Y014320D01*
X005281Y014336D01*
X006029Y014336D02*
X006919Y015226D01*
X008237Y015226D01*
X008985Y015226D02*
X008985Y016171D01*
X009281Y016171D01*
X010186Y017076D01*
X012096Y017076D01*
X012155Y017135D01*
X012155Y015442D02*
X012214Y015383D01*
X013139Y015383D01*
X013139Y013867D01*
X013100Y013828D01*
X013828Y013119D02*
X015108Y013119D01*
X015127Y013139D01*
X015127Y012470D01*
X015442Y012155D01*
X015127Y013139D02*
X015127Y013926D01*
X015875Y013926D02*
X015875Y014320D01*
X015482Y014714D01*
X013926Y014714D01*
X013139Y015383D02*
X013139Y015501D01*
X014123Y016879D02*
X014123Y017863D01*
X014123Y016879D02*
X014930Y016879D01*
X015678Y016879D02*
X015678Y015521D01*
X016092Y015108D01*
X016781Y015108D01*
X016997Y014891D01*
X015875Y013926D02*
X016269Y013533D01*
X016269Y010344D01*
X016111Y010186D01*
X017293Y009005D01*
X018982Y009005D01*
X019505Y008482D01*
X019651Y008336D01*
X019651Y007907D01*
X020482Y007076D01*
X022096Y007076D01*
X020399Y009104D02*
X020383Y009119D01*
X020383Y009934D01*
X017253Y010186D02*
X017253Y011879D01*
X017056Y012076D01*
X017135Y012155D01*
X016111Y010186D02*
X015501Y010186D01*
X014517Y011171D02*
X013926Y011171D01*
X013730Y011367D01*
X013119Y011269D02*
X013119Y010600D01*
X013533Y010186D01*
X010186Y015127D02*
X010186Y015324D01*
X008041Y014123D02*
X007962Y014045D01*
X007962Y012352D01*
X006029Y015300D02*
X006033Y015304D01*
X006859Y006568D02*
X007210Y006568D01*
X007726Y006052D01*
X007241Y005568D01*
X006859Y005568D01*
X019241Y017273D02*
X019582Y016932D01*
X019983Y016932D01*
X019983Y017432D02*
X022043Y017432D01*
X022043Y016932D01*
X021151Y018395D02*
X021210Y018454D01*
X021151Y018395D02*
X019241Y018395D01*
X019241Y017273D01*
D46*
X011466Y021505D03*
X007430Y018060D03*
D47*
X004816Y007913D02*
X004336Y007390D01*
X005110Y007390D01*
X005090Y006550D02*
X004316Y006550D01*
X004816Y006043D01*
X005090Y006550D02*
X005124Y006553D01*
X005158Y006554D01*
X005191Y006550D01*
X005224Y006543D01*
X005256Y006533D01*
X005287Y006520D01*
X005317Y006503D01*
X005344Y006483D01*
X005370Y006461D01*
X005392Y006436D01*
X005413Y006409D01*
X005430Y006380D01*
X006210Y006750D02*
X006182Y006809D01*
X006151Y006865D01*
X006116Y006920D01*
X006078Y006973D01*
X006037Y007023D01*
X005993Y007071D01*
X005947Y007116D01*
X005898Y007158D01*
X005846Y007197D01*
X005792Y007233D01*
X005736Y007265D01*
X005678Y007294D01*
X005619Y007320D01*
X005558Y007342D01*
X005496Y007360D01*
X005432Y007375D01*
X005369Y007386D01*
X005304Y007393D01*
X005239Y007396D01*
X005175Y007395D01*
X005110Y007390D01*
X004310Y007411D02*
X004276Y007449D01*
X004240Y007484D01*
X004201Y007516D01*
X004159Y007546D01*
X004116Y007572D01*
X004070Y007595D01*
X004023Y007615D01*
X003975Y007631D01*
X003926Y007643D01*
X003875Y007652D01*
X003825Y007657D01*
X003774Y007658D01*
X003723Y007655D01*
X003673Y007649D01*
X003623Y007638D01*
X003574Y007624D01*
X003526Y007607D01*
X003480Y007586D01*
X003435Y007561D01*
X003393Y007534D01*
X003352Y007503D01*
X003314Y007469D01*
X003279Y007432D01*
X003246Y007393D01*
X003216Y007352D01*
X003190Y007308D01*
X003167Y007263D01*
X003147Y007216D01*
X003131Y007168D01*
X003119Y007119D01*
X003110Y007068D01*
X003105Y007018D01*
X003104Y006967D01*
X003107Y006916D01*
X003113Y006866D01*
X003123Y006816D01*
X003137Y006767D01*
X003155Y006719D01*
X003176Y006673D01*
X003200Y006628D01*
X003228Y006585D01*
X003259Y006545D01*
X003292Y006507D01*
X003329Y006471D01*
X003368Y006439D01*
X003409Y006409D01*
X003453Y006383D01*
X003498Y006359D01*
X003545Y006340D01*
X003593Y006324D01*
X003643Y006311D01*
X003693Y006302D01*
X003743Y006297D01*
X003794Y006296D01*
X003845Y006299D01*
X003896Y006305D01*
X003945Y006315D01*
X003994Y006329D01*
X004042Y006346D01*
X004089Y006367D01*
X004133Y006392D01*
X004176Y006419D01*
X004216Y006450D01*
X004255Y006484D01*
X004290Y006520D01*
X005430Y006380D02*
X005464Y006319D01*
X005501Y006259D01*
X005541Y006202D01*
X005584Y006146D01*
X005631Y006094D01*
X005680Y006044D01*
X005732Y005996D01*
X005786Y005952D01*
X005843Y005911D01*
X005902Y005873D01*
X005963Y005838D01*
X006025Y005806D01*
X006090Y005779D01*
X006156Y005754D01*
X006223Y005734D01*
X006291Y005717D01*
X006360Y005704D01*
X006429Y005695D01*
X006499Y005689D01*
X006570Y005688D01*
X006640Y005690D01*
X006730Y005540D01*
X006690Y006480D02*
X006648Y006478D01*
X006606Y006480D01*
X006565Y006485D01*
X006524Y006494D01*
X006484Y006506D01*
X006445Y006522D01*
X006408Y006541D01*
X006373Y006563D01*
X006339Y006588D01*
X006308Y006615D01*
X006279Y006646D01*
X006253Y006678D01*
X006230Y006713D01*
X006210Y006750D01*
D48*
X011810Y012540D03*
X012540Y011820D03*
X013270Y012530D03*
X012540Y013290D03*
D49*
X017667Y008119D03*
D50*
X020025Y008336D02*
X020399Y008336D01*
X020025Y008336D02*
X020025Y009359D01*
X017942Y014143D02*
X017942Y014517D01*
X016997Y014517D02*
X016997Y014143D01*
X008985Y015226D02*
X008611Y015226D01*
X008611Y016171D02*
X008985Y016171D01*
X006623Y012824D02*
X006249Y012824D01*
X006249Y011879D02*
X006623Y011879D01*
D51*
X005811Y006560D02*
X005842Y006508D01*
X005876Y006458D01*
X005913Y006410D01*
X005954Y006364D01*
X005997Y006321D01*
X006042Y006281D01*
X006090Y006243D01*
X006140Y006209D01*
X006193Y006178D01*
X006247Y006150D01*
X006303Y006125D01*
X006360Y006105D01*
X006418Y006087D01*
X006477Y006074D01*
X006537Y006064D01*
X006598Y006057D01*
X006659Y006055D01*
X006720Y006056D01*
X006780Y006062D01*
X006840Y006071D01*
X005810Y006560D02*
X005783Y006606D01*
X005753Y006651D01*
X005720Y006693D01*
X005685Y006733D01*
X005647Y006770D01*
X005606Y006805D01*
X005563Y006837D01*
X005518Y006866D01*
X005471Y006892D01*
X005423Y006915D01*
X005373Y006934D01*
X005322Y006951D01*
X005270Y006963D01*
X005217Y006972D01*
X005164Y006978D01*
X005111Y006980D01*
X005110Y006980D02*
X003792Y006978D01*
M02*
