G75*
G70*
%OFA0B0*%
%FSLAX24Y24*%
%IPPOS*%
%LPD*%
%AMOC8*
5,1,8,0,0,1.08239X$1,22.5*
%
%ADD10C,0.0160*%
%ADD11C,0.0040*%
%ADD12C,0.0000*%
%ADD13C,0.0080*%
D10*
X000180Y012548D02*
X000195Y013155D01*
X000240Y013760D01*
X000314Y014363D01*
X000418Y014961D01*
X000551Y015553D01*
X000713Y016138D01*
X000903Y016715D01*
X001121Y017281D01*
X001367Y017836D01*
X001640Y018378D01*
X001940Y018906D01*
X002264Y019419D01*
X002614Y019916D01*
X002987Y020394D01*
X003384Y020854D01*
X003803Y021293D01*
X004242Y021712D01*
X004702Y022109D01*
X005180Y022482D01*
X005677Y022832D01*
X006190Y023156D01*
X006718Y023456D01*
X007260Y023729D01*
X007815Y023975D01*
X008381Y024193D01*
X008958Y024383D01*
X009543Y024545D01*
X010135Y024678D01*
X010733Y024782D01*
X011336Y024856D01*
X011941Y024901D01*
X012548Y024916D01*
X013155Y024901D01*
X013760Y024856D01*
X014363Y024782D01*
X014961Y024678D01*
X015553Y024545D01*
X016138Y024383D01*
X016715Y024193D01*
X017281Y023975D01*
X017836Y023729D01*
X018378Y023456D01*
X018906Y023156D01*
X019419Y022832D01*
X019916Y022482D01*
X020394Y022109D01*
X020854Y021712D01*
X021293Y021293D01*
X021712Y020854D01*
X022109Y020394D01*
X022482Y019916D01*
X022832Y019419D01*
X023156Y018906D01*
X023456Y018378D01*
X023729Y017836D01*
X023975Y017281D01*
X024193Y016715D01*
X024383Y016138D01*
X024545Y015553D01*
X024678Y014961D01*
X024782Y014363D01*
X024856Y013760D01*
X024901Y013155D01*
X024916Y012548D01*
X024901Y011941D01*
X024856Y011336D01*
X024782Y010733D01*
X024678Y010135D01*
X024545Y009543D01*
X024383Y008958D01*
X024193Y008381D01*
X023975Y007815D01*
X023729Y007260D01*
X023456Y006718D01*
X023156Y006190D01*
X022832Y005677D01*
X022482Y005180D01*
X022109Y004702D01*
X021712Y004242D01*
X021293Y003803D01*
X020854Y003384D01*
X020394Y002987D01*
X019916Y002614D01*
X019419Y002264D01*
X018906Y001940D01*
X018378Y001640D01*
X017836Y001367D01*
X017281Y001121D01*
X016715Y000903D01*
X016138Y000713D01*
X015553Y000551D01*
X014961Y000418D01*
X014363Y000314D01*
X013760Y000240D01*
X013155Y000195D01*
X012548Y000180D01*
X011941Y000195D01*
X011336Y000240D01*
X010733Y000314D01*
X010135Y000418D01*
X009543Y000551D01*
X008958Y000713D01*
X008381Y000903D01*
X007815Y001121D01*
X007260Y001367D01*
X006718Y001640D01*
X006190Y001940D01*
X005677Y002264D01*
X005180Y002614D01*
X004702Y002987D01*
X004242Y003384D01*
X003803Y003803D01*
X003384Y004242D01*
X002987Y004702D01*
X002614Y005180D01*
X002264Y005677D01*
X001940Y006190D01*
X001640Y006718D01*
X001367Y007260D01*
X001121Y007815D01*
X000903Y008381D01*
X000713Y008958D01*
X000551Y009543D01*
X000418Y010135D01*
X000314Y010733D01*
X000240Y011336D01*
X000195Y011941D01*
X000180Y012548D01*
D11*
X007876Y006216D02*
X008030Y006216D01*
X008106Y006293D01*
X008106Y006446D01*
X008030Y006523D01*
X007876Y006523D01*
X007799Y006446D01*
X007799Y006370D01*
X008106Y006370D01*
X008260Y006523D02*
X008337Y006523D01*
X008490Y006370D01*
X008490Y006523D02*
X008490Y006216D01*
X008643Y006216D02*
X008643Y006446D01*
X008720Y006523D01*
X008874Y006523D01*
X008874Y006370D02*
X008643Y006370D01*
X008643Y006216D02*
X008874Y006216D01*
X008950Y006293D01*
X008874Y006370D01*
X009104Y006293D02*
X009181Y006216D01*
X009257Y006293D01*
X009334Y006216D01*
X009411Y006293D01*
X009411Y006523D01*
X009564Y006523D02*
X009794Y006523D01*
X009871Y006446D01*
X009871Y006293D01*
X009794Y006216D01*
X009564Y006216D01*
X009564Y006677D01*
X010025Y006523D02*
X010101Y006523D01*
X010255Y006370D01*
X010255Y006523D02*
X010255Y006216D01*
X010408Y006216D02*
X010408Y006446D01*
X010485Y006523D01*
X010639Y006523D01*
X010639Y006370D02*
X010408Y006370D01*
X010408Y006216D02*
X010639Y006216D01*
X010715Y006293D01*
X010639Y006370D01*
X010869Y006446D02*
X011176Y006446D01*
X011176Y006216D02*
X011176Y006677D01*
X010869Y006677D02*
X010869Y006216D01*
X010984Y005889D02*
X011137Y005889D01*
X011214Y005812D01*
X011214Y005736D01*
X011137Y005659D01*
X010984Y005659D01*
X010907Y005582D01*
X010907Y005505D01*
X010984Y005429D01*
X011137Y005429D01*
X011214Y005505D01*
X011367Y005659D02*
X011674Y005659D01*
X011828Y005812D02*
X011828Y005889D01*
X011828Y005812D02*
X011981Y005659D01*
X011981Y005429D01*
X011981Y005659D02*
X012135Y005812D01*
X012135Y005889D01*
X012288Y005812D02*
X012288Y005736D01*
X012365Y005659D01*
X012595Y005659D01*
X012749Y005659D02*
X013056Y005659D01*
X013209Y005812D02*
X013286Y005889D01*
X013439Y005889D01*
X013516Y005812D01*
X013516Y005505D01*
X013439Y005429D01*
X013286Y005429D01*
X013209Y005505D01*
X013669Y005505D02*
X013746Y005429D01*
X013900Y005429D01*
X013976Y005505D01*
X013976Y005812D01*
X013900Y005889D01*
X013746Y005889D01*
X013669Y005812D01*
X013631Y006216D02*
X013554Y006293D01*
X013554Y006446D01*
X013631Y006523D01*
X013785Y006523D01*
X013861Y006446D01*
X013861Y006293D01*
X013785Y006216D01*
X013631Y006216D01*
X013401Y006293D02*
X013324Y006216D01*
X013094Y006216D01*
X013094Y006523D01*
X012940Y006523D02*
X012940Y006216D01*
X012940Y006370D02*
X012787Y006523D01*
X012710Y006523D01*
X012557Y006446D02*
X012557Y006293D01*
X012480Y006216D01*
X012250Y006216D01*
X012096Y006293D02*
X012096Y006446D01*
X012020Y006523D01*
X011866Y006523D01*
X011789Y006446D01*
X011789Y006370D01*
X012096Y006370D01*
X012096Y006293D02*
X012020Y006216D01*
X011866Y006216D01*
X012250Y006523D02*
X012480Y006523D01*
X012557Y006446D01*
X012595Y005889D02*
X012365Y005889D01*
X012288Y005812D01*
X012365Y005659D02*
X012288Y005582D01*
X012288Y005505D01*
X012365Y005429D01*
X012595Y005429D01*
X012595Y005889D01*
X013401Y006293D02*
X013401Y006523D01*
X014015Y006600D02*
X014091Y006677D01*
X014245Y006677D01*
X014322Y006600D01*
X014322Y006523D01*
X014245Y006446D01*
X014091Y006446D01*
X014015Y006370D01*
X014015Y006293D01*
X014091Y006216D01*
X014245Y006216D01*
X014322Y006293D01*
X014475Y006446D02*
X014782Y006446D01*
X014936Y006446D02*
X014936Y006216D01*
X014936Y006446D02*
X015012Y006523D01*
X015242Y006523D01*
X015242Y006216D01*
X015396Y006370D02*
X015703Y006370D01*
X015703Y006446D02*
X015626Y006523D01*
X015473Y006523D01*
X015396Y006446D01*
X015396Y006370D01*
X015473Y006216D02*
X015626Y006216D01*
X015703Y006293D01*
X015703Y006446D01*
X015856Y006446D02*
X015856Y006293D01*
X015933Y006216D01*
X016163Y006216D01*
X016163Y006063D02*
X016163Y006523D01*
X015933Y006523D01*
X015856Y006446D01*
X016317Y006293D02*
X016393Y006216D01*
X016547Y006216D01*
X016624Y006293D01*
X016624Y006600D01*
X016547Y006677D01*
X016393Y006677D01*
X016317Y006600D01*
X016317Y006293D01*
X010984Y005889D02*
X010907Y005812D01*
X010754Y005736D02*
X010600Y005889D01*
X010447Y005736D01*
X010447Y005429D01*
X010447Y005659D02*
X010754Y005659D01*
X010754Y005736D02*
X010754Y005429D01*
X009104Y006293D02*
X009104Y006523D01*
D12*
X020585Y012548D02*
X020587Y012588D01*
X020593Y012627D01*
X020603Y012666D01*
X020616Y012703D01*
X020634Y012739D01*
X020655Y012773D01*
X020679Y012805D01*
X020706Y012834D01*
X020736Y012861D01*
X020768Y012884D01*
X020803Y012904D01*
X020839Y012920D01*
X020877Y012933D01*
X020916Y012942D01*
X020955Y012947D01*
X020995Y012948D01*
X021035Y012945D01*
X021074Y012938D01*
X021112Y012927D01*
X021150Y012913D01*
X021185Y012894D01*
X021218Y012873D01*
X021250Y012848D01*
X021278Y012820D01*
X021304Y012790D01*
X021326Y012757D01*
X021345Y012722D01*
X021361Y012685D01*
X021373Y012647D01*
X021381Y012608D01*
X021385Y012568D01*
X021385Y012528D01*
X021381Y012488D01*
X021373Y012449D01*
X021361Y012411D01*
X021345Y012374D01*
X021326Y012339D01*
X021304Y012306D01*
X021278Y012276D01*
X021250Y012248D01*
X021218Y012223D01*
X021185Y012202D01*
X021150Y012183D01*
X021112Y012169D01*
X021074Y012158D01*
X021035Y012151D01*
X020995Y012148D01*
X020955Y012149D01*
X020916Y012154D01*
X020877Y012163D01*
X020839Y012176D01*
X020803Y012192D01*
X020768Y012212D01*
X020736Y012235D01*
X020706Y012262D01*
X020679Y012291D01*
X020655Y012323D01*
X020634Y012357D01*
X020616Y012393D01*
X020603Y012430D01*
X020593Y012469D01*
X020587Y012508D01*
X020585Y012548D01*
X022385Y012548D02*
X022387Y012588D01*
X022393Y012627D01*
X022403Y012666D01*
X022416Y012703D01*
X022434Y012739D01*
X022455Y012773D01*
X022479Y012805D01*
X022506Y012834D01*
X022536Y012861D01*
X022568Y012884D01*
X022603Y012904D01*
X022639Y012920D01*
X022677Y012933D01*
X022716Y012942D01*
X022755Y012947D01*
X022795Y012948D01*
X022835Y012945D01*
X022874Y012938D01*
X022912Y012927D01*
X022950Y012913D01*
X022985Y012894D01*
X023018Y012873D01*
X023050Y012848D01*
X023078Y012820D01*
X023104Y012790D01*
X023126Y012757D01*
X023145Y012722D01*
X023161Y012685D01*
X023173Y012647D01*
X023181Y012608D01*
X023185Y012568D01*
X023185Y012528D01*
X023181Y012488D01*
X023173Y012449D01*
X023161Y012411D01*
X023145Y012374D01*
X023126Y012339D01*
X023104Y012306D01*
X023078Y012276D01*
X023050Y012248D01*
X023018Y012223D01*
X022985Y012202D01*
X022950Y012183D01*
X022912Y012169D01*
X022874Y012158D01*
X022835Y012151D01*
X022795Y012148D01*
X022755Y012149D01*
X022716Y012154D01*
X022677Y012163D01*
X022639Y012176D01*
X022603Y012192D01*
X022568Y012212D01*
X022536Y012235D01*
X022506Y012262D01*
X022479Y012291D01*
X022455Y012323D01*
X022434Y012357D01*
X022416Y012393D01*
X022403Y012430D01*
X022393Y012469D01*
X022387Y012508D01*
X022385Y012548D01*
X011957Y018454D02*
X011959Y018502D01*
X011965Y018550D01*
X011975Y018597D01*
X011988Y018643D01*
X012006Y018688D01*
X012026Y018732D01*
X012051Y018774D01*
X012079Y018813D01*
X012109Y018850D01*
X012143Y018884D01*
X012180Y018916D01*
X012218Y018945D01*
X012259Y018970D01*
X012302Y018992D01*
X012347Y019010D01*
X012393Y019024D01*
X012440Y019035D01*
X012488Y019042D01*
X012536Y019045D01*
X012584Y019044D01*
X012632Y019039D01*
X012680Y019030D01*
X012726Y019018D01*
X012771Y019001D01*
X012815Y018981D01*
X012857Y018958D01*
X012897Y018931D01*
X012935Y018901D01*
X012970Y018868D01*
X013002Y018832D01*
X013032Y018794D01*
X013058Y018753D01*
X013080Y018710D01*
X013100Y018666D01*
X013115Y018621D01*
X013127Y018574D01*
X013135Y018526D01*
X013139Y018478D01*
X013139Y018430D01*
X013135Y018382D01*
X013127Y018334D01*
X013115Y018287D01*
X013100Y018242D01*
X013080Y018198D01*
X013058Y018155D01*
X013032Y018114D01*
X013002Y018076D01*
X012970Y018040D01*
X012935Y018007D01*
X012897Y017977D01*
X012857Y017950D01*
X012815Y017927D01*
X012771Y017907D01*
X012726Y017890D01*
X012680Y017878D01*
X012632Y017869D01*
X012584Y017864D01*
X012536Y017863D01*
X012488Y017866D01*
X012440Y017873D01*
X012393Y017884D01*
X012347Y017898D01*
X012302Y017916D01*
X012259Y017938D01*
X012218Y017963D01*
X012180Y017992D01*
X012143Y018024D01*
X012109Y018058D01*
X012079Y018095D01*
X012051Y018134D01*
X012026Y018176D01*
X012006Y018220D01*
X011988Y018265D01*
X011975Y018311D01*
X011965Y018358D01*
X011959Y018406D01*
X011957Y018454D01*
D13*
X012119Y015828D02*
X012119Y015675D01*
X012119Y015368D02*
X012119Y014754D01*
X012272Y014754D02*
X011965Y014754D01*
X011658Y014907D02*
X011658Y015214D01*
X011505Y015368D01*
X011044Y015368D01*
X011044Y015675D02*
X011044Y014754D01*
X011505Y014754D01*
X011658Y014907D01*
X012119Y015368D02*
X012272Y015368D01*
X012579Y015214D02*
X012579Y014907D01*
X012733Y014754D01*
X013193Y014754D01*
X013193Y015675D01*
X013193Y015368D02*
X012733Y015368D01*
X012579Y015214D01*
X013500Y015368D02*
X013807Y015368D01*
X013653Y015521D02*
X013653Y014907D01*
X013500Y014754D01*
X014114Y014754D02*
X014267Y014754D01*
X014267Y014907D01*
X014114Y014907D01*
X014114Y014754D01*
X014574Y014907D02*
X014728Y014754D01*
X014881Y014907D01*
X015035Y014754D01*
X015188Y014907D01*
X015188Y015368D01*
X015495Y015368D02*
X015495Y014907D01*
X015648Y014754D01*
X015802Y014907D01*
X015955Y014754D01*
X016109Y014907D01*
X016109Y015368D01*
X016416Y015368D02*
X016416Y014907D01*
X016569Y014754D01*
X016723Y014907D01*
X016876Y014754D01*
X017030Y014907D01*
X017030Y015368D01*
X018257Y015214D02*
X018257Y014754D01*
X018257Y015214D02*
X018411Y015368D01*
X018871Y015368D01*
X018871Y014754D01*
X019178Y014907D02*
X019178Y015214D01*
X019332Y015368D01*
X019638Y015368D01*
X019792Y015214D01*
X019792Y014907D01*
X019638Y014754D01*
X019332Y014754D01*
X019178Y014907D01*
X014574Y014907D02*
X014574Y015368D01*
X010738Y015214D02*
X010738Y014907D01*
X010584Y014754D01*
X010277Y014754D01*
X009817Y014907D02*
X009663Y015061D01*
X009203Y015061D01*
X009203Y015214D02*
X009203Y014754D01*
X009663Y014754D01*
X009817Y014907D01*
X010124Y015061D02*
X010738Y015061D01*
X010738Y015214D02*
X010584Y015368D01*
X010277Y015368D01*
X010124Y015214D01*
X010124Y015061D01*
X009663Y015368D02*
X009356Y015368D01*
X009203Y015214D01*
X008896Y015214D02*
X008743Y015368D01*
X008282Y015368D01*
X008436Y015061D02*
X008743Y015061D01*
X008896Y015214D01*
X008896Y014754D02*
X008436Y014754D01*
X008282Y014907D01*
X008436Y015061D01*
X007975Y014907D02*
X007975Y014754D01*
X007822Y014754D01*
X007822Y014907D01*
X007975Y014907D01*
X007515Y014907D02*
X007361Y014754D01*
X006901Y014754D01*
X006594Y014907D02*
X006441Y014754D01*
X006134Y014754D01*
X005980Y014907D01*
X005980Y015214D01*
X006134Y015368D01*
X006441Y015368D01*
X006594Y015214D01*
X006594Y014907D01*
X006901Y015368D02*
X007361Y015368D01*
X007515Y015214D01*
X007515Y014907D01*
X005673Y014754D02*
X005673Y015368D01*
X005520Y015368D01*
X005366Y015214D01*
X005213Y015368D01*
X005059Y015214D01*
X005059Y014754D01*
X005366Y014754D02*
X005366Y015214D01*
X006070Y021840D02*
X006377Y021840D01*
X006224Y021840D02*
X006224Y022454D01*
X006377Y022454D01*
X006684Y022301D02*
X006684Y021840D01*
X006684Y022301D02*
X006837Y022454D01*
X007144Y022454D01*
X007298Y022301D01*
X007605Y022454D02*
X008065Y022454D01*
X008219Y022301D01*
X008219Y021994D01*
X008065Y021840D01*
X007605Y021840D01*
X007298Y021840D02*
X007298Y022761D01*
X008526Y022301D02*
X008526Y021994D01*
X008679Y021840D01*
X008986Y021840D01*
X009139Y021994D01*
X009139Y022301D01*
X008986Y022454D01*
X008679Y022454D01*
X008526Y022301D01*
X009446Y022301D02*
X009446Y021994D01*
X009600Y021840D01*
X009907Y021840D01*
X010060Y021994D01*
X010060Y022301D01*
X009907Y022454D01*
X009600Y022454D01*
X009446Y022301D01*
X010367Y021840D02*
X010981Y021840D01*
X010981Y022761D01*
X012209Y022454D02*
X012362Y022454D01*
X012669Y022147D01*
X012669Y021840D02*
X012669Y022454D01*
X012976Y022454D02*
X012976Y021840D01*
X013436Y021840D01*
X013590Y021994D01*
X013590Y022454D01*
X013897Y022301D02*
X014050Y022454D01*
X014357Y022454D01*
X014511Y022301D01*
X014511Y021994D01*
X014357Y021840D01*
X014050Y021840D01*
X013897Y021994D01*
X013897Y022301D01*
X014818Y022454D02*
X014818Y021687D01*
X014971Y021534D01*
X015125Y021534D01*
X015278Y021840D02*
X014818Y021840D01*
X015278Y021840D02*
X015431Y021994D01*
X015431Y022454D01*
X016659Y022454D02*
X016966Y022454D01*
X016813Y022608D02*
X016813Y021994D01*
X016659Y021840D01*
X017273Y022147D02*
X017887Y022147D01*
X017887Y021994D02*
X017887Y022301D01*
X017733Y022454D01*
X017427Y022454D01*
X017273Y022301D01*
X017273Y022147D01*
X017427Y021840D02*
X017733Y021840D01*
X017887Y021994D01*
X018194Y021994D02*
X018194Y022301D01*
X018501Y022301D01*
X018808Y022608D02*
X018808Y021994D01*
X018654Y021840D01*
X018347Y021840D01*
X018194Y021994D01*
X018194Y022608D02*
X018347Y022761D01*
X018654Y022761D01*
X018808Y022608D01*
X006224Y022761D02*
X006224Y022915D01*
M02*
