G75*
G70*
%OFA0B0*%
%FSLAX24Y24*%
%IPPOS*%
%LPD*%
%AMOC8*
5,1,8,0,0,1.08239X$1,22.5*
%
%ADD10C,0.1261*%
%ADD11R,0.1182X0.1025*%
%ADD12C,0.0880*%
%ADD13R,0.0820X0.0820*%
%ADD14OC8,0.0820*%
%ADD15R,0.0592X0.0671*%
%ADD16R,0.0380X0.0530*%
%ADD17R,0.0297X0.0395*%
%ADD18R,0.0552X0.0552*%
%ADD19R,0.0867X0.2442*%
%ADD20R,0.2442X0.0867*%
%ADD21R,0.0671X0.0592*%
%ADD22R,0.0395X0.0297*%
%ADD23R,0.0671X0.0671*%
%ADD24C,0.2049*%
%ADD25R,0.0474X0.0552*%
%ADD26R,0.0552X0.0474*%
%ADD27OC8,0.0552*%
%ADD28R,0.0356X0.0474*%
%ADD29R,0.0950X0.0320*%
%ADD30R,0.0749X0.1064*%
%ADD31R,0.0631X0.1261*%
%ADD32R,0.0867X0.0474*%
%ADD33R,0.0552X0.0867*%
%ADD34OC8,0.0680*%
%ADD35R,0.0552X0.0592*%
%ADD36C,0.0355*%
%ADD37C,0.0761*%
%ADD38R,0.0828X0.1005*%
%ADD39R,0.1419X0.0671*%
%ADD40C,0.0417*%
%ADD41OC8,0.0456*%
%ADD42OC8,0.0580*%
%ADD43OC8,0.0417*%
%ADD44OC8,0.0553*%
%ADD45R,0.0456X0.0456*%
D10*
X012548Y018454D03*
D11*
X020383Y014793D03*
X022785Y014793D03*
X022785Y010304D03*
X020383Y010304D03*
D12*
X020985Y012548D03*
X022785Y012548D03*
D13*
X008037Y020135D03*
D14*
X008037Y019135D03*
X007037Y019135D03*
X007037Y020135D03*
X006037Y020135D03*
X006037Y019135D03*
D15*
X008237Y018060D03*
X008985Y018060D03*
X008985Y017076D03*
X008237Y017076D03*
X006033Y016289D03*
X005285Y016289D03*
X005285Y015304D03*
X006033Y015304D03*
X006029Y014336D03*
X005281Y014336D03*
X004064Y014320D03*
X003316Y014320D03*
X003316Y015304D03*
X004064Y015304D03*
X004064Y016289D03*
X003316Y016289D03*
X003316Y013139D03*
X004064Y013139D03*
X004064Y011958D03*
X003316Y011958D03*
X009419Y010580D03*
X010167Y010580D03*
X015127Y013926D03*
X015875Y013926D03*
X015678Y016879D03*
X014930Y016879D03*
X014930Y017863D03*
X015678Y017863D03*
X015678Y018848D03*
X014930Y018848D03*
X016111Y021013D03*
X016859Y021013D03*
X016859Y021997D03*
X016111Y021997D03*
X015678Y023178D03*
X014930Y023178D03*
X011348Y018848D03*
X010600Y018848D03*
D16*
X010446Y019918D03*
X009946Y019918D03*
X009446Y019918D03*
X010946Y019918D03*
X011446Y019918D03*
X011946Y019918D03*
X012446Y019918D03*
X012946Y019918D03*
X013446Y019918D03*
X013946Y019918D03*
X013946Y023658D03*
X013446Y023668D03*
X012946Y023668D03*
X012446Y023668D03*
X011946Y023668D03*
X011446Y023668D03*
X010946Y023668D03*
X010446Y023668D03*
X009946Y023668D03*
X009446Y023668D03*
D17*
X008985Y016171D03*
X008611Y016171D03*
X008237Y016171D03*
X008237Y015226D03*
X008611Y015226D03*
X008985Y015226D03*
X006623Y012824D03*
X006249Y012824D03*
X005875Y012824D03*
X005875Y011879D03*
X006249Y011879D03*
X006623Y011879D03*
D18*
X008041Y014123D03*
X009182Y014123D03*
X013926Y014930D03*
X013926Y016072D03*
X016111Y010186D03*
X017253Y010186D03*
D19*
X017135Y012155D03*
X015442Y012155D03*
X009655Y012352D03*
X007962Y012352D03*
D20*
X012155Y015442D03*
X012155Y017135D03*
X019241Y018395D03*
X019241Y020088D03*
D21*
X018454Y017253D03*
X018454Y016505D03*
X022391Y018080D03*
X022391Y018828D03*
X022982Y017056D03*
X022982Y016308D03*
X023808Y015678D03*
X023808Y014930D03*
X010186Y015324D03*
X010186Y016072D03*
D22*
X016997Y014891D03*
X016997Y014517D03*
X016997Y014143D03*
X017942Y014143D03*
X017942Y014517D03*
X017942Y014891D03*
D23*
X013730Y013730D03*
X013730Y011367D03*
X011367Y011367D03*
X011367Y013730D03*
D24*
X012548Y012548D03*
D25*
X011269Y013119D03*
X013828Y013119D03*
D26*
X013100Y013828D03*
X013119Y011269D03*
D27*
X012155Y012155D03*
X012942Y012942D03*
X014517Y011171D03*
X010777Y014320D03*
X014123Y016879D03*
X014123Y017863D03*
X011859Y020816D03*
X013730Y021407D03*
X017667Y021997D03*
X020226Y013730D03*
X022785Y013730D03*
X004674Y014320D03*
X004674Y015304D03*
X004674Y016289D03*
D28*
X019651Y009359D03*
X020025Y009359D03*
X020399Y009359D03*
X020399Y008336D03*
X020025Y008336D03*
X019651Y008336D03*
D29*
X019983Y015932D03*
X019983Y016432D03*
X019983Y016932D03*
X019983Y017432D03*
X022043Y017432D03*
X022043Y016932D03*
X022043Y016432D03*
X022043Y015932D03*
D30*
X021210Y018454D03*
X021210Y020029D03*
D31*
X022096Y008966D03*
X022096Y007076D03*
D32*
X019409Y021604D03*
X018287Y021604D03*
D33*
X003966Y004674D03*
X005777Y004674D03*
X005580Y017667D03*
X003769Y017667D03*
D34*
X018052Y007068D03*
X018052Y006068D03*
X018052Y005068D03*
X018052Y004068D03*
X018052Y003068D03*
X019052Y003068D03*
X019052Y004068D03*
X019052Y005068D03*
X019052Y006068D03*
X019052Y007068D03*
D35*
X010193Y001249D03*
X009393Y001249D03*
D36*
X009250Y002036D02*
X009250Y002312D01*
X009250Y002036D02*
X009130Y002036D01*
X009130Y002312D01*
X009250Y002312D01*
X009750Y002312D02*
X009750Y002036D01*
X009630Y002036D01*
X009630Y002312D01*
X009750Y002312D01*
X010250Y002312D02*
X010250Y002036D01*
X010130Y002036D01*
X010130Y002312D01*
X010250Y002312D01*
X010750Y002312D02*
X010750Y002036D01*
X010630Y002036D01*
X010630Y002312D01*
X010750Y002312D01*
X011250Y002312D02*
X011250Y002036D01*
X011130Y002036D01*
X011130Y002312D01*
X011250Y002312D01*
X011750Y002312D02*
X011750Y002036D01*
X011630Y002036D01*
X011630Y002312D01*
X011750Y002312D01*
X012250Y002312D02*
X012250Y002036D01*
X012130Y002036D01*
X012130Y002312D01*
X012250Y002312D01*
X012750Y002312D02*
X012750Y002036D01*
X012630Y002036D01*
X012630Y002312D01*
X012750Y002312D01*
X013250Y002312D02*
X013250Y002036D01*
X013130Y002036D01*
X013130Y002312D01*
X013250Y002312D01*
X013750Y002312D02*
X013750Y002036D01*
X013630Y002036D01*
X013630Y002312D01*
X013750Y002312D01*
X014250Y002312D02*
X014250Y002036D01*
X014130Y002036D01*
X014130Y002312D01*
X014250Y002312D01*
X014750Y002312D02*
X014750Y002036D01*
X014630Y002036D01*
X014630Y002312D01*
X014750Y002312D01*
X015250Y002312D02*
X015250Y002036D01*
X015130Y002036D01*
X015130Y002312D01*
X015250Y002312D01*
X015750Y002312D02*
X015750Y002036D01*
X015630Y002036D01*
X015630Y002312D01*
X015750Y002312D01*
X016250Y002312D02*
X016250Y002036D01*
X016130Y002036D01*
X016130Y002312D01*
X016250Y002312D01*
X016130Y007824D02*
X016130Y008100D01*
X016250Y008100D01*
X016250Y007824D01*
X016130Y007824D01*
X015630Y007824D02*
X015630Y008100D01*
X015750Y008100D01*
X015750Y007824D01*
X015630Y007824D01*
X015130Y007824D02*
X015130Y008100D01*
X015250Y008100D01*
X015250Y007824D01*
X015130Y007824D01*
X014630Y007824D02*
X014630Y008100D01*
X014750Y008100D01*
X014750Y007824D01*
X014630Y007824D01*
X014130Y007824D02*
X014130Y008100D01*
X014250Y008100D01*
X014250Y007824D01*
X014130Y007824D01*
X013630Y007824D02*
X013630Y008100D01*
X013750Y008100D01*
X013750Y007824D01*
X013630Y007824D01*
X013130Y007824D02*
X013130Y008100D01*
X013250Y008100D01*
X013250Y007824D01*
X013130Y007824D01*
X012630Y007824D02*
X012630Y008100D01*
X012750Y008100D01*
X012750Y007824D01*
X012630Y007824D01*
X012130Y007824D02*
X012130Y008100D01*
X012250Y008100D01*
X012250Y007824D01*
X012130Y007824D01*
X011630Y007824D02*
X011630Y008100D01*
X011750Y008100D01*
X011750Y007824D01*
X011630Y007824D01*
X011130Y007824D02*
X011130Y008100D01*
X011250Y008100D01*
X011250Y007824D01*
X011130Y007824D01*
X010630Y007824D02*
X010630Y008100D01*
X010750Y008100D01*
X010750Y007824D01*
X010630Y007824D01*
X010130Y007824D02*
X010130Y008100D01*
X010250Y008100D01*
X010250Y007824D01*
X010130Y007824D01*
X009630Y007824D02*
X009630Y008100D01*
X009750Y008100D01*
X009750Y007824D01*
X009630Y007824D01*
X009130Y007824D02*
X009130Y008100D01*
X009250Y008100D01*
X009250Y007824D01*
X009130Y007824D01*
X008630Y007824D02*
X008630Y008100D01*
X008750Y008100D01*
X008750Y007824D01*
X008630Y007824D01*
X008130Y007824D02*
X008130Y008100D01*
X008250Y008100D01*
X008250Y007824D01*
X008130Y007824D01*
X007630Y007824D02*
X007630Y008100D01*
X007750Y008100D01*
X007750Y007824D01*
X007630Y007824D01*
X006997Y007008D02*
X006721Y007008D01*
X006721Y007128D01*
X006997Y007128D01*
X006997Y007008D01*
X006997Y006508D02*
X006721Y006508D01*
X006721Y006628D01*
X006997Y006628D01*
X006997Y006508D01*
X006997Y006008D02*
X006721Y006008D01*
X006721Y006128D01*
X006997Y006128D01*
X006997Y006008D01*
X006997Y005508D02*
X006721Y005508D01*
X006721Y005628D01*
X006997Y005628D01*
X006997Y005508D01*
X007750Y002312D02*
X007750Y002036D01*
X007630Y002036D01*
X007630Y002312D01*
X007750Y002312D01*
X008250Y002312D02*
X008250Y002036D01*
X008130Y002036D01*
X008130Y002312D01*
X008250Y002312D01*
X008750Y002312D02*
X008750Y002036D01*
X008630Y002036D01*
X008630Y002312D01*
X008750Y002312D01*
D37*
X003792Y006978D03*
D38*
X002769Y007913D03*
X002769Y006043D03*
X004816Y006043D03*
X004816Y007913D03*
D39*
X003792Y008080D03*
X003792Y005875D03*
D40*
X008611Y009202D03*
X009694Y007332D03*
X008907Y007135D03*
X010875Y009399D03*
X012647Y009300D03*
X013139Y007135D03*
X013237Y004576D03*
X011663Y004576D03*
X016190Y001328D03*
X007037Y014123D03*
X007037Y016289D03*
X009734Y022155D03*
D41*
X011367Y022785D03*
X012942Y020619D03*
X014517Y020619D03*
X010186Y018060D03*
X017667Y009596D03*
X019045Y015895D03*
X020619Y021013D03*
D42*
X012352Y014517D03*
X011761Y014517D03*
X010777Y012548D03*
X010777Y011958D03*
X014320Y011958D03*
X014320Y012548D03*
X007726Y006052D03*
D43*
X007430Y018060D03*
X011466Y021505D03*
D44*
X012540Y013290D03*
X011810Y012540D03*
X012540Y011820D03*
X013270Y012530D03*
D45*
X017667Y008119D03*
M02*
