G75*
G70*
%OFA0B0*%
%FSLAX24Y24*%
%IPPOS*%
%LPD*%
%AMOC8*
5,1,8,0,0,1.08239X$1,22.5*
%
%ADD10C,0.0079*%
%ADD11C,0.0000*%
D10*
X027207Y012564D02*
X027187Y013307D01*
X027132Y014048D01*
X027040Y014785D01*
X026912Y015517D01*
X026911Y015517D02*
X024648Y016206D01*
X027207Y012662D02*
X027207Y012269D01*
X026911Y009808D02*
X024648Y009119D01*
X026911Y009808D02*
X027032Y010466D01*
X027121Y011130D01*
X027179Y011796D01*
X027206Y012465D01*
X024648Y009119D02*
X024463Y008542D01*
X024251Y007975D01*
X024011Y007419D01*
X023745Y006875D01*
X023452Y006345D01*
X023135Y005829D01*
X022792Y005330D01*
X022426Y004847D01*
X022037Y004383D01*
X021626Y003938D01*
X021194Y003514D01*
X020742Y003111D01*
X020271Y002730D01*
X019782Y002373D01*
X019276Y002040D01*
X018755Y001731D01*
X018220Y001449D01*
X017671Y001192D01*
X017111Y000962D01*
X016540Y000760D01*
X015960Y000586D01*
X015372Y000439D01*
X014778Y000322D01*
X014179Y000233D01*
X013577Y000174D01*
X012972Y000143D01*
X012366Y000142D01*
X011761Y000170D01*
X011158Y000228D01*
X010559Y000315D01*
X009965Y000430D01*
X009376Y000574D01*
X008796Y000747D01*
X008224Y000947D01*
X007663Y001175D01*
X007114Y001430D01*
X006577Y001711D01*
X006055Y002018D01*
X005548Y002349D01*
X005058Y002705D01*
X004586Y003084D01*
X004133Y003485D01*
X003699Y003908D01*
X003287Y004352D01*
X002896Y004814D01*
X002528Y005296D01*
X002184Y005794D01*
X001865Y006309D01*
X001571Y006838D01*
X001303Y007381D01*
X001061Y007936D01*
X000847Y008503D01*
X000660Y009079D01*
X000501Y009663D01*
X000371Y010254D01*
X000270Y010851D01*
X000197Y011453D01*
X000154Y012057D01*
X000140Y012662D01*
X000139Y012663D02*
X000149Y013271D01*
X000189Y013877D01*
X000258Y014481D01*
X000357Y015081D01*
X000484Y015675D01*
X000640Y016263D01*
X000825Y016842D01*
X001037Y017411D01*
X001277Y017970D01*
X001544Y018516D01*
X001837Y019048D01*
X002155Y019566D01*
X002499Y020067D01*
X002866Y020552D01*
X003257Y021017D01*
X003669Y021464D01*
X004103Y021889D01*
X004557Y022293D01*
X005030Y022675D01*
X005521Y023033D01*
X006029Y023367D01*
X006553Y023676D01*
X007091Y023958D01*
X007642Y024215D01*
X008205Y024444D01*
X008778Y024646D01*
X009361Y024819D01*
X009951Y024964D01*
X010548Y025080D01*
X011149Y025167D01*
X011754Y025225D01*
X012361Y025253D01*
X012969Y025252D01*
X013576Y025221D01*
X014181Y025160D01*
X014782Y025070D01*
X015378Y024951D01*
X015968Y024804D01*
X016549Y024627D01*
X017122Y024423D01*
X017684Y024191D01*
X018234Y023932D01*
X018770Y023647D01*
X019292Y023336D01*
X019799Y023000D01*
X020288Y022639D01*
X020759Y022256D01*
X021212Y021849D01*
X021643Y021422D01*
X022054Y020973D01*
X022442Y020506D01*
X022807Y020020D01*
X023148Y019517D01*
X023464Y018998D01*
X023755Y018464D01*
X024019Y017916D01*
X024256Y017357D01*
X024466Y016786D01*
X024648Y016206D01*
D11*
X000982Y012662D02*
X000984Y012683D01*
X000990Y012703D01*
X000999Y012723D01*
X001011Y012740D01*
X001026Y012754D01*
X001044Y012766D01*
X001064Y012774D01*
X001084Y012779D01*
X001105Y012780D01*
X001126Y012777D01*
X001146Y012771D01*
X001165Y012760D01*
X001182Y012747D01*
X001195Y012731D01*
X001206Y012713D01*
X001214Y012693D01*
X001218Y012673D01*
X001218Y012651D01*
X001214Y012631D01*
X001206Y012611D01*
X001195Y012593D01*
X001182Y012577D01*
X001165Y012564D01*
X001146Y012553D01*
X001126Y012547D01*
X001105Y012544D01*
X001084Y012545D01*
X001064Y012550D01*
X001044Y012558D01*
X001026Y012570D01*
X001011Y012584D01*
X000999Y012601D01*
X000990Y012621D01*
X000984Y012641D01*
X000982Y012662D01*
X002045Y012662D02*
X002047Y012683D01*
X002053Y012703D01*
X002062Y012723D01*
X002074Y012740D01*
X002089Y012754D01*
X002107Y012766D01*
X002127Y012774D01*
X002147Y012779D01*
X002168Y012780D01*
X002189Y012777D01*
X002209Y012771D01*
X002228Y012760D01*
X002245Y012747D01*
X002258Y012731D01*
X002269Y012713D01*
X002277Y012693D01*
X002281Y012673D01*
X002281Y012651D01*
X002277Y012631D01*
X002269Y012611D01*
X002258Y012593D01*
X002245Y012577D01*
X002228Y012564D01*
X002209Y012553D01*
X002189Y012547D01*
X002168Y012544D01*
X002147Y012545D01*
X002127Y012550D01*
X002107Y012558D01*
X002089Y012570D01*
X002074Y012584D01*
X002062Y012601D01*
X002053Y012621D01*
X002047Y012641D01*
X002045Y012662D01*
X008506Y012662D02*
X008508Y012701D01*
X008514Y012740D01*
X008524Y012778D01*
X008537Y012815D01*
X008554Y012850D01*
X008574Y012884D01*
X008598Y012915D01*
X008625Y012944D01*
X008654Y012970D01*
X008686Y012993D01*
X008720Y013013D01*
X008756Y013029D01*
X008793Y013041D01*
X008832Y013050D01*
X008871Y013055D01*
X008910Y013056D01*
X008949Y013053D01*
X008988Y013046D01*
X009025Y013035D01*
X009062Y013021D01*
X009097Y013003D01*
X009130Y012982D01*
X009161Y012957D01*
X009189Y012930D01*
X009214Y012900D01*
X009236Y012867D01*
X009255Y012833D01*
X009270Y012797D01*
X009282Y012759D01*
X009290Y012721D01*
X009294Y012682D01*
X009294Y012642D01*
X009290Y012603D01*
X009282Y012565D01*
X009270Y012527D01*
X009255Y012491D01*
X009236Y012457D01*
X009214Y012424D01*
X009189Y012394D01*
X009161Y012367D01*
X009130Y012342D01*
X009097Y012321D01*
X009062Y012303D01*
X009025Y012289D01*
X008988Y012278D01*
X008949Y012271D01*
X008910Y012268D01*
X008871Y012269D01*
X008832Y012274D01*
X008793Y012283D01*
X008756Y012295D01*
X008720Y012311D01*
X008686Y012331D01*
X008654Y012354D01*
X008625Y012380D01*
X008598Y012409D01*
X008574Y012440D01*
X008554Y012474D01*
X008537Y012509D01*
X008524Y012546D01*
X008514Y012584D01*
X008508Y012623D01*
X008506Y012662D01*
X014891Y010018D02*
X014893Y010057D01*
X014899Y010096D01*
X014909Y010134D01*
X014922Y010171D01*
X014939Y010206D01*
X014959Y010240D01*
X014983Y010271D01*
X015010Y010300D01*
X015039Y010326D01*
X015071Y010349D01*
X015105Y010369D01*
X015141Y010385D01*
X015178Y010397D01*
X015217Y010406D01*
X015256Y010411D01*
X015295Y010412D01*
X015334Y010409D01*
X015373Y010402D01*
X015410Y010391D01*
X015447Y010377D01*
X015482Y010359D01*
X015515Y010338D01*
X015546Y010313D01*
X015574Y010286D01*
X015599Y010256D01*
X015621Y010223D01*
X015640Y010189D01*
X015655Y010153D01*
X015667Y010115D01*
X015675Y010077D01*
X015679Y010038D01*
X015679Y009998D01*
X015675Y009959D01*
X015667Y009921D01*
X015655Y009883D01*
X015640Y009847D01*
X015621Y009813D01*
X015599Y009780D01*
X015574Y009750D01*
X015546Y009723D01*
X015515Y009698D01*
X015482Y009677D01*
X015447Y009659D01*
X015410Y009645D01*
X015373Y009634D01*
X015334Y009627D01*
X015295Y009624D01*
X015256Y009625D01*
X015217Y009630D01*
X015178Y009639D01*
X015141Y009651D01*
X015105Y009667D01*
X015071Y009687D01*
X015039Y009710D01*
X015010Y009736D01*
X014983Y009765D01*
X014959Y009796D01*
X014939Y009830D01*
X014922Y009865D01*
X014909Y009902D01*
X014899Y009940D01*
X014893Y009979D01*
X014891Y010018D01*
X014891Y015307D02*
X014893Y015346D01*
X014899Y015385D01*
X014909Y015423D01*
X014922Y015460D01*
X014939Y015495D01*
X014959Y015529D01*
X014983Y015560D01*
X015010Y015589D01*
X015039Y015615D01*
X015071Y015638D01*
X015105Y015658D01*
X015141Y015674D01*
X015178Y015686D01*
X015217Y015695D01*
X015256Y015700D01*
X015295Y015701D01*
X015334Y015698D01*
X015373Y015691D01*
X015410Y015680D01*
X015447Y015666D01*
X015482Y015648D01*
X015515Y015627D01*
X015546Y015602D01*
X015574Y015575D01*
X015599Y015545D01*
X015621Y015512D01*
X015640Y015478D01*
X015655Y015442D01*
X015667Y015404D01*
X015675Y015366D01*
X015679Y015327D01*
X015679Y015287D01*
X015675Y015248D01*
X015667Y015210D01*
X015655Y015172D01*
X015640Y015136D01*
X015621Y015102D01*
X015599Y015069D01*
X015574Y015039D01*
X015546Y015012D01*
X015515Y014987D01*
X015482Y014966D01*
X015447Y014948D01*
X015410Y014934D01*
X015373Y014923D01*
X015334Y014916D01*
X015295Y014913D01*
X015256Y014914D01*
X015217Y014919D01*
X015178Y014928D01*
X015141Y014940D01*
X015105Y014956D01*
X015071Y014976D01*
X015039Y014999D01*
X015010Y015025D01*
X014983Y015054D01*
X014959Y015085D01*
X014939Y015119D01*
X014922Y015154D01*
X014909Y015191D01*
X014899Y015229D01*
X014893Y015268D01*
X014891Y015307D01*
X023818Y012662D02*
X023820Y012702D01*
X023826Y012741D01*
X023836Y012780D01*
X023849Y012817D01*
X023867Y012853D01*
X023888Y012887D01*
X023912Y012919D01*
X023939Y012948D01*
X023969Y012975D01*
X024001Y012998D01*
X024036Y013018D01*
X024072Y013034D01*
X024110Y013047D01*
X024149Y013056D01*
X024188Y013061D01*
X024228Y013062D01*
X024268Y013059D01*
X024307Y013052D01*
X024345Y013041D01*
X024383Y013027D01*
X024418Y013008D01*
X024451Y012987D01*
X024483Y012962D01*
X024511Y012934D01*
X024537Y012904D01*
X024559Y012871D01*
X024578Y012836D01*
X024594Y012799D01*
X024606Y012761D01*
X024614Y012722D01*
X024618Y012682D01*
X024618Y012642D01*
X024614Y012602D01*
X024606Y012563D01*
X024594Y012525D01*
X024578Y012488D01*
X024559Y012453D01*
X024537Y012420D01*
X024511Y012390D01*
X024483Y012362D01*
X024451Y012337D01*
X024418Y012316D01*
X024383Y012297D01*
X024345Y012283D01*
X024307Y012272D01*
X024268Y012265D01*
X024228Y012262D01*
X024188Y012263D01*
X024149Y012268D01*
X024110Y012277D01*
X024072Y012290D01*
X024036Y012306D01*
X024001Y012326D01*
X023969Y012349D01*
X023939Y012376D01*
X023912Y012405D01*
X023888Y012437D01*
X023867Y012471D01*
X023849Y012507D01*
X023836Y012544D01*
X023826Y012583D01*
X023820Y012622D01*
X023818Y012662D01*
X025618Y012662D02*
X025620Y012702D01*
X025626Y012741D01*
X025636Y012780D01*
X025649Y012817D01*
X025667Y012853D01*
X025688Y012887D01*
X025712Y012919D01*
X025739Y012948D01*
X025769Y012975D01*
X025801Y012998D01*
X025836Y013018D01*
X025872Y013034D01*
X025910Y013047D01*
X025949Y013056D01*
X025988Y013061D01*
X026028Y013062D01*
X026068Y013059D01*
X026107Y013052D01*
X026145Y013041D01*
X026183Y013027D01*
X026218Y013008D01*
X026251Y012987D01*
X026283Y012962D01*
X026311Y012934D01*
X026337Y012904D01*
X026359Y012871D01*
X026378Y012836D01*
X026394Y012799D01*
X026406Y012761D01*
X026414Y012722D01*
X026418Y012682D01*
X026418Y012642D01*
X026414Y012602D01*
X026406Y012563D01*
X026394Y012525D01*
X026378Y012488D01*
X026359Y012453D01*
X026337Y012420D01*
X026311Y012390D01*
X026283Y012362D01*
X026251Y012337D01*
X026218Y012316D01*
X026183Y012297D01*
X026145Y012283D01*
X026107Y012272D01*
X026068Y012265D01*
X026028Y012262D01*
X025988Y012263D01*
X025949Y012268D01*
X025910Y012277D01*
X025872Y012290D01*
X025836Y012306D01*
X025801Y012326D01*
X025769Y012349D01*
X025739Y012376D01*
X025712Y012405D01*
X025688Y012437D01*
X025667Y012471D01*
X025649Y012507D01*
X025636Y012544D01*
X025626Y012583D01*
X025620Y012622D01*
X025618Y012662D01*
M02*
