%
M48
M72
T01C0.0157
T02C0.0200
T03C0.0236
T04C0.0315
T05C0.0394
T06C0.0400
T07C0.0787
T08C0.0800
%
T01
X7522Y5970
X8506Y6560
X9490Y6363
X10278Y5576
X8506Y8017
X9490Y9119
X10278Y9119
X8309Y12072
X6341Y13844
X5553Y13056
X5356Y12662
X4766Y12269
X4766Y13056
X3781Y13647
X3191Y13844
X3191Y14631
X2600Y16403
X7915Y14237
X11065Y15025
X11065Y17387
X15789Y14237
X17167Y15222
X17167Y16521
X19726Y18174
X5553Y10300
X4766Y8332
T02
X17315Y9907
X17807Y9907
X18299Y9907
X18791Y9907
X19283Y9907
X19776Y9907
T03
X3978Y5576
X7718Y7544
X3388Y9513
X2163Y12662
X1100Y12662
X9096Y14631
X9096Y17387
X14018Y17387
X14018Y15025
X13427Y8135
X16577Y3607
T04
X12640Y11875
X13033Y12269
X13427Y12662
X13033Y13056
X12640Y12662
X12246Y12269
X11852Y12662
X12246Y13056
X12640Y13450
X12246Y17387
X11655Y17387
X5553Y16206
X4963Y16206
X17955Y16403
X18742Y16403
T05
X15002Y13844
X15002Y12662
X14018Y10300
X12246Y10300
X10081Y12466
X10081Y14040
X20967Y6269
X22876Y12269
X22876Y13056
T06
X8022Y11103
X8022Y10103
X8022Y9103
X7022Y9103
X7022Y10103
X7022Y11103
T07
X8900Y12662
X15285Y10018
X15285Y15307
T08
X24218Y12662
X26018Y12662
M30
