G75*
G70*
%OFA0B0*%
%FSLAX24Y24*%
%IPPOS*%
%LPD*%
%AMOC8*
5,1,8,0,0,1.08239X$1,22.5*
%
%ADD10C,0.0867*%
%ADD11R,0.1182X0.1025*%
%ADD12C,0.0880*%
%ADD13R,0.0820X0.0820*%
%ADD14OC8,0.0820*%
%ADD15R,0.0513X0.0474*%
%ADD16R,0.0474X0.0513*%
%ADD17C,0.0099*%
%ADD18R,0.0297X0.0395*%
%ADD19R,0.0552X0.0552*%
%ADD20R,0.1104X0.1497*%
%ADD21R,0.0867X0.0867*%
%ADD22R,0.0804X0.0867*%
%ADD23R,0.0804X0.0804*%
%ADD24R,0.0867X0.0804*%
%ADD25C,0.2049*%
%ADD26R,0.0671X0.0458*%
%ADD27R,0.0458X0.0671*%
%ADD28OC8,0.0552*%
%ADD29R,0.1261X0.0631*%
%ADD30C,0.0355*%
%ADD31C,0.0761*%
%ADD32R,0.1005X0.0828*%
%ADD33R,0.0671X0.1419*%
%ADD34R,0.0316X0.0493*%
%ADD35R,0.0434X0.0395*%
%ADD36R,0.0474X0.0671*%
%ADD37C,0.0316*%
%ADD38C,0.0420*%
%ADD39R,0.0395X0.0395*%
%ADD40R,0.0505X0.0493*%
%ADD41R,0.0474X0.0356*%
D10*
X008900Y012662D03*
X015285Y010018D03*
X015285Y015307D03*
D11*
X023616Y014907D03*
X026018Y014907D03*
X026018Y010418D03*
X023616Y010418D03*
D12*
X024218Y012662D03*
X026018Y012662D03*
D13*
X007022Y011103D03*
D14*
X007022Y010103D03*
X007022Y009103D03*
X008022Y009103D03*
X008022Y010103D03*
X008022Y011103D03*
D15*
X005809Y005182D03*
X006478Y005182D03*
X001026Y010162D03*
X001026Y010832D03*
X002994Y012328D03*
X002994Y012997D03*
X007187Y012466D03*
X007856Y012466D03*
X007522Y017052D03*
X007522Y017722D03*
X005947Y017722D03*
X005947Y017052D03*
X003388Y017052D03*
X003388Y017722D03*
X002600Y017722D03*
X002600Y017052D03*
X011837Y018033D03*
X011837Y018702D03*
X013427Y018706D03*
X013427Y018037D03*
X016380Y014769D03*
X016380Y014100D03*
X017167Y014100D03*
X017167Y014769D03*
X018152Y017052D03*
X018152Y017722D03*
X019726Y017722D03*
X019726Y017052D03*
X018152Y012013D03*
X018152Y011344D03*
X016124Y008135D03*
X015455Y008135D03*
G36*
X018296Y006161D02*
X018657Y005800D01*
X018322Y005465D01*
X017961Y005826D01*
X018296Y006161D01*
G37*
G36*
X018769Y005687D02*
X019130Y005326D01*
X018795Y004991D01*
X018434Y005352D01*
X018769Y005687D01*
G37*
G36*
X019917Y004841D02*
X019556Y004480D01*
X019221Y004815D01*
X019582Y005176D01*
X019917Y004841D01*
G37*
G36*
X019444Y004368D02*
X019083Y004007D01*
X018748Y004342D01*
X019109Y004703D01*
X019444Y004368D01*
G37*
D16*
X007856Y013056D03*
X007856Y013647D03*
X007187Y013647D03*
X007187Y013056D03*
X003388Y010832D03*
X003388Y010162D03*
X002600Y010162D03*
X002600Y010832D03*
X002600Y009257D03*
X002600Y008588D03*
X004372Y007092D03*
X004372Y006422D03*
X005809Y005970D03*
X006478Y005970D03*
X006400Y002820D03*
X007069Y002820D03*
X006734Y017052D03*
X006734Y017722D03*
X009490Y021974D03*
X009490Y022643D03*
X012640Y018706D03*
X012640Y018037D03*
X017167Y022564D03*
X017167Y023233D03*
X014608Y023155D03*
X014608Y023824D03*
X018939Y017722D03*
X018939Y017052D03*
D17*
X006214Y013401D02*
X005956Y013401D01*
X006214Y013401D02*
X006214Y013301D01*
X005956Y013301D01*
X005956Y013401D01*
X005956Y013399D02*
X006214Y013399D01*
X006214Y013205D02*
X005956Y013205D01*
X006214Y013205D02*
X006214Y013105D01*
X005956Y013105D01*
X005956Y013205D01*
X005956Y013203D02*
X006214Y013203D01*
X006214Y013008D02*
X005956Y013008D01*
X006214Y013008D02*
X006214Y012908D01*
X005956Y012908D01*
X005956Y013008D01*
X005956Y013006D02*
X006214Y013006D01*
X006214Y012811D02*
X005956Y012811D01*
X006214Y012811D02*
X006214Y012711D01*
X005956Y012711D01*
X005956Y012811D01*
X005956Y012809D02*
X006214Y012809D01*
X006214Y012614D02*
X005956Y012614D01*
X006214Y012614D02*
X006214Y012514D01*
X005956Y012514D01*
X005956Y012614D01*
X005956Y012612D02*
X006214Y012612D01*
X006214Y012417D02*
X005956Y012417D01*
X006214Y012417D02*
X006214Y012317D01*
X005956Y012317D01*
X005956Y012417D01*
X005956Y012415D02*
X006214Y012415D01*
X006214Y012220D02*
X005956Y012220D01*
X006214Y012220D02*
X006214Y012120D01*
X005956Y012120D01*
X005956Y012220D01*
X005956Y012218D02*
X006214Y012218D01*
X006214Y012024D02*
X005956Y012024D01*
X006214Y012024D02*
X006214Y011924D01*
X005956Y011924D01*
X005956Y012024D01*
X005956Y012022D02*
X006214Y012022D01*
X005898Y011866D02*
X005798Y011866D01*
X005898Y011866D02*
X005898Y011608D01*
X005798Y011608D01*
X005798Y011866D01*
X005798Y011706D02*
X005898Y011706D01*
X005898Y011804D02*
X005798Y011804D01*
X005702Y011866D02*
X005602Y011866D01*
X005702Y011866D02*
X005702Y011608D01*
X005602Y011608D01*
X005602Y011866D01*
X005602Y011706D02*
X005702Y011706D01*
X005702Y011804D02*
X005602Y011804D01*
X005505Y011866D02*
X005405Y011866D01*
X005505Y011866D02*
X005505Y011608D01*
X005405Y011608D01*
X005405Y011866D01*
X005405Y011706D02*
X005505Y011706D01*
X005505Y011804D02*
X005405Y011804D01*
X005308Y011866D02*
X005208Y011866D01*
X005308Y011866D02*
X005308Y011608D01*
X005208Y011608D01*
X005208Y011866D01*
X005208Y011706D02*
X005308Y011706D01*
X005308Y011804D02*
X005208Y011804D01*
X005111Y011866D02*
X005011Y011866D01*
X005111Y011866D02*
X005111Y011608D01*
X005011Y011608D01*
X005011Y011866D01*
X005011Y011706D02*
X005111Y011706D01*
X005111Y011804D02*
X005011Y011804D01*
X004914Y011866D02*
X004814Y011866D01*
X004914Y011866D02*
X004914Y011608D01*
X004814Y011608D01*
X004814Y011866D01*
X004814Y011706D02*
X004914Y011706D01*
X004914Y011804D02*
X004814Y011804D01*
X004717Y011866D02*
X004617Y011866D01*
X004717Y011866D02*
X004717Y011608D01*
X004617Y011608D01*
X004617Y011866D01*
X004617Y011706D02*
X004717Y011706D01*
X004717Y011804D02*
X004617Y011804D01*
X004520Y011866D02*
X004420Y011866D01*
X004520Y011866D02*
X004520Y011608D01*
X004420Y011608D01*
X004420Y011866D01*
X004420Y011706D02*
X004520Y011706D01*
X004520Y011804D02*
X004420Y011804D01*
X004363Y012024D02*
X004105Y012024D01*
X004363Y012024D02*
X004363Y011924D01*
X004105Y011924D01*
X004105Y012024D01*
X004105Y012022D02*
X004363Y012022D01*
X004363Y012220D02*
X004105Y012220D01*
X004363Y012220D02*
X004363Y012120D01*
X004105Y012120D01*
X004105Y012220D01*
X004105Y012218D02*
X004363Y012218D01*
X004363Y012417D02*
X004105Y012417D01*
X004363Y012417D02*
X004363Y012317D01*
X004105Y012317D01*
X004105Y012417D01*
X004105Y012415D02*
X004363Y012415D01*
X004363Y012614D02*
X004105Y012614D01*
X004363Y012614D02*
X004363Y012514D01*
X004105Y012514D01*
X004105Y012614D01*
X004105Y012612D02*
X004363Y012612D01*
X004363Y012811D02*
X004105Y012811D01*
X004363Y012811D02*
X004363Y012711D01*
X004105Y012711D01*
X004105Y012811D01*
X004105Y012809D02*
X004363Y012809D01*
X004363Y013008D02*
X004105Y013008D01*
X004363Y013008D02*
X004363Y012908D01*
X004105Y012908D01*
X004105Y013008D01*
X004105Y013006D02*
X004363Y013006D01*
X004363Y013205D02*
X004105Y013205D01*
X004363Y013205D02*
X004363Y013105D01*
X004105Y013105D01*
X004105Y013205D01*
X004105Y013203D02*
X004363Y013203D01*
X004363Y013401D02*
X004105Y013401D01*
X004363Y013401D02*
X004363Y013301D01*
X004105Y013301D01*
X004105Y013401D01*
X004105Y013399D02*
X004363Y013399D01*
X004420Y013717D02*
X004520Y013717D01*
X004520Y013459D01*
X004420Y013459D01*
X004420Y013717D01*
X004420Y013557D02*
X004520Y013557D01*
X004520Y013655D02*
X004420Y013655D01*
X004617Y013717D02*
X004717Y013717D01*
X004717Y013459D01*
X004617Y013459D01*
X004617Y013717D01*
X004617Y013557D02*
X004717Y013557D01*
X004717Y013655D02*
X004617Y013655D01*
X004814Y013717D02*
X004914Y013717D01*
X004914Y013459D01*
X004814Y013459D01*
X004814Y013717D01*
X004814Y013557D02*
X004914Y013557D01*
X004914Y013655D02*
X004814Y013655D01*
X005011Y013717D02*
X005111Y013717D01*
X005111Y013459D01*
X005011Y013459D01*
X005011Y013717D01*
X005011Y013557D02*
X005111Y013557D01*
X005111Y013655D02*
X005011Y013655D01*
X005208Y013717D02*
X005308Y013717D01*
X005308Y013459D01*
X005208Y013459D01*
X005208Y013717D01*
X005208Y013557D02*
X005308Y013557D01*
X005308Y013655D02*
X005208Y013655D01*
X005405Y013717D02*
X005505Y013717D01*
X005505Y013459D01*
X005405Y013459D01*
X005405Y013717D01*
X005405Y013557D02*
X005505Y013557D01*
X005505Y013655D02*
X005405Y013655D01*
X005602Y013717D02*
X005702Y013717D01*
X005702Y013459D01*
X005602Y013459D01*
X005602Y013717D01*
X005602Y013557D02*
X005702Y013557D01*
X005702Y013655D02*
X005602Y013655D01*
X005798Y013717D02*
X005898Y013717D01*
X005898Y013459D01*
X005798Y013459D01*
X005798Y013717D01*
X005798Y013557D02*
X005898Y013557D01*
X005898Y013655D02*
X005798Y013655D01*
D18*
X005140Y016914D03*
X004766Y016914D03*
X004392Y016914D03*
X004392Y017859D03*
X004766Y017859D03*
X005140Y017859D03*
X010297Y017899D03*
X010671Y017899D03*
X011045Y017899D03*
X011045Y018844D03*
X010671Y018844D03*
X010297Y018844D03*
X016400Y017859D03*
X016774Y017859D03*
X017148Y017859D03*
X017148Y016914D03*
X016774Y016914D03*
X016400Y016914D03*
D19*
X016183Y022328D03*
X016183Y023470D03*
X013211Y023883D03*
X012069Y023883D03*
X008486Y022702D03*
X007344Y022702D03*
D20*
X008663Y020143D03*
X010711Y021324D03*
X014569Y021324D03*
X016616Y020143D03*
X020474Y020143D03*
X004805Y020143D03*
D21*
X011360Y011383D03*
D22*
X013951Y011383D03*
D23*
X013951Y013974D03*
D24*
X011360Y013974D03*
D25*
X012640Y012662D03*
D26*
X011262Y013233D03*
X014018Y013233D03*
D27*
X013191Y014040D03*
X013211Y011285D03*
D28*
X012640Y011875D03*
X013033Y012269D03*
X013427Y012662D03*
X013033Y013056D03*
X012640Y012662D03*
X012246Y012269D03*
X011852Y012662D03*
X012246Y013056D03*
X012640Y013450D03*
D29*
X019175Y012662D03*
X021065Y012662D03*
D30*
X016847Y007623D02*
X016847Y007347D01*
X016847Y007623D02*
X016967Y007623D01*
X016967Y007347D01*
X016847Y007347D01*
X016347Y007347D02*
X016347Y007623D01*
X016467Y007623D01*
X016467Y007347D01*
X016347Y007347D01*
X015847Y007347D02*
X015847Y007623D01*
X015967Y007623D01*
X015967Y007347D01*
X015847Y007347D01*
X015347Y007347D02*
X015347Y007623D01*
X015467Y007623D01*
X015467Y007347D01*
X015347Y007347D01*
X014847Y007347D02*
X014847Y007623D01*
X014967Y007623D01*
X014967Y007347D01*
X014847Y007347D01*
X014347Y007347D02*
X014347Y007623D01*
X014467Y007623D01*
X014467Y007347D01*
X014347Y007347D01*
X013847Y007347D02*
X013847Y007623D01*
X013967Y007623D01*
X013967Y007347D01*
X013847Y007347D01*
X013347Y007347D02*
X013347Y007623D01*
X013467Y007623D01*
X013467Y007347D01*
X013347Y007347D01*
X012847Y007347D02*
X012847Y007623D01*
X012967Y007623D01*
X012967Y007347D01*
X012847Y007347D01*
X012347Y007347D02*
X012347Y007623D01*
X012467Y007623D01*
X012467Y007347D01*
X012347Y007347D01*
X011847Y007347D02*
X011847Y007623D01*
X011967Y007623D01*
X011967Y007347D01*
X011847Y007347D01*
X011347Y007347D02*
X011347Y007623D01*
X011467Y007623D01*
X011467Y007347D01*
X011347Y007347D01*
X010847Y007347D02*
X010847Y007623D01*
X010967Y007623D01*
X010967Y007347D01*
X010847Y007347D01*
X010347Y007347D02*
X010347Y007623D01*
X010467Y007623D01*
X010467Y007347D01*
X010347Y007347D01*
X009847Y007347D02*
X009847Y007623D01*
X009967Y007623D01*
X009967Y007347D01*
X009847Y007347D01*
X009347Y007347D02*
X009347Y007623D01*
X009467Y007623D01*
X009467Y007347D01*
X009347Y007347D01*
X008847Y007347D02*
X008847Y007623D01*
X008967Y007623D01*
X008967Y007347D01*
X008847Y007347D01*
X008347Y007347D02*
X008347Y007623D01*
X008467Y007623D01*
X008467Y007347D01*
X008347Y007347D01*
X008467Y001836D02*
X008467Y001560D01*
X008347Y001560D01*
X008347Y001836D01*
X008467Y001836D01*
X008967Y001836D02*
X008967Y001560D01*
X008847Y001560D01*
X008847Y001836D01*
X008967Y001836D01*
X009467Y001836D02*
X009467Y001560D01*
X009347Y001560D01*
X009347Y001836D01*
X009467Y001836D01*
X009967Y001836D02*
X009967Y001560D01*
X009847Y001560D01*
X009847Y001836D01*
X009967Y001836D01*
X010467Y001836D02*
X010467Y001560D01*
X010347Y001560D01*
X010347Y001836D01*
X010467Y001836D01*
X010967Y001836D02*
X010967Y001560D01*
X010847Y001560D01*
X010847Y001836D01*
X010967Y001836D01*
X011467Y001836D02*
X011467Y001560D01*
X011347Y001560D01*
X011347Y001836D01*
X011467Y001836D01*
X011967Y001836D02*
X011967Y001560D01*
X011847Y001560D01*
X011847Y001836D01*
X011967Y001836D01*
X012467Y001836D02*
X012467Y001560D01*
X012347Y001560D01*
X012347Y001836D01*
X012467Y001836D01*
X012967Y001836D02*
X012967Y001560D01*
X012847Y001560D01*
X012847Y001836D01*
X012967Y001836D01*
X013467Y001836D02*
X013467Y001560D01*
X013347Y001560D01*
X013347Y001836D01*
X013467Y001836D01*
X013967Y001836D02*
X013967Y001560D01*
X013847Y001560D01*
X013847Y001836D01*
X013967Y001836D01*
X014467Y001836D02*
X014467Y001560D01*
X014347Y001560D01*
X014347Y001836D01*
X014467Y001836D01*
X014967Y001836D02*
X014967Y001560D01*
X014847Y001560D01*
X014847Y001836D01*
X014967Y001836D01*
X015467Y001836D02*
X015467Y001560D01*
X015347Y001560D01*
X015347Y001836D01*
X015467Y001836D01*
X015967Y001836D02*
X015967Y001560D01*
X015847Y001560D01*
X015847Y001836D01*
X015967Y001836D01*
X016467Y001836D02*
X016467Y001560D01*
X016347Y001560D01*
X016347Y001836D01*
X016467Y001836D01*
X016967Y001836D02*
X016967Y001560D01*
X016847Y001560D01*
X016847Y001836D01*
X016967Y001836D01*
X017600Y002652D02*
X017876Y002652D01*
X017876Y002532D01*
X017600Y002532D01*
X017600Y002652D01*
X017600Y003152D02*
X017876Y003152D01*
X017876Y003032D01*
X017600Y003032D01*
X017600Y003152D01*
X017600Y003652D02*
X017876Y003652D01*
X017876Y003532D01*
X017600Y003532D01*
X017600Y003652D01*
X017600Y004152D02*
X017876Y004152D01*
X017876Y004032D01*
X017600Y004032D01*
X017600Y004152D01*
D31*
X020967Y006269D02*
X020968Y006269D01*
X020968Y006268D01*
X020967Y006268D01*
X020966Y006268D01*
X020966Y006269D01*
X020966Y006270D01*
X020967Y006270D01*
X020968Y006270D01*
X020968Y006269D01*
D32*
G36*
X022289Y006978D02*
X022998Y006269D01*
X022413Y005684D01*
X021704Y006393D01*
X022289Y006978D01*
G37*
G36*
X021091Y007007D02*
X020382Y007716D01*
X020967Y008301D01*
X021676Y007592D01*
X021091Y007007D01*
G37*
G36*
X019644Y005559D02*
X018935Y006268D01*
X019520Y006853D01*
X020229Y006144D01*
X019644Y005559D01*
G37*
G36*
X020842Y005531D02*
X021551Y004822D01*
X020966Y004237D01*
X020257Y004946D01*
X020842Y005531D01*
G37*
D33*
G36*
X022010Y006227D02*
X022484Y005753D01*
X021482Y004751D01*
X021008Y005225D01*
X022010Y006227D01*
G37*
G36*
X019923Y006310D02*
X019449Y006784D01*
X020451Y007786D01*
X020925Y007312D01*
X019923Y006310D01*
G37*
D34*
X003565Y006225D03*
X003191Y006225D03*
X002817Y006225D03*
X002817Y007288D03*
X003565Y007288D03*
D35*
X005691Y007426D03*
X005691Y006875D03*
X006596Y006875D03*
X006596Y007426D03*
D36*
X001967Y011659D03*
X001297Y011659D03*
X001297Y013666D03*
X001967Y013666D03*
D37*
X002163Y012662D03*
X001100Y012662D03*
D38*
X017315Y010077D02*
X017315Y009737D01*
X017807Y009737D02*
X017807Y010077D01*
X018299Y010077D02*
X018299Y009737D01*
X018791Y009737D02*
X018791Y010077D01*
X019283Y010077D02*
X019283Y009737D01*
X019776Y009737D02*
X019776Y010077D01*
D39*
X007030Y003607D03*
X006439Y003607D03*
D40*
X001616Y010153D03*
X001616Y010842D03*
D41*
X021183Y010084D03*
X021183Y009710D03*
X021183Y009336D03*
X022207Y009336D03*
X022207Y009710D03*
X022207Y010084D03*
M02*
