G75*
G70*
%OFA0B0*%
%FSLAX24Y24*%
%IPPOS*%
%LPD*%
%AMOC8*
5,1,8,0,0,1.08239X$1,22.5*
%
%ADD10C,0.0079*%
%ADD11C,0.0000*%
%ADD12C,0.0060*%
%ADD13C,0.0080*%
%ADD14C,0.0040*%
%ADD15C,0.0050*%
%ADD16C,0.0100*%
%ADD17C,0.0030*%
%ADD18R,0.0394X0.0315*%
%ADD19C,0.0020*%
%ADD20R,0.0098X0.0098*%
D10*
X027207Y012564D02*
X027187Y013307D01*
X027132Y014048D01*
X027040Y014785D01*
X026912Y015517D01*
X026911Y015517D02*
X024648Y016206D01*
X027207Y012662D02*
X027207Y012269D01*
X026911Y009808D02*
X024648Y009119D01*
X026911Y009808D02*
X027032Y010466D01*
X027121Y011130D01*
X027179Y011796D01*
X027206Y012465D01*
X024648Y009119D02*
X024463Y008542D01*
X024251Y007975D01*
X024011Y007419D01*
X023745Y006875D01*
X023452Y006345D01*
X023135Y005829D01*
X022792Y005330D01*
X022426Y004847D01*
X022037Y004383D01*
X021626Y003938D01*
X021194Y003514D01*
X020742Y003111D01*
X020271Y002730D01*
X019782Y002373D01*
X019276Y002040D01*
X018755Y001731D01*
X018220Y001449D01*
X017671Y001192D01*
X017111Y000962D01*
X016540Y000760D01*
X015960Y000586D01*
X015372Y000439D01*
X014778Y000322D01*
X014179Y000233D01*
X013577Y000174D01*
X012972Y000143D01*
X012366Y000142D01*
X011761Y000170D01*
X011158Y000228D01*
X010559Y000315D01*
X009965Y000430D01*
X009376Y000574D01*
X008796Y000747D01*
X008224Y000947D01*
X007663Y001175D01*
X007114Y001430D01*
X006577Y001711D01*
X006055Y002018D01*
X005548Y002349D01*
X005058Y002705D01*
X004586Y003084D01*
X004133Y003485D01*
X003699Y003908D01*
X003287Y004352D01*
X002896Y004814D01*
X002528Y005296D01*
X002184Y005794D01*
X001865Y006309D01*
X001571Y006838D01*
X001303Y007381D01*
X001061Y007936D01*
X000847Y008503D01*
X000660Y009079D01*
X000501Y009663D01*
X000371Y010254D01*
X000270Y010851D01*
X000197Y011453D01*
X000154Y012057D01*
X000140Y012662D01*
X000139Y012663D02*
X000149Y013271D01*
X000189Y013877D01*
X000258Y014481D01*
X000357Y015081D01*
X000484Y015675D01*
X000640Y016263D01*
X000825Y016842D01*
X001037Y017411D01*
X001277Y017970D01*
X001544Y018516D01*
X001837Y019048D01*
X002155Y019566D01*
X002499Y020067D01*
X002866Y020552D01*
X003257Y021017D01*
X003669Y021464D01*
X004103Y021889D01*
X004557Y022293D01*
X005030Y022675D01*
X005521Y023033D01*
X006029Y023367D01*
X006553Y023676D01*
X007091Y023958D01*
X007642Y024215D01*
X008205Y024444D01*
X008778Y024646D01*
X009361Y024819D01*
X009951Y024964D01*
X010548Y025080D01*
X011149Y025167D01*
X011754Y025225D01*
X012361Y025253D01*
X012969Y025252D01*
X013576Y025221D01*
X014181Y025160D01*
X014782Y025070D01*
X015378Y024951D01*
X015968Y024804D01*
X016549Y024627D01*
X017122Y024423D01*
X017684Y024191D01*
X018234Y023932D01*
X018770Y023647D01*
X019292Y023336D01*
X019799Y023000D01*
X020288Y022639D01*
X020759Y022256D01*
X021212Y021849D01*
X021643Y021422D01*
X022054Y020973D01*
X022442Y020506D01*
X022807Y020020D01*
X023148Y019517D01*
X023464Y018998D01*
X023755Y018464D01*
X024019Y017916D01*
X024256Y017357D01*
X024466Y016786D01*
X024648Y016206D01*
D11*
X023818Y012662D02*
X023820Y012702D01*
X023826Y012741D01*
X023836Y012780D01*
X023849Y012817D01*
X023867Y012853D01*
X023888Y012887D01*
X023912Y012919D01*
X023939Y012948D01*
X023969Y012975D01*
X024001Y012998D01*
X024036Y013018D01*
X024072Y013034D01*
X024110Y013047D01*
X024149Y013056D01*
X024188Y013061D01*
X024228Y013062D01*
X024268Y013059D01*
X024307Y013052D01*
X024345Y013041D01*
X024383Y013027D01*
X024418Y013008D01*
X024451Y012987D01*
X024483Y012962D01*
X024511Y012934D01*
X024537Y012904D01*
X024559Y012871D01*
X024578Y012836D01*
X024594Y012799D01*
X024606Y012761D01*
X024614Y012722D01*
X024618Y012682D01*
X024618Y012642D01*
X024614Y012602D01*
X024606Y012563D01*
X024594Y012525D01*
X024578Y012488D01*
X024559Y012453D01*
X024537Y012420D01*
X024511Y012390D01*
X024483Y012362D01*
X024451Y012337D01*
X024418Y012316D01*
X024383Y012297D01*
X024345Y012283D01*
X024307Y012272D01*
X024268Y012265D01*
X024228Y012262D01*
X024188Y012263D01*
X024149Y012268D01*
X024110Y012277D01*
X024072Y012290D01*
X024036Y012306D01*
X024001Y012326D01*
X023969Y012349D01*
X023939Y012376D01*
X023912Y012405D01*
X023888Y012437D01*
X023867Y012471D01*
X023849Y012507D01*
X023836Y012544D01*
X023826Y012583D01*
X023820Y012622D01*
X023818Y012662D01*
X025618Y012662D02*
X025620Y012702D01*
X025626Y012741D01*
X025636Y012780D01*
X025649Y012817D01*
X025667Y012853D01*
X025688Y012887D01*
X025712Y012919D01*
X025739Y012948D01*
X025769Y012975D01*
X025801Y012998D01*
X025836Y013018D01*
X025872Y013034D01*
X025910Y013047D01*
X025949Y013056D01*
X025988Y013061D01*
X026028Y013062D01*
X026068Y013059D01*
X026107Y013052D01*
X026145Y013041D01*
X026183Y013027D01*
X026218Y013008D01*
X026251Y012987D01*
X026283Y012962D01*
X026311Y012934D01*
X026337Y012904D01*
X026359Y012871D01*
X026378Y012836D01*
X026394Y012799D01*
X026406Y012761D01*
X026414Y012722D01*
X026418Y012682D01*
X026418Y012642D01*
X026414Y012602D01*
X026406Y012563D01*
X026394Y012525D01*
X026378Y012488D01*
X026359Y012453D01*
X026337Y012420D01*
X026311Y012390D01*
X026283Y012362D01*
X026251Y012337D01*
X026218Y012316D01*
X026183Y012297D01*
X026145Y012283D01*
X026107Y012272D01*
X026068Y012265D01*
X026028Y012262D01*
X025988Y012263D01*
X025949Y012268D01*
X025910Y012277D01*
X025872Y012290D01*
X025836Y012306D01*
X025801Y012326D01*
X025769Y012349D01*
X025739Y012376D01*
X025712Y012405D01*
X025688Y012437D01*
X025667Y012471D01*
X025649Y012507D01*
X025636Y012544D01*
X025626Y012583D01*
X025620Y012622D01*
X025618Y012662D01*
X014891Y010018D02*
X014893Y010057D01*
X014899Y010096D01*
X014909Y010134D01*
X014922Y010171D01*
X014939Y010206D01*
X014959Y010240D01*
X014983Y010271D01*
X015010Y010300D01*
X015039Y010326D01*
X015071Y010349D01*
X015105Y010369D01*
X015141Y010385D01*
X015178Y010397D01*
X015217Y010406D01*
X015256Y010411D01*
X015295Y010412D01*
X015334Y010409D01*
X015373Y010402D01*
X015410Y010391D01*
X015447Y010377D01*
X015482Y010359D01*
X015515Y010338D01*
X015546Y010313D01*
X015574Y010286D01*
X015599Y010256D01*
X015621Y010223D01*
X015640Y010189D01*
X015655Y010153D01*
X015667Y010115D01*
X015675Y010077D01*
X015679Y010038D01*
X015679Y009998D01*
X015675Y009959D01*
X015667Y009921D01*
X015655Y009883D01*
X015640Y009847D01*
X015621Y009813D01*
X015599Y009780D01*
X015574Y009750D01*
X015546Y009723D01*
X015515Y009698D01*
X015482Y009677D01*
X015447Y009659D01*
X015410Y009645D01*
X015373Y009634D01*
X015334Y009627D01*
X015295Y009624D01*
X015256Y009625D01*
X015217Y009630D01*
X015178Y009639D01*
X015141Y009651D01*
X015105Y009667D01*
X015071Y009687D01*
X015039Y009710D01*
X015010Y009736D01*
X014983Y009765D01*
X014959Y009796D01*
X014939Y009830D01*
X014922Y009865D01*
X014909Y009902D01*
X014899Y009940D01*
X014893Y009979D01*
X014891Y010018D01*
X014891Y015307D02*
X014893Y015346D01*
X014899Y015385D01*
X014909Y015423D01*
X014922Y015460D01*
X014939Y015495D01*
X014959Y015529D01*
X014983Y015560D01*
X015010Y015589D01*
X015039Y015615D01*
X015071Y015638D01*
X015105Y015658D01*
X015141Y015674D01*
X015178Y015686D01*
X015217Y015695D01*
X015256Y015700D01*
X015295Y015701D01*
X015334Y015698D01*
X015373Y015691D01*
X015410Y015680D01*
X015447Y015666D01*
X015482Y015648D01*
X015515Y015627D01*
X015546Y015602D01*
X015574Y015575D01*
X015599Y015545D01*
X015621Y015512D01*
X015640Y015478D01*
X015655Y015442D01*
X015667Y015404D01*
X015675Y015366D01*
X015679Y015327D01*
X015679Y015287D01*
X015675Y015248D01*
X015667Y015210D01*
X015655Y015172D01*
X015640Y015136D01*
X015621Y015102D01*
X015599Y015069D01*
X015574Y015039D01*
X015546Y015012D01*
X015515Y014987D01*
X015482Y014966D01*
X015447Y014948D01*
X015410Y014934D01*
X015373Y014923D01*
X015334Y014916D01*
X015295Y014913D01*
X015256Y014914D01*
X015217Y014919D01*
X015178Y014928D01*
X015141Y014940D01*
X015105Y014956D01*
X015071Y014976D01*
X015039Y014999D01*
X015010Y015025D01*
X014983Y015054D01*
X014959Y015085D01*
X014939Y015119D01*
X014922Y015154D01*
X014909Y015191D01*
X014899Y015229D01*
X014893Y015268D01*
X014891Y015307D01*
X008506Y012662D02*
X008508Y012701D01*
X008514Y012740D01*
X008524Y012778D01*
X008537Y012815D01*
X008554Y012850D01*
X008574Y012884D01*
X008598Y012915D01*
X008625Y012944D01*
X008654Y012970D01*
X008686Y012993D01*
X008720Y013013D01*
X008756Y013029D01*
X008793Y013041D01*
X008832Y013050D01*
X008871Y013055D01*
X008910Y013056D01*
X008949Y013053D01*
X008988Y013046D01*
X009025Y013035D01*
X009062Y013021D01*
X009097Y013003D01*
X009130Y012982D01*
X009161Y012957D01*
X009189Y012930D01*
X009214Y012900D01*
X009236Y012867D01*
X009255Y012833D01*
X009270Y012797D01*
X009282Y012759D01*
X009290Y012721D01*
X009294Y012682D01*
X009294Y012642D01*
X009290Y012603D01*
X009282Y012565D01*
X009270Y012527D01*
X009255Y012491D01*
X009236Y012457D01*
X009214Y012424D01*
X009189Y012394D01*
X009161Y012367D01*
X009130Y012342D01*
X009097Y012321D01*
X009062Y012303D01*
X009025Y012289D01*
X008988Y012278D01*
X008949Y012271D01*
X008910Y012268D01*
X008871Y012269D01*
X008832Y012274D01*
X008793Y012283D01*
X008756Y012295D01*
X008720Y012311D01*
X008686Y012331D01*
X008654Y012354D01*
X008625Y012380D01*
X008598Y012409D01*
X008574Y012440D01*
X008554Y012474D01*
X008537Y012509D01*
X008524Y012546D01*
X008514Y012584D01*
X008508Y012623D01*
X008506Y012662D01*
X002045Y012662D02*
X002047Y012683D01*
X002053Y012703D01*
X002062Y012723D01*
X002074Y012740D01*
X002089Y012754D01*
X002107Y012766D01*
X002127Y012774D01*
X002147Y012779D01*
X002168Y012780D01*
X002189Y012777D01*
X002209Y012771D01*
X002228Y012760D01*
X002245Y012747D01*
X002258Y012731D01*
X002269Y012713D01*
X002277Y012693D01*
X002281Y012673D01*
X002281Y012651D01*
X002277Y012631D01*
X002269Y012611D01*
X002258Y012593D01*
X002245Y012577D01*
X002228Y012564D01*
X002209Y012553D01*
X002189Y012547D01*
X002168Y012544D01*
X002147Y012545D01*
X002127Y012550D01*
X002107Y012558D01*
X002089Y012570D01*
X002074Y012584D01*
X002062Y012601D01*
X002053Y012621D01*
X002047Y012641D01*
X002045Y012662D01*
X000982Y012662D02*
X000984Y012683D01*
X000990Y012703D01*
X000999Y012723D01*
X001011Y012740D01*
X001026Y012754D01*
X001044Y012766D01*
X001064Y012774D01*
X001084Y012779D01*
X001105Y012780D01*
X001126Y012777D01*
X001146Y012771D01*
X001165Y012760D01*
X001182Y012747D01*
X001195Y012731D01*
X001206Y012713D01*
X001214Y012693D01*
X001218Y012673D01*
X001218Y012651D01*
X001214Y012631D01*
X001206Y012611D01*
X001195Y012593D01*
X001182Y012577D01*
X001165Y012564D01*
X001146Y012553D01*
X001126Y012547D01*
X001105Y012544D01*
X001084Y012545D01*
X001064Y012550D01*
X001044Y012558D01*
X001026Y012570D01*
X001011Y012584D01*
X000999Y012601D01*
X000990Y012621D01*
X000984Y012641D01*
X000982Y012662D01*
D12*
X009112Y009115D02*
X009112Y008415D01*
X009579Y008415D01*
X009812Y008532D02*
X009929Y008415D01*
X010163Y008415D01*
X010279Y008532D01*
X010279Y008765D01*
X010163Y008882D01*
X009929Y008882D01*
X009812Y008765D01*
X009812Y008532D01*
X010512Y008532D02*
X010629Y008415D01*
X010862Y008415D01*
X010979Y008532D01*
X010979Y008765D01*
X010862Y008882D01*
X010629Y008882D01*
X010512Y008765D01*
X010512Y008532D01*
X011212Y008532D02*
X011329Y008415D01*
X011679Y008415D01*
X011912Y008415D02*
X011912Y009115D01*
X012028Y008882D02*
X012262Y008882D01*
X012379Y008765D01*
X012379Y008415D01*
X012611Y008415D02*
X012845Y008415D01*
X012728Y008415D02*
X012728Y008882D01*
X012611Y008882D01*
X012728Y009115D02*
X012728Y009232D01*
X012028Y008882D02*
X011912Y008765D01*
X011679Y008882D02*
X011329Y008882D01*
X011212Y008765D01*
X011212Y008532D01*
X013778Y008882D02*
X014011Y008415D01*
X014245Y008882D01*
X014478Y008999D02*
X014478Y008532D01*
X014945Y008999D01*
X014945Y008532D01*
X014828Y008415D01*
X014594Y008415D01*
X014478Y008532D01*
X014478Y008999D02*
X014594Y009115D01*
X014828Y009115D01*
X014945Y008999D01*
X015177Y008532D02*
X015294Y008532D01*
X015294Y008415D01*
X015177Y008415D01*
X015177Y008532D01*
X015527Y008532D02*
X015644Y008415D01*
X015878Y008415D01*
X015994Y008532D01*
X015994Y008765D01*
X015878Y008882D01*
X015761Y008882D01*
X015527Y008765D01*
X015527Y009115D01*
X015994Y009115D01*
D13*
X016673Y009060D02*
X016673Y010399D01*
X020417Y010399D01*
X020417Y009060D01*
X016673Y009060D01*
X017207Y007662D02*
X017915Y007662D01*
X017915Y007387D01*
X019769Y005684D02*
X020382Y005071D01*
X020298Y006269D02*
X020300Y006320D01*
X020306Y006371D01*
X020316Y006421D01*
X020329Y006471D01*
X020347Y006519D01*
X020367Y006566D01*
X020392Y006611D01*
X020420Y006654D01*
X020451Y006695D01*
X020485Y006733D01*
X020522Y006768D01*
X020561Y006801D01*
X020603Y006831D01*
X020647Y006857D01*
X020693Y006879D01*
X020741Y006899D01*
X020790Y006914D01*
X020840Y006926D01*
X020890Y006934D01*
X020941Y006938D01*
X020993Y006938D01*
X021044Y006934D01*
X021094Y006926D01*
X021144Y006914D01*
X021193Y006899D01*
X021241Y006879D01*
X021287Y006857D01*
X021331Y006831D01*
X021373Y006801D01*
X021412Y006768D01*
X021449Y006733D01*
X021483Y006695D01*
X021514Y006654D01*
X021542Y006611D01*
X021567Y006566D01*
X021587Y006519D01*
X021605Y006471D01*
X021618Y006421D01*
X021628Y006371D01*
X021634Y006320D01*
X021636Y006269D01*
X021634Y006218D01*
X021628Y006167D01*
X021618Y006117D01*
X021605Y006067D01*
X021587Y006019D01*
X021567Y005972D01*
X021542Y005927D01*
X021514Y005884D01*
X021483Y005843D01*
X021449Y005805D01*
X021412Y005770D01*
X021373Y005737D01*
X021331Y005707D01*
X021287Y005681D01*
X021241Y005659D01*
X021193Y005639D01*
X021144Y005624D01*
X021094Y005612D01*
X021044Y005604D01*
X020993Y005600D01*
X020941Y005600D01*
X020890Y005604D01*
X020840Y005612D01*
X020790Y005624D01*
X020741Y005639D01*
X020693Y005659D01*
X020647Y005681D01*
X020603Y005707D01*
X020561Y005737D01*
X020522Y005770D01*
X020485Y005805D01*
X020451Y005843D01*
X020420Y005884D01*
X020392Y005927D01*
X020367Y005972D01*
X020347Y006019D01*
X020329Y006067D01*
X020316Y006117D01*
X020306Y006167D01*
X020300Y006218D01*
X020298Y006269D01*
X021551Y007466D02*
X022164Y006853D01*
X022159Y010891D02*
X022789Y010891D01*
X022159Y010891D02*
X022159Y014434D01*
X022829Y014434D01*
X024404Y014434D02*
X025230Y014434D01*
X026018Y013647D02*
X027396Y013647D01*
X027396Y014434D01*
X026805Y014434D01*
X027396Y013647D02*
X027396Y011678D01*
X026018Y011678D01*
X026805Y010891D02*
X027396Y010891D01*
X027396Y011678D01*
X026018Y011678D02*
X025959Y011682D01*
X025900Y011691D01*
X025842Y011703D01*
X025785Y011718D01*
X025729Y011737D01*
X025674Y011760D01*
X025621Y011786D01*
X025569Y011815D01*
X025520Y011847D01*
X025472Y011883D01*
X025427Y011921D01*
X025384Y011962D01*
X025344Y012006D01*
X025307Y012052D01*
X025273Y012100D01*
X025242Y012151D01*
X025214Y012203D01*
X025190Y012257D01*
X025169Y012312D01*
X025151Y012369D01*
X025137Y012427D01*
X025127Y012485D01*
X025120Y012544D01*
X025117Y012603D01*
X025118Y012662D01*
X025118Y012663D02*
X025117Y012722D01*
X025120Y012781D01*
X025127Y012840D01*
X025137Y012898D01*
X025151Y012956D01*
X025169Y013013D01*
X025190Y013068D01*
X025214Y013122D01*
X025242Y013174D01*
X025273Y013225D01*
X025307Y013273D01*
X025344Y013319D01*
X025384Y013363D01*
X025427Y013404D01*
X025472Y013442D01*
X025520Y013478D01*
X025569Y013510D01*
X025621Y013539D01*
X025674Y013565D01*
X025729Y013588D01*
X025785Y013607D01*
X025842Y013622D01*
X025900Y013634D01*
X025959Y013643D01*
X026018Y013647D01*
X025230Y010891D02*
X024404Y010891D01*
X017915Y001757D02*
X017915Y001521D01*
X017207Y001521D01*
X008112Y001521D02*
X007758Y001521D01*
X007758Y001796D01*
X007758Y007426D02*
X007758Y007662D01*
X008073Y007662D01*
X008168Y014868D02*
X007708Y014868D01*
X007554Y015021D01*
X007554Y015328D01*
X007708Y015482D01*
X008168Y015482D01*
X008475Y015328D02*
X008475Y015021D01*
X008629Y014868D01*
X008936Y014868D01*
X009089Y015021D01*
X009089Y015328D01*
X008936Y015482D01*
X008629Y015482D01*
X008475Y015328D01*
X009396Y015482D02*
X009396Y014868D01*
X009703Y014868D02*
X009703Y015328D01*
X009856Y015482D01*
X010010Y015328D01*
X010010Y014868D01*
X009703Y015328D02*
X009549Y015482D01*
X009396Y015482D01*
X007248Y015021D02*
X007248Y014868D01*
X007094Y014868D01*
X007094Y015021D01*
X007248Y015021D01*
X006787Y015021D02*
X006634Y015175D01*
X006327Y015175D01*
X006173Y015328D01*
X006327Y015482D01*
X006787Y015482D01*
X006787Y015021D02*
X006634Y014868D01*
X006173Y014868D01*
X005866Y014868D02*
X005406Y014868D01*
X005252Y015021D01*
X005406Y015175D01*
X005866Y015175D01*
X005866Y015328D02*
X005866Y014868D01*
X005866Y015328D02*
X005713Y015482D01*
X005406Y015482D01*
X004946Y015328D02*
X004946Y015175D01*
X004332Y015175D01*
X004332Y015328D02*
X004332Y015021D01*
X004485Y014868D01*
X004792Y014868D01*
X004946Y015328D02*
X004792Y015482D01*
X004485Y015482D01*
X004332Y015328D01*
X004025Y015482D02*
X003564Y015482D01*
X003411Y015328D01*
X003411Y015021D01*
X003564Y014868D01*
X004025Y014868D01*
X004025Y015789D01*
X002951Y015789D02*
X002951Y015942D01*
X002951Y015482D02*
X002797Y015482D01*
X002951Y015482D02*
X002951Y014868D01*
X003104Y014868D02*
X002797Y014868D01*
X002490Y015021D02*
X002490Y015328D01*
X002337Y015482D01*
X001876Y015482D01*
X001569Y015482D02*
X001262Y015482D01*
X001416Y015635D02*
X001416Y015021D01*
X001569Y014868D01*
X001876Y014868D02*
X002337Y014868D01*
X002490Y015021D01*
X001876Y014868D02*
X001876Y015789D01*
D14*
X004929Y003472D02*
X004929Y003011D01*
X004929Y003165D02*
X005160Y003165D01*
X005236Y003241D01*
X005236Y003395D01*
X005160Y003472D01*
X004929Y003472D01*
X005083Y003165D02*
X005236Y003011D01*
X005390Y003011D02*
X005697Y003011D01*
X005543Y003011D02*
X005543Y003472D01*
X005390Y003318D01*
X005850Y003395D02*
X005927Y003472D01*
X006080Y003472D01*
X006157Y003395D01*
X006157Y003318D01*
X006080Y003241D01*
X006157Y003165D01*
X006157Y003088D01*
X006080Y003011D01*
X005927Y003011D01*
X005850Y003088D01*
X006004Y003241D02*
X006080Y003241D01*
X006169Y003877D02*
X005939Y003877D01*
X005939Y004338D01*
X006169Y004338D01*
X006246Y004261D01*
X006246Y004184D01*
X006169Y004108D01*
X005939Y004108D01*
X006169Y004108D02*
X006246Y004031D01*
X006246Y003954D01*
X006169Y003877D01*
X006400Y003877D02*
X006707Y003877D01*
X006860Y003954D02*
X006937Y003877D01*
X007090Y003877D01*
X007167Y003954D01*
X007167Y004338D01*
X007320Y004338D02*
X007320Y003877D01*
X007627Y003877D01*
X007474Y004108D02*
X007320Y004108D01*
X007320Y004338D02*
X007627Y004338D01*
X006860Y004338D02*
X006860Y003954D01*
X006400Y003877D02*
X006400Y004338D01*
X005527Y005096D02*
X005450Y005019D01*
X005297Y005019D01*
X005220Y005096D01*
X005067Y005019D02*
X004760Y005019D01*
X004913Y005019D02*
X004913Y005480D01*
X004760Y005326D01*
X004606Y005403D02*
X004530Y005480D01*
X004376Y005480D01*
X004300Y005403D01*
X004300Y005096D01*
X004376Y005019D01*
X004530Y005019D01*
X004606Y005096D01*
X004685Y005649D02*
X004532Y005802D01*
X004608Y005802D02*
X004378Y005802D01*
X004378Y005649D02*
X004378Y006109D01*
X004608Y006109D01*
X004685Y006033D01*
X004685Y005879D01*
X004608Y005802D01*
X004839Y005649D02*
X005146Y005649D01*
X004992Y005649D02*
X004992Y006109D01*
X004839Y005956D01*
X005299Y005879D02*
X005606Y005879D01*
X005529Y005649D02*
X005529Y006109D01*
X005299Y005879D01*
X005297Y005480D02*
X005450Y005480D01*
X005527Y005403D01*
X005527Y005326D01*
X005450Y005249D01*
X005527Y005173D01*
X005527Y005096D01*
X005450Y005249D02*
X005374Y005249D01*
X005220Y005403D02*
X005297Y005480D01*
X004435Y007417D02*
X004128Y007417D01*
X004051Y007494D01*
X004051Y007648D01*
X004128Y007724D01*
X004205Y007878D02*
X004051Y008031D01*
X004511Y008031D01*
X004511Y007878D02*
X004511Y008185D01*
X004511Y008338D02*
X004435Y008338D01*
X004128Y008645D01*
X004051Y008645D01*
X004051Y008338D01*
X004435Y007724D02*
X004511Y007648D01*
X004511Y007494D01*
X004435Y007417D01*
X003315Y008139D02*
X003238Y008062D01*
X002931Y008062D01*
X002854Y008139D01*
X002854Y008293D01*
X002931Y008369D01*
X003008Y008523D02*
X002854Y008676D01*
X003315Y008676D01*
X003315Y008523D02*
X003315Y008830D01*
X003084Y008983D02*
X003084Y009290D01*
X002854Y009213D02*
X003084Y008983D01*
X003315Y009213D02*
X002854Y009213D01*
X003238Y008369D02*
X003315Y008293D01*
X003315Y008139D01*
X001244Y009059D02*
X000783Y009059D01*
X000783Y009366D01*
X000937Y009519D02*
X000783Y009673D01*
X001244Y009673D01*
X001244Y009826D02*
X001244Y009519D01*
X001014Y009212D02*
X001014Y009059D01*
X002366Y011159D02*
X002673Y011159D01*
X002750Y011236D01*
X002750Y011389D01*
X002673Y011466D01*
X002750Y011619D02*
X002750Y011926D01*
X002750Y011773D02*
X002289Y011773D01*
X002443Y011619D01*
X002366Y011466D02*
X002289Y011389D01*
X002289Y011236D01*
X002366Y011159D01*
X003287Y011210D02*
X003364Y011133D01*
X003671Y011133D01*
X003748Y011210D01*
X003748Y011363D01*
X003671Y011440D01*
X003748Y011594D02*
X003748Y011901D01*
X003748Y012054D02*
X003441Y012361D01*
X003364Y012361D01*
X003287Y012284D01*
X003287Y012131D01*
X003364Y012054D01*
X003287Y011747D02*
X003748Y011747D01*
X003748Y012054D02*
X003748Y012361D01*
X003287Y011747D02*
X003441Y011594D01*
X003364Y011440D02*
X003287Y011363D01*
X003287Y011210D01*
X002673Y012080D02*
X002366Y012080D01*
X002289Y012156D01*
X002289Y012310D01*
X002366Y012387D01*
X002673Y012080D01*
X002750Y012156D01*
X002750Y012310D01*
X002673Y012387D01*
X002366Y012387D01*
X002476Y013311D02*
X002937Y013311D01*
X002937Y013618D01*
X002706Y013771D02*
X002706Y014078D01*
X002476Y014002D02*
X002706Y013771D01*
X002476Y014002D02*
X002937Y014002D01*
X000872Y012116D02*
X000872Y011809D01*
X000872Y011962D02*
X000411Y011962D01*
X000565Y011809D01*
X000488Y011655D02*
X000411Y011579D01*
X000411Y011425D01*
X000488Y011348D01*
X000565Y011348D01*
X000642Y011425D01*
X000642Y011579D01*
X000718Y011655D01*
X000795Y011655D01*
X000872Y011579D01*
X000872Y011425D01*
X000795Y011348D01*
X005833Y015818D02*
X005833Y016049D01*
X005909Y016125D01*
X006063Y016125D01*
X006140Y016049D01*
X006140Y015818D01*
X006293Y015818D02*
X005833Y015818D01*
X006140Y015972D02*
X006293Y016125D01*
X006451Y016062D02*
X006451Y015909D01*
X006527Y015832D01*
X006834Y015832D01*
X006911Y015909D01*
X006911Y016062D01*
X006834Y016139D01*
X006681Y016292D02*
X006681Y016599D01*
X006911Y016523D02*
X006451Y016523D01*
X006681Y016292D01*
X006527Y016139D02*
X006451Y016062D01*
X006216Y016279D02*
X006140Y016279D01*
X006063Y016355D01*
X006063Y016509D01*
X006140Y016586D01*
X006216Y016586D01*
X006293Y016509D01*
X006293Y016355D01*
X006216Y016279D01*
X006063Y016355D02*
X005986Y016279D01*
X005909Y016279D01*
X005833Y016355D01*
X005833Y016509D01*
X005909Y016586D01*
X005986Y016586D01*
X006063Y016509D01*
X007238Y016523D02*
X007468Y016292D01*
X007468Y016599D01*
X007698Y016523D02*
X007238Y016523D01*
X007315Y016139D02*
X007238Y016062D01*
X007238Y015832D01*
X007698Y015832D01*
X007545Y015832D02*
X007545Y016062D01*
X007468Y016139D01*
X007315Y016139D01*
X007545Y015986D02*
X007698Y016139D01*
X008197Y014194D02*
X008427Y014194D01*
X008504Y014117D01*
X008504Y013964D01*
X008427Y013887D01*
X008197Y013887D01*
X008197Y013734D02*
X008197Y014194D01*
X008351Y013887D02*
X008504Y013734D01*
X008427Y013604D02*
X008504Y013527D01*
X008504Y013373D01*
X008427Y013297D01*
X008197Y013297D01*
X008351Y013297D02*
X008504Y013143D01*
X008658Y013143D02*
X008964Y013450D01*
X008964Y013527D01*
X008888Y013604D01*
X008734Y013604D01*
X008658Y013527D01*
X008734Y013734D02*
X008658Y013810D01*
X008734Y013734D02*
X008888Y013734D01*
X008964Y013810D01*
X008964Y014117D01*
X008888Y014194D01*
X008734Y014194D01*
X008658Y014117D01*
X008658Y014041D01*
X008734Y013964D01*
X008964Y013964D01*
X008427Y013604D02*
X008197Y013604D01*
X008197Y013143D01*
X008658Y013143D02*
X008964Y013143D01*
X007927Y012149D02*
X007850Y012226D01*
X007697Y012226D01*
X007620Y012149D01*
X007620Y012072D01*
X007697Y011995D01*
X007927Y011995D01*
X007927Y011842D02*
X007927Y012149D01*
X007927Y011842D02*
X007850Y011765D01*
X007697Y011765D01*
X007620Y011842D01*
X007467Y011842D02*
X007390Y011765D01*
X007236Y011765D01*
X007160Y011842D01*
X007160Y012149D01*
X007236Y012226D01*
X007390Y012226D01*
X007467Y012149D01*
X011644Y015677D02*
X011644Y015907D01*
X011720Y015984D01*
X011874Y015984D01*
X011951Y015907D01*
X011951Y015677D01*
X012104Y015677D02*
X011644Y015677D01*
X011951Y015830D02*
X012104Y015984D01*
X012104Y016137D02*
X012104Y016444D01*
X012104Y016290D02*
X011644Y016290D01*
X011797Y016137D01*
X011720Y016597D02*
X011644Y016674D01*
X011644Y016828D01*
X011720Y016904D01*
X012027Y016597D01*
X012104Y016674D01*
X012104Y016828D01*
X012027Y016904D01*
X011720Y016904D01*
X011720Y016597D02*
X012027Y016597D01*
X012447Y016580D02*
X012677Y016580D01*
X012600Y016733D01*
X012600Y016810D01*
X012677Y016887D01*
X012830Y016887D01*
X012907Y016810D01*
X012907Y016657D01*
X012830Y016580D01*
X012830Y016426D02*
X012907Y016350D01*
X012907Y016196D01*
X012830Y016120D01*
X012523Y016120D01*
X012447Y016196D01*
X012447Y016350D01*
X012523Y016426D01*
X012447Y016580D02*
X012447Y016887D01*
X013136Y016842D02*
X013136Y016535D01*
X013366Y016535D01*
X013289Y016688D01*
X013289Y016765D01*
X013366Y016842D01*
X013519Y016842D01*
X013596Y016765D01*
X013596Y016611D01*
X013519Y016535D01*
X013596Y016381D02*
X013443Y016228D01*
X013443Y016304D02*
X013443Y016074D01*
X013596Y016074D02*
X013136Y016074D01*
X013136Y016304D01*
X013212Y016381D01*
X013366Y016381D01*
X013443Y016304D01*
X016187Y013664D02*
X016647Y013664D01*
X016647Y013511D02*
X016647Y013818D01*
X016935Y013714D02*
X016935Y013560D01*
X017012Y013483D01*
X017012Y013330D02*
X017165Y013330D01*
X017242Y013253D01*
X017242Y013023D01*
X017395Y013023D02*
X016935Y013023D01*
X016935Y013253D01*
X017012Y013330D01*
X017242Y013177D02*
X017395Y013330D01*
X017319Y013483D02*
X017395Y013560D01*
X017395Y013714D01*
X017319Y013790D01*
X017242Y013790D01*
X017165Y013714D01*
X017165Y013637D01*
X017165Y013714D02*
X017088Y013790D01*
X017012Y013790D01*
X016935Y013714D01*
X016647Y013357D02*
X016647Y013050D01*
X016647Y012897D02*
X016494Y012743D01*
X016494Y012820D02*
X016494Y012590D01*
X016647Y012590D02*
X016187Y012590D01*
X016187Y012820D01*
X016264Y012897D01*
X016417Y012897D01*
X016494Y012820D01*
X016340Y013050D02*
X016187Y013204D01*
X016647Y013204D01*
X016340Y013511D02*
X016187Y013664D01*
X017398Y012385D02*
X017398Y012078D01*
X017628Y012078D01*
X017551Y012232D01*
X017551Y012309D01*
X017628Y012385D01*
X017781Y012385D01*
X017858Y012309D01*
X017858Y012155D01*
X017781Y012078D01*
X017858Y011925D02*
X017858Y011618D01*
X017858Y011465D02*
X017704Y011311D01*
X017704Y011388D02*
X017704Y011158D01*
X017858Y011158D02*
X017398Y011158D01*
X017398Y011388D01*
X017474Y011465D01*
X017628Y011465D01*
X017704Y011388D01*
X017551Y011618D02*
X017398Y011771D01*
X017858Y011771D01*
X017329Y011037D02*
X017329Y010577D01*
X017176Y010577D02*
X017483Y010577D01*
X017176Y010884D02*
X017329Y011037D01*
X017022Y010960D02*
X017022Y010807D01*
X016945Y010730D01*
X016715Y010730D01*
X016715Y010577D02*
X016715Y011037D01*
X016945Y011037D01*
X017022Y010960D01*
X018841Y012052D02*
X018841Y012288D01*
X018841Y012052D02*
X019510Y011383D01*
X021400Y011383D01*
X021400Y012288D01*
X021543Y011871D02*
X021466Y011794D01*
X021466Y011641D01*
X021543Y011564D01*
X021466Y011411D02*
X021466Y011257D01*
X021466Y011334D02*
X021850Y011334D01*
X021927Y011257D01*
X021927Y011180D01*
X021850Y011104D01*
X021927Y011564D02*
X021620Y011871D01*
X021543Y011871D01*
X021927Y011871D02*
X021927Y011564D01*
X021400Y013037D02*
X021400Y013942D01*
X019510Y013942D01*
X018841Y013273D01*
X018841Y013037D01*
X018959Y013036D02*
X018981Y013100D01*
X019008Y013163D01*
X019038Y013225D01*
X019071Y013284D01*
X019107Y013342D01*
X019147Y013398D01*
X019190Y013451D01*
X019235Y013502D01*
X019283Y013550D01*
X019334Y013595D01*
X019388Y013638D01*
X019444Y013677D01*
X019501Y013714D01*
X019561Y013747D01*
X019623Y013776D01*
X019686Y013802D01*
X019750Y013825D01*
X019816Y013844D01*
X019883Y013859D01*
X019950Y013870D01*
X020018Y013878D01*
X020086Y013882D01*
X020154Y013882D01*
X020222Y013878D01*
X020290Y013870D01*
X020357Y013859D01*
X020424Y013844D01*
X020490Y013825D01*
X020554Y013802D01*
X020617Y013776D01*
X020679Y013747D01*
X020739Y013714D01*
X020796Y013677D01*
X020852Y013638D01*
X020906Y013595D01*
X020957Y013550D01*
X021005Y013502D01*
X021050Y013451D01*
X021093Y013398D01*
X021133Y013342D01*
X021169Y013284D01*
X021202Y013225D01*
X021232Y013163D01*
X021259Y013100D01*
X021281Y013036D01*
X021281Y012288D02*
X021259Y012224D01*
X021232Y012161D01*
X021202Y012099D01*
X021169Y012040D01*
X021133Y011982D01*
X021093Y011926D01*
X021050Y011873D01*
X021005Y011822D01*
X020957Y011774D01*
X020906Y011729D01*
X020852Y011686D01*
X020796Y011647D01*
X020739Y011610D01*
X020679Y011577D01*
X020617Y011548D01*
X020554Y011522D01*
X020490Y011499D01*
X020424Y011480D01*
X020357Y011465D01*
X020290Y011454D01*
X020222Y011446D01*
X020154Y011442D01*
X020086Y011442D01*
X020018Y011446D01*
X019950Y011454D01*
X019883Y011465D01*
X019816Y011480D01*
X019750Y011499D01*
X019686Y011522D01*
X019623Y011548D01*
X019561Y011577D01*
X019501Y011610D01*
X019444Y011647D01*
X019388Y011686D01*
X019334Y011729D01*
X019283Y011774D01*
X019235Y011822D01*
X019190Y011873D01*
X019147Y011926D01*
X019107Y011982D01*
X019071Y012040D01*
X019038Y012099D01*
X019008Y012161D01*
X018981Y012224D01*
X018959Y012288D01*
X021214Y014531D02*
X021291Y014454D01*
X021598Y014454D01*
X021675Y014531D01*
X021675Y014684D01*
X021598Y014761D01*
X021291Y014761D01*
X021214Y014684D01*
X021214Y014531D01*
X021368Y014915D02*
X021368Y015145D01*
X021445Y015221D01*
X021598Y015221D01*
X021675Y015145D01*
X021675Y014915D01*
X021828Y014915D02*
X021368Y014915D01*
X021445Y015375D02*
X021368Y015452D01*
X021368Y015605D01*
X021445Y015682D01*
X021521Y015682D01*
X021521Y015375D01*
X021445Y015375D02*
X021598Y015375D01*
X021675Y015452D01*
X021675Y015605D01*
X021675Y015835D02*
X021368Y015835D01*
X021368Y016066D01*
X021445Y016142D01*
X021675Y016142D01*
X021445Y016296D02*
X021445Y016603D01*
X021368Y016756D02*
X021445Y016833D01*
X021445Y016986D01*
X021521Y017063D01*
X021598Y017063D01*
X021675Y016986D01*
X021675Y016833D01*
X021598Y016756D01*
X021368Y016756D02*
X021291Y016756D01*
X021214Y016833D01*
X021214Y016986D01*
X021291Y017063D01*
X021445Y017217D02*
X021368Y017293D01*
X021368Y017447D01*
X021445Y017523D01*
X021598Y017523D01*
X021675Y017447D01*
X021675Y017293D01*
X021598Y017217D01*
X021445Y017217D01*
X021368Y017677D02*
X021598Y017677D01*
X021675Y017754D01*
X021675Y017984D01*
X021368Y017984D01*
X021368Y018137D02*
X021675Y018137D01*
X021521Y018137D02*
X021368Y018291D01*
X021368Y018367D01*
X021445Y018521D02*
X021368Y018598D01*
X021368Y018828D01*
X021445Y018981D02*
X021368Y019058D01*
X021368Y019212D01*
X021445Y019288D01*
X021521Y019288D01*
X021521Y018981D01*
X021445Y018981D02*
X021598Y018981D01*
X021675Y019058D01*
X021675Y019212D01*
X022002Y019011D02*
X022155Y019165D01*
X022462Y019165D01*
X022232Y019165D02*
X022232Y018858D01*
X022155Y018858D02*
X022462Y018858D01*
X022386Y018705D02*
X022462Y018628D01*
X022462Y018474D01*
X022386Y018398D01*
X022232Y018474D02*
X022232Y018628D01*
X022309Y018705D01*
X022386Y018705D01*
X022155Y018858D02*
X022002Y019011D01*
X022079Y018705D02*
X022002Y018628D01*
X022002Y018474D01*
X022079Y018398D01*
X022155Y018398D01*
X022232Y018474D01*
X022232Y018244D02*
X022232Y017937D01*
X022079Y017784D02*
X022232Y017630D01*
X022462Y017630D01*
X022232Y017630D02*
X022079Y017477D01*
X022002Y017477D01*
X022079Y017323D02*
X022155Y017323D01*
X022232Y017247D01*
X022232Y017016D01*
X022232Y016863D02*
X022232Y016556D01*
X022079Y016403D02*
X022002Y016326D01*
X022002Y016172D01*
X022079Y016096D01*
X022386Y016096D01*
X022462Y016172D01*
X022462Y016326D01*
X022386Y016403D01*
X022386Y015942D02*
X022462Y015865D01*
X022462Y015712D01*
X022386Y015635D01*
X022079Y015635D01*
X022002Y015712D01*
X022002Y015865D01*
X022079Y015942D01*
X022002Y017016D02*
X022002Y017247D01*
X022079Y017323D01*
X022232Y017247D02*
X022309Y017323D01*
X022386Y017323D01*
X022462Y017247D01*
X022462Y017016D01*
X022002Y017016D01*
X022002Y017784D02*
X022079Y017784D01*
X021598Y018521D02*
X021675Y018598D01*
X021675Y018828D01*
X021598Y018521D02*
X021445Y018521D01*
X021445Y019902D02*
X021445Y020209D01*
X021675Y020209D02*
X021214Y020209D01*
X021214Y020363D02*
X021675Y020363D01*
X021521Y020516D01*
X021675Y020669D01*
X021214Y020669D01*
X021214Y019902D02*
X021675Y019902D01*
X017950Y022575D02*
X017950Y022728D01*
X017874Y022805D01*
X017874Y022958D02*
X017950Y023035D01*
X017950Y023189D01*
X017874Y023265D01*
X017797Y023265D01*
X017720Y023189D01*
X017720Y023112D01*
X017720Y023189D02*
X017644Y023265D01*
X017567Y023265D01*
X017490Y023189D01*
X017490Y023035D01*
X017567Y022958D01*
X017567Y022805D02*
X017490Y022728D01*
X017490Y022575D01*
X017567Y022498D01*
X017874Y022498D01*
X017950Y022575D01*
X016577Y021728D02*
X016577Y021651D01*
X016500Y021574D01*
X016577Y021497D01*
X016577Y021421D01*
X016500Y021344D01*
X016346Y021344D01*
X016270Y021421D01*
X016116Y021344D02*
X015809Y021344D01*
X015809Y021804D01*
X016270Y021728D02*
X016346Y021804D01*
X016500Y021804D01*
X016577Y021728D01*
X016500Y021574D02*
X016423Y021574D01*
X015769Y022525D02*
X015309Y022525D01*
X015309Y022755D01*
X015386Y022832D01*
X015693Y022832D01*
X015769Y022755D01*
X015769Y022525D01*
X015693Y022985D02*
X015769Y023062D01*
X015769Y023216D01*
X015693Y023292D01*
X015616Y023292D01*
X015539Y023216D01*
X015539Y023139D01*
X015539Y023216D02*
X015462Y023292D01*
X015386Y023292D01*
X015309Y023216D01*
X015309Y023062D01*
X015386Y022985D01*
X014210Y022968D02*
X014210Y023122D01*
X014134Y023199D01*
X014210Y023352D02*
X013903Y023659D01*
X013827Y023659D01*
X013750Y023582D01*
X013750Y023429D01*
X013827Y023352D01*
X013827Y023199D02*
X013750Y023122D01*
X013750Y022968D01*
X013827Y022892D01*
X014134Y022892D01*
X014210Y022968D01*
X014210Y023352D02*
X014210Y023659D01*
X012900Y024387D02*
X012593Y024387D01*
X012900Y024694D01*
X012900Y024771D01*
X012823Y024848D01*
X012670Y024848D01*
X012593Y024771D01*
X012440Y024771D02*
X012363Y024848D01*
X012133Y024848D01*
X012133Y024387D01*
X012363Y024387D01*
X012440Y024464D01*
X012440Y024771D01*
X011382Y023576D02*
X011228Y023576D01*
X011152Y023499D01*
X011382Y023576D02*
X011459Y023499D01*
X011459Y023422D01*
X011152Y023116D01*
X011459Y023116D01*
X010998Y023116D02*
X010691Y023116D01*
X010691Y023576D01*
X009289Y022084D02*
X009289Y021777D01*
X009289Y021931D02*
X008829Y021931D01*
X008982Y021777D01*
X008905Y021624D02*
X008829Y021547D01*
X008829Y021394D01*
X008905Y021317D01*
X009212Y021317D01*
X009289Y021394D01*
X009289Y021547D01*
X009212Y021624D01*
X008309Y023312D02*
X008002Y023312D01*
X008155Y023312D02*
X008155Y023773D01*
X008002Y023619D01*
X007849Y023696D02*
X007849Y023389D01*
X007772Y023312D01*
X007542Y023312D01*
X007542Y023773D01*
X007772Y023773D01*
X007849Y023696D01*
X006581Y022789D02*
X006581Y022328D01*
X006734Y022328D02*
X006427Y022328D01*
X006274Y022328D02*
X005967Y022328D01*
X005967Y022789D01*
X006427Y022635D02*
X006581Y022789D01*
X003565Y018962D02*
X003565Y018655D01*
X003565Y018808D02*
X003104Y018808D01*
X003258Y018655D01*
X003334Y018501D02*
X003411Y018425D01*
X003411Y018194D01*
X003565Y018194D02*
X003104Y018194D01*
X003104Y018425D01*
X003181Y018501D01*
X003334Y018501D01*
X003411Y018348D02*
X003565Y018501D01*
X002777Y018501D02*
X002624Y018348D01*
X002624Y018425D02*
X002624Y018194D01*
X002777Y018194D02*
X002317Y018194D01*
X002317Y018425D01*
X002394Y018501D01*
X002547Y018501D01*
X002624Y018425D01*
X002700Y018655D02*
X002777Y018655D01*
X002700Y018655D02*
X002394Y018962D01*
X002317Y018962D01*
X002317Y018655D01*
X017206Y006548D02*
X017206Y006440D01*
X017314Y006331D01*
X017423Y006331D01*
X017531Y006223D02*
X017477Y006169D01*
X017531Y006223D02*
X017965Y006223D01*
X018019Y006277D01*
X017802Y006494D01*
X017640Y006548D02*
X017640Y006657D01*
X017531Y006766D01*
X017423Y006766D01*
X017206Y006548D01*
X018682Y003891D02*
X018605Y003814D01*
X018605Y003507D01*
X018682Y003431D01*
X018836Y003431D01*
X018912Y003507D01*
X019066Y003507D02*
X019066Y003584D01*
X019143Y003661D01*
X019296Y003661D01*
X019373Y003584D01*
X019373Y003507D01*
X019296Y003431D01*
X019143Y003431D01*
X019066Y003507D01*
X019143Y003661D02*
X019066Y003737D01*
X019066Y003814D01*
X019143Y003891D01*
X019296Y003891D01*
X019373Y003814D01*
X019373Y003737D01*
X019296Y003661D01*
X018912Y003814D02*
X018836Y003891D01*
X018682Y003891D01*
X022038Y007368D02*
X022345Y007829D01*
X022498Y007675D02*
X022652Y007829D01*
X022652Y007368D01*
X022805Y007368D02*
X022498Y007368D01*
X022345Y007368D02*
X022038Y007829D01*
X022009Y008442D02*
X021855Y008442D01*
X021778Y008519D01*
X021778Y008826D01*
X021855Y008903D01*
X022009Y008903D01*
X022085Y008826D01*
X022085Y008519D01*
X022009Y008442D01*
X022085Y008442D02*
X021932Y008596D01*
X022239Y008673D02*
X022469Y008903D01*
X022469Y008442D01*
X022546Y008673D02*
X022239Y008673D01*
X018419Y014795D02*
X017959Y014795D01*
X017959Y015025D01*
X018035Y015102D01*
X018189Y015102D01*
X018265Y015025D01*
X018265Y014795D01*
X018265Y014948D02*
X018419Y015102D01*
X018419Y015255D02*
X018419Y015562D01*
X018419Y015409D02*
X017959Y015409D01*
X018112Y015255D01*
X018035Y015715D02*
X017959Y015792D01*
X017959Y015946D01*
X018035Y016022D01*
X018112Y016022D01*
X018419Y015715D01*
X018419Y016022D01*
X018746Y015903D02*
X018823Y015749D01*
X018976Y015596D01*
X018976Y015826D01*
X019053Y015903D01*
X019130Y015903D01*
X019206Y015826D01*
X019206Y015672D01*
X019130Y015596D01*
X018976Y015596D01*
X018823Y015442D02*
X018746Y015365D01*
X018746Y015212D01*
X018823Y015135D01*
X019130Y015135D01*
X019206Y015212D01*
X019206Y015365D01*
X019130Y015442D01*
X019533Y015419D02*
X019533Y015188D01*
X019994Y015188D01*
X019840Y015188D02*
X019840Y015419D01*
X019764Y015495D01*
X019610Y015495D01*
X019533Y015419D01*
X019840Y015342D02*
X019994Y015495D01*
X019917Y015649D02*
X019994Y015726D01*
X019994Y015879D01*
X019917Y015956D01*
X019840Y015956D01*
X019764Y015879D01*
X019764Y015649D01*
X019917Y015649D01*
X019764Y015649D02*
X019610Y015802D01*
X019533Y015956D01*
X013964Y001082D02*
X013964Y000621D01*
X013811Y000621D02*
X014118Y000621D01*
X013811Y000928D02*
X013964Y001082D01*
X013504Y001082D02*
X013504Y000621D01*
X013657Y000621D02*
X013350Y000621D01*
X013197Y000852D02*
X012890Y000852D01*
X012736Y000928D02*
X012736Y001005D01*
X012660Y001082D01*
X012506Y001082D01*
X012430Y001005D01*
X012736Y000928D02*
X012430Y000621D01*
X012736Y000621D01*
X012276Y000621D02*
X011969Y000621D01*
X012123Y000621D02*
X012123Y001082D01*
X011969Y000928D01*
X011816Y001005D02*
X011509Y000698D01*
X011585Y000621D01*
X011739Y000621D01*
X011816Y000698D01*
X011816Y001005D01*
X011739Y001082D01*
X011585Y001082D01*
X011509Y001005D01*
X011509Y000698D01*
X011355Y000621D02*
X011048Y000621D01*
X011355Y000928D01*
X011355Y001005D01*
X011279Y001082D01*
X011125Y001082D01*
X011048Y001005D01*
X013350Y000928D02*
X013504Y001082D01*
D15*
X006970Y006521D02*
X006970Y007781D01*
X005317Y007781D01*
X005317Y006521D01*
X006970Y006521D01*
X003791Y006412D02*
X002591Y006412D01*
X002591Y007101D01*
X003791Y007101D01*
X003791Y006412D01*
X005871Y009625D02*
X005871Y009775D01*
X005871Y009700D02*
X006246Y009700D01*
X006321Y009625D01*
X006321Y009550D01*
X006246Y009475D01*
X006321Y009935D02*
X006321Y010236D01*
X006321Y010085D02*
X005871Y010085D01*
X006021Y009935D01*
X005362Y011003D02*
X005062Y011003D01*
X005212Y011003D02*
X005212Y011453D01*
X005062Y011303D01*
X004902Y011378D02*
X004827Y011453D01*
X004677Y011453D01*
X004602Y011378D01*
X004602Y011078D01*
X004677Y011003D01*
X004827Y011003D01*
X004902Y011078D01*
X004445Y011003D02*
X004295Y011003D01*
X004370Y011003D02*
X004370Y011453D01*
X004295Y011453D02*
X004445Y011453D01*
X002321Y011737D02*
X000943Y011737D01*
X000943Y013588D01*
X002321Y013588D01*
X002321Y011737D01*
X000923Y012269D02*
X000726Y012269D01*
X000707Y012111D02*
X000549Y012111D01*
X000549Y013214D01*
X000707Y013214D01*
X000707Y012111D01*
X000726Y013056D02*
X000904Y013056D01*
X004116Y017003D02*
X005415Y017003D01*
X005415Y017771D01*
X004116Y017771D01*
X004116Y017003D01*
X004215Y017151D02*
X004217Y017163D01*
X004222Y017174D01*
X004231Y017183D01*
X004242Y017188D01*
X004254Y017190D01*
X004266Y017188D01*
X004277Y017183D01*
X004286Y017174D01*
X004291Y017163D01*
X004293Y017151D01*
X004291Y017139D01*
X004286Y017128D01*
X004277Y017119D01*
X004266Y017114D01*
X004254Y017112D01*
X004242Y017114D01*
X004231Y017119D01*
X004222Y017128D01*
X004217Y017139D01*
X004215Y017151D01*
X004441Y018182D02*
X004366Y018257D01*
X004366Y018557D01*
X004441Y018632D01*
X004591Y018632D01*
X004666Y018557D01*
X004666Y018257D01*
X004591Y018182D01*
X004441Y018182D01*
X004516Y018332D02*
X004666Y018182D01*
X004826Y018182D02*
X005126Y018182D01*
X004976Y018182D02*
X004976Y018632D01*
X004826Y018482D01*
X004766Y019434D02*
X006026Y018174D01*
X007443Y018174D01*
X008703Y019434D01*
X008703Y020851D01*
X007443Y022111D01*
X006026Y022111D01*
X004766Y020851D01*
X004766Y019434D01*
X005435Y020025D02*
X005789Y020025D01*
X005809Y020027D01*
X005829Y020032D01*
X005848Y020041D01*
X005865Y020053D01*
X005879Y020067D01*
X005891Y020084D01*
X005900Y020103D01*
X005905Y020123D01*
X005907Y020143D01*
X005905Y020163D01*
X005900Y020183D01*
X005891Y020202D01*
X005879Y020219D01*
X005865Y020233D01*
X005848Y020245D01*
X005829Y020254D01*
X005809Y020259D01*
X005789Y020261D01*
X005435Y020261D01*
X005434Y020025D02*
X005443Y019954D01*
X005455Y019883D01*
X005471Y019814D01*
X005491Y019745D01*
X005515Y019677D01*
X005542Y019611D01*
X005573Y019547D01*
X005608Y019484D01*
X005645Y019423D01*
X005686Y019365D01*
X005731Y019309D01*
X005778Y019255D01*
X005828Y019204D01*
X005881Y019156D01*
X005936Y019110D01*
X005994Y019068D01*
X006054Y019029D01*
X006116Y018994D01*
X006180Y018961D01*
X006245Y018933D01*
X006312Y018908D01*
X006381Y018887D01*
X006450Y018869D01*
X006520Y018856D01*
X006591Y018846D01*
X006662Y018840D01*
X006734Y018838D01*
X006806Y018840D01*
X006877Y018846D01*
X006948Y018856D01*
X007018Y018869D01*
X007087Y018887D01*
X007156Y018908D01*
X007223Y018933D01*
X007288Y018961D01*
X007352Y018994D01*
X007414Y019029D01*
X007474Y019068D01*
X007532Y019110D01*
X007587Y019156D01*
X007640Y019204D01*
X007690Y019255D01*
X007737Y019309D01*
X007782Y019365D01*
X007823Y019423D01*
X007860Y019484D01*
X007895Y019547D01*
X007926Y019611D01*
X007953Y019677D01*
X007977Y019745D01*
X007997Y019814D01*
X008013Y019883D01*
X008025Y019954D01*
X008034Y020025D01*
X008033Y020025D02*
X007679Y020025D01*
X007659Y020027D01*
X007639Y020032D01*
X007620Y020041D01*
X007603Y020053D01*
X007589Y020067D01*
X007577Y020084D01*
X007568Y020103D01*
X007563Y020123D01*
X007561Y020143D01*
X007563Y020163D01*
X007568Y020183D01*
X007577Y020202D01*
X007589Y020219D01*
X007603Y020233D01*
X007620Y020245D01*
X007639Y020254D01*
X007659Y020259D01*
X007679Y020261D01*
X008033Y020261D01*
X008034Y020261D02*
X008025Y020332D01*
X008013Y020403D01*
X007997Y020472D01*
X007977Y020541D01*
X007953Y020609D01*
X007926Y020675D01*
X007895Y020739D01*
X007860Y020802D01*
X007823Y020863D01*
X007782Y020921D01*
X007737Y020977D01*
X007690Y021031D01*
X007640Y021082D01*
X007587Y021130D01*
X007532Y021176D01*
X007474Y021218D01*
X007414Y021257D01*
X007352Y021292D01*
X007288Y021325D01*
X007223Y021353D01*
X007156Y021378D01*
X007087Y021399D01*
X007018Y021417D01*
X006948Y021430D01*
X006877Y021440D01*
X006806Y021446D01*
X006734Y021448D01*
X006662Y021446D01*
X006591Y021440D01*
X006520Y021430D01*
X006450Y021417D01*
X006381Y021399D01*
X006312Y021378D01*
X006245Y021353D01*
X006180Y021325D01*
X006116Y021292D01*
X006054Y021257D01*
X005994Y021218D01*
X005936Y021176D01*
X005881Y021130D01*
X005828Y021082D01*
X005778Y021031D01*
X005731Y020977D01*
X005686Y020921D01*
X005645Y020863D01*
X005608Y020802D01*
X005573Y020739D01*
X005542Y020675D01*
X005515Y020609D01*
X005491Y020541D01*
X005471Y020472D01*
X005455Y020403D01*
X005443Y020332D01*
X005434Y020261D01*
X005314Y020143D02*
X005316Y020218D01*
X005322Y020293D01*
X005332Y020367D01*
X005346Y020441D01*
X005363Y020514D01*
X005385Y020585D01*
X005410Y020656D01*
X005439Y020725D01*
X005471Y020793D01*
X005507Y020858D01*
X005547Y020922D01*
X005590Y020984D01*
X005636Y021043D01*
X005685Y021100D01*
X005737Y021154D01*
X005791Y021205D01*
X005849Y021253D01*
X005908Y021298D01*
X005971Y021340D01*
X006035Y021379D01*
X006101Y021414D01*
X006169Y021446D01*
X006239Y021474D01*
X006309Y021498D01*
X006382Y021519D01*
X006455Y021535D01*
X006529Y021548D01*
X006603Y021557D01*
X006678Y021562D01*
X006753Y021563D01*
X006828Y021560D01*
X006902Y021553D01*
X006976Y021542D01*
X007050Y021527D01*
X007123Y021509D01*
X007194Y021486D01*
X007264Y021460D01*
X007333Y021430D01*
X007400Y021397D01*
X007466Y021360D01*
X007529Y021320D01*
X007590Y021276D01*
X007648Y021229D01*
X007704Y021180D01*
X007758Y021127D01*
X007808Y021072D01*
X007856Y021014D01*
X007900Y020953D01*
X007941Y020891D01*
X007979Y020826D01*
X008013Y020759D01*
X008044Y020691D01*
X008071Y020621D01*
X008095Y020550D01*
X008114Y020477D01*
X008130Y020404D01*
X008142Y020330D01*
X008150Y020255D01*
X008154Y020180D01*
X008154Y020106D01*
X008150Y020031D01*
X008142Y019956D01*
X008130Y019882D01*
X008114Y019809D01*
X008095Y019736D01*
X008071Y019665D01*
X008044Y019595D01*
X008013Y019527D01*
X007979Y019460D01*
X007941Y019395D01*
X007900Y019333D01*
X007856Y019272D01*
X007808Y019214D01*
X007758Y019159D01*
X007704Y019106D01*
X007648Y019057D01*
X007590Y019010D01*
X007529Y018966D01*
X007466Y018926D01*
X007400Y018889D01*
X007333Y018856D01*
X007264Y018826D01*
X007194Y018800D01*
X007123Y018777D01*
X007050Y018759D01*
X006976Y018744D01*
X006902Y018733D01*
X006828Y018726D01*
X006753Y018723D01*
X006678Y018724D01*
X006603Y018729D01*
X006529Y018738D01*
X006455Y018751D01*
X006382Y018767D01*
X006309Y018788D01*
X006239Y018812D01*
X006169Y018840D01*
X006101Y018872D01*
X006035Y018907D01*
X005971Y018946D01*
X005908Y018988D01*
X005849Y019033D01*
X005791Y019081D01*
X005737Y019132D01*
X005685Y019186D01*
X005636Y019243D01*
X005590Y019302D01*
X005547Y019364D01*
X005507Y019428D01*
X005471Y019493D01*
X005439Y019561D01*
X005410Y019630D01*
X005385Y019701D01*
X005363Y019772D01*
X005346Y019845D01*
X005332Y019919D01*
X005322Y019993D01*
X005316Y020068D01*
X005314Y020143D01*
X007384Y022367D02*
X007384Y023037D01*
X008447Y023037D01*
X008447Y022367D01*
X007384Y022367D01*
X008112Y022505D02*
X008112Y022899D01*
X010671Y022033D02*
X010671Y020615D01*
X011931Y019355D01*
X013348Y019355D01*
X014608Y020615D01*
X014608Y022033D01*
X013348Y023292D01*
X011931Y023292D01*
X010671Y022033D01*
X011341Y021442D02*
X011695Y021442D01*
X011715Y021440D01*
X011735Y021435D01*
X011754Y021426D01*
X011771Y021414D01*
X011785Y021400D01*
X011797Y021383D01*
X011806Y021364D01*
X011811Y021344D01*
X011813Y021324D01*
X011811Y021304D01*
X011806Y021284D01*
X011797Y021265D01*
X011785Y021248D01*
X011771Y021234D01*
X011754Y021222D01*
X011735Y021213D01*
X011715Y021208D01*
X011695Y021206D01*
X011341Y021206D01*
X011340Y021206D02*
X011349Y021135D01*
X011361Y021064D01*
X011377Y020995D01*
X011397Y020926D01*
X011421Y020858D01*
X011448Y020792D01*
X011479Y020728D01*
X011514Y020665D01*
X011551Y020604D01*
X011592Y020546D01*
X011637Y020490D01*
X011684Y020436D01*
X011734Y020385D01*
X011787Y020337D01*
X011842Y020291D01*
X011900Y020249D01*
X011960Y020210D01*
X012022Y020175D01*
X012086Y020142D01*
X012151Y020114D01*
X012218Y020089D01*
X012287Y020068D01*
X012356Y020050D01*
X012426Y020037D01*
X012497Y020027D01*
X012568Y020021D01*
X012640Y020019D01*
X012712Y020021D01*
X012783Y020027D01*
X012854Y020037D01*
X012924Y020050D01*
X012993Y020068D01*
X013062Y020089D01*
X013129Y020114D01*
X013194Y020142D01*
X013258Y020175D01*
X013320Y020210D01*
X013380Y020249D01*
X013438Y020291D01*
X013493Y020337D01*
X013546Y020385D01*
X013596Y020436D01*
X013643Y020490D01*
X013688Y020546D01*
X013729Y020604D01*
X013766Y020665D01*
X013801Y020728D01*
X013832Y020792D01*
X013859Y020858D01*
X013883Y020926D01*
X013903Y020995D01*
X013919Y021064D01*
X013931Y021135D01*
X013940Y021206D01*
X013939Y021206D02*
X013585Y021206D01*
X013565Y021208D01*
X013545Y021213D01*
X013526Y021222D01*
X013509Y021234D01*
X013495Y021248D01*
X013483Y021265D01*
X013474Y021284D01*
X013469Y021304D01*
X013467Y021324D01*
X013469Y021344D01*
X013474Y021364D01*
X013483Y021383D01*
X013495Y021400D01*
X013509Y021414D01*
X013526Y021426D01*
X013545Y021435D01*
X013565Y021440D01*
X013585Y021442D01*
X013939Y021442D01*
X011220Y021324D02*
X011222Y021399D01*
X011228Y021474D01*
X011238Y021548D01*
X011252Y021622D01*
X011269Y021695D01*
X011291Y021766D01*
X011316Y021837D01*
X011345Y021906D01*
X011377Y021974D01*
X011413Y022039D01*
X011453Y022103D01*
X011496Y022165D01*
X011542Y022224D01*
X011591Y022281D01*
X011643Y022335D01*
X011697Y022386D01*
X011755Y022434D01*
X011814Y022479D01*
X011877Y022521D01*
X011941Y022560D01*
X012007Y022595D01*
X012075Y022627D01*
X012145Y022655D01*
X012215Y022679D01*
X012288Y022700D01*
X012361Y022716D01*
X012435Y022729D01*
X012509Y022738D01*
X012584Y022743D01*
X012659Y022744D01*
X012734Y022741D01*
X012808Y022734D01*
X012882Y022723D01*
X012956Y022708D01*
X013029Y022690D01*
X013100Y022667D01*
X013170Y022641D01*
X013239Y022611D01*
X013306Y022578D01*
X013372Y022541D01*
X013435Y022501D01*
X013496Y022457D01*
X013554Y022410D01*
X013610Y022361D01*
X013664Y022308D01*
X013714Y022253D01*
X013762Y022195D01*
X013806Y022134D01*
X013847Y022072D01*
X013885Y022007D01*
X013919Y021940D01*
X013950Y021872D01*
X013977Y021802D01*
X014001Y021731D01*
X014020Y021658D01*
X014036Y021585D01*
X014048Y021511D01*
X014056Y021436D01*
X014060Y021361D01*
X014060Y021287D01*
X014056Y021212D01*
X014048Y021137D01*
X014036Y021063D01*
X014020Y020990D01*
X014001Y020917D01*
X013977Y020846D01*
X013950Y020776D01*
X013919Y020708D01*
X013885Y020641D01*
X013847Y020576D01*
X013806Y020514D01*
X013762Y020453D01*
X013714Y020395D01*
X013664Y020340D01*
X013610Y020287D01*
X013554Y020238D01*
X013496Y020191D01*
X013435Y020147D01*
X013372Y020107D01*
X013306Y020070D01*
X013239Y020037D01*
X013170Y020007D01*
X013100Y019981D01*
X013029Y019958D01*
X012956Y019940D01*
X012882Y019925D01*
X012808Y019914D01*
X012734Y019907D01*
X012659Y019904D01*
X012584Y019905D01*
X012509Y019910D01*
X012435Y019919D01*
X012361Y019932D01*
X012288Y019948D01*
X012215Y019969D01*
X012145Y019993D01*
X012075Y020021D01*
X012007Y020053D01*
X011941Y020088D01*
X011877Y020127D01*
X011814Y020169D01*
X011755Y020214D01*
X011697Y020262D01*
X011643Y020313D01*
X011591Y020367D01*
X011542Y020424D01*
X011496Y020483D01*
X011453Y020545D01*
X011413Y020609D01*
X011377Y020674D01*
X011345Y020742D01*
X011316Y020811D01*
X011291Y020882D01*
X011269Y020953D01*
X011252Y021026D01*
X011238Y021100D01*
X011228Y021174D01*
X011222Y021249D01*
X011220Y021324D01*
X011340Y021442D02*
X011349Y021513D01*
X011361Y021584D01*
X011377Y021653D01*
X011397Y021722D01*
X011421Y021790D01*
X011448Y021856D01*
X011479Y021920D01*
X011514Y021983D01*
X011551Y022044D01*
X011592Y022102D01*
X011637Y022158D01*
X011684Y022212D01*
X011734Y022263D01*
X011787Y022311D01*
X011842Y022357D01*
X011900Y022399D01*
X011960Y022438D01*
X012022Y022473D01*
X012086Y022506D01*
X012151Y022534D01*
X012218Y022559D01*
X012287Y022580D01*
X012356Y022598D01*
X012426Y022611D01*
X012497Y022621D01*
X012568Y022627D01*
X012640Y022629D01*
X012712Y022627D01*
X012783Y022621D01*
X012854Y022611D01*
X012924Y022598D01*
X012993Y022580D01*
X013062Y022559D01*
X013129Y022534D01*
X013194Y022506D01*
X013258Y022473D01*
X013320Y022438D01*
X013380Y022399D01*
X013438Y022357D01*
X013493Y022311D01*
X013546Y022263D01*
X013596Y022212D01*
X013643Y022158D01*
X013688Y022102D01*
X013729Y022044D01*
X013766Y021983D01*
X013801Y021920D01*
X013832Y021856D01*
X013859Y021790D01*
X013883Y021722D01*
X013903Y021653D01*
X013919Y021584D01*
X013931Y021513D01*
X013940Y021442D01*
X015848Y022367D02*
X016518Y022367D01*
X016518Y023430D01*
X015848Y023430D01*
X015848Y022367D01*
X015986Y023096D02*
X016380Y023096D01*
X017837Y022111D02*
X016577Y020851D01*
X016577Y019434D01*
X017837Y018174D01*
X019254Y018174D01*
X020514Y019434D01*
X020514Y020851D01*
X019254Y022111D01*
X017837Y022111D01*
X017600Y020261D02*
X017246Y020261D01*
X017246Y020025D02*
X017600Y020025D01*
X017620Y020027D01*
X017640Y020032D01*
X017659Y020041D01*
X017676Y020053D01*
X017690Y020067D01*
X017702Y020084D01*
X017711Y020103D01*
X017716Y020123D01*
X017718Y020143D01*
X017716Y020163D01*
X017711Y020183D01*
X017702Y020202D01*
X017690Y020219D01*
X017676Y020233D01*
X017659Y020245D01*
X017640Y020254D01*
X017620Y020259D01*
X017600Y020261D01*
X017245Y020025D02*
X017254Y019954D01*
X017266Y019883D01*
X017282Y019814D01*
X017302Y019745D01*
X017326Y019677D01*
X017353Y019611D01*
X017384Y019547D01*
X017419Y019484D01*
X017456Y019423D01*
X017497Y019365D01*
X017542Y019309D01*
X017589Y019255D01*
X017639Y019204D01*
X017692Y019156D01*
X017747Y019110D01*
X017805Y019068D01*
X017865Y019029D01*
X017927Y018994D01*
X017991Y018961D01*
X018056Y018933D01*
X018123Y018908D01*
X018192Y018887D01*
X018261Y018869D01*
X018331Y018856D01*
X018402Y018846D01*
X018473Y018840D01*
X018545Y018838D01*
X018617Y018840D01*
X018688Y018846D01*
X018759Y018856D01*
X018829Y018869D01*
X018898Y018887D01*
X018967Y018908D01*
X019034Y018933D01*
X019099Y018961D01*
X019163Y018994D01*
X019225Y019029D01*
X019285Y019068D01*
X019343Y019110D01*
X019398Y019156D01*
X019451Y019204D01*
X019501Y019255D01*
X019548Y019309D01*
X019593Y019365D01*
X019634Y019423D01*
X019671Y019484D01*
X019706Y019547D01*
X019737Y019611D01*
X019764Y019677D01*
X019788Y019745D01*
X019808Y019814D01*
X019824Y019883D01*
X019836Y019954D01*
X019845Y020025D01*
X019844Y020025D02*
X019490Y020025D01*
X019470Y020027D01*
X019450Y020032D01*
X019431Y020041D01*
X019414Y020053D01*
X019400Y020067D01*
X019388Y020084D01*
X019379Y020103D01*
X019374Y020123D01*
X019372Y020143D01*
X019374Y020163D01*
X019379Y020183D01*
X019388Y020202D01*
X019400Y020219D01*
X019414Y020233D01*
X019431Y020245D01*
X019450Y020254D01*
X019470Y020259D01*
X019490Y020261D01*
X019844Y020261D01*
X019845Y020261D02*
X019836Y020332D01*
X019824Y020403D01*
X019808Y020472D01*
X019788Y020541D01*
X019764Y020609D01*
X019737Y020675D01*
X019706Y020739D01*
X019671Y020802D01*
X019634Y020863D01*
X019593Y020921D01*
X019548Y020977D01*
X019501Y021031D01*
X019451Y021082D01*
X019398Y021130D01*
X019343Y021176D01*
X019285Y021218D01*
X019225Y021257D01*
X019163Y021292D01*
X019099Y021325D01*
X019034Y021353D01*
X018967Y021378D01*
X018898Y021399D01*
X018829Y021417D01*
X018759Y021430D01*
X018688Y021440D01*
X018617Y021446D01*
X018545Y021448D01*
X018473Y021446D01*
X018402Y021440D01*
X018331Y021430D01*
X018261Y021417D01*
X018192Y021399D01*
X018123Y021378D01*
X018056Y021353D01*
X017991Y021325D01*
X017927Y021292D01*
X017865Y021257D01*
X017805Y021218D01*
X017747Y021176D01*
X017692Y021130D01*
X017639Y021082D01*
X017589Y021031D01*
X017542Y020977D01*
X017497Y020921D01*
X017456Y020863D01*
X017419Y020802D01*
X017384Y020739D01*
X017353Y020675D01*
X017326Y020609D01*
X017302Y020541D01*
X017282Y020472D01*
X017266Y020403D01*
X017254Y020332D01*
X017245Y020261D01*
X017125Y020143D02*
X017127Y020218D01*
X017133Y020293D01*
X017143Y020367D01*
X017157Y020441D01*
X017174Y020514D01*
X017196Y020585D01*
X017221Y020656D01*
X017250Y020725D01*
X017282Y020793D01*
X017318Y020858D01*
X017358Y020922D01*
X017401Y020984D01*
X017447Y021043D01*
X017496Y021100D01*
X017548Y021154D01*
X017602Y021205D01*
X017660Y021253D01*
X017719Y021298D01*
X017782Y021340D01*
X017846Y021379D01*
X017912Y021414D01*
X017980Y021446D01*
X018050Y021474D01*
X018120Y021498D01*
X018193Y021519D01*
X018266Y021535D01*
X018340Y021548D01*
X018414Y021557D01*
X018489Y021562D01*
X018564Y021563D01*
X018639Y021560D01*
X018713Y021553D01*
X018787Y021542D01*
X018861Y021527D01*
X018934Y021509D01*
X019005Y021486D01*
X019075Y021460D01*
X019144Y021430D01*
X019211Y021397D01*
X019277Y021360D01*
X019340Y021320D01*
X019401Y021276D01*
X019459Y021229D01*
X019515Y021180D01*
X019569Y021127D01*
X019619Y021072D01*
X019667Y021014D01*
X019711Y020953D01*
X019752Y020891D01*
X019790Y020826D01*
X019824Y020759D01*
X019855Y020691D01*
X019882Y020621D01*
X019906Y020550D01*
X019925Y020477D01*
X019941Y020404D01*
X019953Y020330D01*
X019961Y020255D01*
X019965Y020180D01*
X019965Y020106D01*
X019961Y020031D01*
X019953Y019956D01*
X019941Y019882D01*
X019925Y019809D01*
X019906Y019736D01*
X019882Y019665D01*
X019855Y019595D01*
X019824Y019527D01*
X019790Y019460D01*
X019752Y019395D01*
X019711Y019333D01*
X019667Y019272D01*
X019619Y019214D01*
X019569Y019159D01*
X019515Y019106D01*
X019459Y019057D01*
X019401Y019010D01*
X019340Y018966D01*
X019277Y018926D01*
X019211Y018889D01*
X019144Y018856D01*
X019075Y018826D01*
X019005Y018800D01*
X018934Y018777D01*
X018861Y018759D01*
X018787Y018744D01*
X018713Y018733D01*
X018639Y018726D01*
X018564Y018723D01*
X018489Y018724D01*
X018414Y018729D01*
X018340Y018738D01*
X018266Y018751D01*
X018193Y018767D01*
X018120Y018788D01*
X018050Y018812D01*
X017980Y018840D01*
X017912Y018872D01*
X017846Y018907D01*
X017782Y018946D01*
X017719Y018988D01*
X017660Y019033D01*
X017602Y019081D01*
X017548Y019132D01*
X017496Y019186D01*
X017447Y019243D01*
X017401Y019302D01*
X017358Y019364D01*
X017318Y019428D01*
X017282Y019493D01*
X017250Y019561D01*
X017221Y019630D01*
X017196Y019701D01*
X017174Y019772D01*
X017157Y019845D01*
X017143Y019919D01*
X017133Y019993D01*
X017127Y020068D01*
X017125Y020143D01*
X016862Y018632D02*
X016937Y018557D01*
X016937Y018482D01*
X016862Y018407D01*
X016937Y018332D01*
X016937Y018257D01*
X016862Y018182D01*
X016712Y018182D01*
X016637Y018257D01*
X016477Y018257D02*
X016402Y018182D01*
X016252Y018182D01*
X016177Y018257D01*
X016177Y018557D01*
X016252Y018632D01*
X016402Y018632D01*
X016477Y018557D01*
X016477Y018257D01*
X016477Y018182D02*
X016327Y018332D01*
X016637Y018557D02*
X016712Y018632D01*
X016862Y018632D01*
X016862Y018407D02*
X016787Y018407D01*
X017423Y017771D02*
X016124Y017771D01*
X016124Y017003D01*
X017423Y017003D01*
X017423Y017771D01*
X016223Y017151D02*
X016225Y017163D01*
X016230Y017174D01*
X016239Y017183D01*
X016250Y017188D01*
X016262Y017190D01*
X016274Y017188D01*
X016285Y017183D01*
X016294Y017174D01*
X016299Y017163D01*
X016301Y017151D01*
X016299Y017139D01*
X016294Y017128D01*
X016285Y017119D01*
X016274Y017114D01*
X016262Y017112D01*
X016250Y017114D01*
X016239Y017119D01*
X016230Y017128D01*
X016225Y017139D01*
X016223Y017151D01*
X014018Y014040D02*
X014018Y011285D01*
X011262Y011285D01*
X011262Y014040D01*
X014018Y014040D01*
X011420Y012662D02*
X011422Y012732D01*
X011428Y012801D01*
X011438Y012870D01*
X011452Y012938D01*
X011469Y013006D01*
X011491Y013072D01*
X011516Y013137D01*
X011545Y013200D01*
X011578Y013262D01*
X011614Y013322D01*
X011653Y013379D01*
X011696Y013434D01*
X011741Y013487D01*
X011790Y013537D01*
X011841Y013584D01*
X011895Y013628D01*
X011951Y013669D01*
X012010Y013707D01*
X012071Y013741D01*
X012133Y013772D01*
X012197Y013799D01*
X012263Y013822D01*
X012330Y013842D01*
X012398Y013858D01*
X012466Y013870D01*
X012536Y013878D01*
X012605Y013882D01*
X012675Y013882D01*
X012744Y013878D01*
X012814Y013870D01*
X012882Y013858D01*
X012950Y013842D01*
X013017Y013822D01*
X013083Y013799D01*
X013147Y013772D01*
X013209Y013741D01*
X013270Y013707D01*
X013329Y013669D01*
X013385Y013628D01*
X013439Y013584D01*
X013490Y013537D01*
X013539Y013487D01*
X013584Y013434D01*
X013627Y013379D01*
X013666Y013322D01*
X013702Y013262D01*
X013735Y013200D01*
X013764Y013137D01*
X013789Y013072D01*
X013811Y013006D01*
X013828Y012938D01*
X013842Y012870D01*
X013852Y012801D01*
X013858Y012732D01*
X013860Y012662D01*
X013858Y012592D01*
X013852Y012523D01*
X013842Y012454D01*
X013828Y012386D01*
X013811Y012318D01*
X013789Y012252D01*
X013764Y012187D01*
X013735Y012124D01*
X013702Y012062D01*
X013666Y012002D01*
X013627Y011945D01*
X013584Y011890D01*
X013539Y011837D01*
X013490Y011787D01*
X013439Y011740D01*
X013385Y011696D01*
X013329Y011655D01*
X013270Y011617D01*
X013209Y011583D01*
X013147Y011552D01*
X013083Y011525D01*
X013017Y011502D01*
X012950Y011482D01*
X012882Y011466D01*
X012814Y011454D01*
X012744Y011446D01*
X012675Y011442D01*
X012605Y011442D01*
X012536Y011446D01*
X012466Y011454D01*
X012398Y011466D01*
X012330Y011482D01*
X012263Y011502D01*
X012197Y011525D01*
X012133Y011552D01*
X012071Y011583D01*
X012010Y011617D01*
X011951Y011655D01*
X011895Y011696D01*
X011841Y011740D01*
X011790Y011787D01*
X011741Y011837D01*
X011696Y011890D01*
X011653Y011945D01*
X011614Y012002D01*
X011578Y012062D01*
X011545Y012124D01*
X011516Y012187D01*
X011491Y012252D01*
X011469Y012318D01*
X011452Y012386D01*
X011438Y012454D01*
X011428Y012523D01*
X011422Y012592D01*
X011420Y012662D01*
X011374Y011521D02*
X011376Y011543D01*
X011381Y011563D01*
X011391Y011583D01*
X011403Y011601D01*
X011418Y011616D01*
X011436Y011628D01*
X011456Y011638D01*
X011476Y011643D01*
X011498Y011645D01*
X011520Y011643D01*
X011540Y011638D01*
X011560Y011628D01*
X011578Y011616D01*
X011593Y011601D01*
X011605Y011583D01*
X011615Y011563D01*
X011620Y011543D01*
X011622Y011521D01*
X011620Y011499D01*
X011615Y011479D01*
X011605Y011459D01*
X011593Y011441D01*
X011578Y011426D01*
X011560Y011414D01*
X011540Y011404D01*
X011520Y011399D01*
X011498Y011397D01*
X011476Y011399D01*
X011456Y011404D01*
X011436Y011414D01*
X011418Y011426D01*
X011403Y011441D01*
X011391Y011459D01*
X011381Y011479D01*
X011376Y011499D01*
X011374Y011521D01*
X016522Y008392D02*
X016522Y008091D01*
X016597Y008016D01*
X016747Y008016D01*
X016822Y008091D01*
X016982Y008016D02*
X017283Y008016D01*
X017133Y008016D02*
X017133Y008467D01*
X016982Y008316D01*
X016822Y008392D02*
X016747Y008467D01*
X016597Y008467D01*
X016522Y008392D01*
X017443Y008316D02*
X017593Y008467D01*
X017593Y008016D01*
X017443Y008016D02*
X017743Y008016D01*
X021360Y009119D02*
X022030Y009119D01*
X022030Y010300D01*
X021360Y010300D01*
X021360Y009119D01*
X021764Y009277D02*
X021766Y009295D01*
X021772Y009313D01*
X021781Y009329D01*
X021793Y009342D01*
X021808Y009353D01*
X021825Y009361D01*
X021843Y009365D01*
X021861Y009365D01*
X021879Y009361D01*
X021896Y009353D01*
X021911Y009342D01*
X021923Y009329D01*
X021932Y009313D01*
X021938Y009295D01*
X021940Y009277D01*
X021938Y009259D01*
X021932Y009241D01*
X021923Y009225D01*
X021911Y009212D01*
X021896Y009201D01*
X021879Y009193D01*
X021861Y009189D01*
X021843Y009189D01*
X021825Y009193D01*
X021808Y009201D01*
X021793Y009212D01*
X021781Y009225D01*
X021772Y009241D01*
X021766Y009259D01*
X021764Y009277D01*
X011321Y017987D02*
X011321Y018755D01*
X010022Y018755D01*
X010022Y017987D01*
X011321Y017987D01*
X010120Y018135D02*
X010122Y018147D01*
X010127Y018158D01*
X010136Y018167D01*
X010147Y018172D01*
X010159Y018174D01*
X010171Y018172D01*
X010182Y018167D01*
X010191Y018158D01*
X010196Y018147D01*
X010198Y018135D01*
X010196Y018123D01*
X010191Y018112D01*
X010182Y018103D01*
X010171Y018098D01*
X010159Y018096D01*
X010147Y018098D01*
X010136Y018103D01*
X010127Y018112D01*
X010122Y018123D01*
X010120Y018135D01*
X010149Y019166D02*
X010074Y019241D01*
X010074Y019541D01*
X010149Y019616D01*
X010299Y019616D01*
X010374Y019541D01*
X010374Y019241D01*
X010299Y019166D01*
X010149Y019166D01*
X010224Y019316D02*
X010374Y019166D01*
X010535Y019166D02*
X010835Y019466D01*
X010835Y019541D01*
X010760Y019616D01*
X010610Y019616D01*
X010535Y019541D01*
X010535Y019166D02*
X010835Y019166D01*
X012108Y023548D02*
X012108Y024218D01*
X013171Y024218D01*
X013171Y023548D01*
X012108Y023548D01*
X012837Y023686D02*
X012837Y024080D01*
D16*
X005967Y013588D02*
X006085Y013470D01*
X005711Y012052D02*
X005713Y012067D01*
X005718Y012080D01*
X005727Y012092D01*
X005738Y012102D01*
X005752Y012108D01*
X005766Y012111D01*
X005781Y012110D01*
X005795Y012105D01*
X005808Y012097D01*
X005818Y012087D01*
X005825Y012074D01*
X005829Y012059D01*
X005829Y012045D01*
X005825Y012030D01*
X005818Y012017D01*
X005808Y012007D01*
X005795Y011999D01*
X005781Y011994D01*
X005766Y011993D01*
X005752Y011996D01*
X005738Y012002D01*
X005727Y012012D01*
X005718Y012024D01*
X005713Y012037D01*
X005711Y012052D01*
X005967Y011737D02*
X006085Y011855D01*
X004352Y011737D02*
X004234Y011855D01*
X004234Y013470D02*
X004352Y013588D01*
D17*
X001723Y009800D02*
X001599Y009800D01*
X001538Y009738D01*
X001538Y009677D01*
X001599Y009553D01*
X001414Y009553D01*
X001414Y009800D01*
X001723Y009800D02*
X001785Y009738D01*
X001785Y009615D01*
X001723Y009553D01*
X001785Y009432D02*
X001785Y009185D01*
X001785Y009308D02*
X001414Y009308D01*
X001538Y009185D01*
X001476Y009064D02*
X001414Y009002D01*
X001414Y008878D01*
X001476Y008817D01*
X001723Y008817D01*
X001785Y008878D01*
X001785Y009002D01*
X001723Y009064D01*
X005371Y008323D02*
X005371Y008015D01*
X005433Y007953D01*
X005556Y007953D01*
X005618Y008015D01*
X005618Y008323D01*
X005740Y008262D02*
X005801Y008323D01*
X005925Y008323D01*
X005986Y008262D01*
X005986Y008200D01*
X005740Y007953D01*
X005986Y007953D01*
X020037Y010968D02*
X020098Y010906D01*
X020222Y010906D01*
X020284Y010968D01*
X020405Y010906D02*
X020652Y010906D01*
X020528Y010906D02*
X020528Y011276D01*
X020405Y011153D01*
X020284Y011214D02*
X020222Y011276D01*
X020098Y011276D01*
X020037Y011214D01*
X020037Y010968D01*
X020773Y010968D02*
X020835Y010906D01*
X020958Y010906D01*
X021020Y010968D01*
X021020Y011029D01*
X020958Y011091D01*
X020773Y011091D01*
X020773Y010968D01*
X020773Y011091D02*
X020897Y011214D01*
X021020Y011276D01*
D18*
X007915Y007544D03*
D19*
X006970Y006678D02*
X006970Y006521D01*
X006813Y006521D01*
X006970Y006678D01*
X006970Y006669D02*
X006961Y006669D01*
X006970Y006650D02*
X006942Y006650D01*
X006924Y006632D02*
X006970Y006632D01*
X006970Y006613D02*
X006905Y006613D01*
X006887Y006595D02*
X006970Y006595D01*
X006970Y006576D02*
X006868Y006576D01*
X006850Y006558D02*
X006970Y006558D01*
X006970Y006539D02*
X006831Y006539D01*
X020195Y009257D02*
X020245Y009157D01*
X020295Y009257D01*
X020195Y009257D01*
X020203Y009240D02*
X020287Y009240D01*
X020278Y009222D02*
X020213Y009222D01*
X020222Y009203D02*
X020269Y009203D01*
X020259Y009185D02*
X020231Y009185D01*
X020240Y009166D02*
X020250Y009166D01*
D20*
X006685Y003607D03*
M02*
