G75*
G70*
%OFA0B0*%
%FSLAX24Y24*%
%IPPOS*%
%LPD*%
%AMOC8*
5,1,8,0,0,1.08239X$1,22.5*
%
%ADD10C,0.0000*%
%ADD11C,0.0050*%
%ADD12C,0.0080*%
%ADD13C,0.0060*%
%ADD14C,0.0090*%
%ADD15C,0.0100*%
%ADD16C,0.0040*%
%ADD17C,0.0110*%
%ADD18C,0.0020*%
%ADD19C,0.0120*%
D10*
X001287Y000594D02*
X001287Y020279D01*
X030815Y020279D01*
X030815Y000594D01*
X001287Y000594D01*
D11*
X008399Y001179D02*
X008482Y001179D01*
X008441Y001221D02*
X008441Y001054D01*
X008482Y001013D01*
X008583Y001013D02*
X008708Y001013D01*
X008750Y001054D01*
X008750Y001138D01*
X008708Y001179D01*
X008583Y001179D01*
X008583Y001263D02*
X008583Y001013D01*
X008859Y001013D02*
X008943Y001013D01*
X008901Y001013D02*
X008901Y001179D01*
X008859Y001179D01*
X008901Y001263D02*
X008901Y001305D01*
X009044Y001138D02*
X009085Y001179D01*
X009210Y001179D01*
X009210Y001263D02*
X009210Y001013D01*
X009085Y001013D01*
X009044Y001054D01*
X009044Y001138D01*
X009320Y001138D02*
X009362Y001179D01*
X009445Y001179D01*
X009487Y001138D01*
X009487Y001096D01*
X009320Y001096D01*
X009320Y001054D02*
X009320Y001138D01*
X009320Y001054D02*
X009362Y001013D01*
X009445Y001013D01*
X009596Y001054D02*
X009638Y001013D01*
X009763Y001013D01*
X009763Y001138D01*
X009721Y001179D01*
X009638Y001179D01*
X009638Y001096D02*
X009763Y001096D01*
X009872Y001138D02*
X009914Y001179D01*
X010039Y001179D01*
X009997Y001096D02*
X010039Y001054D01*
X009997Y001013D01*
X009872Y001013D01*
X009914Y001096D02*
X009872Y001138D01*
X009914Y001096D02*
X009997Y001096D01*
X010149Y001054D02*
X010149Y001013D01*
X010190Y001013D01*
X010190Y001054D01*
X010149Y001054D01*
X010287Y001054D02*
X010328Y001013D01*
X010453Y001013D01*
X010563Y001054D02*
X010605Y001013D01*
X010688Y001013D01*
X010730Y001054D01*
X010730Y001138D01*
X010688Y001179D01*
X010605Y001179D01*
X010563Y001138D01*
X010563Y001054D01*
X010453Y001179D02*
X010328Y001179D01*
X010287Y001138D01*
X010287Y001054D01*
X010295Y001603D02*
X010253Y001645D01*
X010295Y001603D02*
X010378Y001603D01*
X010420Y001645D01*
X010420Y001687D01*
X010378Y001728D01*
X010295Y001728D01*
X010253Y001770D01*
X010253Y001812D01*
X010295Y001853D01*
X010378Y001853D01*
X010420Y001812D01*
X010530Y001770D02*
X010613Y001853D01*
X010696Y001770D01*
X010696Y001603D01*
X010696Y001728D02*
X010530Y001728D01*
X010530Y001770D02*
X010530Y001603D01*
X010144Y001728D02*
X009977Y001728D01*
X009868Y001812D02*
X009868Y001853D01*
X009868Y001812D02*
X009784Y001728D01*
X009784Y001603D01*
X009784Y001728D02*
X009701Y001812D01*
X009701Y001853D01*
X009591Y001812D02*
X009591Y001770D01*
X009550Y001728D01*
X009425Y001728D01*
X009315Y001728D02*
X009148Y001728D01*
X009039Y001645D02*
X008997Y001603D01*
X008914Y001603D01*
X008872Y001645D01*
X008872Y001812D01*
X008914Y001853D01*
X008997Y001853D01*
X009039Y001812D01*
X008763Y001812D02*
X008721Y001853D01*
X008638Y001853D01*
X008596Y001812D01*
X008596Y001645D01*
X008638Y001603D01*
X008721Y001603D01*
X008763Y001645D01*
X009425Y001603D02*
X009550Y001603D01*
X009591Y001645D01*
X009591Y001687D01*
X009550Y001728D01*
X009591Y001812D02*
X009550Y001853D01*
X009425Y001853D01*
X009425Y001603D01*
X009638Y001096D02*
X009596Y001054D01*
X010839Y001013D02*
X010839Y001179D01*
X010881Y001179D01*
X010922Y001138D01*
X010964Y001179D01*
X011006Y001138D01*
X011006Y001013D01*
X010922Y001013D02*
X010922Y001138D01*
X011609Y000790D02*
X011651Y000748D01*
X011693Y000748D01*
X011734Y000790D01*
X011734Y000999D01*
X011693Y000999D02*
X011776Y000999D01*
X011885Y000999D02*
X012011Y000999D01*
X012052Y000957D01*
X012052Y000874D01*
X012011Y000832D01*
X011885Y000832D01*
X011885Y000748D02*
X011885Y000999D01*
X012162Y000957D02*
X012203Y000999D01*
X012287Y000999D01*
X012328Y000957D01*
X012328Y000915D01*
X012162Y000748D01*
X012328Y000748D01*
X015670Y003507D02*
X015711Y003465D01*
X015878Y003465D01*
X015920Y003507D01*
X015920Y003591D01*
X015878Y003632D01*
X015920Y003742D02*
X015753Y003908D01*
X015711Y003908D01*
X015670Y003867D01*
X015670Y003783D01*
X015711Y003742D01*
X015711Y003632D02*
X015670Y003591D01*
X015670Y003507D01*
X015920Y003742D02*
X015920Y003908D01*
X017048Y003825D02*
X017131Y003742D01*
X017089Y003632D02*
X017048Y003591D01*
X017048Y003507D01*
X017089Y003465D01*
X017256Y003465D01*
X017298Y003507D01*
X017298Y003591D01*
X017256Y003632D01*
X017298Y003742D02*
X017298Y003908D01*
X017298Y003825D02*
X017048Y003825D01*
X019595Y003965D02*
X019845Y003965D01*
X019845Y004132D01*
X019845Y004242D02*
X019595Y004242D01*
X019595Y004408D01*
X019595Y004518D02*
X019595Y004643D01*
X019637Y004685D01*
X019803Y004685D01*
X019845Y004643D01*
X019845Y004518D01*
X019595Y004518D01*
X019720Y004325D02*
X019720Y004242D01*
X019845Y004242D02*
X019845Y004408D01*
X019845Y004794D02*
X019845Y004961D01*
X019845Y004878D02*
X019595Y004878D01*
X019678Y004794D01*
X020579Y004836D02*
X020621Y004794D01*
X020579Y004836D02*
X020579Y004919D01*
X020621Y004961D01*
X020663Y004961D01*
X020829Y004794D01*
X020829Y004961D01*
X020788Y004685D02*
X020621Y004685D01*
X020579Y004643D01*
X020579Y004518D01*
X020829Y004518D01*
X020829Y004643D01*
X020788Y004685D01*
X020829Y004408D02*
X020829Y004242D01*
X020579Y004242D01*
X020579Y004408D01*
X020704Y004325D02*
X020704Y004242D01*
X020829Y004132D02*
X020829Y003965D01*
X020579Y003965D01*
X021603Y003965D02*
X021853Y003965D01*
X021853Y004132D01*
X021853Y004242D02*
X021853Y004408D01*
X021853Y004518D02*
X021853Y004643D01*
X021811Y004685D01*
X021644Y004685D01*
X021603Y004643D01*
X021603Y004518D01*
X021853Y004518D01*
X021728Y004325D02*
X021728Y004242D01*
X021603Y004242D02*
X021853Y004242D01*
X021603Y004242D02*
X021603Y004408D01*
X021644Y004794D02*
X021603Y004836D01*
X021603Y004919D01*
X021644Y004961D01*
X021686Y004961D01*
X021728Y004919D01*
X021770Y004961D01*
X021811Y004961D01*
X021853Y004919D01*
X021853Y004836D01*
X021811Y004794D01*
X021728Y004878D02*
X021728Y004919D01*
X020797Y006040D02*
X020630Y006040D01*
X020797Y006207D01*
X020797Y006249D01*
X020755Y006290D01*
X020672Y006290D01*
X020630Y006249D01*
X020521Y006249D02*
X020521Y006165D01*
X020479Y006124D01*
X020354Y006124D01*
X020437Y006124D02*
X020521Y006040D01*
X020354Y006040D02*
X020354Y006290D01*
X020479Y006290D01*
X020521Y006249D01*
X020521Y007221D02*
X020437Y007305D01*
X020479Y007305D02*
X020354Y007305D01*
X020354Y007221D02*
X020354Y007472D01*
X020479Y007472D01*
X020521Y007430D01*
X020521Y007346D01*
X020479Y007305D01*
X020630Y007263D02*
X020672Y007221D01*
X020755Y007221D01*
X020797Y007263D01*
X020797Y007305D01*
X020755Y007346D01*
X020713Y007346D01*
X020755Y007346D02*
X020797Y007388D01*
X020797Y007430D01*
X020755Y007472D01*
X020672Y007472D01*
X020630Y007430D01*
X020521Y008402D02*
X020437Y008486D01*
X020479Y008486D02*
X020354Y008486D01*
X020354Y008402D02*
X020354Y008653D01*
X020479Y008653D01*
X020521Y008611D01*
X020521Y008528D01*
X020479Y008486D01*
X020630Y008528D02*
X020797Y008528D01*
X020755Y008653D02*
X020755Y008402D01*
X020630Y008528D02*
X020755Y008653D01*
X020804Y009280D02*
X020804Y009489D01*
X020846Y009531D01*
X020846Y009405D02*
X020763Y009405D01*
X020653Y009405D02*
X020611Y009447D01*
X020528Y009447D01*
X020486Y009405D01*
X020486Y009322D01*
X020528Y009280D01*
X020611Y009280D01*
X020653Y009364D02*
X020486Y009364D01*
X020377Y009447D02*
X020252Y009447D01*
X020210Y009405D01*
X020210Y009322D01*
X020252Y009280D01*
X020377Y009280D01*
X020377Y009531D01*
X020528Y009674D02*
X020486Y009716D01*
X020528Y009757D01*
X020653Y009757D01*
X020653Y009799D02*
X020653Y009674D01*
X020528Y009674D01*
X020528Y009841D02*
X020611Y009841D01*
X020653Y009799D01*
X020763Y009799D02*
X020804Y009841D01*
X020929Y009841D01*
X021039Y009841D02*
X021122Y009841D01*
X021080Y009883D02*
X021080Y009716D01*
X021122Y009674D01*
X021223Y009716D02*
X021265Y009674D01*
X021348Y009674D01*
X021390Y009716D01*
X021390Y009799D01*
X021348Y009841D01*
X021265Y009841D01*
X021223Y009799D01*
X021223Y009716D01*
X021223Y009447D02*
X021223Y009322D01*
X021265Y009280D01*
X021390Y009280D01*
X021390Y009447D01*
X021499Y009531D02*
X021541Y009531D01*
X021541Y009280D01*
X021499Y009280D02*
X021583Y009280D01*
X021725Y009322D02*
X021725Y009489D01*
X021683Y009447D02*
X021767Y009447D01*
X021867Y009405D02*
X021909Y009447D01*
X022034Y009447D01*
X021993Y009364D02*
X021909Y009364D01*
X021867Y009405D01*
X021867Y009280D02*
X021993Y009280D01*
X022034Y009322D01*
X021993Y009364D01*
X021767Y009280D02*
X021725Y009322D01*
X021813Y009591D02*
X021854Y009591D01*
X021896Y009632D01*
X021896Y009841D01*
X021729Y009841D02*
X021729Y009716D01*
X021771Y009674D01*
X021896Y009674D01*
X021624Y009841D02*
X021583Y009841D01*
X021499Y009757D01*
X021499Y009674D02*
X021499Y009841D01*
X021072Y009447D02*
X021113Y009405D01*
X021113Y009280D01*
X020988Y009280D01*
X020947Y009322D01*
X020988Y009364D01*
X021113Y009364D01*
X021072Y009447D02*
X020988Y009447D01*
X020929Y009674D02*
X020804Y009674D01*
X020763Y009716D01*
X020763Y009799D01*
X020377Y009924D02*
X020210Y009924D01*
X020210Y009674D01*
X020210Y009799D02*
X020293Y009799D01*
X020653Y009405D02*
X020653Y009364D01*
X017142Y008117D02*
X017142Y007950D01*
X017142Y008034D02*
X016891Y008034D01*
X016975Y007950D01*
X016933Y007841D02*
X016891Y007841D01*
X016933Y007841D02*
X017016Y007757D01*
X017142Y007757D01*
X017016Y007757D02*
X016933Y007674D01*
X016891Y007674D01*
X014533Y009073D02*
X014533Y009114D01*
X014491Y009156D01*
X014283Y009156D01*
X014283Y009114D02*
X014283Y009198D01*
X014324Y009307D02*
X014283Y009349D01*
X014283Y009432D01*
X014324Y009474D01*
X014366Y009474D01*
X014533Y009307D01*
X014533Y009474D01*
X014533Y009073D02*
X014491Y009031D01*
X011695Y008383D02*
X011445Y008383D01*
X011570Y008258D01*
X011570Y008425D01*
X011570Y008149D02*
X011612Y008107D01*
X011612Y007982D01*
X011695Y007982D02*
X011445Y007982D01*
X011445Y008107D01*
X011487Y008149D01*
X011570Y008149D01*
X011445Y007872D02*
X011445Y007789D01*
X011445Y007831D02*
X011654Y007831D01*
X011695Y007789D01*
X011695Y007747D01*
X011654Y007706D01*
X012230Y006172D02*
X012356Y006172D01*
X012397Y006130D01*
X012397Y006046D01*
X012356Y006005D01*
X012230Y006005D01*
X012230Y005921D02*
X012230Y006172D01*
X012314Y006005D02*
X012397Y005921D01*
X012507Y005921D02*
X012673Y005921D01*
X012590Y005921D02*
X012590Y006172D01*
X012507Y006088D01*
X005881Y010397D02*
X005881Y010480D01*
X005839Y010522D01*
X005839Y010631D02*
X005881Y010673D01*
X005881Y010757D01*
X005839Y010798D01*
X005755Y010798D01*
X005714Y010757D01*
X005714Y010715D01*
X005755Y010631D01*
X005630Y010631D01*
X005630Y010798D01*
X005672Y010522D02*
X005630Y010480D01*
X005630Y010397D01*
X005672Y010355D01*
X005839Y010355D01*
X005881Y010397D01*
X004503Y010378D02*
X004419Y010295D01*
X004419Y010337D02*
X004419Y010211D01*
X004503Y010211D02*
X004252Y010211D01*
X004252Y010337D01*
X004294Y010378D01*
X004377Y010378D01*
X004419Y010337D01*
X004336Y010488D02*
X004252Y010571D01*
X004503Y010571D01*
X004503Y010488D02*
X004503Y010655D01*
X004461Y010764D02*
X004294Y010764D01*
X004252Y010806D01*
X004252Y010889D01*
X004294Y010931D01*
X004461Y010764D01*
X004503Y010806D01*
X004503Y010889D01*
X004461Y010931D01*
X004294Y010931D01*
X003231Y010935D02*
X003231Y011101D01*
X003231Y011211D02*
X003231Y011336D01*
X003189Y011378D01*
X003022Y011378D01*
X002981Y011336D01*
X002981Y011211D01*
X003231Y011211D01*
X003106Y011018D02*
X003106Y010935D01*
X002981Y010935D02*
X003231Y010935D01*
X003231Y010825D02*
X003231Y010658D01*
X002981Y010658D01*
X002981Y010935D02*
X002981Y011101D01*
X003106Y011487D02*
X003106Y011654D01*
X003231Y011612D02*
X002981Y011612D01*
X003106Y011487D01*
X003153Y009731D02*
X003111Y009689D01*
X003111Y009522D01*
X003278Y009689D01*
X003278Y009522D01*
X003236Y009480D01*
X003153Y009480D01*
X003111Y009522D01*
X003002Y009480D02*
X002835Y009480D01*
X002918Y009480D02*
X002918Y009731D01*
X002835Y009647D01*
X002725Y009689D02*
X002684Y009731D01*
X002600Y009731D01*
X002558Y009689D01*
X002558Y009522D01*
X002600Y009480D01*
X002684Y009480D01*
X002725Y009522D01*
X003153Y009731D02*
X003236Y009731D01*
X003278Y009689D01*
X008346Y010961D02*
X008346Y011212D01*
X008471Y011212D01*
X008513Y011170D01*
X008513Y011087D01*
X008471Y011045D01*
X008346Y011045D01*
X008429Y011045D02*
X008513Y010961D01*
X008622Y010961D02*
X008789Y010961D01*
X008706Y010961D02*
X008706Y011212D01*
X008622Y011128D01*
X008898Y011087D02*
X009065Y011087D01*
X009023Y011212D02*
X008898Y011087D01*
X009023Y011212D02*
X009023Y010961D01*
X009687Y011827D02*
X009770Y011827D01*
X009812Y011869D01*
X009921Y011827D02*
X010088Y011827D01*
X010005Y011827D02*
X010005Y012077D01*
X009921Y011994D01*
X009812Y012035D02*
X009770Y012077D01*
X009687Y012077D01*
X009645Y012035D01*
X009645Y011869D01*
X009687Y011827D01*
X010198Y011827D02*
X010364Y011827D01*
X010281Y011827D02*
X010281Y012077D01*
X010198Y011994D01*
X009065Y011987D02*
X009023Y011946D01*
X008940Y011946D01*
X008898Y011987D01*
X008898Y012071D02*
X008982Y012113D01*
X009023Y012113D01*
X009065Y012071D01*
X009065Y011987D01*
X008898Y012071D02*
X008898Y012196D01*
X009065Y012196D01*
X008706Y012196D02*
X008706Y011946D01*
X008789Y011946D02*
X008622Y011946D01*
X008513Y011946D02*
X008429Y012029D01*
X008471Y012029D02*
X008346Y012029D01*
X008346Y011946D02*
X008346Y012196D01*
X008471Y012196D01*
X008513Y012154D01*
X008513Y012071D01*
X008471Y012029D01*
X008622Y012113D02*
X008706Y012196D01*
X009921Y013050D02*
X009963Y013008D01*
X010046Y013008D01*
X010088Y013050D01*
X010198Y013050D02*
X010239Y013008D01*
X010323Y013008D01*
X010364Y013050D01*
X010364Y013091D01*
X010323Y013133D01*
X010281Y013133D01*
X010323Y013133D02*
X010364Y013175D01*
X010364Y013216D01*
X010323Y013258D01*
X010239Y013258D01*
X010198Y013216D01*
X010088Y013216D02*
X010046Y013258D01*
X009963Y013258D01*
X009921Y013216D01*
X009921Y013050D01*
X010080Y015251D02*
X010080Y015376D01*
X010122Y015418D01*
X010205Y015418D01*
X010247Y015376D01*
X010247Y015251D01*
X010330Y015251D02*
X010080Y015251D01*
X010247Y015334D02*
X010330Y015418D01*
X010330Y015527D02*
X010330Y015694D01*
X010330Y015611D02*
X010080Y015611D01*
X010163Y015527D01*
X010122Y015803D02*
X010080Y015845D01*
X010080Y015928D01*
X010122Y015970D01*
X010163Y015970D01*
X010205Y015928D01*
X010247Y015970D01*
X010288Y015970D01*
X010330Y015928D01*
X010330Y015845D01*
X010288Y015803D01*
X010205Y015887D02*
X010205Y015928D01*
X011184Y017835D02*
X011351Y017835D01*
X011392Y017877D01*
X011392Y017961D01*
X011351Y018002D01*
X011267Y018112D02*
X011267Y018279D01*
X011392Y018237D02*
X011142Y018237D01*
X011267Y018112D01*
X011184Y018002D02*
X011142Y017961D01*
X011142Y017877D01*
X011184Y017835D01*
X011930Y017889D02*
X011930Y018014D01*
X011971Y018055D01*
X012055Y018055D01*
X012096Y018014D01*
X012096Y017889D01*
X012096Y017972D02*
X012180Y018055D01*
X012138Y018165D02*
X012180Y018207D01*
X012180Y018290D01*
X012138Y018332D01*
X012055Y018332D01*
X012013Y018290D01*
X012013Y018248D01*
X012055Y018165D01*
X011930Y018165D01*
X011930Y018332D01*
X011930Y017889D02*
X012180Y017889D01*
X013701Y017889D02*
X013701Y018014D01*
X013743Y018055D01*
X013826Y018055D01*
X013868Y018014D01*
X013868Y017889D01*
X013868Y017972D02*
X013951Y018055D01*
X013910Y018165D02*
X013951Y018207D01*
X013951Y018290D01*
X013910Y018332D01*
X013868Y018332D01*
X013826Y018290D01*
X013826Y018165D01*
X013910Y018165D01*
X013826Y018165D02*
X013743Y018248D01*
X013701Y018332D01*
X013701Y017889D02*
X013951Y017889D01*
X014882Y017889D02*
X014882Y018014D01*
X014924Y018055D01*
X015007Y018055D01*
X015049Y018014D01*
X015049Y017889D01*
X015049Y017972D02*
X015132Y018055D01*
X015091Y018165D02*
X015049Y018165D01*
X015007Y018207D01*
X015007Y018290D01*
X015049Y018332D01*
X015091Y018332D01*
X015132Y018290D01*
X015132Y018207D01*
X015091Y018165D01*
X015007Y018207D02*
X014966Y018165D01*
X014924Y018165D01*
X014882Y018207D01*
X014882Y018290D01*
X014924Y018332D01*
X014966Y018332D01*
X015007Y018290D01*
X015132Y017889D02*
X014882Y017889D01*
X015867Y017889D02*
X015867Y018014D01*
X015908Y018055D01*
X015992Y018055D01*
X016033Y018014D01*
X016033Y017889D01*
X016033Y017972D02*
X016117Y018055D01*
X016117Y018165D02*
X016075Y018165D01*
X015908Y018332D01*
X015867Y018332D01*
X015867Y018165D01*
X015867Y017889D02*
X016117Y017889D01*
X018032Y016151D02*
X018032Y016067D01*
X018074Y016026D01*
X018032Y016151D02*
X018074Y016193D01*
X018115Y016193D01*
X018282Y016026D01*
X018282Y016193D01*
X018282Y015916D02*
X018282Y015750D01*
X018282Y015833D02*
X018032Y015833D01*
X018115Y015750D01*
X018074Y015640D02*
X018032Y015598D01*
X018032Y015515D01*
X018074Y015473D01*
X018240Y015473D01*
X018282Y015515D01*
X018282Y015598D01*
X018240Y015640D01*
X020197Y015178D02*
X020447Y015178D01*
X020447Y015095D02*
X020447Y015261D01*
X020281Y015095D02*
X020197Y015178D01*
X020197Y014902D02*
X020447Y014902D01*
X020447Y014985D02*
X020447Y014818D01*
X020447Y014709D02*
X020364Y014626D01*
X020364Y014667D02*
X020364Y014542D01*
X020447Y014542D02*
X020197Y014542D01*
X020197Y014667D01*
X020239Y014709D01*
X020322Y014709D01*
X020364Y014667D01*
X020281Y014818D02*
X020197Y014902D01*
X021181Y014902D02*
X021265Y014818D01*
X021223Y014709D02*
X021307Y014709D01*
X021348Y014667D01*
X021348Y014542D01*
X021348Y014626D02*
X021432Y014709D01*
X021432Y014818D02*
X021432Y014985D01*
X021432Y014902D02*
X021181Y014902D01*
X021223Y015095D02*
X021181Y015136D01*
X021181Y015220D01*
X021223Y015261D01*
X021265Y015261D01*
X021432Y015095D01*
X021432Y015261D01*
X021872Y015090D02*
X021872Y015007D01*
X021914Y014965D01*
X021955Y014965D01*
X021997Y015007D01*
X021997Y015132D01*
X021914Y015132D02*
X021872Y015090D01*
X021914Y015132D02*
X022081Y015132D01*
X022122Y015090D01*
X022122Y015007D01*
X022081Y014965D01*
X022122Y014856D02*
X022039Y014772D01*
X022039Y014814D02*
X022039Y014689D01*
X022122Y014689D02*
X021872Y014689D01*
X021872Y014814D01*
X021914Y014856D01*
X021997Y014856D01*
X022039Y014814D01*
X021432Y014542D02*
X021181Y014542D01*
X021181Y014667D01*
X021223Y014709D01*
X021588Y017154D02*
X021755Y017154D01*
X021864Y017154D02*
X022031Y017154D01*
X022140Y017154D02*
X022266Y017154D01*
X022307Y017196D01*
X022307Y017363D01*
X022266Y017405D01*
X022140Y017405D01*
X022140Y017154D01*
X021948Y017279D02*
X021864Y017279D01*
X021864Y017154D02*
X021864Y017405D01*
X022031Y017405D01*
X022417Y017405D02*
X022417Y017279D01*
X022500Y017321D01*
X022542Y017321D01*
X022584Y017279D01*
X022584Y017196D01*
X022542Y017154D01*
X022458Y017154D01*
X022417Y017196D01*
X022417Y017405D02*
X022584Y017405D01*
X022542Y017942D02*
X022458Y017942D01*
X022417Y017983D01*
X022417Y018067D01*
X022542Y018067D01*
X022584Y018025D01*
X022584Y017983D01*
X022542Y017942D01*
X022417Y018067D02*
X022500Y018150D01*
X022584Y018192D01*
X022307Y018150D02*
X022307Y017983D01*
X022266Y017942D01*
X022140Y017942D01*
X022140Y018192D01*
X022266Y018192D01*
X022307Y018150D01*
X022031Y018192D02*
X021864Y018192D01*
X021864Y017942D01*
X022031Y017942D01*
X021948Y018067D02*
X021864Y018067D01*
X021755Y017942D02*
X021588Y017942D01*
X021588Y018192D01*
X021588Y017405D02*
X021588Y017154D01*
X021926Y019415D02*
X021967Y019456D01*
X021967Y019498D01*
X021926Y019540D01*
X021717Y019540D01*
X021717Y019498D02*
X021717Y019582D01*
X021717Y019691D02*
X021717Y019816D01*
X021759Y019858D01*
X021842Y019858D01*
X021884Y019816D01*
X021884Y019691D01*
X021967Y019691D02*
X021717Y019691D01*
X021759Y019967D02*
X021717Y020009D01*
X021717Y020092D01*
X021759Y020134D01*
X021801Y020134D01*
X021842Y020092D01*
X021884Y020134D01*
X021926Y020134D01*
X021967Y020092D01*
X021967Y020009D01*
X021926Y019967D01*
X021842Y020051D02*
X021842Y020092D01*
X025805Y016420D02*
X025889Y016420D01*
X025847Y016420D02*
X025847Y016212D01*
X025805Y016170D01*
X025764Y016170D01*
X025722Y016212D01*
X025998Y016254D02*
X026123Y016254D01*
X026165Y016295D01*
X026165Y016379D01*
X026123Y016420D01*
X025998Y016420D01*
X025998Y016170D01*
X026274Y016212D02*
X026316Y016170D01*
X026399Y016170D01*
X026441Y016212D01*
X026441Y016295D01*
X026399Y016337D01*
X026358Y016337D01*
X026274Y016295D01*
X026274Y016420D01*
X026441Y016420D01*
X026430Y015183D02*
X026472Y015141D01*
X026472Y015058D01*
X026430Y015016D01*
X026388Y015016D01*
X026347Y015058D01*
X026347Y015141D01*
X026388Y015183D01*
X026430Y015183D01*
X026347Y015141D02*
X026305Y015183D01*
X026263Y015183D01*
X026222Y015141D01*
X026222Y015058D01*
X026263Y015016D01*
X026305Y015016D01*
X026347Y015058D01*
X026430Y014907D02*
X026472Y014865D01*
X026472Y014781D01*
X026430Y014740D01*
X026263Y014740D01*
X026222Y014781D01*
X026222Y014865D01*
X026263Y014907D01*
X029451Y002038D02*
X029410Y001996D01*
X029410Y001829D01*
X029451Y001787D01*
X029535Y001787D01*
X029576Y001829D01*
X029686Y001829D02*
X029727Y001787D01*
X029811Y001787D01*
X029853Y001829D01*
X029853Y001996D01*
X029811Y002038D01*
X029727Y002038D01*
X029686Y001996D01*
X029686Y001954D01*
X029727Y001913D01*
X029853Y001913D01*
X029576Y001996D02*
X029535Y002038D01*
X029451Y002038D01*
X002635Y019362D02*
X002635Y019381D01*
X002617Y019399D01*
X002525Y019399D01*
X002525Y019381D02*
X002525Y019417D01*
X002562Y019491D02*
X002525Y019528D01*
X002635Y019528D01*
X002635Y019491D02*
X002635Y019565D01*
X002635Y019362D02*
X002617Y019344D01*
X002135Y019381D02*
X002025Y019381D01*
X002025Y019417D02*
X002025Y019344D01*
X002043Y019270D02*
X002080Y019270D01*
X002098Y019252D01*
X002098Y019197D01*
X002135Y019197D02*
X002025Y019197D01*
X002025Y019252D01*
X002043Y019270D01*
X002025Y019123D02*
X002098Y019049D01*
X002080Y019068D02*
X002135Y019123D01*
X002135Y019049D02*
X002025Y019049D01*
X002043Y018975D02*
X002025Y018957D01*
X002025Y018920D01*
X002043Y018902D01*
X002117Y018902D01*
X002135Y018920D01*
X002135Y018957D01*
X002117Y018975D01*
X002135Y018828D02*
X002062Y018828D01*
X002025Y018791D01*
X002062Y018755D01*
X002135Y018755D01*
X002080Y018755D02*
X002080Y018828D01*
X002025Y018681D02*
X002025Y018644D01*
X002025Y018662D02*
X002117Y018662D01*
X002135Y018644D01*
X002135Y018626D01*
X002117Y018607D01*
X002153Y018533D02*
X002153Y018460D01*
X002135Y018386D02*
X002098Y018349D01*
X002098Y018368D02*
X002098Y018313D01*
X002135Y018313D02*
X002025Y018313D01*
X002025Y018368D01*
X002043Y018386D01*
X002080Y018386D01*
X002098Y018368D01*
X002135Y018239D02*
X002135Y018165D01*
X002025Y018165D01*
X002025Y018239D01*
X002080Y018202D02*
X002080Y018165D01*
X002135Y018091D02*
X002025Y018091D01*
X002025Y018018D02*
X002135Y018018D01*
X002098Y018055D01*
X002135Y018091D01*
X002117Y017944D02*
X002043Y017944D01*
X002025Y017926D01*
X002025Y017889D01*
X002043Y017871D01*
X002117Y017871D01*
X002135Y017889D01*
X002135Y017926D01*
X002117Y017944D01*
X002080Y017797D02*
X002098Y017778D01*
X002098Y017723D01*
X002135Y017723D02*
X002025Y017723D01*
X002025Y017778D01*
X002043Y017797D01*
X002080Y017797D01*
X002080Y019491D02*
X002080Y019565D01*
X002025Y019565D02*
X002135Y019565D01*
X002135Y019491D02*
X002025Y019491D01*
D12*
X001681Y019885D02*
X001681Y016342D01*
X003768Y016342D01*
X005618Y016342D02*
X005894Y016342D01*
X005894Y017169D01*
X006681Y016913D02*
X008492Y016913D01*
X008492Y016736D01*
X007980Y016736D02*
X007980Y015948D01*
X008492Y015948D02*
X008492Y015771D01*
X006681Y015771D01*
X006681Y015948D01*
X006681Y016736D02*
X006681Y016913D01*
X007488Y017425D02*
X007488Y018330D01*
X007488Y019078D02*
X007488Y019984D01*
X009378Y019984D01*
X010047Y019314D01*
X010047Y019078D01*
X010047Y018330D02*
X010047Y018094D01*
X009378Y017425D01*
X007488Y017425D01*
X007607Y018330D02*
X007629Y018266D01*
X007656Y018203D01*
X007686Y018141D01*
X007719Y018082D01*
X007755Y018024D01*
X007795Y017968D01*
X007838Y017915D01*
X007883Y017864D01*
X007931Y017816D01*
X007982Y017771D01*
X008036Y017728D01*
X008092Y017689D01*
X008149Y017652D01*
X008209Y017619D01*
X008271Y017590D01*
X008334Y017564D01*
X008398Y017541D01*
X008464Y017522D01*
X008531Y017507D01*
X008598Y017496D01*
X008666Y017488D01*
X008734Y017484D01*
X008802Y017484D01*
X008870Y017488D01*
X008938Y017496D01*
X009005Y017507D01*
X009072Y017522D01*
X009138Y017541D01*
X009202Y017564D01*
X009265Y017590D01*
X009327Y017619D01*
X009387Y017652D01*
X009444Y017689D01*
X009500Y017728D01*
X009554Y017771D01*
X009605Y017816D01*
X009653Y017864D01*
X009698Y017915D01*
X009741Y017968D01*
X009781Y018024D01*
X009817Y018082D01*
X009850Y018141D01*
X009880Y018203D01*
X009907Y018266D01*
X009929Y018330D01*
X009929Y019078D02*
X009907Y019142D01*
X009880Y019205D01*
X009850Y019267D01*
X009817Y019326D01*
X009781Y019384D01*
X009741Y019440D01*
X009698Y019493D01*
X009653Y019544D01*
X009605Y019592D01*
X009554Y019637D01*
X009500Y019680D01*
X009444Y019719D01*
X009387Y019756D01*
X009327Y019789D01*
X009265Y019818D01*
X009202Y019844D01*
X009138Y019867D01*
X009072Y019886D01*
X009005Y019901D01*
X008938Y019912D01*
X008870Y019920D01*
X008802Y019924D01*
X008734Y019924D01*
X008666Y019920D01*
X008598Y019912D01*
X008531Y019901D01*
X008464Y019886D01*
X008398Y019867D01*
X008334Y019844D01*
X008271Y019818D01*
X008209Y019789D01*
X008149Y019756D01*
X008092Y019719D01*
X008036Y019680D01*
X007982Y019637D01*
X007931Y019592D01*
X007883Y019544D01*
X007838Y019493D01*
X007795Y019440D01*
X007755Y019384D01*
X007719Y019326D01*
X007686Y019267D01*
X007656Y019205D01*
X007629Y019142D01*
X007607Y019078D01*
X005894Y019059D02*
X005894Y019885D01*
X001681Y019885D01*
X001721Y015441D02*
X001721Y015201D01*
X001881Y015201D01*
X002016Y015201D02*
X002176Y015201D01*
X002096Y015201D02*
X002096Y015441D01*
X002016Y015361D01*
X001681Y014078D02*
X004043Y014078D01*
X004043Y013094D01*
X001681Y013094D01*
X001681Y014078D01*
X004260Y014492D02*
X004260Y012681D01*
X004437Y012681D01*
X005224Y012681D02*
X005402Y012681D01*
X005402Y014492D01*
X005224Y014492D01*
X004437Y014492D02*
X004260Y014492D01*
X004437Y013980D02*
X005224Y013980D01*
X006680Y014910D02*
X008100Y014910D01*
X006943Y014690D02*
X006945Y014705D01*
X006951Y014718D01*
X006960Y014730D01*
X006971Y014739D01*
X006985Y014745D01*
X007000Y014747D01*
X007015Y014745D01*
X007028Y014739D01*
X007040Y014730D01*
X007049Y014719D01*
X007055Y014705D01*
X007057Y014690D01*
X007055Y014675D01*
X007049Y014662D01*
X007040Y014650D01*
X007029Y014641D01*
X007015Y014635D01*
X007000Y014633D01*
X006985Y014635D01*
X006972Y014641D01*
X006960Y014650D01*
X006951Y014661D01*
X006945Y014675D01*
X006943Y014690D01*
X006680Y013050D02*
X008100Y013050D01*
X011957Y010109D02*
X011957Y009759D01*
X012027Y009689D01*
X012168Y009689D01*
X012238Y009759D01*
X012238Y010109D01*
X012418Y010039D02*
X012488Y010109D01*
X012628Y010109D01*
X012698Y010039D01*
X012878Y009899D02*
X013158Y009899D01*
X013339Y009689D02*
X013479Y009689D01*
X013409Y009689D02*
X013409Y010109D01*
X013339Y010109D02*
X013479Y010109D01*
X013645Y010039D02*
X013715Y010109D01*
X013856Y010109D01*
X013926Y010039D01*
X013856Y009899D02*
X013926Y009829D01*
X013926Y009759D01*
X013856Y009689D01*
X013715Y009689D01*
X013645Y009759D01*
X013715Y009899D02*
X013856Y009899D01*
X013715Y009899D02*
X013645Y009969D01*
X013645Y010039D01*
X014106Y010109D02*
X014106Y009689D01*
X014106Y009829D02*
X014316Y009829D01*
X014386Y009899D01*
X014386Y010039D01*
X014316Y010109D01*
X014106Y010109D01*
X013758Y009559D02*
X014008Y009309D01*
X014008Y008809D01*
X013758Y008559D01*
X012258Y008559D01*
X012008Y008309D01*
X012008Y007809D01*
X012258Y007559D01*
X013758Y007559D01*
X014008Y007309D01*
X014008Y006809D01*
X013758Y006559D01*
X012258Y006559D01*
X012008Y006809D01*
X012008Y007309D01*
X012258Y007559D01*
X012258Y008559D02*
X012008Y008809D01*
X012008Y009309D01*
X012258Y009559D01*
X013758Y009559D01*
X012698Y009759D02*
X012628Y009689D01*
X012488Y009689D01*
X012418Y009759D01*
X012418Y010039D01*
X011876Y009309D02*
X011876Y008809D01*
X011630Y009042D02*
X011420Y009042D01*
X011420Y008902D02*
X011420Y009322D01*
X011630Y009322D01*
X011700Y009252D01*
X011700Y009112D01*
X011630Y009042D01*
X011240Y009042D02*
X011240Y008972D01*
X011170Y008902D01*
X011029Y008902D01*
X010959Y008972D01*
X011029Y009112D02*
X011170Y009112D01*
X011240Y009042D01*
X011240Y009252D02*
X011170Y009322D01*
X011029Y009322D01*
X010959Y009252D01*
X010959Y009182D01*
X011029Y009112D01*
X010793Y009322D02*
X010653Y009322D01*
X010723Y009322D02*
X010723Y008902D01*
X010653Y008902D02*
X010793Y008902D01*
X010472Y009112D02*
X010192Y009112D01*
X010012Y009182D02*
X009732Y008902D01*
X010012Y008902D01*
X010012Y009182D02*
X010012Y009252D01*
X009942Y009322D01*
X009802Y009322D01*
X009732Y009252D01*
X009411Y009322D02*
X009411Y008902D01*
X009271Y008902D02*
X009552Y008902D01*
X009271Y009182D02*
X009411Y009322D01*
X008951Y009322D02*
X008951Y008902D01*
X008811Y008902D02*
X009091Y008902D01*
X008811Y009182D02*
X008951Y009322D01*
X008631Y009322D02*
X008351Y009322D01*
X008351Y008902D01*
X008631Y008902D01*
X008491Y009112D02*
X008351Y009112D01*
X008170Y008902D02*
X007890Y008902D01*
X007890Y009322D01*
X007710Y009252D02*
X007710Y009182D01*
X007640Y009112D01*
X007430Y009112D01*
X007640Y009112D02*
X007710Y009042D01*
X007710Y008972D01*
X007640Y008902D01*
X007430Y008902D01*
X007430Y009322D01*
X007640Y009322D01*
X007710Y009252D01*
X007783Y008704D02*
X011327Y008704D01*
X011327Y005594D01*
X010736Y005594D01*
X010736Y003862D01*
X011327Y003862D01*
X011327Y000751D01*
X007823Y000751D01*
X007783Y000751D02*
X007783Y008704D01*
X006819Y007897D02*
X002075Y007897D01*
X002075Y000771D01*
X006819Y000771D01*
X006819Y007897D01*
X011327Y005594D02*
X011327Y003862D01*
X010648Y002978D02*
X010648Y002478D01*
X011701Y001828D02*
X011951Y002078D01*
X012451Y002078D01*
X012701Y001828D01*
X012951Y002078D01*
X013451Y002078D01*
X013701Y001828D01*
X013951Y002078D01*
X014451Y002078D01*
X014701Y001828D01*
X014951Y002078D01*
X015451Y002078D01*
X015701Y001828D01*
X015951Y002078D01*
X016451Y002078D01*
X016701Y001828D01*
X016951Y002078D01*
X017451Y002078D01*
X017701Y001828D01*
X017951Y002078D01*
X018451Y002078D01*
X018701Y001828D01*
X018951Y002078D01*
X019451Y002078D01*
X019701Y001828D01*
X019701Y001328D01*
X019451Y001078D01*
X018951Y001078D01*
X018701Y001328D01*
X018451Y001078D01*
X017951Y001078D01*
X017701Y001328D01*
X017451Y001078D01*
X016951Y001078D01*
X016701Y001328D01*
X016451Y001078D01*
X015951Y001078D01*
X015701Y001328D01*
X015451Y001078D01*
X014951Y001078D01*
X014701Y001328D01*
X014451Y001078D01*
X013951Y001078D01*
X013701Y001328D01*
X013451Y001078D01*
X012951Y001078D01*
X012701Y001328D01*
X012451Y001078D01*
X011951Y001078D01*
X011701Y001328D01*
X011701Y001828D01*
X011917Y002503D02*
X015067Y002503D01*
X012992Y003744D02*
X012994Y003788D01*
X013000Y003832D01*
X013010Y003875D01*
X013023Y003917D01*
X013040Y003958D01*
X013061Y003997D01*
X013085Y004034D01*
X013112Y004069D01*
X013142Y004101D01*
X013175Y004131D01*
X013211Y004157D01*
X013248Y004181D01*
X013288Y004200D01*
X013329Y004217D01*
X013372Y004229D01*
X013415Y004238D01*
X013459Y004243D01*
X013503Y004244D01*
X013547Y004241D01*
X013591Y004234D01*
X013634Y004223D01*
X013676Y004209D01*
X013716Y004191D01*
X013755Y004169D01*
X013791Y004145D01*
X013825Y004117D01*
X013857Y004086D01*
X013886Y004052D01*
X013912Y004016D01*
X013934Y003978D01*
X013953Y003938D01*
X013968Y003896D01*
X013980Y003854D01*
X013988Y003810D01*
X013992Y003766D01*
X013992Y003722D01*
X013988Y003678D01*
X013980Y003634D01*
X013968Y003592D01*
X013953Y003550D01*
X013934Y003510D01*
X013912Y003472D01*
X013886Y003436D01*
X013857Y003402D01*
X013825Y003371D01*
X013791Y003343D01*
X013755Y003319D01*
X013716Y003297D01*
X013676Y003279D01*
X013634Y003265D01*
X013591Y003254D01*
X013547Y003247D01*
X013503Y003244D01*
X013459Y003245D01*
X013415Y003250D01*
X013372Y003259D01*
X013329Y003271D01*
X013288Y003288D01*
X013248Y003307D01*
X013211Y003331D01*
X013175Y003357D01*
X013142Y003387D01*
X013112Y003419D01*
X013085Y003454D01*
X013061Y003491D01*
X013040Y003530D01*
X013023Y003571D01*
X013010Y003613D01*
X013000Y003656D01*
X012994Y003700D01*
X012992Y003744D01*
X011917Y004984D02*
X015067Y004984D01*
X014954Y006527D02*
X014954Y009227D01*
X014956Y009286D01*
X014962Y009344D01*
X014971Y009403D01*
X014985Y009460D01*
X015002Y009516D01*
X015023Y009571D01*
X015047Y009625D01*
X015075Y009677D01*
X015106Y009727D01*
X015140Y009775D01*
X015177Y009820D01*
X015218Y009863D01*
X015261Y009904D01*
X015306Y009941D01*
X015354Y009975D01*
X015404Y010006D01*
X015456Y010034D01*
X015510Y010058D01*
X015565Y010079D01*
X015621Y010096D01*
X015678Y010110D01*
X015737Y010119D01*
X015795Y010125D01*
X015854Y010127D01*
X015913Y010125D01*
X015971Y010119D01*
X016030Y010110D01*
X016087Y010096D01*
X016143Y010079D01*
X016198Y010058D01*
X016252Y010034D01*
X016304Y010006D01*
X016354Y009975D01*
X016402Y009941D01*
X016447Y009904D01*
X016490Y009863D01*
X016531Y009820D01*
X016568Y009775D01*
X016602Y009727D01*
X016633Y009677D01*
X016661Y009625D01*
X016685Y009571D01*
X016706Y009516D01*
X016723Y009460D01*
X016737Y009403D01*
X016746Y009344D01*
X016752Y009286D01*
X016754Y009227D01*
X016754Y006527D01*
X016752Y006468D01*
X016746Y006410D01*
X016737Y006351D01*
X016723Y006294D01*
X016706Y006238D01*
X016685Y006183D01*
X016661Y006129D01*
X016633Y006077D01*
X016602Y006027D01*
X016568Y005979D01*
X016531Y005934D01*
X016490Y005891D01*
X016447Y005850D01*
X016402Y005813D01*
X016354Y005779D01*
X016304Y005748D01*
X016252Y005720D01*
X016198Y005696D01*
X016143Y005675D01*
X016087Y005658D01*
X016030Y005644D01*
X015971Y005635D01*
X015913Y005629D01*
X015854Y005627D01*
X015795Y005629D01*
X015737Y005635D01*
X015678Y005644D01*
X015621Y005658D01*
X015565Y005675D01*
X015510Y005696D01*
X015456Y005720D01*
X015404Y005748D01*
X015354Y005779D01*
X015306Y005813D01*
X015261Y005850D01*
X015218Y005891D01*
X015177Y005934D01*
X015140Y005979D01*
X015106Y006027D01*
X015075Y006077D01*
X015047Y006129D01*
X015023Y006183D01*
X015002Y006238D01*
X014985Y006294D01*
X014971Y006351D01*
X014962Y006410D01*
X014956Y006468D01*
X014954Y006527D01*
X013758Y007559D02*
X014008Y007809D01*
X014008Y008309D01*
X013758Y008559D01*
X014122Y011303D02*
X013965Y011460D01*
X013965Y014925D01*
X014122Y015082D01*
X017587Y015082D01*
X017744Y014925D01*
X017744Y011460D01*
X017587Y011303D01*
X014122Y011303D01*
X019866Y010883D02*
X019866Y010383D01*
X020116Y010133D01*
X020616Y010133D01*
X020866Y010383D01*
X021116Y010133D01*
X021616Y010133D01*
X021866Y010383D01*
X021866Y010883D01*
X021616Y011133D01*
X021116Y011133D01*
X020866Y010883D01*
X020616Y011133D01*
X020116Y011133D01*
X019866Y010883D01*
X020555Y011295D02*
X020625Y011225D01*
X020695Y011225D01*
X020765Y011295D01*
X020765Y011645D01*
X020695Y011645D02*
X020835Y011645D01*
X021015Y011645D02*
X021226Y011645D01*
X021296Y011575D01*
X021296Y011435D01*
X021226Y011365D01*
X021015Y011365D01*
X021015Y011225D02*
X021015Y011645D01*
X021476Y011505D02*
X021616Y011645D01*
X021616Y011225D01*
X021476Y011225D02*
X021756Y011225D01*
X021764Y011961D02*
X021904Y011961D01*
X021974Y012031D01*
X022154Y011961D02*
X022434Y011961D01*
X022294Y011961D02*
X022294Y012381D01*
X022154Y012241D01*
X021974Y012311D02*
X021904Y012381D01*
X021764Y012381D01*
X021694Y012311D01*
X021694Y012031D01*
X021764Y011961D01*
X022614Y012031D02*
X022684Y011961D01*
X022825Y011961D01*
X022895Y012031D01*
X022895Y012101D01*
X022825Y012171D01*
X022754Y012171D01*
X022825Y012171D02*
X022895Y012241D01*
X022895Y012311D01*
X022825Y012381D01*
X022684Y012381D01*
X022614Y012311D01*
X023181Y012734D02*
X030181Y012734D01*
X030181Y002234D01*
X023181Y002234D01*
X023181Y012734D01*
X022828Y013042D02*
X022898Y013112D01*
X022898Y013182D01*
X022828Y013252D01*
X022617Y013252D01*
X022617Y013112D01*
X022688Y013042D01*
X022828Y013042D01*
X022617Y013252D02*
X022758Y013392D01*
X022898Y013462D01*
X022297Y013462D02*
X022297Y013042D01*
X022157Y013042D02*
X022437Y013042D01*
X022157Y013322D02*
X022297Y013462D01*
X021977Y013392D02*
X021977Y013252D01*
X021907Y013182D01*
X021697Y013182D01*
X021837Y013182D02*
X021977Y013042D01*
X021697Y013042D02*
X021697Y013462D01*
X021907Y013462D01*
X021977Y013392D01*
X023901Y012254D02*
X024141Y012254D01*
X024141Y012174D02*
X024141Y012334D01*
X023981Y012174D02*
X023901Y012254D01*
X026878Y013527D02*
X030028Y013527D01*
X029191Y012479D02*
X029351Y012318D01*
X029391Y012318D01*
X029391Y012144D02*
X029151Y012144D01*
X029271Y012024D01*
X029271Y012184D01*
X029151Y012318D02*
X029151Y012479D01*
X029191Y012479D01*
X027953Y014767D02*
X027955Y014811D01*
X027961Y014855D01*
X027971Y014898D01*
X027984Y014940D01*
X028001Y014981D01*
X028022Y015020D01*
X028046Y015057D01*
X028073Y015092D01*
X028103Y015124D01*
X028136Y015154D01*
X028172Y015180D01*
X028209Y015204D01*
X028249Y015223D01*
X028290Y015240D01*
X028333Y015252D01*
X028376Y015261D01*
X028420Y015266D01*
X028464Y015267D01*
X028508Y015264D01*
X028552Y015257D01*
X028595Y015246D01*
X028637Y015232D01*
X028677Y015214D01*
X028716Y015192D01*
X028752Y015168D01*
X028786Y015140D01*
X028818Y015109D01*
X028847Y015075D01*
X028873Y015039D01*
X028895Y015001D01*
X028914Y014961D01*
X028929Y014919D01*
X028941Y014877D01*
X028949Y014833D01*
X028953Y014789D01*
X028953Y014745D01*
X028949Y014701D01*
X028941Y014657D01*
X028929Y014615D01*
X028914Y014573D01*
X028895Y014533D01*
X028873Y014495D01*
X028847Y014459D01*
X028818Y014425D01*
X028786Y014394D01*
X028752Y014366D01*
X028716Y014342D01*
X028677Y014320D01*
X028637Y014302D01*
X028595Y014288D01*
X028552Y014277D01*
X028508Y014270D01*
X028464Y014267D01*
X028420Y014268D01*
X028376Y014273D01*
X028333Y014282D01*
X028290Y014294D01*
X028249Y014311D01*
X028209Y014330D01*
X028172Y014354D01*
X028136Y014380D01*
X028103Y014410D01*
X028073Y014442D01*
X028046Y014477D01*
X028022Y014514D01*
X028001Y014553D01*
X027984Y014594D01*
X027971Y014636D01*
X027961Y014679D01*
X027955Y014723D01*
X027953Y014767D01*
X026878Y016007D02*
X030028Y016007D01*
X030657Y016539D02*
X030657Y020082D01*
X022705Y020082D01*
X022705Y020043D02*
X022705Y016539D01*
X025815Y016539D01*
X025815Y017129D01*
X027547Y017129D01*
X027547Y016539D01*
X025815Y016539D01*
X024931Y017218D02*
X024431Y017218D01*
X027547Y016539D02*
X030657Y016539D01*
X021472Y018992D02*
X015472Y018992D01*
X015472Y019992D01*
X021472Y019992D01*
X021472Y018992D01*
X021359Y018898D02*
X021079Y018617D01*
X021149Y018547D01*
X021289Y018547D01*
X021359Y018617D01*
X021359Y018898D01*
X021289Y018968D01*
X021149Y018968D01*
X021079Y018898D01*
X021079Y018617D01*
X020899Y018547D02*
X020899Y018828D01*
X020759Y018968D01*
X020619Y018828D01*
X020619Y018547D01*
X020619Y018758D02*
X020899Y018758D01*
X020375Y018547D02*
X020095Y018547D01*
X020235Y018547D02*
X020235Y018968D01*
X020095Y018828D01*
X019915Y018828D02*
X019915Y018547D01*
X019915Y018758D02*
X019634Y018758D01*
X019634Y018828D02*
X019634Y018547D01*
X019504Y018377D02*
X019785Y017957D01*
X019504Y017957D02*
X019785Y018377D01*
X019391Y018547D02*
X019111Y018547D01*
X019391Y018828D01*
X019391Y018898D01*
X019321Y018968D01*
X019181Y018968D01*
X019111Y018898D01*
X018930Y018828D02*
X018930Y018547D01*
X019044Y018377D02*
X019324Y018377D01*
X019184Y018377D02*
X019184Y017957D01*
X019254Y017590D02*
X019044Y017590D01*
X019044Y017169D01*
X019044Y017310D02*
X019254Y017310D01*
X019324Y017380D01*
X019324Y017520D01*
X019254Y017590D01*
X019504Y017590D02*
X019785Y017169D01*
X019504Y017169D02*
X019785Y017590D01*
X019324Y017169D02*
X019184Y017310D01*
X018610Y017129D02*
X018610Y018507D01*
X018650Y018547D02*
X018650Y018828D01*
X018790Y018968D01*
X018930Y018828D01*
X018930Y018758D02*
X018650Y018758D01*
X018303Y018370D02*
X018373Y018300D01*
X018373Y018090D01*
X017953Y018090D01*
X017953Y018300D01*
X018023Y018370D01*
X018093Y018370D01*
X018163Y018300D01*
X018163Y018090D01*
X018233Y017910D02*
X018303Y017910D01*
X018373Y017840D01*
X018373Y017700D01*
X018303Y017630D01*
X018163Y017700D02*
X018163Y017840D01*
X018233Y017910D01*
X018023Y017910D02*
X017953Y017840D01*
X017953Y017700D01*
X018023Y017630D01*
X018093Y017630D01*
X018163Y017700D01*
X018303Y017450D02*
X017953Y017450D01*
X017953Y017169D02*
X018303Y017169D01*
X018373Y017239D01*
X018373Y017380D01*
X018303Y017450D01*
X018163Y018300D02*
X018233Y018370D01*
X018303Y018370D01*
X019634Y018828D02*
X019775Y018968D01*
X019915Y018828D01*
X020618Y018271D02*
X020620Y018284D01*
X020625Y018296D01*
X020634Y018307D01*
X020644Y018315D01*
X020657Y018319D01*
X020670Y018320D01*
X020683Y018317D01*
X020695Y018311D01*
X020705Y018302D01*
X020712Y018291D01*
X020716Y018278D01*
X020716Y018264D01*
X020712Y018251D01*
X020705Y018240D01*
X020695Y018231D01*
X020683Y018225D01*
X020670Y018222D01*
X020657Y018223D01*
X020644Y018227D01*
X020634Y018235D01*
X020625Y018246D01*
X020620Y018258D01*
X020618Y018271D01*
X020776Y018173D02*
X020835Y018114D01*
X020766Y018045D01*
X020707Y018104D01*
X020776Y018173D01*
X020618Y017484D02*
X020620Y017497D01*
X020625Y017509D01*
X020634Y017520D01*
X020644Y017528D01*
X020657Y017532D01*
X020670Y017533D01*
X020683Y017530D01*
X020695Y017524D01*
X020705Y017515D01*
X020712Y017504D01*
X020716Y017491D01*
X020716Y017477D01*
X020712Y017464D01*
X020705Y017453D01*
X020695Y017444D01*
X020683Y017438D01*
X020670Y017435D01*
X020657Y017436D01*
X020644Y017440D01*
X020634Y017448D01*
X020625Y017459D01*
X020620Y017471D01*
X020618Y017484D01*
X020776Y017385D02*
X020835Y017326D01*
X020766Y017257D01*
X020707Y017316D01*
X020776Y017385D01*
X014240Y018566D02*
X013768Y018566D01*
X013768Y019118D01*
X012035Y019118D01*
X012035Y018566D01*
X011563Y018566D01*
X011563Y019196D01*
X013019Y019566D02*
X013166Y019786D01*
X013019Y019786D02*
X013166Y019566D01*
X013295Y019566D02*
X013442Y019566D01*
X013369Y019566D02*
X013369Y019786D01*
X013295Y019713D01*
X014240Y019196D02*
X014240Y018566D01*
X002774Y011332D02*
X002776Y011345D01*
X002781Y011357D01*
X002790Y011368D01*
X002800Y011376D01*
X002813Y011380D01*
X002826Y011381D01*
X002839Y011378D01*
X002851Y011372D01*
X002861Y011363D01*
X002868Y011352D01*
X002872Y011339D01*
X002872Y011325D01*
X002868Y011312D01*
X002861Y011301D01*
X002851Y011292D01*
X002839Y011286D01*
X002826Y011283D01*
X002813Y011284D01*
X002800Y011288D01*
X002790Y011296D01*
X002781Y011307D01*
X002776Y011319D01*
X002774Y011332D01*
X002724Y011224D02*
X002665Y011165D01*
X002596Y011234D01*
X002656Y011293D01*
X002724Y011224D01*
X002747Y003212D02*
X002827Y003212D01*
X002867Y003172D01*
X002867Y003132D01*
X002827Y003092D01*
X002867Y003052D01*
X002867Y003011D01*
X002827Y002971D01*
X002747Y002971D01*
X002707Y003011D01*
X002787Y003092D02*
X002827Y003092D01*
X002707Y003172D02*
X002747Y003212D01*
X003001Y003172D02*
X003001Y003011D01*
X003161Y003172D01*
X003161Y003011D01*
X003121Y002971D01*
X003041Y002971D01*
X003001Y003011D01*
X003001Y003172D02*
X003041Y003212D01*
X003121Y003212D01*
X003161Y003172D01*
X005895Y001143D02*
X005975Y001223D01*
X005975Y000983D01*
X005895Y000983D02*
X006055Y000983D01*
X019922Y001758D02*
X020062Y001898D01*
X020342Y001898D01*
X020272Y002079D02*
X020342Y002149D01*
X020342Y002289D01*
X020272Y002359D01*
X020202Y002359D01*
X020132Y002289D01*
X020132Y002149D01*
X020062Y002079D01*
X019992Y002079D01*
X019922Y002149D01*
X019922Y002289D01*
X019992Y002359D01*
X019992Y002539D02*
X020062Y002539D01*
X020132Y002609D01*
X020132Y002749D01*
X020202Y002819D01*
X020272Y002819D01*
X020342Y002749D01*
X020342Y002609D01*
X020272Y002539D01*
X019992Y002539D02*
X019922Y002609D01*
X019922Y002749D01*
X019992Y002819D01*
X019992Y002999D02*
X020272Y002999D01*
X020342Y003069D01*
X020342Y003210D01*
X020272Y003280D01*
X019992Y003280D01*
X019922Y003210D01*
X019922Y003069D01*
X019992Y002999D01*
X019992Y003460D02*
X020272Y003460D01*
X020342Y003530D01*
X020342Y003670D01*
X020272Y003740D01*
X019992Y003740D02*
X019922Y003670D01*
X019922Y003530D01*
X019992Y003460D01*
X020906Y003393D02*
X021326Y003673D01*
X021326Y003393D02*
X020906Y003673D01*
X020976Y003213D02*
X020906Y003143D01*
X020906Y002933D01*
X021326Y002933D01*
X021186Y002933D02*
X021186Y003143D01*
X021116Y003213D01*
X020976Y003213D01*
X021186Y003073D02*
X021326Y003213D01*
X021326Y002753D02*
X020906Y002472D01*
X020906Y002292D02*
X020906Y002012D01*
X020906Y002152D02*
X021326Y002152D01*
X021326Y002472D02*
X020906Y002753D01*
X020132Y001898D02*
X020132Y001618D01*
X020062Y001618D02*
X019922Y001758D01*
X020062Y001618D02*
X020342Y001618D01*
X022087Y002406D02*
X022087Y002686D01*
X022087Y002546D02*
X022507Y002546D01*
X022437Y002866D02*
X022157Y002866D01*
X022087Y002936D01*
X022087Y003076D01*
X022157Y003146D01*
X022087Y003326D02*
X022087Y003537D01*
X022157Y003607D01*
X022297Y003607D01*
X022367Y003537D01*
X022367Y003326D01*
X022507Y003326D02*
X022087Y003326D01*
X022437Y003146D02*
X022507Y003076D01*
X022507Y002936D01*
X022437Y002866D01*
X021947Y004423D02*
X021949Y004436D01*
X021954Y004448D01*
X021963Y004459D01*
X021973Y004467D01*
X021986Y004471D01*
X021999Y004472D01*
X022012Y004469D01*
X022024Y004463D01*
X022034Y004454D01*
X022041Y004443D01*
X022045Y004430D01*
X022045Y004416D01*
X022041Y004403D01*
X022034Y004392D01*
X022024Y004383D01*
X022012Y004377D01*
X021999Y004374D01*
X021986Y004375D01*
X021973Y004379D01*
X021963Y004387D01*
X021954Y004398D01*
X021949Y004410D01*
X021947Y004423D01*
X022094Y004531D02*
X022154Y004590D01*
X022222Y004521D01*
X022163Y004462D01*
X022094Y004531D01*
X021238Y004521D02*
X021179Y004462D01*
X021110Y004531D01*
X021169Y004590D01*
X021238Y004521D01*
X020963Y004423D02*
X020965Y004436D01*
X020970Y004448D01*
X020979Y004459D01*
X020989Y004467D01*
X021002Y004471D01*
X021015Y004472D01*
X021028Y004469D01*
X021040Y004463D01*
X021050Y004454D01*
X021057Y004443D01*
X021061Y004430D01*
X021061Y004416D01*
X021057Y004403D01*
X021050Y004392D01*
X021040Y004383D01*
X021028Y004377D01*
X021015Y004374D01*
X021002Y004375D01*
X020989Y004379D01*
X020979Y004387D01*
X020970Y004398D01*
X020965Y004410D01*
X020963Y004423D01*
X020254Y004521D02*
X020195Y004462D01*
X020126Y004531D01*
X020185Y004590D01*
X020254Y004521D01*
X019979Y004423D02*
X019981Y004436D01*
X019986Y004448D01*
X019995Y004459D01*
X020005Y004467D01*
X020018Y004471D01*
X020031Y004472D01*
X020044Y004469D01*
X020056Y004463D01*
X020066Y004454D01*
X020073Y004443D01*
X020077Y004430D01*
X020077Y004416D01*
X020073Y004403D01*
X020066Y004392D01*
X020056Y004383D01*
X020044Y004377D01*
X020031Y004374D01*
X020018Y004375D01*
X020005Y004379D01*
X019995Y004387D01*
X019986Y004398D01*
X019981Y004410D01*
X019979Y004423D01*
X024753Y001251D02*
X024753Y000971D01*
X024893Y000831D01*
X025033Y000971D01*
X025033Y001251D01*
X025213Y001181D02*
X025213Y000901D01*
X025493Y001181D01*
X025493Y000901D01*
X025423Y000831D01*
X025283Y000831D01*
X025213Y000901D01*
X025213Y001181D02*
X025283Y001251D01*
X025423Y001251D01*
X025493Y001181D01*
X025673Y000901D02*
X025743Y000901D01*
X025743Y000831D01*
X025673Y000831D01*
X025673Y000901D01*
X025904Y000831D02*
X026184Y001111D01*
X026184Y001181D01*
X026114Y001251D01*
X025974Y001251D01*
X025904Y001181D01*
X025904Y000831D02*
X026184Y000831D01*
X026271Y005524D02*
X026271Y005834D01*
X026374Y005937D01*
X026581Y005937D01*
X026684Y005834D01*
X026684Y005524D01*
X026684Y005731D02*
X026891Y005937D01*
X026891Y006168D02*
X026271Y006168D01*
X026891Y006582D01*
X026271Y006582D01*
X026477Y006813D02*
X026271Y007020D01*
X026891Y007020D01*
X026891Y006813D02*
X026891Y007227D01*
X026891Y007457D02*
X026788Y007457D01*
X026374Y007871D01*
X026271Y007871D01*
X026271Y007457D01*
X026477Y008102D02*
X026271Y008309D01*
X026891Y008309D01*
X026891Y008102D02*
X026891Y008516D01*
X026891Y005524D02*
X026271Y005524D01*
D13*
X009665Y010432D02*
X009505Y010272D01*
X009505Y010232D01*
X009389Y010272D02*
X009349Y010232D01*
X009269Y010232D01*
X009229Y010272D01*
X009229Y010432D01*
X009269Y010472D01*
X009349Y010472D01*
X009389Y010432D01*
X009505Y010472D02*
X009665Y010472D01*
X009665Y010432D01*
X008505Y019128D02*
X008425Y019128D01*
X008385Y019168D01*
X008385Y019248D01*
X008505Y019248D01*
X008545Y019208D01*
X008545Y019168D01*
X008505Y019128D01*
X008385Y019248D02*
X008465Y019328D01*
X008545Y019368D01*
X008269Y019328D02*
X008229Y019368D01*
X008149Y019368D01*
X008109Y019328D01*
X008109Y019168D01*
X008149Y019128D01*
X008229Y019128D01*
X008269Y019168D01*
X001792Y001492D02*
X001792Y001332D01*
X001672Y001452D01*
X001912Y001452D01*
X001872Y001216D02*
X001672Y001216D01*
X001672Y001056D02*
X001872Y001056D01*
X001912Y001096D01*
X001912Y001176D01*
X001872Y001216D01*
D14*
X014521Y005202D02*
X014556Y005167D01*
X014626Y005167D01*
X014661Y005202D01*
X014661Y005237D01*
X014626Y005272D01*
X014556Y005272D01*
X014521Y005307D01*
X014521Y005342D01*
X014556Y005377D01*
X014626Y005377D01*
X014661Y005342D01*
X014798Y005307D02*
X014868Y005377D01*
X014868Y005167D01*
X014798Y005167D02*
X014938Y005167D01*
X007154Y015206D02*
X007014Y015206D01*
X007084Y015206D02*
X007084Y015416D01*
X007014Y015346D01*
X006878Y015416D02*
X006878Y015241D01*
X006843Y015206D01*
X006773Y015206D01*
X006738Y015241D01*
X006738Y015416D01*
X005179Y015068D02*
X005039Y015068D01*
X005109Y015068D02*
X005109Y015279D01*
X005039Y015209D01*
X004903Y015244D02*
X004868Y015279D01*
X004763Y015279D01*
X004763Y015068D01*
X004868Y015068D01*
X004903Y015104D01*
X004903Y015244D01*
X006732Y017037D02*
X006837Y017037D01*
X006872Y017072D01*
X006872Y017212D01*
X006837Y017247D01*
X006732Y017247D01*
X006732Y017037D01*
X007008Y017037D02*
X007148Y017177D01*
X007148Y017212D01*
X007113Y017247D01*
X007043Y017247D01*
X007008Y017212D01*
X007008Y017037D02*
X007148Y017037D01*
X029679Y016365D02*
X029679Y016330D01*
X029714Y016295D01*
X029784Y016295D01*
X029819Y016260D01*
X029819Y016225D01*
X029784Y016190D01*
X029714Y016190D01*
X029679Y016225D01*
X029679Y016365D02*
X029714Y016400D01*
X029784Y016400D01*
X029819Y016365D01*
X029955Y016365D02*
X029990Y016400D01*
X030060Y016400D01*
X030095Y016365D01*
X030095Y016330D01*
X029955Y016190D01*
X030095Y016190D01*
D15*
X014169Y014767D02*
X014171Y014787D01*
X014176Y014807D01*
X014186Y014825D01*
X014198Y014842D01*
X014213Y014856D01*
X014231Y014866D01*
X014250Y014874D01*
X014270Y014878D01*
X014290Y014878D01*
X014310Y014874D01*
X014329Y014866D01*
X014347Y014856D01*
X014362Y014842D01*
X014374Y014825D01*
X014384Y014807D01*
X014389Y014787D01*
X014391Y014767D01*
X014389Y014747D01*
X014384Y014727D01*
X014374Y014709D01*
X014362Y014692D01*
X014347Y014678D01*
X014329Y014668D01*
X014310Y014660D01*
X014290Y014656D01*
X014270Y014656D01*
X014250Y014660D01*
X014231Y014668D01*
X014213Y014678D01*
X014198Y014692D01*
X014186Y014709D01*
X014176Y014727D01*
X014171Y014747D01*
X014169Y014767D01*
D16*
X015555Y014648D02*
X015555Y014431D01*
X015599Y014388D01*
X015686Y014388D01*
X015729Y014431D01*
X015729Y014648D01*
X015832Y014604D02*
X015875Y014648D01*
X015962Y014648D01*
X016005Y014604D01*
X016005Y014561D01*
X015832Y014388D01*
X016005Y014388D01*
X023551Y015771D02*
X023858Y015771D01*
X024012Y015771D02*
X024319Y015771D01*
X024472Y015771D02*
X024702Y015771D01*
X024779Y015848D01*
X024779Y016155D01*
X024702Y016232D01*
X024472Y016232D01*
X024472Y015771D01*
X024165Y016002D02*
X024012Y016002D01*
X024012Y016232D02*
X024012Y015771D01*
X023551Y015771D02*
X023551Y016232D01*
X024012Y016232D02*
X024319Y016232D01*
X024933Y016002D02*
X025009Y016078D01*
X025240Y016078D01*
X025163Y015925D02*
X025009Y015925D01*
X024933Y016002D01*
X024933Y015771D02*
X025163Y015771D01*
X025240Y015848D01*
X025163Y015925D01*
X027646Y013397D02*
X027646Y013014D01*
X027723Y012937D01*
X027876Y012937D01*
X027953Y013014D01*
X027953Y013397D01*
X028106Y013320D02*
X028106Y013244D01*
X028183Y013167D01*
X028337Y013167D01*
X028413Y013090D01*
X028413Y013014D01*
X028337Y012937D01*
X028183Y012937D01*
X028106Y013014D01*
X028106Y013320D02*
X028183Y013397D01*
X028337Y013397D01*
X028413Y013320D01*
X028567Y013397D02*
X028567Y012937D01*
X028874Y012937D01*
X029027Y012937D02*
X029027Y013397D01*
X029257Y013397D01*
X029334Y013320D01*
X029334Y013167D01*
X029257Y013090D01*
X029027Y013090D01*
X029181Y013090D02*
X029334Y012937D01*
X028720Y013167D02*
X028567Y013167D01*
X028567Y013397D02*
X028874Y013397D01*
X019181Y004995D02*
X018720Y004688D01*
X018797Y004534D02*
X018720Y004457D01*
X018720Y004227D01*
X019181Y004227D01*
X019181Y004074D02*
X018720Y004074D01*
X018720Y003767D02*
X019181Y003767D01*
X019027Y003920D01*
X019181Y004074D01*
X019027Y004227D02*
X019027Y004457D01*
X018951Y004534D01*
X018797Y004534D01*
X019027Y004381D02*
X019181Y004534D01*
X019181Y004688D02*
X018720Y004995D01*
X018393Y004995D02*
X017933Y004688D01*
X017933Y004534D02*
X017933Y004227D01*
X017933Y004074D02*
X018393Y004074D01*
X018240Y003920D01*
X018393Y003767D01*
X017933Y003767D01*
X017933Y003613D02*
X018393Y003306D01*
X018393Y003153D02*
X018393Y002846D01*
X018393Y002999D02*
X017933Y002999D01*
X018086Y002846D01*
X018010Y002693D02*
X017933Y002616D01*
X017933Y002386D01*
X018393Y002386D01*
X018393Y002616D01*
X018317Y002693D01*
X018010Y002693D01*
X017409Y002616D02*
X017409Y002386D01*
X016949Y002386D01*
X016949Y002616D01*
X017025Y002693D01*
X017332Y002693D01*
X017409Y002616D01*
X017409Y002846D02*
X017102Y003153D01*
X017025Y003153D01*
X016949Y003076D01*
X016949Y002923D01*
X017025Y002846D01*
X017409Y002846D02*
X017409Y003153D01*
X016425Y003076D02*
X016425Y002923D01*
X016348Y002846D01*
X016348Y002693D02*
X016041Y002693D01*
X015964Y002616D01*
X015964Y002386D01*
X016425Y002386D01*
X016425Y002616D01*
X016348Y002693D01*
X016041Y002846D02*
X015964Y002923D01*
X015964Y003076D01*
X016041Y003153D01*
X016118Y003153D01*
X016195Y003076D01*
X016271Y003153D01*
X016348Y003153D01*
X016425Y003076D01*
X016195Y003076D02*
X016195Y002999D01*
X016195Y003306D02*
X016195Y003613D01*
X016348Y003613D02*
X016041Y003306D01*
X016041Y003460D02*
X016348Y003460D01*
X016348Y003306D02*
X016041Y003613D01*
X015604Y003153D02*
X015604Y002846D01*
X015374Y003076D01*
X015834Y003076D01*
X015758Y002693D02*
X015451Y002693D01*
X015374Y002616D01*
X015374Y002386D01*
X015834Y002386D01*
X015834Y002616D01*
X015758Y002693D01*
X017933Y004381D02*
X018393Y004381D01*
X018393Y004688D02*
X017933Y004995D01*
X018720Y003613D02*
X019181Y003306D01*
X019104Y003153D02*
X019181Y003076D01*
X019181Y002923D01*
X019104Y002846D01*
X018797Y003153D01*
X019104Y003153D01*
X018797Y003153D02*
X018720Y003076D01*
X018720Y002923D01*
X018797Y002846D01*
X019104Y002846D01*
X019104Y002693D02*
X018797Y002693D01*
X018720Y002616D01*
X018720Y002386D01*
X019181Y002386D01*
X019181Y002616D01*
X019104Y002693D01*
X024164Y002065D02*
X024164Y001848D01*
X024207Y001805D01*
X024294Y001805D01*
X024337Y001848D01*
X024337Y002065D01*
X024440Y002022D02*
X024483Y002065D01*
X024570Y002065D01*
X024613Y002022D01*
X024613Y001978D01*
X024570Y001935D01*
X024613Y001892D01*
X024613Y001848D01*
X024570Y001805D01*
X024483Y001805D01*
X024440Y001848D01*
X024527Y001935D02*
X024570Y001935D01*
X011897Y005142D02*
X011437Y005142D01*
X011437Y005372D01*
X011514Y005448D01*
X011667Y005448D01*
X011744Y005372D01*
X011744Y005142D01*
X011744Y005295D02*
X011897Y005448D01*
X011897Y005602D02*
X011897Y005909D01*
X011821Y006062D02*
X011897Y006139D01*
X011897Y006293D01*
X011821Y006369D01*
X011744Y006369D01*
X011667Y006293D01*
X011667Y006139D01*
X011590Y006062D01*
X011514Y006062D01*
X011437Y006139D01*
X011437Y006293D01*
X011514Y006369D01*
X011437Y006523D02*
X011897Y006523D01*
X011897Y006830D01*
X011667Y006676D02*
X011667Y006523D01*
X011437Y006523D02*
X011437Y006830D01*
X011437Y006983D02*
X011437Y007290D01*
X011437Y007137D02*
X011897Y007137D01*
X011437Y005909D02*
X011437Y005602D01*
X011897Y005602D01*
X011667Y005602D02*
X011667Y005755D01*
D17*
X021027Y001436D02*
X021224Y001436D01*
X021126Y001436D02*
X021126Y000846D01*
X021224Y000846D02*
X021027Y000846D01*
X021457Y000846D02*
X021851Y000846D01*
X022102Y000846D02*
X022495Y000846D01*
X022746Y000944D02*
X022845Y000846D01*
X023041Y000846D01*
X023140Y000944D01*
X023140Y001436D01*
X023391Y001436D02*
X023588Y001239D01*
X023784Y001436D01*
X023784Y000846D01*
X024035Y000846D02*
X024232Y000846D01*
X024134Y000846D02*
X024134Y001436D01*
X024232Y001436D02*
X024035Y001436D01*
X023391Y001436D02*
X023391Y000846D01*
X022746Y000944D02*
X022746Y001436D01*
X022102Y001436D02*
X022102Y000846D01*
X021457Y000846D02*
X021457Y001436D01*
D18*
X014485Y002215D02*
X014338Y002362D01*
X014338Y002289D02*
X014485Y002289D01*
X014485Y002362D02*
X014338Y002215D01*
X014411Y002215D02*
X014411Y002362D01*
X014264Y002399D02*
X014117Y002399D01*
X014117Y002289D01*
X014190Y002326D01*
X014227Y002326D01*
X014264Y002289D01*
X014264Y002215D01*
X014227Y002179D01*
X014154Y002179D01*
X014117Y002215D01*
X014043Y002215D02*
X014043Y002362D01*
X014006Y002399D01*
X013896Y002399D01*
X013896Y002179D01*
X014006Y002179D01*
X014043Y002215D01*
X013500Y002215D02*
X013354Y002362D01*
X013427Y002362D02*
X013427Y002215D01*
X013354Y002215D02*
X013500Y002362D01*
X013500Y002289D02*
X013354Y002289D01*
X013279Y002252D02*
X013243Y002289D01*
X013133Y002289D01*
X013133Y002215D01*
X013169Y002179D01*
X013243Y002179D01*
X013279Y002215D01*
X013279Y002252D01*
X013206Y002362D02*
X013133Y002289D01*
X013206Y002362D02*
X013279Y002399D01*
X013058Y002362D02*
X013058Y002215D01*
X013022Y002179D01*
X012912Y002179D01*
X012912Y002399D01*
X013022Y002399D01*
X013058Y002362D01*
X012295Y002362D02*
X012148Y002215D01*
X012148Y002179D01*
X012074Y002215D02*
X012074Y002362D01*
X012037Y002399D01*
X011927Y002399D01*
X011927Y002179D01*
X012037Y002179D01*
X012074Y002215D01*
X012148Y002399D02*
X012295Y002399D01*
X012295Y002362D01*
D19*
X011524Y002562D02*
X011524Y004925D01*
M02*
