G75*
G70*
%OFA0B0*%
%FSLAX24Y24*%
%IPPOS*%
%LPD*%
%AMOC8*
5,1,8,0,0,1.08239X$1,22.5*
%
%ADD10C,0.0400*%
%ADD11C,0.0335*%
%ADD12OC8,0.0740*%
%ADD13C,0.0142*%
%ADD14C,0.0394*%
%ADD15R,0.0591X0.0512*%
%ADD16R,0.0512X0.0591*%
%ADD17R,0.0472X0.0472*%
%ADD18C,0.0740*%
%ADD19R,0.0138X0.0551*%
%ADD20R,0.0709X0.0748*%
%ADD21R,0.0740X0.0740*%
%ADD22R,0.0870X0.0240*%
%ADD23R,0.0710X0.0630*%
%ADD24R,0.0669X0.0984*%
%ADD25C,0.1700*%
%ADD26R,0.1181X0.0551*%
%ADD27R,0.0945X0.0945*%
%ADD28R,0.0551X0.0630*%
%ADD29C,0.0650*%
%ADD30R,0.0984X0.0669*%
%ADD31R,0.2362X0.0787*%
%ADD32C,0.0984*%
%ADD33C,0.0394*%
%ADD34R,0.0376X0.0376*%
%ADD35C,0.0079*%
%ADD36R,0.0591X0.0591*%
%ADD37C,0.0197*%
%ADD38R,0.0297X0.0297*%
%ADD39C,0.0120*%
D10*
X023081Y002734D02*
X023581Y002734D01*
X023581Y003234D02*
X023081Y003234D01*
X023081Y003734D02*
X023581Y003734D01*
X023581Y004234D02*
X023081Y004234D01*
X023081Y004734D02*
X023581Y004734D01*
X023581Y005234D02*
X023081Y005234D01*
X023081Y005734D02*
X023581Y005734D01*
X023581Y006234D02*
X023081Y006234D01*
X023081Y006734D02*
X023581Y006734D01*
X023581Y007234D02*
X023081Y007234D01*
X023081Y007734D02*
X023581Y007734D01*
X023581Y008234D02*
X023081Y008234D01*
X023081Y008734D02*
X023581Y008734D01*
X023581Y009234D02*
X023081Y009234D01*
X023081Y009734D02*
X023581Y009734D01*
X023581Y010234D02*
X023081Y010234D01*
X023081Y010734D02*
X023581Y010734D01*
X023581Y011234D02*
X023081Y011234D01*
X023081Y011734D02*
X023581Y011734D01*
X023581Y012234D02*
X023081Y012234D01*
X024681Y012334D02*
X024681Y012834D01*
X026181Y012834D02*
X026181Y012334D01*
X029781Y012234D02*
X030281Y012234D01*
X030281Y011734D02*
X029781Y011734D01*
X029781Y011234D02*
X030281Y011234D01*
X030281Y010734D02*
X029781Y010734D01*
X029781Y010234D02*
X030281Y010234D01*
X030281Y009734D02*
X029781Y009734D01*
X029781Y009234D02*
X030281Y009234D01*
X030281Y008734D02*
X029781Y008734D01*
X029781Y008234D02*
X030281Y008234D01*
X030281Y007734D02*
X029781Y007734D01*
X029781Y007234D02*
X030281Y007234D01*
X030281Y006734D02*
X029781Y006734D01*
X029781Y006234D02*
X030281Y006234D01*
X030281Y005734D02*
X029781Y005734D01*
X029781Y005234D02*
X030281Y005234D01*
X030281Y004734D02*
X029781Y004734D01*
X029781Y004234D02*
X030281Y004234D01*
X030281Y003734D02*
X029781Y003734D01*
X029781Y003234D02*
X030281Y003234D01*
X030281Y002734D02*
X029781Y002734D01*
X028181Y002634D02*
X028181Y002134D01*
X027681Y002134D02*
X027681Y002634D01*
X027181Y002634D02*
X027181Y002134D01*
X026681Y002134D02*
X026681Y002634D01*
X026181Y002634D02*
X026181Y002134D01*
X025681Y002134D02*
X025681Y002634D01*
X025181Y002634D02*
X025181Y002134D01*
D11*
X001652Y003094D02*
X001652Y003094D01*
X002498Y003094D01*
X002498Y003094D01*
X001652Y003094D01*
X001652Y003586D02*
X001652Y003586D01*
X002498Y003586D01*
X002498Y003586D01*
X001652Y003586D01*
X001652Y004078D02*
X001652Y004078D01*
X002498Y004078D01*
X002498Y004078D01*
X001652Y004078D01*
X001652Y004570D02*
X001652Y004570D01*
X002498Y004570D01*
X002498Y004570D01*
X001652Y004570D01*
X001652Y005062D02*
X001652Y005062D01*
X002498Y005062D01*
X002498Y005062D01*
X001652Y005062D01*
X001652Y005555D02*
X001652Y005555D01*
X002498Y005555D01*
X002498Y005555D01*
X001652Y005555D01*
X001652Y006047D02*
X001652Y006047D01*
X002498Y006047D01*
X002498Y006047D01*
X001652Y006047D01*
X001652Y006539D02*
X001652Y006539D01*
X002498Y006539D01*
X002498Y006539D01*
X001652Y006539D01*
X001652Y007031D02*
X001652Y007031D01*
X002498Y007031D01*
X002498Y007031D01*
X001652Y007031D01*
X002724Y007474D02*
X002724Y007474D01*
X002724Y008320D01*
X002724Y008320D01*
X002724Y007474D01*
X002724Y007808D02*
X002724Y007808D01*
X002724Y008142D02*
X002724Y008142D01*
X003217Y007474D02*
X003217Y007474D01*
X003217Y008320D01*
X003217Y008320D01*
X003217Y007474D01*
X003217Y007808D02*
X003217Y007808D01*
X003217Y008142D02*
X003217Y008142D01*
X003709Y007474D02*
X003709Y007474D01*
X003709Y008320D01*
X003709Y008320D01*
X003709Y007474D01*
X003709Y007808D02*
X003709Y007808D01*
X003709Y008142D02*
X003709Y008142D01*
X004201Y007474D02*
X004201Y007474D01*
X004201Y008320D01*
X004201Y008320D01*
X004201Y007474D01*
X004201Y007808D02*
X004201Y007808D01*
X004201Y008142D02*
X004201Y008142D01*
X004693Y007474D02*
X004693Y007474D01*
X004693Y008320D01*
X004693Y008320D01*
X004693Y007474D01*
X004693Y007808D02*
X004693Y007808D01*
X004693Y008142D02*
X004693Y008142D01*
X005185Y007474D02*
X005185Y007474D01*
X005185Y008320D01*
X005185Y008320D01*
X005185Y007474D01*
X005185Y007808D02*
X005185Y007808D01*
X005185Y008142D02*
X005185Y008142D01*
X005677Y007474D02*
X005677Y007474D01*
X005677Y008320D01*
X005677Y008320D01*
X005677Y007474D01*
X005677Y007808D02*
X005677Y007808D01*
X005677Y008142D02*
X005677Y008142D01*
X006169Y007474D02*
X006169Y007474D01*
X006169Y008320D01*
X006169Y008320D01*
X006169Y007474D01*
X006169Y007808D02*
X006169Y007808D01*
X006169Y008142D02*
X006169Y008142D01*
X006396Y007031D02*
X006396Y007031D01*
X007242Y007031D01*
X007242Y007031D01*
X006396Y007031D01*
X006396Y006539D02*
X006396Y006539D01*
X007242Y006539D01*
X007242Y006539D01*
X006396Y006539D01*
X006396Y006047D02*
X006396Y006047D01*
X007242Y006047D01*
X007242Y006047D01*
X006396Y006047D01*
X006396Y005555D02*
X006396Y005555D01*
X007242Y005555D01*
X007242Y005555D01*
X006396Y005555D01*
X006396Y005062D02*
X006396Y005062D01*
X007242Y005062D01*
X007242Y005062D01*
X006396Y005062D01*
X006396Y004570D02*
X006396Y004570D01*
X007242Y004570D01*
X007242Y004570D01*
X006396Y004570D01*
X006396Y004078D02*
X006396Y004078D01*
X007242Y004078D01*
X007242Y004078D01*
X006396Y004078D01*
X006396Y003586D02*
X006396Y003586D01*
X007242Y003586D01*
X007242Y003586D01*
X006396Y003586D01*
X006396Y003094D02*
X006396Y003094D01*
X007242Y003094D01*
X007242Y003094D01*
X006396Y003094D01*
X006396Y002602D02*
X006396Y002602D01*
X007242Y002602D01*
X007242Y002602D01*
X006396Y002602D01*
X006396Y002110D02*
X006396Y002110D01*
X007242Y002110D01*
X007242Y002110D01*
X006396Y002110D01*
X006396Y001618D02*
X006396Y001618D01*
X007242Y001618D01*
X007242Y001618D01*
X006396Y001618D01*
X006396Y001125D02*
X006396Y001125D01*
X007242Y001125D01*
X007242Y001125D01*
X006396Y001125D01*
D12*
X009055Y002728D03*
X009055Y003728D03*
X010055Y003728D03*
X010055Y002728D03*
X010055Y004728D03*
X009055Y004728D03*
X009055Y005728D03*
X010055Y005728D03*
X010055Y006728D03*
X009055Y006728D03*
X012508Y007059D03*
X013508Y007059D03*
X013508Y008059D03*
X012508Y008059D03*
X012508Y009059D03*
X013508Y009059D03*
X024681Y017810D03*
X025681Y017810D03*
X026681Y017810D03*
X027681Y017810D03*
X028681Y017810D03*
X028681Y018810D03*
X027681Y018810D03*
X026681Y018810D03*
X025681Y018810D03*
X024681Y018810D03*
D13*
X018342Y014750D02*
X017934Y014750D01*
X017934Y014784D01*
X018342Y014784D01*
X018342Y014750D01*
X018342Y014435D02*
X017934Y014435D01*
X017934Y014469D01*
X018342Y014469D01*
X018342Y014435D01*
X018342Y014120D02*
X017934Y014120D01*
X017934Y014154D01*
X018342Y014154D01*
X018342Y014120D01*
X018342Y013805D02*
X017934Y013805D01*
X017934Y013839D01*
X018342Y013839D01*
X018342Y013805D01*
X018342Y013490D02*
X017934Y013490D01*
X017934Y013524D01*
X018342Y013524D01*
X018342Y013490D01*
X018342Y013175D02*
X017934Y013175D01*
X017934Y013209D01*
X018342Y013209D01*
X018342Y013175D01*
X018342Y012860D02*
X017934Y012860D01*
X017934Y012894D01*
X018342Y012894D01*
X018342Y012860D01*
X018342Y012545D02*
X017934Y012545D01*
X017934Y012579D01*
X018342Y012579D01*
X018342Y012545D01*
X018342Y012231D02*
X017934Y012231D01*
X017934Y012265D01*
X018342Y012265D01*
X018342Y012231D01*
X018342Y011916D02*
X017934Y011916D01*
X017934Y011950D01*
X018342Y011950D01*
X018342Y011916D01*
X018342Y011601D02*
X017934Y011601D01*
X017934Y011635D01*
X018342Y011635D01*
X018342Y011601D01*
X017446Y010705D02*
X017412Y010705D01*
X017412Y011113D01*
X017446Y011113D01*
X017446Y010705D01*
X017446Y010846D02*
X017412Y010846D01*
X017412Y010987D02*
X017446Y010987D01*
X017131Y010705D02*
X017097Y010705D01*
X017097Y011113D01*
X017131Y011113D01*
X017131Y010705D01*
X017131Y010846D02*
X017097Y010846D01*
X017097Y010987D02*
X017131Y010987D01*
X016816Y010705D02*
X016782Y010705D01*
X016782Y011113D01*
X016816Y011113D01*
X016816Y010705D01*
X016816Y010846D02*
X016782Y010846D01*
X016782Y010987D02*
X016816Y010987D01*
X016501Y010705D02*
X016467Y010705D01*
X016467Y011113D01*
X016501Y011113D01*
X016501Y010705D01*
X016501Y010846D02*
X016467Y010846D01*
X016467Y010987D02*
X016501Y010987D01*
X016186Y010705D02*
X016152Y010705D01*
X016152Y011113D01*
X016186Y011113D01*
X016186Y010705D01*
X016186Y010846D02*
X016152Y010846D01*
X016152Y010987D02*
X016186Y010987D01*
X015871Y010705D02*
X015837Y010705D01*
X015837Y011113D01*
X015871Y011113D01*
X015871Y010705D01*
X015871Y010846D02*
X015837Y010846D01*
X015837Y010987D02*
X015871Y010987D01*
X015556Y010705D02*
X015522Y010705D01*
X015522Y011113D01*
X015556Y011113D01*
X015556Y010705D01*
X015556Y010846D02*
X015522Y010846D01*
X015522Y010987D02*
X015556Y010987D01*
X015241Y010705D02*
X015207Y010705D01*
X015207Y011113D01*
X015241Y011113D01*
X015241Y010705D01*
X015241Y010846D02*
X015207Y010846D01*
X015207Y010987D02*
X015241Y010987D01*
X014926Y010705D02*
X014892Y010705D01*
X014892Y011113D01*
X014926Y011113D01*
X014926Y010705D01*
X014926Y010846D02*
X014892Y010846D01*
X014892Y010987D02*
X014926Y010987D01*
X014611Y010705D02*
X014577Y010705D01*
X014577Y011113D01*
X014611Y011113D01*
X014611Y010705D01*
X014611Y010846D02*
X014577Y010846D01*
X014577Y010987D02*
X014611Y010987D01*
X014297Y010705D02*
X014263Y010705D01*
X014263Y011113D01*
X014297Y011113D01*
X014297Y010705D01*
X014297Y010846D02*
X014263Y010846D01*
X014263Y010987D02*
X014297Y010987D01*
X013775Y011601D02*
X013367Y011601D01*
X013367Y011635D01*
X013775Y011635D01*
X013775Y011601D01*
X013775Y011916D02*
X013367Y011916D01*
X013367Y011950D01*
X013775Y011950D01*
X013775Y011916D01*
X013775Y012231D02*
X013367Y012231D01*
X013367Y012265D01*
X013775Y012265D01*
X013775Y012231D01*
X013775Y012545D02*
X013367Y012545D01*
X013367Y012579D01*
X013775Y012579D01*
X013775Y012545D01*
X013775Y012860D02*
X013367Y012860D01*
X013367Y012894D01*
X013775Y012894D01*
X013775Y012860D01*
X013775Y013175D02*
X013367Y013175D01*
X013367Y013209D01*
X013775Y013209D01*
X013775Y013175D01*
X013775Y013490D02*
X013367Y013490D01*
X013367Y013524D01*
X013775Y013524D01*
X013775Y013490D01*
X013775Y013805D02*
X013367Y013805D01*
X013367Y013839D01*
X013775Y013839D01*
X013775Y013805D01*
X013775Y014120D02*
X013367Y014120D01*
X013367Y014154D01*
X013775Y014154D01*
X013775Y014120D01*
X013775Y014435D02*
X013367Y014435D01*
X013367Y014469D01*
X013775Y014469D01*
X013775Y014435D01*
X013775Y014750D02*
X013367Y014750D01*
X013367Y014784D01*
X013775Y014784D01*
X013775Y014750D01*
X014263Y015272D02*
X014297Y015272D01*
X014263Y015272D02*
X014263Y015680D01*
X014297Y015680D01*
X014297Y015272D01*
X014297Y015413D02*
X014263Y015413D01*
X014263Y015554D02*
X014297Y015554D01*
X014577Y015272D02*
X014611Y015272D01*
X014577Y015272D02*
X014577Y015680D01*
X014611Y015680D01*
X014611Y015272D01*
X014611Y015413D02*
X014577Y015413D01*
X014577Y015554D02*
X014611Y015554D01*
X014892Y015272D02*
X014926Y015272D01*
X014892Y015272D02*
X014892Y015680D01*
X014926Y015680D01*
X014926Y015272D01*
X014926Y015413D02*
X014892Y015413D01*
X014892Y015554D02*
X014926Y015554D01*
X015207Y015272D02*
X015241Y015272D01*
X015207Y015272D02*
X015207Y015680D01*
X015241Y015680D01*
X015241Y015272D01*
X015241Y015413D02*
X015207Y015413D01*
X015207Y015554D02*
X015241Y015554D01*
X015522Y015272D02*
X015556Y015272D01*
X015522Y015272D02*
X015522Y015680D01*
X015556Y015680D01*
X015556Y015272D01*
X015556Y015413D02*
X015522Y015413D01*
X015522Y015554D02*
X015556Y015554D01*
X015837Y015272D02*
X015871Y015272D01*
X015837Y015272D02*
X015837Y015680D01*
X015871Y015680D01*
X015871Y015272D01*
X015871Y015413D02*
X015837Y015413D01*
X015837Y015554D02*
X015871Y015554D01*
X016152Y015272D02*
X016186Y015272D01*
X016152Y015272D02*
X016152Y015680D01*
X016186Y015680D01*
X016186Y015272D01*
X016186Y015413D02*
X016152Y015413D01*
X016152Y015554D02*
X016186Y015554D01*
X016467Y015272D02*
X016501Y015272D01*
X016467Y015272D02*
X016467Y015680D01*
X016501Y015680D01*
X016501Y015272D01*
X016501Y015413D02*
X016467Y015413D01*
X016467Y015554D02*
X016501Y015554D01*
X016782Y015272D02*
X016816Y015272D01*
X016782Y015272D02*
X016782Y015680D01*
X016816Y015680D01*
X016816Y015272D01*
X016816Y015413D02*
X016782Y015413D01*
X016782Y015554D02*
X016816Y015554D01*
X017097Y015272D02*
X017131Y015272D01*
X017097Y015272D02*
X017097Y015680D01*
X017131Y015680D01*
X017131Y015272D01*
X017131Y015413D02*
X017097Y015413D01*
X017097Y015554D02*
X017131Y015554D01*
X017412Y015272D02*
X017446Y015272D01*
X017412Y015272D02*
X017412Y015680D01*
X017446Y015680D01*
X017446Y015272D01*
X017446Y015413D02*
X017412Y015413D01*
X017412Y015554D02*
X017446Y015554D01*
D14*
X015854Y013192D03*
D15*
X018807Y015574D03*
X018807Y016322D03*
X020382Y016322D03*
X021366Y016322D03*
X021366Y015574D03*
X020382Y015574D03*
X022547Y015299D03*
X022547Y014629D03*
X025697Y014393D03*
X025697Y015141D03*
X016051Y016755D03*
X016051Y017503D03*
X015067Y017503D03*
X015067Y016755D03*
X013689Y016755D03*
X013689Y017503D03*
X012508Y017503D03*
X012508Y016755D03*
X011327Y016755D03*
X011327Y017503D03*
X005618Y011992D03*
X005618Y011244D03*
X003846Y010810D03*
X003846Y010062D03*
X016051Y005102D03*
X016051Y004354D03*
X017232Y004354D03*
X017232Y005102D03*
D16*
X013866Y005712D03*
X013118Y005712D03*
X007764Y011224D03*
X007016Y011224D03*
X007016Y012208D03*
X007764Y012208D03*
X010756Y012011D03*
X011504Y012011D03*
X011504Y013192D03*
X010756Y013192D03*
X003433Y009059D03*
X002685Y009059D03*
X020402Y012208D03*
X021150Y012208D03*
X021110Y013192D03*
X020441Y013192D03*
X021189Y008468D03*
X021937Y008468D03*
X021937Y007287D03*
X021189Y007287D03*
X021189Y006106D03*
X021937Y006106D03*
X029260Y001381D03*
X030008Y001381D03*
D17*
X022154Y004118D03*
X021169Y004118D03*
X020185Y004118D03*
X020185Y004944D03*
X021169Y004944D03*
X022154Y004944D03*
X021189Y017326D03*
X020362Y017326D03*
X020362Y018114D03*
X021189Y018114D03*
X002665Y011637D03*
X002665Y010810D03*
D18*
X015972Y019592D03*
X016972Y019392D03*
X017972Y019592D03*
X018972Y019392D03*
X019972Y019592D03*
X020972Y019392D03*
X021366Y010633D03*
X020366Y010633D03*
X018201Y001578D03*
X017201Y001578D03*
X016201Y001578D03*
X015201Y001578D03*
X014201Y001578D03*
X013201Y001578D03*
X012201Y001578D03*
D19*
X012390Y018645D03*
X012646Y018645D03*
X012902Y018645D03*
X013157Y018645D03*
X013413Y018645D03*
D20*
X014476Y019688D03*
X011327Y019688D03*
D21*
X019201Y001578D03*
D22*
X008420Y013230D03*
X008420Y013730D03*
X008420Y014230D03*
X008420Y014730D03*
X006360Y014730D03*
X006360Y014230D03*
X006360Y013730D03*
X006360Y013230D03*
D23*
X009555Y014995D03*
X009555Y016114D03*
D24*
X004831Y014373D03*
X004831Y012799D03*
D25*
X004713Y016263D03*
X005894Y018114D03*
X003531Y018114D03*
D26*
X007823Y018704D03*
X009713Y018704D03*
D27*
X008965Y009649D03*
X006996Y009649D03*
D28*
X011917Y004629D03*
X011917Y002858D03*
X015067Y002858D03*
X015067Y004629D03*
X026878Y013881D03*
X026878Y015653D03*
X030028Y015653D03*
X030028Y013881D03*
D29*
X015854Y008877D03*
X015854Y006877D03*
D30*
X008374Y016342D03*
X006799Y016342D03*
D31*
X002862Y014433D03*
X002862Y012740D03*
D32*
X026681Y001381D03*
D33*
X010343Y009649D02*
X009142Y009649D01*
X007016Y009826D02*
X007016Y011224D01*
X006360Y011224D02*
X006360Y012208D01*
X007016Y012208D01*
X006360Y011224D02*
X005618Y011224D01*
X004831Y011224D01*
X004831Y011814D01*
X004831Y012799D01*
X003846Y011755D02*
X003846Y010810D01*
X004260Y010810D01*
X005323Y009748D01*
X005421Y009649D01*
X006799Y009649D01*
X006996Y009649D01*
X007016Y009826D01*
X006360Y011224D02*
X006360Y013230D01*
X006360Y014230D02*
X004974Y014230D01*
X004831Y014373D01*
X004772Y014433D01*
X002862Y014433D01*
X004713Y016263D02*
X003531Y017444D01*
X003531Y018114D01*
X005106Y019688D01*
X005224Y019688D01*
X006839Y019688D01*
X007823Y018704D01*
X005894Y018114D02*
X005894Y017248D01*
X006799Y016342D01*
X008374Y016342D02*
X009328Y016342D01*
X009555Y016114D01*
X009713Y016272D01*
X009713Y018704D01*
X009586Y016145D02*
X009555Y016114D01*
X009586Y016145D02*
X010539Y016145D01*
X010539Y014767D01*
X009502Y013730D01*
X008420Y013730D01*
X003846Y011755D02*
X002862Y012740D01*
D34*
X001681Y011618D03*
X012705Y012602D03*
X014870Y011618D03*
X015854Y012602D03*
X018020Y016342D03*
X024516Y011618D03*
D35*
X023331Y010734D02*
X023231Y010633D01*
X021366Y010633D01*
X020366Y010633D02*
X020366Y011421D01*
X022350Y011421D01*
X022350Y013192D01*
X021110Y013192D01*
X025697Y013192D01*
X026878Y013881D02*
X026878Y014177D01*
X026287Y014767D01*
X026366Y015141D02*
X025697Y015141D01*
X026366Y015141D02*
X026878Y015653D01*
X027665Y016933D02*
X025894Y016933D01*
X024319Y015358D01*
X024319Y014767D01*
X023335Y013783D01*
X019988Y013783D01*
X019398Y013192D01*
X018217Y013192D01*
X018138Y013192D01*
X018138Y013507D02*
X019319Y013507D01*
X019791Y013980D01*
X023138Y013980D01*
X023925Y014767D01*
X024122Y014964D01*
X024122Y015358D01*
X024122Y015751D01*
X025618Y017248D01*
X027154Y017248D01*
X027154Y018429D01*
X026772Y018810D01*
X026681Y018810D01*
X025681Y018810D02*
X025681Y018688D01*
X025185Y018192D01*
X025185Y017208D01*
X025106Y017129D01*
X024909Y017129D01*
X023728Y015948D01*
X023728Y014964D01*
X023531Y014767D01*
X022941Y014177D01*
X019594Y014177D01*
X019240Y013822D01*
X018138Y013822D01*
X018138Y014137D02*
X018138Y014177D01*
X018807Y014177D01*
X019240Y014452D02*
X018138Y014452D01*
X018138Y014767D02*
X019791Y014767D01*
X019791Y014373D01*
X022094Y014373D01*
X022547Y014629D01*
X022035Y015161D02*
X022173Y015299D01*
X022547Y015299D01*
X021366Y016322D02*
X021366Y016539D01*
X021760Y016933D01*
X021760Y017720D01*
X021366Y018114D01*
X021189Y018114D01*
X020362Y018114D02*
X019791Y018114D01*
X019201Y017523D01*
X019201Y016933D01*
X019594Y017326D02*
X019594Y016539D01*
X018807Y016322D02*
X018787Y016342D01*
X018020Y016342D01*
X017823Y016342D01*
X017429Y015948D01*
X017390Y015948D01*
X017114Y015673D01*
X017114Y015476D01*
X017114Y015122D01*
X016957Y014964D01*
X016839Y014964D01*
X016642Y014964D01*
X016642Y013980D01*
X015854Y013192D01*
X014870Y013192D02*
X014870Y011618D01*
X014280Y011618D02*
X014280Y011933D01*
X013571Y011933D01*
X013531Y012208D02*
X013571Y012248D01*
X013531Y012208D02*
X012705Y012208D01*
X012508Y012011D01*
X012508Y011224D01*
X011720Y010436D01*
X011720Y008862D01*
X010146Y008862D01*
X009358Y008074D01*
X007587Y008074D01*
X007587Y007484D02*
X006799Y008271D01*
X006799Y009649D01*
X005618Y011224D02*
X005618Y011244D01*
X005618Y011992D02*
X005618Y013730D01*
X006360Y013730D01*
X007764Y013230D02*
X007764Y012208D01*
X007764Y013230D02*
X008420Y013230D01*
X011524Y014373D02*
X013020Y012877D01*
X013571Y012877D01*
X013610Y012602D02*
X013571Y012562D01*
X013610Y012602D02*
X014476Y012602D01*
X015146Y012366D02*
X015224Y012366D01*
X015224Y010909D01*
X014909Y010909D02*
X014870Y010870D01*
X014870Y010240D01*
X014594Y010586D02*
X014476Y010468D01*
X014476Y006303D01*
X013098Y006303D01*
X013118Y006283D01*
X013118Y005712D01*
X012311Y005712D01*
X011917Y005318D01*
X011917Y004629D01*
X015067Y004629D01*
X015264Y005122D02*
X015461Y005122D01*
X015461Y003940D01*
X014870Y003350D01*
X010933Y003350D01*
X010055Y003728D02*
X010051Y003728D01*
X009555Y003232D01*
X008571Y003232D01*
X008531Y003232D01*
X007902Y002602D01*
X006819Y002602D01*
X006760Y002169D02*
X006209Y002169D01*
X006012Y002366D01*
X006012Y004728D01*
X006346Y005062D01*
X007331Y005062D01*
X007783Y005515D01*
X007783Y007287D01*
X007587Y007484D01*
X006819Y005555D02*
X006780Y005515D01*
X006012Y005515D01*
X005815Y005318D01*
X005815Y004925D01*
X003984Y003094D01*
X003709Y003094D01*
X005618Y001185D01*
X006760Y001185D01*
X006819Y001125D01*
X008453Y001125D01*
X010055Y002728D01*
X011787Y002728D01*
X011917Y002858D01*
X015067Y002858D01*
X016051Y003842D01*
X016051Y004354D01*
X016051Y005102D02*
X016051Y005318D01*
X015264Y006106D01*
X015264Y008287D01*
X015854Y008877D01*
X015539Y009192D01*
X015539Y010909D01*
X015854Y010909D02*
X015854Y009846D01*
X016445Y009255D01*
X016445Y007468D01*
X015854Y006877D01*
X017232Y005499D01*
X017232Y005102D01*
X015264Y005122D02*
X015067Y005318D01*
X015067Y005909D01*
X014870Y006106D01*
X014870Y009452D01*
X015067Y009649D01*
X014280Y009452D02*
X013295Y010436D01*
X013295Y010633D01*
X014280Y011618D01*
X013571Y011618D02*
X012508Y010555D01*
X012508Y009059D01*
X013020Y009413D02*
X013020Y007720D01*
X012862Y007562D01*
X011799Y007562D01*
X011720Y007484D01*
X011720Y005515D01*
X011327Y005122D01*
X011327Y004334D01*
X011917Y003744D01*
X012508Y003744D01*
X013866Y005712D02*
X014476Y005712D01*
X013098Y006303D02*
X012508Y006893D01*
X012508Y007059D01*
X012508Y008059D02*
X012508Y008074D01*
X011720Y008862D01*
X013020Y009413D02*
X013098Y009492D01*
X013098Y009846D01*
X013886Y010436D02*
X014280Y010830D01*
X014280Y010909D01*
X014594Y010909D02*
X014594Y010586D01*
X014280Y009452D02*
X014280Y008468D01*
X013870Y008059D01*
X013508Y008059D01*
X016169Y010122D02*
X016642Y009649D01*
X017823Y009649D01*
X017823Y002562D01*
X017185Y002562D01*
X016201Y001578D01*
X015657Y000791D02*
X015201Y001248D01*
X015201Y001578D01*
X015657Y000791D02*
X019988Y000791D01*
X020185Y000988D01*
X020185Y001775D01*
X019398Y002562D01*
X019398Y011814D01*
X019004Y012208D01*
X018177Y012208D01*
X018138Y012248D01*
X018138Y011933D02*
X017705Y011933D01*
X017429Y012208D01*
X015461Y012208D01*
X015461Y014177D01*
X015067Y014177D01*
X014280Y014964D01*
X014280Y015476D01*
X014594Y015476D02*
X014594Y015043D01*
X014673Y014964D01*
X016642Y014964D01*
X016799Y015476D02*
X016839Y015515D01*
X016839Y015751D01*
X019791Y018704D01*
X020382Y018704D01*
X020972Y019295D01*
X020972Y019392D01*
X019972Y019279D02*
X016445Y015751D01*
X016445Y015515D01*
X016484Y015476D01*
X016169Y015476D02*
X016169Y015673D01*
X016642Y016342D01*
X018972Y018673D01*
X018972Y019392D01*
X019972Y019279D02*
X019972Y019592D01*
X016642Y018310D02*
X014476Y018310D01*
X014122Y017956D01*
X014122Y016185D01*
X013492Y015555D01*
X013492Y015161D01*
X013886Y015161D02*
X013886Y014964D01*
X014280Y014570D01*
X014280Y013192D01*
X014870Y013192D01*
X014280Y013192D02*
X013571Y013192D01*
X013571Y013507D02*
X013177Y013507D01*
X011917Y014767D01*
X011917Y016913D01*
X011327Y017503D01*
X011327Y018310D01*
X011661Y018645D01*
X012390Y018645D01*
X012902Y018645D02*
X012902Y017897D01*
X012508Y017503D01*
X012508Y016755D02*
X012508Y014570D01*
X013098Y013980D01*
X013256Y013822D01*
X013571Y013822D01*
X013571Y014137D02*
X013335Y014137D01*
X012902Y014570D01*
X012902Y016362D01*
X013079Y016539D01*
X013689Y016539D01*
X013689Y016736D01*
X013689Y016755D01*
X013492Y016145D02*
X013098Y015751D01*
X013098Y014964D01*
X013098Y014767D01*
X013571Y014767D01*
X013886Y015161D02*
X013886Y015555D01*
X014280Y015948D01*
X014358Y016027D01*
X014358Y017799D01*
X014673Y018114D01*
X015854Y018114D01*
X016051Y017917D01*
X016051Y017503D01*
X016051Y016755D02*
X015067Y016755D01*
X014909Y016598D01*
X014909Y015476D01*
X014594Y015476D02*
X014594Y017031D01*
X015067Y017503D01*
X013689Y017503D02*
X013157Y018035D01*
X013157Y018645D01*
X013413Y018645D02*
X013413Y018980D01*
X013295Y019098D01*
X010933Y019098D01*
X010736Y018901D01*
X010736Y016755D01*
X011327Y016755D01*
X011524Y016559D01*
X011524Y014373D01*
X015224Y015476D02*
X015224Y016106D01*
X015264Y016145D01*
X015539Y016027D02*
X015657Y016145D01*
X015539Y016027D02*
X015539Y015476D01*
X015854Y015476D02*
X015854Y015751D01*
X016051Y015948D01*
X016051Y016145D01*
X018709Y015476D02*
X018807Y015574D01*
X019240Y014452D02*
X019398Y014492D01*
X019988Y013192D02*
X020441Y013192D01*
X020441Y012248D01*
X020402Y012208D01*
X021150Y012208D02*
X021957Y012208D01*
X019988Y013192D02*
X019791Y012996D01*
X019594Y012602D02*
X019594Y002956D01*
X020579Y001972D01*
X020579Y001185D01*
X019201Y001578D02*
X019201Y001775D01*
X019004Y001972D01*
X019004Y010436D01*
X018217Y011224D01*
X017823Y011224D01*
X017429Y011618D01*
X016839Y011618D01*
X016799Y011578D01*
X016799Y010909D01*
X016484Y010909D02*
X016484Y010397D01*
X016839Y010043D01*
X018217Y010043D01*
X018217Y002562D01*
X017232Y001578D01*
X017201Y001578D01*
X018201Y001578D02*
X018201Y002153D01*
X018610Y002562D01*
X018610Y009649D01*
X018610Y010240D01*
X018610Y009649D01*
X018610Y010240D02*
X017429Y010240D01*
X017114Y010555D01*
X017114Y010909D01*
X017429Y010909D02*
X017508Y010830D01*
X017823Y010830D01*
X018531Y011224D02*
X018807Y011224D01*
X018531Y011224D02*
X018138Y011618D01*
X018138Y011933D02*
X018807Y011933D01*
X018807Y011814D01*
X018138Y012562D02*
X018098Y012602D01*
X016642Y012602D01*
X018138Y012877D02*
X019319Y012877D01*
X019594Y012602D01*
X016169Y010909D02*
X016169Y010122D01*
X020185Y008074D02*
X020185Y004944D01*
X020579Y005535D02*
X021169Y004944D01*
X020579Y005535D02*
X020579Y007090D01*
X020776Y007287D01*
X021189Y007287D01*
X021937Y007287D02*
X021937Y007464D01*
X022547Y008074D01*
X022547Y008665D01*
X023262Y008665D01*
X023331Y008734D01*
X023294Y008271D02*
X023138Y008271D01*
X022547Y007681D01*
X022547Y006893D01*
X021937Y006283D01*
X021937Y006106D01*
X021189Y006106D02*
X021189Y005909D01*
X022154Y004944D01*
X022547Y005318D02*
X022547Y004137D01*
X022173Y004137D01*
X022154Y004118D01*
X022134Y004137D01*
X021169Y004118D02*
X021169Y004137D01*
X022547Y005318D02*
X022963Y005734D01*
X023331Y005734D01*
X020579Y008468D02*
X020185Y008074D01*
X020579Y008468D02*
X021189Y008468D01*
X021937Y008468D02*
X021937Y008645D01*
X022547Y009255D01*
X023309Y009255D01*
X023331Y009234D01*
X023294Y008271D02*
X023331Y008234D01*
X027665Y007287D02*
X027665Y011224D01*
X028175Y011734D01*
X030031Y011734D01*
X030031Y012234D02*
X030421Y012624D01*
X030421Y015358D01*
X030126Y015653D01*
X030028Y015653D01*
X028177Y017444D02*
X027665Y016933D01*
X028177Y017444D02*
X028177Y018310D01*
X027681Y018807D01*
X027681Y018810D01*
X021189Y017326D02*
X021189Y017129D01*
X020382Y016322D01*
X020362Y017326D02*
X019594Y017326D01*
X028846Y011224D02*
X030021Y011224D01*
X030031Y011234D01*
X030618Y012011D02*
X030396Y012234D01*
X030031Y012234D01*
X030618Y012011D02*
X030618Y008468D01*
X030384Y008234D01*
X030031Y008234D01*
X030031Y005734D02*
X030400Y005734D01*
X030618Y005515D01*
X030618Y001992D01*
X030008Y001381D01*
X029260Y001381D02*
X029183Y001381D01*
X023331Y002734D02*
X023306Y002759D01*
X009055Y002728D02*
X008437Y002110D01*
X006819Y002110D01*
X006760Y002169D01*
X006819Y002110D02*
X006819Y001618D01*
X006819Y003094D02*
X007528Y003094D01*
X008177Y003744D01*
X009039Y003744D01*
X009055Y003728D01*
X007331Y005062D02*
X006819Y005062D01*
X005421Y005122D02*
X002134Y005122D01*
X002075Y005062D01*
X002075Y005555D02*
X003689Y005555D01*
X003059Y005909D02*
X002921Y006047D01*
X002075Y006047D01*
X002114Y006499D02*
X002075Y006539D01*
X002114Y006499D02*
X003453Y006499D01*
X003492Y003586D02*
X002075Y003586D01*
X002075Y003094D02*
X003709Y003094D01*
X003846Y010062D02*
X002705Y010062D01*
X002705Y010850D01*
X002665Y010810D01*
X002665Y011637D02*
X001701Y011637D01*
X001681Y011618D01*
D36*
X004831Y011814D03*
X010343Y009649D03*
X026681Y004334D03*
D37*
X027181Y003834D01*
X027181Y002384D01*
X027681Y002384D01*
X028181Y002384D01*
X028257Y002384D01*
X029260Y001381D01*
X029260Y001962D01*
X030031Y002734D01*
X026681Y004334D02*
X026181Y003834D01*
X026181Y002384D01*
X025681Y002384D01*
X025181Y002384D01*
X023681Y002384D01*
X023331Y002734D01*
X023306Y002759D02*
X022547Y002759D01*
X022154Y003153D01*
X022154Y004118D01*
X022134Y004137D02*
X021189Y004137D01*
X021169Y004118D01*
X020185Y004118D01*
X017232Y004354D02*
X016642Y004354D01*
X016051Y004354D01*
X016642Y004354D02*
X016642Y003744D01*
X023331Y007734D02*
X026181Y007734D01*
X028181Y005734D01*
X030031Y005734D01*
X026181Y007734D02*
X026181Y012584D01*
X025697Y013068D01*
X025697Y013192D01*
X025697Y014393D01*
X025695Y014385D01*
X025691Y014379D01*
X025685Y014375D01*
X025677Y014373D01*
X024909Y014373D01*
X024909Y015358D01*
X023138Y016145D02*
X022154Y016145D01*
X021583Y015574D01*
X021366Y015574D01*
X020382Y015574D01*
X018807Y015574D01*
X018709Y015476D01*
X017429Y015476D01*
X017429Y014177D01*
X015854Y012602D01*
X014870Y011618D02*
X014909Y011578D01*
X014909Y010909D01*
X012705Y012602D02*
X011524Y012602D01*
X011524Y013173D01*
X011504Y013192D01*
X010756Y013192D02*
X009555Y013192D01*
X010756Y012602D02*
X011524Y012602D01*
X010756Y012602D02*
X010756Y012011D01*
X010343Y012011D01*
X008965Y010633D01*
X007980Y010633D01*
X006996Y009649D01*
X005323Y009748D02*
X004634Y009059D01*
X003433Y009059D01*
X003217Y008842D01*
X003217Y007897D01*
X002724Y007897D02*
X002724Y009019D01*
X002685Y009059D01*
X001681Y009059D01*
X001681Y011618D01*
X006360Y014730D02*
X008420Y014730D01*
X008420Y014230D01*
X008420Y014730D02*
X009290Y014730D01*
X009555Y014995D01*
X007764Y012208D02*
X007764Y011224D01*
X008965Y009649D02*
X009142Y009649D01*
X010343Y009649D02*
X011504Y010810D01*
X011504Y012011D01*
X023331Y012234D02*
X023900Y012234D01*
X024516Y011618D01*
X026878Y013881D02*
X030028Y013881D01*
X030031Y012234D02*
X030053Y012234D01*
X030028Y015653D02*
X026878Y015653D01*
X026839Y015692D01*
X026878Y015653D02*
X027567Y016342D01*
X028650Y016342D01*
X028681Y016373D01*
X028681Y017456D01*
X028681Y017810D01*
X028681Y018810D01*
D38*
X024909Y015358D03*
X026287Y014767D03*
X023138Y016145D03*
X022035Y015161D03*
X019594Y016539D03*
X019201Y016933D03*
X016642Y018310D03*
X016051Y016145D03*
X015657Y016145D03*
X015264Y016145D03*
X013492Y016145D03*
X013492Y015161D03*
X014476Y012602D03*
X015146Y012366D03*
X016642Y012602D03*
X018807Y011814D03*
X018807Y011224D03*
X017823Y010830D03*
X018610Y009649D03*
X015067Y009649D03*
X014870Y010240D03*
X013886Y010436D03*
X013098Y009846D03*
X009555Y013192D03*
X007587Y008074D03*
X003453Y006499D03*
X003059Y005909D03*
X003689Y005555D03*
X005421Y005122D03*
X003492Y003586D03*
X010933Y003350D03*
X012508Y003744D03*
X014476Y005712D03*
X016642Y003744D03*
X020579Y001185D03*
X027665Y007287D03*
X028846Y011224D03*
X021957Y012208D03*
X019791Y012996D03*
X018807Y014177D03*
X019398Y014492D03*
D39*
X026681Y002384D02*
X026681Y001381D01*
M02*
