%
M48
M72
T01C0.0157
T02C0.0236
T03C0.0276
T04C0.0394
T05C0.0400
T06C0.0472
T07C0.1180
%
T01
X3492Y3586
X5421Y5122
X3689Y5555
X3059Y5909
X3453Y6499
X7587Y8074
X13098Y9846
X13886Y10436
X14870Y10240
X15067Y9649
X17823Y10830
X18807Y11224
X18807Y11814
X19791Y12996
X18807Y14177
X19398Y14492
X22035Y15161
X23138Y16145
X24909Y15358
X26287Y14767
X21957Y12208
X18610Y9649
X15146Y12366
X14476Y12602
X16642Y12602
X13492Y15161
X13492Y16145
X15264Y16145
X15657Y16145
X16051Y16145
X16642Y18310
X19201Y16933
X19594Y16539
X28846Y11224
X27665Y7287
X20579Y1185
X16642Y3744
X14476Y5712
X12508Y3744
X10933Y3350
X9555Y13192
T02
X12705Y12602
X14870Y11618
X15854Y12602
X18020Y16342
X24516Y11618
X1681Y11618
T03
X15854Y8877
X15854Y6877
T04
X10343Y9649
X4831Y11814
X26681Y4334
T05
X19201Y1578
X18201Y1578
X17201Y1578
X16201Y1578
X15201Y1578
X14201Y1578
X13201Y1578
X12201Y1578
X10055Y2728
X10055Y3728
X9055Y3728
X9055Y2728
X9055Y4728
X10055Y4728
X10055Y5728
X9055Y5728
X9055Y6728
X10055Y6728
X12508Y7059
X13508Y7059
X13508Y8059
X12508Y8059
X12508Y9059
X13508Y9059
X20366Y10633
X21366Y10633
X24681Y17810
X25681Y17810
X26681Y17810
X27681Y17810
X28681Y17810
X28681Y18810
X27681Y18810
X26681Y18810
X25681Y18810
X24681Y18810
X20972Y19392
X19972Y19592
X18972Y19392
X17972Y19592
X16972Y19392
X15972Y19592
T06
X26681Y1381
T07
X4713Y16263
X5894Y18114
X3531Y18114
M30
