G75*
G70*
%OFA0B0*%
%FSLAX24Y24*%
%IPPOS*%
%LPD*%
%AMOC8*
5,1,8,0,0,1.08239X$1,22.5*
%
%ADD10C,0.0480*%
%ADD11C,0.0415*%
%ADD12OC8,0.0820*%
%ADD13C,0.0206*%
%ADD14C,0.0474*%
%ADD15R,0.0671X0.0592*%
%ADD16R,0.0592X0.0671*%
%ADD17R,0.0552X0.0552*%
%ADD18C,0.0820*%
%ADD19R,0.0218X0.0631*%
%ADD20R,0.0789X0.0828*%
%ADD21R,0.0820X0.0820*%
%ADD22R,0.0950X0.0320*%
%ADD23R,0.0790X0.0710*%
%ADD24R,0.0749X0.1064*%
%ADD25C,0.1780*%
%ADD26R,0.1261X0.0631*%
%ADD27R,0.1025X0.1025*%
%ADD28R,0.0631X0.0710*%
%ADD29C,0.0730*%
%ADD30R,0.1064X0.0749*%
%ADD31R,0.2442X0.0867*%
%ADD32C,0.1064*%
%ADD33R,0.0456X0.0456*%
%ADD34R,0.0671X0.0671*%
%ADD35R,0.0377X0.0377*%
D10*
X023081Y002734D02*
X023581Y002734D01*
X023581Y003234D02*
X023081Y003234D01*
X023081Y003734D02*
X023581Y003734D01*
X023581Y004234D02*
X023081Y004234D01*
X023081Y004734D02*
X023581Y004734D01*
X023581Y005234D02*
X023081Y005234D01*
X023081Y005734D02*
X023581Y005734D01*
X023581Y006234D02*
X023081Y006234D01*
X023081Y006734D02*
X023581Y006734D01*
X023581Y007234D02*
X023081Y007234D01*
X023081Y007734D02*
X023581Y007734D01*
X023581Y008234D02*
X023081Y008234D01*
X023081Y008734D02*
X023581Y008734D01*
X023581Y009234D02*
X023081Y009234D01*
X023081Y009734D02*
X023581Y009734D01*
X023581Y010234D02*
X023081Y010234D01*
X023081Y010734D02*
X023581Y010734D01*
X023581Y011234D02*
X023081Y011234D01*
X023081Y011734D02*
X023581Y011734D01*
X023581Y012234D02*
X023081Y012234D01*
X024681Y012334D02*
X024681Y012834D01*
X026181Y012834D02*
X026181Y012334D01*
X029781Y012234D02*
X030281Y012234D01*
X030281Y011734D02*
X029781Y011734D01*
X029781Y011234D02*
X030281Y011234D01*
X030281Y010734D02*
X029781Y010734D01*
X029781Y010234D02*
X030281Y010234D01*
X030281Y009734D02*
X029781Y009734D01*
X029781Y009234D02*
X030281Y009234D01*
X030281Y008734D02*
X029781Y008734D01*
X029781Y008234D02*
X030281Y008234D01*
X030281Y007734D02*
X029781Y007734D01*
X029781Y007234D02*
X030281Y007234D01*
X030281Y006734D02*
X029781Y006734D01*
X029781Y006234D02*
X030281Y006234D01*
X030281Y005734D02*
X029781Y005734D01*
X029781Y005234D02*
X030281Y005234D01*
X030281Y004734D02*
X029781Y004734D01*
X029781Y004234D02*
X030281Y004234D01*
X030281Y003734D02*
X029781Y003734D01*
X029781Y003234D02*
X030281Y003234D01*
X030281Y002734D02*
X029781Y002734D01*
X028181Y002634D02*
X028181Y002134D01*
X027681Y002134D02*
X027681Y002634D01*
X027181Y002634D02*
X027181Y002134D01*
X026681Y002134D02*
X026681Y002634D01*
X026181Y002634D02*
X026181Y002134D01*
X025681Y002134D02*
X025681Y002634D01*
X025181Y002634D02*
X025181Y002134D01*
D11*
X001652Y003094D02*
X001652Y003094D01*
X002498Y003094D01*
X002498Y003094D01*
X001652Y003094D01*
X001652Y003586D02*
X001652Y003586D01*
X002498Y003586D01*
X002498Y003586D01*
X001652Y003586D01*
X001652Y004078D02*
X001652Y004078D01*
X002498Y004078D01*
X002498Y004078D01*
X001652Y004078D01*
X001652Y004570D02*
X001652Y004570D01*
X002498Y004570D01*
X002498Y004570D01*
X001652Y004570D01*
X001652Y005062D02*
X001652Y005062D01*
X002498Y005062D01*
X002498Y005062D01*
X001652Y005062D01*
X001652Y005555D02*
X001652Y005555D01*
X002498Y005555D01*
X002498Y005555D01*
X001652Y005555D01*
X001652Y006047D02*
X001652Y006047D01*
X002498Y006047D01*
X002498Y006047D01*
X001652Y006047D01*
X001652Y006539D02*
X001652Y006539D01*
X002498Y006539D01*
X002498Y006539D01*
X001652Y006539D01*
X001652Y007031D02*
X001652Y007031D01*
X002498Y007031D01*
X002498Y007031D01*
X001652Y007031D01*
X002724Y007474D02*
X002724Y007474D01*
X002724Y008320D01*
X002724Y008320D01*
X002724Y007474D01*
X002724Y007888D02*
X002724Y007888D01*
X002724Y008302D02*
X002724Y008302D01*
X003217Y007474D02*
X003217Y007474D01*
X003217Y008320D01*
X003217Y008320D01*
X003217Y007474D01*
X003217Y007888D02*
X003217Y007888D01*
X003217Y008302D02*
X003217Y008302D01*
X003709Y007474D02*
X003709Y007474D01*
X003709Y008320D01*
X003709Y008320D01*
X003709Y007474D01*
X003709Y007888D02*
X003709Y007888D01*
X003709Y008302D02*
X003709Y008302D01*
X004201Y007474D02*
X004201Y007474D01*
X004201Y008320D01*
X004201Y008320D01*
X004201Y007474D01*
X004201Y007888D02*
X004201Y007888D01*
X004201Y008302D02*
X004201Y008302D01*
X004693Y007474D02*
X004693Y007474D01*
X004693Y008320D01*
X004693Y008320D01*
X004693Y007474D01*
X004693Y007888D02*
X004693Y007888D01*
X004693Y008302D02*
X004693Y008302D01*
X005185Y007474D02*
X005185Y007474D01*
X005185Y008320D01*
X005185Y008320D01*
X005185Y007474D01*
X005185Y007888D02*
X005185Y007888D01*
X005185Y008302D02*
X005185Y008302D01*
X005677Y007474D02*
X005677Y007474D01*
X005677Y008320D01*
X005677Y008320D01*
X005677Y007474D01*
X005677Y007888D02*
X005677Y007888D01*
X005677Y008302D02*
X005677Y008302D01*
X006169Y007474D02*
X006169Y007474D01*
X006169Y008320D01*
X006169Y008320D01*
X006169Y007474D01*
X006169Y007888D02*
X006169Y007888D01*
X006169Y008302D02*
X006169Y008302D01*
X006396Y007031D02*
X006396Y007031D01*
X007242Y007031D01*
X007242Y007031D01*
X006396Y007031D01*
X006396Y006539D02*
X006396Y006539D01*
X007242Y006539D01*
X007242Y006539D01*
X006396Y006539D01*
X006396Y006047D02*
X006396Y006047D01*
X007242Y006047D01*
X007242Y006047D01*
X006396Y006047D01*
X006396Y005555D02*
X006396Y005555D01*
X007242Y005555D01*
X007242Y005555D01*
X006396Y005555D01*
X006396Y005062D02*
X006396Y005062D01*
X007242Y005062D01*
X007242Y005062D01*
X006396Y005062D01*
X006396Y004570D02*
X006396Y004570D01*
X007242Y004570D01*
X007242Y004570D01*
X006396Y004570D01*
X006396Y004078D02*
X006396Y004078D01*
X007242Y004078D01*
X007242Y004078D01*
X006396Y004078D01*
X006396Y003586D02*
X006396Y003586D01*
X007242Y003586D01*
X007242Y003586D01*
X006396Y003586D01*
X006396Y003094D02*
X006396Y003094D01*
X007242Y003094D01*
X007242Y003094D01*
X006396Y003094D01*
X006396Y002602D02*
X006396Y002602D01*
X007242Y002602D01*
X007242Y002602D01*
X006396Y002602D01*
X006396Y002110D02*
X006396Y002110D01*
X007242Y002110D01*
X007242Y002110D01*
X006396Y002110D01*
X006396Y001618D02*
X006396Y001618D01*
X007242Y001618D01*
X007242Y001618D01*
X006396Y001618D01*
X006396Y001125D02*
X006396Y001125D01*
X007242Y001125D01*
X007242Y001125D01*
X006396Y001125D01*
D12*
X009055Y002728D03*
X009055Y003728D03*
X010055Y003728D03*
X010055Y002728D03*
X010055Y004728D03*
X009055Y004728D03*
X009055Y005728D03*
X010055Y005728D03*
X010055Y006728D03*
X009055Y006728D03*
X012508Y007059D03*
X013508Y007059D03*
X013508Y008059D03*
X012508Y008059D03*
X012508Y009059D03*
X013508Y009059D03*
X024681Y017810D03*
X025681Y017810D03*
X026681Y017810D03*
X027681Y017810D03*
X028681Y017810D03*
X028681Y018810D03*
X027681Y018810D03*
X026681Y018810D03*
X025681Y018810D03*
X024681Y018810D03*
D13*
X018350Y014742D02*
X017926Y014742D01*
X017926Y014792D01*
X018350Y014792D01*
X018350Y014742D01*
X018350Y014427D02*
X017926Y014427D01*
X017926Y014477D01*
X018350Y014477D01*
X018350Y014427D01*
X018350Y014112D02*
X017926Y014112D01*
X017926Y014162D01*
X018350Y014162D01*
X018350Y014112D01*
X018350Y013797D02*
X017926Y013797D01*
X017926Y013847D01*
X018350Y013847D01*
X018350Y013797D01*
X018350Y013482D02*
X017926Y013482D01*
X017926Y013532D01*
X018350Y013532D01*
X018350Y013482D01*
X018350Y013167D02*
X017926Y013167D01*
X017926Y013217D01*
X018350Y013217D01*
X018350Y013167D01*
X018350Y012852D02*
X017926Y012852D01*
X017926Y012902D01*
X018350Y012902D01*
X018350Y012852D01*
X018350Y012537D02*
X017926Y012537D01*
X017926Y012587D01*
X018350Y012587D01*
X018350Y012537D01*
X018350Y012223D02*
X017926Y012223D01*
X017926Y012273D01*
X018350Y012273D01*
X018350Y012223D01*
X018350Y011908D02*
X017926Y011908D01*
X017926Y011958D01*
X018350Y011958D01*
X018350Y011908D01*
X018350Y011593D02*
X017926Y011593D01*
X017926Y011643D01*
X018350Y011643D01*
X018350Y011593D01*
X017454Y010697D02*
X017404Y010697D01*
X017404Y011121D01*
X017454Y011121D01*
X017454Y010697D01*
X017454Y010902D02*
X017404Y010902D01*
X017404Y011107D02*
X017454Y011107D01*
X017139Y010697D02*
X017089Y010697D01*
X017089Y011121D01*
X017139Y011121D01*
X017139Y010697D01*
X017139Y010902D02*
X017089Y010902D01*
X017089Y011107D02*
X017139Y011107D01*
X016824Y010697D02*
X016774Y010697D01*
X016774Y011121D01*
X016824Y011121D01*
X016824Y010697D01*
X016824Y010902D02*
X016774Y010902D01*
X016774Y011107D02*
X016824Y011107D01*
X016509Y010697D02*
X016459Y010697D01*
X016459Y011121D01*
X016509Y011121D01*
X016509Y010697D01*
X016509Y010902D02*
X016459Y010902D01*
X016459Y011107D02*
X016509Y011107D01*
X016194Y010697D02*
X016144Y010697D01*
X016144Y011121D01*
X016194Y011121D01*
X016194Y010697D01*
X016194Y010902D02*
X016144Y010902D01*
X016144Y011107D02*
X016194Y011107D01*
X015879Y010697D02*
X015829Y010697D01*
X015829Y011121D01*
X015879Y011121D01*
X015879Y010697D01*
X015879Y010902D02*
X015829Y010902D01*
X015829Y011107D02*
X015879Y011107D01*
X015564Y010697D02*
X015514Y010697D01*
X015514Y011121D01*
X015564Y011121D01*
X015564Y010697D01*
X015564Y010902D02*
X015514Y010902D01*
X015514Y011107D02*
X015564Y011107D01*
X015249Y010697D02*
X015199Y010697D01*
X015199Y011121D01*
X015249Y011121D01*
X015249Y010697D01*
X015249Y010902D02*
X015199Y010902D01*
X015199Y011107D02*
X015249Y011107D01*
X014934Y010697D02*
X014884Y010697D01*
X014884Y011121D01*
X014934Y011121D01*
X014934Y010697D01*
X014934Y010902D02*
X014884Y010902D01*
X014884Y011107D02*
X014934Y011107D01*
X014619Y010697D02*
X014569Y010697D01*
X014569Y011121D01*
X014619Y011121D01*
X014619Y010697D01*
X014619Y010902D02*
X014569Y010902D01*
X014569Y011107D02*
X014619Y011107D01*
X014305Y010697D02*
X014255Y010697D01*
X014255Y011121D01*
X014305Y011121D01*
X014305Y010697D01*
X014305Y010902D02*
X014255Y010902D01*
X014255Y011107D02*
X014305Y011107D01*
X013783Y011593D02*
X013359Y011593D01*
X013359Y011643D01*
X013783Y011643D01*
X013783Y011593D01*
X013783Y011908D02*
X013359Y011908D01*
X013359Y011958D01*
X013783Y011958D01*
X013783Y011908D01*
X013783Y012223D02*
X013359Y012223D01*
X013359Y012273D01*
X013783Y012273D01*
X013783Y012223D01*
X013783Y012537D02*
X013359Y012537D01*
X013359Y012587D01*
X013783Y012587D01*
X013783Y012537D01*
X013783Y012852D02*
X013359Y012852D01*
X013359Y012902D01*
X013783Y012902D01*
X013783Y012852D01*
X013783Y013167D02*
X013359Y013167D01*
X013359Y013217D01*
X013783Y013217D01*
X013783Y013167D01*
X013783Y013482D02*
X013359Y013482D01*
X013359Y013532D01*
X013783Y013532D01*
X013783Y013482D01*
X013783Y013797D02*
X013359Y013797D01*
X013359Y013847D01*
X013783Y013847D01*
X013783Y013797D01*
X013783Y014112D02*
X013359Y014112D01*
X013359Y014162D01*
X013783Y014162D01*
X013783Y014112D01*
X013783Y014427D02*
X013359Y014427D01*
X013359Y014477D01*
X013783Y014477D01*
X013783Y014427D01*
X013783Y014742D02*
X013359Y014742D01*
X013359Y014792D01*
X013783Y014792D01*
X013783Y014742D01*
X014255Y015264D02*
X014305Y015264D01*
X014255Y015264D02*
X014255Y015688D01*
X014305Y015688D01*
X014305Y015264D01*
X014305Y015469D02*
X014255Y015469D01*
X014255Y015674D02*
X014305Y015674D01*
X014569Y015264D02*
X014619Y015264D01*
X014569Y015264D02*
X014569Y015688D01*
X014619Y015688D01*
X014619Y015264D01*
X014619Y015469D02*
X014569Y015469D01*
X014569Y015674D02*
X014619Y015674D01*
X014884Y015264D02*
X014934Y015264D01*
X014884Y015264D02*
X014884Y015688D01*
X014934Y015688D01*
X014934Y015264D01*
X014934Y015469D02*
X014884Y015469D01*
X014884Y015674D02*
X014934Y015674D01*
X015199Y015264D02*
X015249Y015264D01*
X015199Y015264D02*
X015199Y015688D01*
X015249Y015688D01*
X015249Y015264D01*
X015249Y015469D02*
X015199Y015469D01*
X015199Y015674D02*
X015249Y015674D01*
X015514Y015264D02*
X015564Y015264D01*
X015514Y015264D02*
X015514Y015688D01*
X015564Y015688D01*
X015564Y015264D01*
X015564Y015469D02*
X015514Y015469D01*
X015514Y015674D02*
X015564Y015674D01*
X015829Y015264D02*
X015879Y015264D01*
X015829Y015264D02*
X015829Y015688D01*
X015879Y015688D01*
X015879Y015264D01*
X015879Y015469D02*
X015829Y015469D01*
X015829Y015674D02*
X015879Y015674D01*
X016144Y015264D02*
X016194Y015264D01*
X016144Y015264D02*
X016144Y015688D01*
X016194Y015688D01*
X016194Y015264D01*
X016194Y015469D02*
X016144Y015469D01*
X016144Y015674D02*
X016194Y015674D01*
X016459Y015264D02*
X016509Y015264D01*
X016459Y015264D02*
X016459Y015688D01*
X016509Y015688D01*
X016509Y015264D01*
X016509Y015469D02*
X016459Y015469D01*
X016459Y015674D02*
X016509Y015674D01*
X016774Y015264D02*
X016824Y015264D01*
X016774Y015264D02*
X016774Y015688D01*
X016824Y015688D01*
X016824Y015264D01*
X016824Y015469D02*
X016774Y015469D01*
X016774Y015674D02*
X016824Y015674D01*
X017089Y015264D02*
X017139Y015264D01*
X017089Y015264D02*
X017089Y015688D01*
X017139Y015688D01*
X017139Y015264D01*
X017139Y015469D02*
X017089Y015469D01*
X017089Y015674D02*
X017139Y015674D01*
X017404Y015264D02*
X017454Y015264D01*
X017404Y015264D02*
X017404Y015688D01*
X017454Y015688D01*
X017454Y015264D01*
X017454Y015469D02*
X017404Y015469D01*
X017404Y015674D02*
X017454Y015674D01*
D14*
X015854Y013192D03*
D15*
X018807Y015574D03*
X018807Y016322D03*
X020382Y016322D03*
X021366Y016322D03*
X021366Y015574D03*
X020382Y015574D03*
X022547Y015299D03*
X022547Y014629D03*
X025697Y014393D03*
X025697Y015141D03*
X016051Y016755D03*
X016051Y017503D03*
X015067Y017503D03*
X015067Y016755D03*
X013689Y016755D03*
X013689Y017503D03*
X012508Y017503D03*
X012508Y016755D03*
X011327Y016755D03*
X011327Y017503D03*
X005618Y011992D03*
X005618Y011244D03*
X003846Y010810D03*
X003846Y010062D03*
X016051Y005102D03*
X016051Y004354D03*
X017232Y004354D03*
X017232Y005102D03*
D16*
X013866Y005712D03*
X013118Y005712D03*
X007764Y011224D03*
X007016Y011224D03*
X007016Y012208D03*
X007764Y012208D03*
X010756Y012011D03*
X011504Y012011D03*
X011504Y013192D03*
X010756Y013192D03*
X003433Y009059D03*
X002685Y009059D03*
X020402Y012208D03*
X021150Y012208D03*
X021110Y013192D03*
X020441Y013192D03*
X021189Y008468D03*
X021937Y008468D03*
X021937Y007287D03*
X021189Y007287D03*
X021189Y006106D03*
X021937Y006106D03*
X029260Y001381D03*
X030008Y001381D03*
D17*
X022154Y004118D03*
X021169Y004118D03*
X020185Y004118D03*
X020185Y004944D03*
X021169Y004944D03*
X022154Y004944D03*
X021189Y017326D03*
X020362Y017326D03*
X020362Y018114D03*
X021189Y018114D03*
X002665Y011637D03*
X002665Y010810D03*
D18*
X015972Y019592D03*
X016972Y019392D03*
X017972Y019592D03*
X018972Y019392D03*
X019972Y019592D03*
X020972Y019392D03*
X021366Y010633D03*
X020366Y010633D03*
X018201Y001578D03*
X017201Y001578D03*
X016201Y001578D03*
X015201Y001578D03*
X014201Y001578D03*
X013201Y001578D03*
X012201Y001578D03*
D19*
X012390Y018645D03*
X012646Y018645D03*
X012902Y018645D03*
X013157Y018645D03*
X013413Y018645D03*
D20*
X014476Y019688D03*
X011327Y019688D03*
D21*
X019201Y001578D03*
D22*
X008420Y013230D03*
X008420Y013730D03*
X008420Y014230D03*
X008420Y014730D03*
X006360Y014730D03*
X006360Y014230D03*
X006360Y013730D03*
X006360Y013230D03*
D23*
X009555Y014995D03*
X009555Y016114D03*
D24*
X004831Y014373D03*
X004831Y012799D03*
D25*
X004713Y016263D03*
X005894Y018114D03*
X003531Y018114D03*
D26*
X007823Y018704D03*
X009713Y018704D03*
D27*
X008965Y009649D03*
X006996Y009649D03*
D28*
X011917Y004629D03*
X011917Y002858D03*
X015067Y002858D03*
X015067Y004629D03*
X026878Y013881D03*
X026878Y015653D03*
X030028Y015653D03*
X030028Y013881D03*
D29*
X015854Y008877D03*
X015854Y006877D03*
D30*
X008374Y016342D03*
X006799Y016342D03*
D31*
X002862Y014433D03*
X002862Y012740D03*
D32*
X026681Y001381D03*
D33*
X024516Y011618D03*
X018020Y016342D03*
X015854Y012602D03*
X014870Y011618D03*
X012705Y012602D03*
X001681Y011618D03*
D34*
X004831Y011814D03*
X010343Y009649D03*
X026681Y004334D03*
D35*
X027665Y007287D03*
X028846Y011224D03*
X026287Y014767D03*
X024909Y015358D03*
X023138Y016145D03*
X022035Y015161D03*
X019594Y016539D03*
X019201Y016933D03*
X016642Y018310D03*
X016051Y016145D03*
X015657Y016145D03*
X015264Y016145D03*
X013492Y016145D03*
X013492Y015161D03*
X014476Y012602D03*
X015146Y012366D03*
X016642Y012602D03*
X018807Y011814D03*
X018807Y011224D03*
X017823Y010830D03*
X018610Y009649D03*
X015067Y009649D03*
X014870Y010240D03*
X013886Y010436D03*
X013098Y009846D03*
X009555Y013192D03*
X007587Y008074D03*
X003453Y006499D03*
X003059Y005909D03*
X003689Y005555D03*
X005421Y005122D03*
X003492Y003586D03*
X010933Y003350D03*
X012508Y003744D03*
X014476Y005712D03*
X016642Y003744D03*
X020579Y001185D03*
X021957Y012208D03*
X019791Y012996D03*
X018807Y014177D03*
X019398Y014492D03*
M02*
