G75*
G70*
%OFA0B0*%
%FSLAX24Y24*%
%IPPOS*%
%LPD*%
%AMOC8*
5,1,8,0,0,1.08239X$1,22.5*
%
%ADD10OC8,0.0740*%
%ADD11C,0.0740*%
%ADD12R,0.0740X0.0740*%
%ADD13C,0.1700*%
%ADD14C,0.0650*%
%ADD15C,0.0984*%
%ADD16R,0.0376X0.0376*%
%ADD17R,0.0591X0.0591*%
%ADD18R,0.0297X0.0297*%
%ADD19C,0.0079*%
%ADD20C,0.0197*%
D10*
X009055Y002728D03*
X009055Y003728D03*
X010055Y003728D03*
X010055Y002728D03*
X010055Y004728D03*
X009055Y004728D03*
X009055Y005728D03*
X010055Y005728D03*
X010055Y006728D03*
X009055Y006728D03*
X012508Y007059D03*
X013508Y007059D03*
X013508Y008059D03*
X012508Y008059D03*
X012508Y009059D03*
X013508Y009059D03*
X024681Y017810D03*
X025681Y017810D03*
X026681Y017810D03*
X027681Y017810D03*
X028681Y017810D03*
X028681Y018810D03*
X027681Y018810D03*
X026681Y018810D03*
X025681Y018810D03*
X024681Y018810D03*
D11*
X020972Y019392D03*
X019972Y019592D03*
X018972Y019392D03*
X017972Y019592D03*
X016972Y019392D03*
X015972Y019592D03*
X020366Y010633D03*
X021366Y010633D03*
X018201Y001578D03*
X017201Y001578D03*
X016201Y001578D03*
X015201Y001578D03*
X014201Y001578D03*
X013201Y001578D03*
X012201Y001578D03*
D12*
X019201Y001578D03*
D13*
X004713Y016263D03*
X005894Y018114D03*
X003531Y018114D03*
D14*
X015854Y008877D03*
X015854Y006877D03*
D15*
X026681Y001381D03*
D16*
X024516Y011618D03*
X018020Y016342D03*
X015854Y012602D03*
X014870Y011618D03*
X012705Y012602D03*
X001681Y011618D03*
D17*
X004831Y011814D03*
X010343Y009649D03*
X026681Y004334D03*
D18*
X027665Y007287D03*
X028846Y011224D03*
X026287Y014767D03*
X024909Y015358D03*
X023138Y016145D03*
X022035Y015161D03*
X019594Y016539D03*
X019201Y016933D03*
X016642Y018310D03*
X016051Y016145D03*
X015657Y016145D03*
X015264Y016145D03*
X013492Y016145D03*
X013492Y015161D03*
X014476Y012602D03*
X015146Y012366D03*
X016642Y012602D03*
X018807Y011814D03*
X018807Y011224D03*
X017823Y010830D03*
X018610Y009649D03*
X015067Y009649D03*
X014870Y010240D03*
X013886Y010436D03*
X013098Y009846D03*
X009555Y013192D03*
X007587Y008074D03*
X003453Y006499D03*
X003059Y005909D03*
X003689Y005555D03*
X005421Y005122D03*
X003492Y003586D03*
X010933Y003350D03*
X012508Y003744D03*
X014476Y005712D03*
X016642Y003744D03*
X020579Y001185D03*
X021957Y012208D03*
X019791Y012996D03*
X018807Y014177D03*
X019398Y014492D03*
D19*
X001477Y020090D02*
X001477Y000783D01*
X026427Y000783D01*
X026313Y000831D01*
X026130Y001013D01*
X026031Y001252D01*
X026031Y001511D01*
X026130Y001749D01*
X026313Y001932D01*
X026552Y002031D01*
X026810Y002031D01*
X027049Y001932D01*
X027232Y001749D01*
X027331Y001511D01*
X027331Y001252D01*
X027232Y001013D01*
X027049Y000831D01*
X026935Y000783D01*
X030626Y000783D01*
X030626Y020090D01*
X020148Y020090D01*
X020271Y020039D01*
X020420Y019890D01*
X020500Y019697D01*
X020500Y019629D01*
X020525Y019690D01*
X020674Y019839D01*
X020868Y019919D01*
X021077Y019919D01*
X021271Y019839D01*
X021420Y019690D01*
X021500Y019497D01*
X021500Y019287D01*
X021420Y019093D01*
X021271Y018944D01*
X021077Y018864D01*
X020868Y018864D01*
X020674Y018944D01*
X020525Y019093D01*
X020445Y019287D01*
X020445Y019354D01*
X020420Y019293D01*
X020271Y019144D01*
X020077Y019064D01*
X019868Y019064D01*
X019674Y019144D01*
X019525Y019293D01*
X019500Y019354D01*
X019500Y019287D01*
X019420Y019093D01*
X019271Y018944D01*
X019077Y018864D01*
X018868Y018864D01*
X018674Y018944D01*
X018525Y019093D01*
X018445Y019287D01*
X018445Y019354D01*
X018420Y019293D01*
X018271Y019144D01*
X018077Y019064D01*
X017868Y019064D01*
X017674Y019144D01*
X017525Y019293D01*
X017500Y019354D01*
X017500Y019287D01*
X017420Y019093D01*
X017271Y018944D01*
X017167Y018901D01*
X017511Y018901D01*
X017708Y018704D01*
X022859Y018704D01*
X023728Y019573D01*
X023844Y019688D01*
X026172Y019688D01*
X026251Y019610D01*
X026366Y019494D01*
X026366Y019242D01*
X026463Y019338D01*
X026900Y019338D01*
X027181Y019056D01*
X027463Y019338D01*
X027900Y019338D01*
X028194Y019044D01*
X028470Y019320D01*
X028642Y019320D01*
X028642Y018850D01*
X028720Y018850D01*
X028720Y019320D01*
X028892Y019320D01*
X029190Y019021D01*
X029190Y018850D01*
X028720Y018850D01*
X028720Y018771D01*
X028720Y018301D01*
X028720Y017850D01*
X028642Y017850D01*
X028642Y018771D01*
X028720Y018771D01*
X029190Y018771D01*
X029190Y018600D01*
X028901Y018310D01*
X029190Y018021D01*
X029190Y017850D01*
X028720Y017850D01*
X028720Y017771D01*
X028720Y017301D01*
X028892Y017301D01*
X029190Y017600D01*
X029190Y017771D01*
X028720Y017771D01*
X028642Y017771D01*
X028642Y017301D01*
X028470Y017301D01*
X028194Y017577D01*
X027900Y017283D01*
X027463Y017283D01*
X027181Y017565D01*
X026900Y017283D01*
X026463Y017283D01*
X026181Y017565D01*
X025900Y017283D01*
X025463Y017283D01*
X025181Y017565D01*
X024900Y017283D01*
X024463Y017283D01*
X024223Y017523D01*
X017511Y017523D01*
X016352Y016364D01*
X016357Y016359D01*
X016357Y015931D01*
X016265Y015839D01*
X015050Y015839D01*
X014958Y015931D01*
X014958Y016359D01*
X015050Y016451D01*
X015067Y016451D01*
X015067Y018589D01*
X015264Y018786D01*
X015379Y018901D01*
X016778Y018901D01*
X016674Y018944D01*
X016525Y019093D01*
X016445Y019287D01*
X016445Y019354D01*
X016420Y019293D01*
X016271Y019144D01*
X016077Y019064D01*
X015868Y019064D01*
X015674Y019144D01*
X015525Y019293D01*
X015445Y019487D01*
X015445Y019697D01*
X015525Y019890D01*
X015674Y020039D01*
X015796Y020090D01*
X001477Y020090D01*
X001477Y020059D02*
X015721Y020059D01*
X015616Y019981D02*
X001477Y019981D01*
X001477Y019904D02*
X015539Y019904D01*
X015499Y019827D02*
X001477Y019827D01*
X001477Y019750D02*
X015467Y019750D01*
X015445Y019672D02*
X001477Y019672D01*
X001477Y019595D02*
X015445Y019595D01*
X015445Y019518D02*
X001477Y019518D01*
X001477Y019441D02*
X015464Y019441D01*
X015496Y019363D02*
X001477Y019363D01*
X001477Y019286D02*
X015532Y019286D01*
X015609Y019209D02*
X001477Y019209D01*
X001477Y019132D02*
X015704Y019132D01*
X015378Y018900D02*
X006532Y018900D01*
X006512Y018920D02*
X006283Y019052D01*
X006026Y019121D01*
X005761Y019121D01*
X005505Y019052D01*
X005275Y018920D01*
X005088Y018732D01*
X004955Y018503D01*
X004886Y018246D01*
X004886Y017981D01*
X004955Y017725D01*
X005088Y017495D01*
X005275Y017307D01*
X005505Y017175D01*
X005761Y017106D01*
X006026Y017106D01*
X006283Y017175D01*
X006512Y017307D01*
X006700Y017495D01*
X006833Y017725D01*
X006901Y017981D01*
X006901Y018246D01*
X006833Y018503D01*
X006700Y018732D01*
X006512Y018920D01*
X006413Y018977D02*
X016641Y018977D01*
X016564Y019054D02*
X006275Y019054D01*
X006609Y018823D02*
X015301Y018823D01*
X015224Y018745D02*
X006687Y018745D01*
X006737Y018668D02*
X015146Y018668D01*
X015069Y018591D02*
X006781Y018591D01*
X006826Y018514D02*
X015067Y018514D01*
X015067Y018436D02*
X006850Y018436D01*
X006871Y018359D02*
X015067Y018359D01*
X015067Y018282D02*
X006892Y018282D01*
X006901Y018205D02*
X015067Y018205D01*
X015067Y018128D02*
X006901Y018128D01*
X006901Y018050D02*
X015067Y018050D01*
X015067Y017973D02*
X006899Y017973D01*
X006878Y017896D02*
X015067Y017896D01*
X015067Y017819D02*
X006858Y017819D01*
X006837Y017741D02*
X015067Y017741D01*
X015067Y017664D02*
X006797Y017664D01*
X006753Y017587D02*
X015067Y017587D01*
X015067Y017510D02*
X006708Y017510D01*
X006637Y017432D02*
X015067Y017432D01*
X015067Y017355D02*
X006560Y017355D01*
X006461Y017278D02*
X015067Y017278D01*
X015067Y017201D02*
X006327Y017201D01*
X006091Y017123D02*
X015067Y017123D01*
X015067Y017046D02*
X005318Y017046D01*
X005286Y017071D02*
X005192Y017131D01*
X005092Y017179D01*
X004987Y017215D01*
X004879Y017240D01*
X004768Y017253D01*
X004752Y017253D01*
X004752Y016303D01*
X004673Y016303D01*
X004673Y017253D01*
X004657Y017253D01*
X004547Y017240D01*
X004438Y017215D01*
X004333Y017179D01*
X004233Y017131D01*
X004139Y017071D01*
X004052Y017002D01*
X003974Y016924D01*
X003904Y016837D01*
X003845Y016743D01*
X003797Y016642D01*
X003760Y016538D01*
X003736Y016429D01*
X003723Y016319D01*
X003723Y016303D01*
X004673Y016303D01*
X004673Y016224D01*
X003723Y016224D01*
X003723Y016208D01*
X003736Y016097D01*
X003760Y015989D01*
X003797Y015884D01*
X003845Y015784D01*
X003904Y015690D01*
X003974Y015603D01*
X004052Y015524D01*
X004139Y015455D01*
X004233Y015396D01*
X004333Y015348D01*
X004438Y015311D01*
X004547Y015286D01*
X004657Y015274D01*
X004673Y015274D01*
X004673Y016224D01*
X004752Y016224D01*
X004752Y016303D01*
X005702Y016303D01*
X005702Y016319D01*
X005690Y016429D01*
X005665Y016538D01*
X005628Y016642D01*
X005580Y016743D01*
X005521Y016837D01*
X005451Y016924D01*
X005373Y017002D01*
X005286Y017071D01*
X005203Y017123D02*
X005697Y017123D01*
X005460Y017201D02*
X005029Y017201D01*
X005227Y017355D02*
X004167Y017355D01*
X004192Y017375D02*
X004105Y017305D01*
X004011Y017246D01*
X003911Y017198D01*
X003806Y017161D01*
X003697Y017137D01*
X003587Y017124D01*
X003571Y017124D01*
X003571Y018074D01*
X003492Y018074D01*
X003492Y017124D01*
X003476Y017124D01*
X003366Y017137D01*
X003257Y017161D01*
X003152Y017198D01*
X003052Y017246D01*
X002958Y017305D01*
X002871Y017375D01*
X002793Y017453D01*
X002723Y017540D01*
X002664Y017634D01*
X002616Y017734D01*
X002579Y017839D01*
X002555Y017948D01*
X002542Y018058D01*
X002542Y018074D01*
X003492Y018074D01*
X003492Y018153D01*
X002542Y018153D01*
X002542Y018169D01*
X002555Y018280D01*
X002579Y018388D01*
X002616Y018493D01*
X002664Y018593D01*
X002723Y018687D01*
X002793Y018774D01*
X002871Y018853D01*
X002958Y018922D01*
X003052Y018981D01*
X003152Y019029D01*
X003257Y019066D01*
X003366Y019091D01*
X003476Y019103D01*
X003492Y019103D01*
X003492Y018153D01*
X003571Y018153D01*
X004521Y018153D01*
X004521Y018169D01*
X004508Y018280D01*
X004484Y018388D01*
X004447Y018493D01*
X004399Y018593D01*
X004340Y018687D01*
X004270Y018774D01*
X004192Y018853D01*
X004105Y018922D01*
X004011Y018981D01*
X003911Y019029D01*
X003806Y019066D01*
X003697Y019091D01*
X003587Y019103D01*
X003571Y019103D01*
X003571Y018153D01*
X003571Y018074D01*
X004521Y018074D01*
X004521Y018058D01*
X004508Y017948D01*
X004484Y017839D01*
X004447Y017734D01*
X004399Y017634D01*
X004340Y017540D01*
X004270Y017453D01*
X004192Y017375D01*
X004249Y017432D02*
X005150Y017432D01*
X005079Y017510D02*
X004315Y017510D01*
X004369Y017587D02*
X005035Y017587D01*
X004990Y017664D02*
X004413Y017664D01*
X004449Y017741D02*
X004950Y017741D01*
X004930Y017819D02*
X004476Y017819D01*
X004497Y017896D02*
X004909Y017896D01*
X004888Y017973D02*
X004511Y017973D01*
X004520Y018050D02*
X004886Y018050D01*
X004886Y018128D02*
X003571Y018128D01*
X003571Y018205D02*
X003492Y018205D01*
X003492Y018282D02*
X003571Y018282D01*
X003571Y018359D02*
X003492Y018359D01*
X003492Y018436D02*
X003571Y018436D01*
X003571Y018514D02*
X003492Y018514D01*
X003492Y018591D02*
X003571Y018591D01*
X003571Y018668D02*
X003492Y018668D01*
X003492Y018745D02*
X003571Y018745D01*
X003571Y018823D02*
X003492Y018823D01*
X003492Y018900D02*
X003571Y018900D01*
X003571Y018977D02*
X003492Y018977D01*
X003492Y019054D02*
X003571Y019054D01*
X003838Y019054D02*
X005512Y019054D01*
X005374Y018977D02*
X004017Y018977D01*
X004132Y018900D02*
X005255Y018900D01*
X005178Y018823D02*
X004222Y018823D01*
X004293Y018745D02*
X005101Y018745D01*
X005051Y018668D02*
X004352Y018668D01*
X004400Y018591D02*
X005006Y018591D01*
X004961Y018514D02*
X004437Y018514D01*
X004467Y018436D02*
X004937Y018436D01*
X004916Y018359D02*
X004490Y018359D01*
X004508Y018282D02*
X004896Y018282D01*
X004886Y018205D02*
X004517Y018205D01*
X003571Y018050D02*
X003492Y018050D01*
X003492Y017973D02*
X003571Y017973D01*
X003571Y017896D02*
X003492Y017896D01*
X003492Y017819D02*
X003571Y017819D01*
X003571Y017741D02*
X003492Y017741D01*
X003492Y017664D02*
X003571Y017664D01*
X003571Y017587D02*
X003492Y017587D01*
X003492Y017510D02*
X003571Y017510D01*
X003571Y017432D02*
X003492Y017432D01*
X003492Y017355D02*
X003571Y017355D01*
X003571Y017278D02*
X003492Y017278D01*
X003492Y017201D02*
X003571Y017201D01*
X003916Y017201D02*
X004396Y017201D01*
X004222Y017123D02*
X001477Y017123D01*
X001477Y017046D02*
X004108Y017046D01*
X004019Y016969D02*
X001477Y016969D01*
X001477Y016892D02*
X003948Y016892D01*
X003890Y016814D02*
X001477Y016814D01*
X001477Y016737D02*
X003843Y016737D01*
X003806Y016660D02*
X001477Y016660D01*
X001477Y016583D02*
X003776Y016583D01*
X003753Y016505D02*
X001477Y016505D01*
X001477Y016428D02*
X003736Y016428D01*
X003727Y016351D02*
X001477Y016351D01*
X001477Y016274D02*
X004673Y016274D01*
X004673Y016351D02*
X004752Y016351D01*
X004752Y016274D02*
X011571Y016274D01*
X011524Y016227D02*
X011524Y011733D01*
X012902Y010355D01*
X012902Y010152D01*
X012884Y010152D01*
X012792Y010060D01*
X012792Y009632D01*
X012884Y009540D01*
X013243Y009540D01*
X013008Y009304D01*
X012726Y009586D01*
X012289Y009586D01*
X011980Y009277D01*
X011980Y009255D01*
X009277Y009255D01*
X007893Y007871D01*
X007893Y008288D01*
X007801Y008380D01*
X007373Y008380D01*
X007280Y008288D01*
X007280Y008271D01*
X004905Y008271D01*
X004899Y008276D01*
X004824Y008271D01*
X004749Y008271D01*
X004744Y008266D01*
X004736Y008265D01*
X004687Y008209D01*
X004634Y008156D01*
X004634Y008148D01*
X003459Y006806D01*
X003239Y006806D01*
X003147Y006713D01*
X003147Y006286D01*
X003217Y006215D01*
X002845Y006215D01*
X002753Y006123D01*
X002753Y005695D01*
X002845Y005603D01*
X002862Y005603D01*
X002862Y001497D01*
X002978Y001381D01*
X003174Y001185D01*
X010424Y001185D01*
X010539Y001300D01*
X010933Y001694D01*
X010933Y003044D01*
X011147Y003044D01*
X011239Y003136D01*
X011239Y003564D01*
X011147Y003656D01*
X010719Y003656D01*
X010627Y003564D01*
X010627Y003322D01*
X010539Y003235D01*
X010539Y002964D01*
X010288Y003215D01*
X010583Y003509D01*
X010583Y003946D01*
X010301Y004228D01*
X010583Y004509D01*
X010583Y004946D01*
X010301Y005228D01*
X010583Y005509D01*
X010583Y005946D01*
X010301Y006228D01*
X010583Y006509D01*
X010583Y006946D01*
X010274Y007255D01*
X009837Y007255D01*
X009555Y006974D01*
X009274Y007255D01*
X008837Y007255D01*
X008528Y006946D01*
X008528Y006509D01*
X008809Y006228D01*
X008528Y005946D01*
X008528Y005509D01*
X008600Y005436D01*
X006993Y005436D01*
X005340Y003783D01*
X003798Y003783D01*
X003798Y003800D01*
X003706Y003892D01*
X003278Y003892D01*
X003256Y003870D01*
X003256Y005603D01*
X003273Y005603D01*
X003365Y005695D01*
X003365Y006123D01*
X003295Y006193D01*
X003667Y006193D01*
X003759Y006286D01*
X003759Y006551D01*
X004920Y007877D01*
X007280Y007877D01*
X007280Y007860D01*
X007373Y007768D01*
X007789Y007768D01*
X005449Y005428D01*
X005207Y005428D01*
X005115Y005335D01*
X005115Y004908D01*
X005207Y004815D01*
X005427Y004815D01*
X005340Y004728D01*
X004794Y004728D01*
X003995Y005527D01*
X003995Y005769D01*
X005790Y005769D01*
X005713Y005692D02*
X003995Y005692D01*
X003995Y005769D02*
X003903Y005861D01*
X003475Y005861D01*
X003383Y005769D01*
X003365Y005769D01*
X003383Y005769D02*
X003383Y005341D01*
X003475Y005248D01*
X003717Y005248D01*
X004631Y004334D01*
X005503Y004334D01*
X005618Y004449D01*
X008534Y007366D01*
X012069Y007366D01*
X011980Y007277D01*
X011980Y006840D01*
X012289Y006531D01*
X012726Y006531D01*
X013021Y006825D01*
X013297Y006549D01*
X013469Y006549D01*
X013469Y007019D01*
X013547Y007019D01*
X013547Y006549D01*
X013719Y006549D01*
X014017Y006848D01*
X014017Y007019D01*
X013547Y007019D01*
X013547Y007098D01*
X014017Y007098D01*
X014017Y007270D01*
X013741Y007546D01*
X014035Y007840D01*
X014035Y008277D01*
X013754Y008559D01*
X013931Y008735D01*
X014280Y008386D01*
X014280Y006018D01*
X014262Y006018D01*
X014170Y005926D01*
X014170Y005498D01*
X014262Y005406D01*
X014690Y005406D01*
X014783Y005498D01*
X014783Y005926D01*
X014690Y006018D01*
X014673Y006018D01*
X014673Y008550D01*
X015500Y008550D01*
X015445Y008604D02*
X015581Y008468D01*
X015758Y008395D01*
X015950Y008395D01*
X016128Y008468D01*
X016263Y008604D01*
X016337Y008781D01*
X018020Y008781D01*
X018020Y008704D02*
X016305Y008704D01*
X016273Y008627D02*
X018020Y008627D01*
X018020Y008550D02*
X016209Y008550D01*
X016132Y008472D02*
X018020Y008472D01*
X018020Y008395D02*
X015951Y008395D01*
X015758Y008395D02*
X014673Y008395D01*
X014673Y008318D02*
X018020Y008318D01*
X018020Y008241D02*
X014673Y008241D01*
X014673Y008164D02*
X018020Y008164D01*
X018020Y008086D02*
X014673Y008086D01*
X014673Y008009D02*
X018020Y008009D01*
X018020Y007932D02*
X014673Y007932D01*
X014673Y007855D02*
X018020Y007855D01*
X018020Y007777D02*
X014673Y007777D01*
X014673Y007700D02*
X018020Y007700D01*
X018020Y007623D02*
X014673Y007623D01*
X014673Y007546D02*
X018020Y007546D01*
X018020Y007468D02*
X014673Y007468D01*
X014673Y007391D02*
X018020Y007391D01*
X018020Y007314D02*
X016061Y007314D01*
X016128Y007286D02*
X015950Y007360D01*
X015758Y007360D01*
X015581Y007286D01*
X015445Y007151D01*
X015372Y006973D01*
X015372Y006781D01*
X015445Y006604D01*
X015581Y006468D01*
X015758Y006395D01*
X015950Y006395D01*
X016128Y006468D01*
X016263Y006604D01*
X016337Y006781D01*
X016337Y006973D01*
X016263Y007151D01*
X016128Y007286D01*
X016177Y007237D02*
X018020Y007237D01*
X018020Y007159D02*
X016255Y007159D01*
X016292Y007082D02*
X018020Y007082D01*
X018020Y007005D02*
X016324Y007005D01*
X016337Y006928D02*
X018020Y006928D01*
X018020Y006850D02*
X016337Y006850D01*
X016333Y006773D02*
X018020Y006773D01*
X018020Y006696D02*
X016301Y006696D01*
X016269Y006619D02*
X018020Y006619D01*
X018020Y006541D02*
X016201Y006541D01*
X016118Y006464D02*
X018020Y006464D01*
X018020Y006387D02*
X014673Y006387D01*
X014673Y006464D02*
X015591Y006464D01*
X015508Y006541D02*
X014673Y006541D01*
X014673Y006619D02*
X015439Y006619D01*
X015407Y006696D02*
X014673Y006696D01*
X014673Y006773D02*
X015375Y006773D01*
X015372Y006850D02*
X014673Y006850D01*
X014673Y006928D02*
X015372Y006928D01*
X015385Y007005D02*
X014673Y007005D01*
X014673Y007082D02*
X015417Y007082D01*
X015454Y007159D02*
X014673Y007159D01*
X014673Y007237D02*
X015531Y007237D01*
X015647Y007314D02*
X014673Y007314D01*
X014280Y007314D02*
X013973Y007314D01*
X014017Y007237D02*
X014280Y007237D01*
X014280Y007159D02*
X014017Y007159D01*
X014017Y007005D02*
X014280Y007005D01*
X014280Y007082D02*
X013547Y007082D01*
X013547Y007005D02*
X013469Y007005D01*
X013469Y006928D02*
X013547Y006928D01*
X013547Y006850D02*
X013469Y006850D01*
X013469Y006773D02*
X013547Y006773D01*
X013547Y006696D02*
X013469Y006696D01*
X013469Y006619D02*
X013547Y006619D01*
X013788Y006619D02*
X014280Y006619D01*
X014280Y006696D02*
X013866Y006696D01*
X013943Y006773D02*
X014280Y006773D01*
X014280Y006850D02*
X014017Y006850D01*
X014017Y006928D02*
X014280Y006928D01*
X014280Y006541D02*
X012737Y006541D01*
X012814Y006619D02*
X013227Y006619D01*
X013150Y006696D02*
X012891Y006696D01*
X012969Y006773D02*
X013073Y006773D01*
X012279Y006541D02*
X010583Y006541D01*
X010583Y006619D02*
X012202Y006619D01*
X012124Y006696D02*
X010583Y006696D01*
X010583Y006773D02*
X012047Y006773D01*
X011980Y006850D02*
X010583Y006850D01*
X010583Y006928D02*
X011980Y006928D01*
X011980Y007005D02*
X010524Y007005D01*
X010447Y007082D02*
X011980Y007082D01*
X011980Y007159D02*
X010370Y007159D01*
X010292Y007237D02*
X011980Y007237D01*
X012017Y007314D02*
X008483Y007314D01*
X008405Y007237D02*
X008818Y007237D01*
X008741Y007159D02*
X008328Y007159D01*
X008251Y007082D02*
X008663Y007082D01*
X008586Y007005D02*
X008174Y007005D01*
X008096Y006928D02*
X008528Y006928D01*
X008528Y006850D02*
X008019Y006850D01*
X007942Y006773D02*
X008528Y006773D01*
X008528Y006696D02*
X007865Y006696D01*
X007787Y006619D02*
X008528Y006619D01*
X008528Y006541D02*
X007710Y006541D01*
X007633Y006464D02*
X008573Y006464D01*
X008650Y006387D02*
X007556Y006387D01*
X007478Y006310D02*
X008727Y006310D01*
X008804Y006233D02*
X007401Y006233D01*
X007324Y006155D02*
X008737Y006155D01*
X008659Y006078D02*
X007247Y006078D01*
X007169Y006001D02*
X008582Y006001D01*
X008528Y005924D02*
X007092Y005924D01*
X007015Y005846D02*
X008528Y005846D01*
X008528Y005769D02*
X006938Y005769D01*
X006861Y005692D02*
X008528Y005692D01*
X008528Y005615D02*
X006783Y005615D01*
X006706Y005537D02*
X008528Y005537D01*
X008577Y005460D02*
X006629Y005460D01*
X006552Y005383D02*
X006940Y005383D01*
X006862Y005306D02*
X006474Y005306D01*
X006397Y005228D02*
X006785Y005228D01*
X006708Y005151D02*
X006320Y005151D01*
X006243Y005074D02*
X006631Y005074D01*
X006553Y004997D02*
X006165Y004997D01*
X006088Y004919D02*
X006476Y004919D01*
X006399Y004842D02*
X006011Y004842D01*
X005934Y004765D02*
X006322Y004765D01*
X006244Y004688D02*
X005856Y004688D01*
X005779Y004610D02*
X006167Y004610D01*
X006090Y004533D02*
X005702Y004533D01*
X005625Y004456D02*
X006013Y004456D01*
X005936Y004379D02*
X005547Y004379D01*
X005421Y004531D02*
X004713Y004531D01*
X003689Y005555D01*
X003995Y005537D02*
X005559Y005537D01*
X005481Y005460D02*
X004062Y005460D01*
X004139Y005383D02*
X005162Y005383D01*
X005115Y005306D02*
X004216Y005306D01*
X004294Y005228D02*
X005115Y005228D01*
X005115Y005151D02*
X004371Y005151D01*
X004448Y005074D02*
X005115Y005074D01*
X005115Y004997D02*
X004525Y004997D01*
X004603Y004919D02*
X005115Y004919D01*
X005180Y004842D02*
X004680Y004842D01*
X004757Y004765D02*
X005377Y004765D01*
X005421Y004531D02*
X008453Y007562D01*
X012941Y007562D01*
X013437Y008059D01*
X013508Y008059D01*
X014035Y008086D02*
X014280Y008086D01*
X014280Y008009D02*
X014035Y008009D01*
X014035Y007932D02*
X014280Y007932D01*
X014280Y007855D02*
X014035Y007855D01*
X013973Y007777D02*
X014280Y007777D01*
X014280Y007700D02*
X013895Y007700D01*
X013818Y007623D02*
X014280Y007623D01*
X014280Y007546D02*
X013741Y007546D01*
X013818Y007468D02*
X014280Y007468D01*
X014280Y007391D02*
X013896Y007391D01*
X014035Y008164D02*
X014280Y008164D01*
X014280Y008241D02*
X014035Y008241D01*
X013994Y008318D02*
X014280Y008318D01*
X014271Y008395D02*
X013917Y008395D01*
X013840Y008472D02*
X014193Y008472D01*
X014116Y008550D02*
X013763Y008550D01*
X013822Y008627D02*
X014039Y008627D01*
X013962Y008704D02*
X013900Y008704D01*
X014287Y008936D02*
X015372Y008936D01*
X015372Y008973D02*
X015372Y008781D01*
X014441Y008781D01*
X014519Y008704D02*
X015404Y008704D01*
X015436Y008627D02*
X014596Y008627D01*
X014673Y008550D02*
X014083Y009140D01*
X014066Y009157D01*
X014761Y009852D01*
X014761Y009435D01*
X014853Y009343D01*
X015281Y009343D01*
X015373Y009435D01*
X015373Y009452D01*
X016330Y009452D01*
X016445Y009568D01*
X016445Y012127D01*
X016614Y012296D01*
X016839Y012296D01*
X016839Y011536D01*
X017517Y010858D01*
X017517Y010616D01*
X017609Y010524D01*
X018020Y010524D01*
X018020Y002759D01*
X015970Y002759D01*
X015576Y002366D01*
X014710Y002366D01*
X014408Y002063D01*
X014306Y002106D01*
X014096Y002106D01*
X013902Y002025D01*
X013754Y001877D01*
X013701Y001749D01*
X013648Y001877D01*
X013500Y002025D01*
X013306Y002106D01*
X013096Y002106D01*
X012902Y002025D01*
X012754Y001877D01*
X012701Y001749D01*
X012686Y001785D01*
X012705Y001804D01*
X012705Y003437D01*
X012722Y003437D01*
X012814Y003530D01*
X012814Y003958D01*
X012722Y004050D01*
X012294Y004050D01*
X012202Y003958D01*
X012202Y003530D01*
X012294Y003437D01*
X012311Y003437D01*
X012311Y002103D01*
X012306Y002106D01*
X012096Y002106D01*
X011902Y002025D01*
X011754Y001877D01*
X011673Y001683D01*
X011673Y001473D01*
X011754Y001279D01*
X011902Y001131D01*
X012096Y001051D01*
X012306Y001051D01*
X012500Y001131D01*
X012648Y001279D01*
X012701Y001407D01*
X012754Y001279D01*
X012902Y001131D01*
X013096Y001051D01*
X013151Y001051D01*
X013411Y000791D01*
X020463Y000791D01*
X020551Y000878D01*
X020793Y000878D01*
X020885Y000971D01*
X020885Y001381D01*
X022826Y001381D01*
X022941Y001497D01*
X025106Y003662D01*
X025106Y006418D01*
X025778Y007090D01*
X027359Y007090D01*
X027359Y007073D01*
X027451Y006981D01*
X027879Y006981D01*
X027972Y007073D01*
X027972Y007501D01*
X027879Y007593D01*
X027451Y007593D01*
X027359Y007501D01*
X027359Y007484D01*
X025615Y007484D01*
X024828Y006696D01*
X024713Y006581D01*
X024713Y003825D01*
X022663Y001775D01*
X019728Y001775D01*
X019728Y002013D01*
X019636Y002106D01*
X018766Y002106D01*
X018673Y002013D01*
X018673Y001816D01*
X018648Y001877D01*
X018500Y002025D01*
X018306Y002106D01*
X018096Y002106D01*
X017902Y002025D01*
X017754Y001877D01*
X017701Y001749D01*
X017648Y001877D01*
X017500Y002025D01*
X017306Y002106D01*
X017096Y002106D01*
X016902Y002025D01*
X016754Y001877D01*
X016701Y001749D01*
X016648Y001877D01*
X016500Y002025D01*
X016306Y002106D01*
X016096Y002106D01*
X015902Y002025D01*
X015754Y001877D01*
X015701Y001749D01*
X015648Y001877D01*
X015553Y001972D01*
X015739Y001972D01*
X015854Y002087D01*
X016133Y002366D01*
X018298Y002366D01*
X018413Y002481D01*
X018413Y009343D01*
X018824Y009343D01*
X018916Y009435D01*
X018916Y009452D01*
X027353Y009452D01*
X028819Y010918D01*
X029060Y010918D01*
X029153Y011010D01*
X029153Y011438D01*
X029060Y011530D01*
X028632Y011530D01*
X028540Y011438D01*
X028540Y011196D01*
X027190Y009846D01*
X018916Y009846D01*
X018916Y009863D01*
X018824Y009955D01*
X018413Y009955D01*
X018413Y012323D01*
X019004Y012914D01*
X019004Y013870D01*
X019021Y013870D01*
X019113Y013963D01*
X019113Y014256D01*
X019184Y014185D01*
X019612Y014185D01*
X019704Y014278D01*
X019704Y014570D01*
X025981Y014570D01*
X025981Y014553D01*
X026073Y014461D01*
X026501Y014461D01*
X026594Y014553D01*
X026594Y014981D01*
X026501Y015073D01*
X026073Y015073D01*
X025981Y014981D01*
X025981Y014964D01*
X019316Y014964D01*
X019201Y014849D01*
X019201Y014798D01*
X019184Y014798D01*
X019091Y014706D01*
X019091Y014412D01*
X019021Y014483D01*
X018593Y014483D01*
X018501Y014391D01*
X018501Y013963D01*
X018593Y013870D01*
X018610Y013870D01*
X018610Y013077D01*
X018135Y012602D01*
X018020Y012487D01*
X018020Y011136D01*
X017795Y011136D01*
X017232Y011699D01*
X017232Y013898D01*
X018807Y015473D01*
X019567Y016233D01*
X019808Y016233D01*
X019901Y016325D01*
X019901Y016753D01*
X019808Y016845D01*
X019507Y016845D01*
X019507Y017147D01*
X019415Y017239D01*
X018987Y017239D01*
X018895Y017147D01*
X018895Y016852D01*
X018461Y016274D01*
X016954Y014767D01*
X016363Y014767D01*
X014504Y012908D01*
X014262Y012908D01*
X014170Y012816D01*
X014170Y012388D01*
X014262Y012296D01*
X014690Y012296D01*
X014783Y012388D01*
X014783Y012630D01*
X016526Y014373D01*
X017117Y014373D01*
X017232Y014489D01*
X018703Y015960D01*
X018719Y015962D01*
X018759Y016016D01*
X018807Y016064D01*
X018807Y016080D01*
X019217Y016626D01*
X019288Y016626D01*
X019288Y016511D01*
X018529Y015751D01*
X016954Y014177D01*
X016839Y014061D01*
X016839Y012908D01*
X016428Y012908D01*
X016336Y012816D01*
X016336Y012574D01*
X016200Y012438D01*
X016200Y012855D01*
X016108Y012947D01*
X015601Y012947D01*
X015509Y012855D01*
X015509Y012348D01*
X015598Y012259D01*
X015598Y011873D01*
X015213Y011873D01*
X015123Y011963D01*
X014617Y011963D01*
X014527Y011873D01*
X013795Y011873D01*
X013050Y012618D01*
X013050Y012855D01*
X012958Y012947D01*
X012451Y012947D01*
X012359Y012855D01*
X012359Y012348D01*
X012451Y012256D01*
X012688Y012256D01*
X013472Y011473D01*
X013544Y011401D01*
X013638Y011362D01*
X014527Y011362D01*
X014617Y011272D01*
X015123Y011272D01*
X015213Y011362D01*
X015905Y011362D01*
X015999Y011401D01*
X016051Y011453D01*
X016051Y009846D01*
X015373Y009846D01*
X015373Y009863D01*
X015281Y009955D01*
X015106Y009955D01*
X015176Y010026D01*
X015176Y010454D01*
X015084Y010546D01*
X014656Y010546D01*
X014564Y010454D01*
X014564Y010212D01*
X013832Y009480D01*
X013726Y009586D01*
X013359Y009586D01*
X013405Y009632D01*
X013405Y010060D01*
X013312Y010152D01*
X013295Y010152D01*
X013295Y010518D01*
X013180Y010633D01*
X011917Y011896D01*
X011917Y015948D01*
X013186Y015948D01*
X013186Y015931D01*
X013278Y015839D01*
X013706Y015839D01*
X013798Y015931D01*
X013798Y016359D01*
X013706Y016451D01*
X013278Y016451D01*
X013186Y016359D01*
X013186Y016342D01*
X011639Y016342D01*
X011524Y016227D01*
X011524Y016197D02*
X005701Y016197D01*
X005702Y016208D02*
X005702Y016224D01*
X004752Y016224D01*
X004752Y015274D01*
X004768Y015274D01*
X004879Y015286D01*
X004987Y015311D01*
X005092Y015348D01*
X005192Y015396D01*
X005286Y015455D01*
X005373Y015524D01*
X005451Y015603D01*
X005521Y015690D01*
X005580Y015784D01*
X005628Y015884D01*
X005665Y015989D01*
X005690Y016097D01*
X005702Y016208D01*
X005692Y016119D02*
X011524Y016119D01*
X011524Y016042D02*
X005677Y016042D01*
X005656Y015965D02*
X011524Y015965D01*
X011524Y015888D02*
X005629Y015888D01*
X005593Y015810D02*
X011524Y015810D01*
X011524Y015733D02*
X005548Y015733D01*
X005494Y015656D02*
X011524Y015656D01*
X011524Y015579D02*
X005427Y015579D01*
X005344Y015501D02*
X011524Y015501D01*
X011524Y015424D02*
X005237Y015424D01*
X005089Y015347D02*
X011524Y015347D01*
X011524Y015270D02*
X001477Y015270D01*
X001477Y015347D02*
X004336Y015347D01*
X004188Y015424D02*
X001477Y015424D01*
X001477Y015501D02*
X004081Y015501D01*
X003998Y015579D02*
X001477Y015579D01*
X001477Y015656D02*
X003932Y015656D01*
X003877Y015733D02*
X001477Y015733D01*
X001477Y015810D02*
X003833Y015810D01*
X003796Y015888D02*
X001477Y015888D01*
X001477Y015965D02*
X003769Y015965D01*
X003748Y016042D02*
X001477Y016042D01*
X001477Y016119D02*
X003733Y016119D01*
X003724Y016197D02*
X001477Y016197D01*
X001477Y017201D02*
X003147Y017201D01*
X003002Y017278D02*
X001477Y017278D01*
X001477Y017355D02*
X002896Y017355D01*
X002814Y017432D02*
X001477Y017432D01*
X001477Y017510D02*
X002748Y017510D01*
X002694Y017587D02*
X001477Y017587D01*
X001477Y017664D02*
X002650Y017664D01*
X002614Y017741D02*
X001477Y017741D01*
X001477Y017819D02*
X002587Y017819D01*
X002566Y017896D02*
X001477Y017896D01*
X001477Y017973D02*
X002552Y017973D01*
X002543Y018050D02*
X001477Y018050D01*
X001477Y018128D02*
X003492Y018128D01*
X002596Y018436D02*
X001477Y018436D01*
X001477Y018359D02*
X002573Y018359D01*
X002555Y018282D02*
X001477Y018282D01*
X001477Y018205D02*
X002546Y018205D01*
X002626Y018514D02*
X001477Y018514D01*
X001477Y018591D02*
X002663Y018591D01*
X002711Y018668D02*
X001477Y018668D01*
X001477Y018745D02*
X002770Y018745D01*
X002841Y018823D02*
X001477Y018823D01*
X001477Y018900D02*
X002931Y018900D01*
X003046Y018977D02*
X001477Y018977D01*
X001477Y019054D02*
X003225Y019054D01*
X004061Y017278D02*
X005326Y017278D01*
X005406Y016969D02*
X015067Y016969D01*
X015067Y016892D02*
X005477Y016892D01*
X005535Y016814D02*
X015067Y016814D01*
X015067Y016737D02*
X005582Y016737D01*
X005620Y016660D02*
X015067Y016660D01*
X015067Y016583D02*
X005649Y016583D01*
X005672Y016505D02*
X015067Y016505D01*
X015027Y016428D02*
X013729Y016428D01*
X013798Y016351D02*
X014958Y016351D01*
X014958Y016274D02*
X013798Y016274D01*
X013798Y016197D02*
X014958Y016197D01*
X014958Y016119D02*
X013798Y016119D01*
X013798Y016042D02*
X014958Y016042D01*
X014958Y015965D02*
X013798Y015965D01*
X013755Y015888D02*
X015001Y015888D01*
X015264Y016145D02*
X015264Y016539D01*
X015264Y018507D01*
X015461Y018704D01*
X016248Y018704D01*
X017429Y018704D01*
X017626Y018507D01*
X022941Y018507D01*
X023925Y019492D01*
X026091Y019492D01*
X026169Y019413D01*
X026169Y018322D01*
X026681Y017810D01*
X026313Y017432D02*
X026049Y017432D01*
X025972Y017355D02*
X026391Y017355D01*
X026236Y017510D02*
X026126Y017510D01*
X025681Y017810D02*
X025181Y018310D01*
X023728Y018310D01*
X023531Y018114D01*
X017823Y018114D01*
X017626Y017917D01*
X017035Y017917D01*
X015657Y016539D01*
X015657Y016145D01*
X016051Y016145D02*
X016051Y016342D01*
X017429Y017720D01*
X024591Y017720D01*
X024681Y017810D01*
X024313Y017432D02*
X017420Y017432D01*
X017343Y017355D02*
X024391Y017355D01*
X024236Y017510D02*
X017497Y017510D01*
X017265Y017278D02*
X030626Y017278D01*
X030626Y017355D02*
X028946Y017355D01*
X029023Y017432D02*
X030626Y017432D01*
X030626Y017510D02*
X029101Y017510D01*
X029178Y017587D02*
X030626Y017587D01*
X030626Y017664D02*
X029190Y017664D01*
X029190Y017741D02*
X030626Y017741D01*
X030626Y017819D02*
X028720Y017819D01*
X028720Y017896D02*
X028642Y017896D01*
X028642Y017973D02*
X028720Y017973D01*
X028720Y018050D02*
X028642Y018050D01*
X028642Y018128D02*
X028720Y018128D01*
X028720Y018205D02*
X028642Y018205D01*
X028642Y018282D02*
X028720Y018282D01*
X028720Y018359D02*
X028642Y018359D01*
X028642Y018436D02*
X028720Y018436D01*
X028720Y018514D02*
X028642Y018514D01*
X028642Y018591D02*
X028720Y018591D01*
X028720Y018668D02*
X028642Y018668D01*
X028642Y018745D02*
X028720Y018745D01*
X028720Y018823D02*
X030626Y018823D01*
X030626Y018900D02*
X029190Y018900D01*
X029190Y018977D02*
X030626Y018977D01*
X030626Y019054D02*
X029158Y019054D01*
X029080Y019132D02*
X030626Y019132D01*
X030626Y019209D02*
X029003Y019209D01*
X028926Y019286D02*
X030626Y019286D01*
X030626Y019363D02*
X026366Y019363D01*
X026366Y019286D02*
X026411Y019286D01*
X026366Y019441D02*
X030626Y019441D01*
X030626Y019518D02*
X026343Y019518D01*
X026265Y019595D02*
X030626Y019595D01*
X030626Y019672D02*
X026188Y019672D01*
X026951Y019286D02*
X027411Y019286D01*
X027334Y019209D02*
X027029Y019209D01*
X027106Y019132D02*
X027256Y019132D01*
X027951Y019286D02*
X028436Y019286D01*
X028359Y019209D02*
X028029Y019209D01*
X028106Y019132D02*
X028282Y019132D01*
X028205Y019054D02*
X028183Y019054D01*
X028642Y019054D02*
X028720Y019054D01*
X028720Y018977D02*
X028642Y018977D01*
X028642Y018900D02*
X028720Y018900D01*
X028720Y019132D02*
X028642Y019132D01*
X028642Y019209D02*
X028720Y019209D01*
X028720Y019286D02*
X028642Y019286D01*
X029190Y018745D02*
X030626Y018745D01*
X030626Y018668D02*
X029190Y018668D01*
X029182Y018591D02*
X030626Y018591D01*
X030626Y018514D02*
X029105Y018514D01*
X029027Y018436D02*
X030626Y018436D01*
X030626Y018359D02*
X028950Y018359D01*
X028930Y018282D02*
X030626Y018282D01*
X030626Y018205D02*
X029007Y018205D01*
X029084Y018128D02*
X030626Y018128D01*
X030626Y018050D02*
X029162Y018050D01*
X029190Y017973D02*
X030626Y017973D01*
X030626Y017896D02*
X029190Y017896D01*
X028720Y017741D02*
X028642Y017741D01*
X028642Y017664D02*
X028720Y017664D01*
X028720Y017587D02*
X028642Y017587D01*
X028642Y017510D02*
X028720Y017510D01*
X028720Y017432D02*
X028642Y017432D01*
X028642Y017355D02*
X028720Y017355D01*
X028416Y017355D02*
X027972Y017355D01*
X028049Y017432D02*
X028339Y017432D01*
X028262Y017510D02*
X028126Y017510D01*
X027391Y017355D02*
X026972Y017355D01*
X027049Y017432D02*
X027313Y017432D01*
X027236Y017510D02*
X027126Y017510D01*
X025391Y017355D02*
X024972Y017355D01*
X025049Y017432D02*
X025313Y017432D01*
X025236Y017510D02*
X025126Y017510D01*
X024681Y018810D02*
X023835Y018810D01*
X023335Y018310D01*
X017429Y018310D01*
X016642Y018310D01*
X017304Y018977D02*
X018641Y018977D01*
X018564Y019054D02*
X017381Y019054D01*
X017436Y019132D02*
X017704Y019132D01*
X017609Y019209D02*
X017468Y019209D01*
X017500Y019286D02*
X017532Y019286D01*
X017512Y018900D02*
X018781Y018900D01*
X018509Y019132D02*
X018240Y019132D01*
X018336Y019209D02*
X018477Y019209D01*
X018445Y019286D02*
X018413Y019286D01*
X019164Y018900D02*
X020781Y018900D01*
X020641Y018977D02*
X019304Y018977D01*
X019381Y019054D02*
X020564Y019054D01*
X020509Y019132D02*
X020240Y019132D01*
X020336Y019209D02*
X020477Y019209D01*
X020445Y019286D02*
X020413Y019286D01*
X020500Y019672D02*
X020518Y019672D01*
X020478Y019750D02*
X020584Y019750D01*
X020662Y019827D02*
X020446Y019827D01*
X020406Y019904D02*
X020831Y019904D01*
X021114Y019904D02*
X030626Y019904D01*
X030626Y019827D02*
X021283Y019827D01*
X021360Y019750D02*
X030626Y019750D01*
X030626Y019981D02*
X020329Y019981D01*
X020224Y020059D02*
X030626Y020059D01*
X030626Y017201D02*
X019453Y017201D01*
X019507Y017123D02*
X030626Y017123D01*
X030626Y017046D02*
X019507Y017046D01*
X019507Y016969D02*
X030626Y016969D01*
X030626Y016892D02*
X019507Y016892D01*
X019201Y016933D02*
X018610Y016145D01*
X017035Y014570D01*
X016445Y014570D01*
X014476Y012602D01*
X014170Y012566D02*
X013102Y012566D01*
X013050Y012643D02*
X014170Y012643D01*
X014170Y012721D02*
X013050Y012721D01*
X013050Y012798D02*
X014170Y012798D01*
X014230Y012875D02*
X013030Y012875D01*
X013179Y012489D02*
X014170Y012489D01*
X014170Y012412D02*
X013257Y012412D01*
X013334Y012335D02*
X014224Y012335D01*
X014602Y011948D02*
X013720Y011948D01*
X013643Y012026D02*
X015598Y012026D01*
X015598Y012103D02*
X013566Y012103D01*
X013488Y012180D02*
X015598Y012180D01*
X015598Y012257D02*
X013411Y012257D01*
X012996Y011948D02*
X012652Y011948D01*
X012575Y012026D02*
X012919Y012026D01*
X012842Y012103D02*
X012498Y012103D01*
X012421Y012180D02*
X012765Y012180D01*
X012450Y012257D02*
X012343Y012257D01*
X012311Y012290D02*
X012311Y014964D01*
X013186Y014964D01*
X013186Y014947D01*
X013278Y014855D01*
X013706Y014855D01*
X013798Y014947D01*
X013798Y015375D01*
X013706Y015467D01*
X013278Y015467D01*
X013186Y015375D01*
X013186Y015358D01*
X012033Y015358D01*
X011917Y015242D01*
X011917Y012127D01*
X013295Y010749D01*
X013580Y010464D01*
X013580Y010223D01*
X013672Y010130D01*
X014100Y010130D01*
X014192Y010223D01*
X014192Y010650D01*
X014100Y010743D01*
X013858Y010743D01*
X013574Y011027D01*
X012311Y012290D01*
X012311Y012335D02*
X012373Y012335D01*
X012359Y012412D02*
X012311Y012412D01*
X012311Y012489D02*
X012359Y012489D01*
X012359Y012566D02*
X012311Y012566D01*
X012311Y012643D02*
X012359Y012643D01*
X012359Y012721D02*
X012311Y012721D01*
X012311Y012798D02*
X012359Y012798D01*
X012379Y012875D02*
X012311Y012875D01*
X012311Y012952D02*
X014549Y012952D01*
X014626Y013030D02*
X012311Y013030D01*
X012311Y013107D02*
X014703Y013107D01*
X014780Y013184D02*
X012311Y013184D01*
X012311Y013261D02*
X014858Y013261D01*
X014935Y013339D02*
X012311Y013339D01*
X012311Y013416D02*
X015012Y013416D01*
X015089Y013493D02*
X012311Y013493D01*
X012311Y013570D02*
X015167Y013570D01*
X015244Y013648D02*
X012311Y013648D01*
X012311Y013725D02*
X015321Y013725D01*
X015398Y013802D02*
X012311Y013802D01*
X012311Y013879D02*
X015475Y013879D01*
X015553Y013957D02*
X012311Y013957D01*
X012311Y014034D02*
X015630Y014034D01*
X015707Y014111D02*
X012311Y014111D01*
X012311Y014188D02*
X015784Y014188D01*
X015862Y014266D02*
X012311Y014266D01*
X012311Y014343D02*
X015939Y014343D01*
X016016Y014420D02*
X012311Y014420D01*
X012311Y014497D02*
X016093Y014497D01*
X016171Y014574D02*
X012311Y014574D01*
X012311Y014652D02*
X016248Y014652D01*
X016325Y014729D02*
X012311Y014729D01*
X012311Y014806D02*
X016993Y014806D01*
X017070Y014883D02*
X013735Y014883D01*
X013798Y014961D02*
X017147Y014961D01*
X017225Y015038D02*
X013798Y015038D01*
X013798Y015115D02*
X017302Y015115D01*
X017379Y015192D02*
X013798Y015192D01*
X013798Y015270D02*
X017456Y015270D01*
X017534Y015347D02*
X013798Y015347D01*
X013749Y015424D02*
X017611Y015424D01*
X017688Y015501D02*
X011917Y015501D01*
X011917Y015424D02*
X013235Y015424D01*
X013492Y015161D02*
X012114Y015161D01*
X012114Y012208D01*
X013492Y010830D01*
X013886Y010436D01*
X014192Y010403D02*
X014564Y010403D01*
X014564Y010326D02*
X014192Y010326D01*
X014192Y010249D02*
X014564Y010249D01*
X014524Y010172D02*
X014141Y010172D01*
X014369Y010017D02*
X013405Y010017D01*
X013405Y009940D02*
X014292Y009940D01*
X014215Y009863D02*
X013405Y009863D01*
X013405Y009786D02*
X014138Y009786D01*
X014060Y009708D02*
X013405Y009708D01*
X013404Y009631D02*
X013983Y009631D01*
X013906Y009554D02*
X013759Y009554D01*
X013180Y009477D02*
X012836Y009477D01*
X012870Y009554D02*
X012759Y009554D01*
X012793Y009631D02*
X001477Y009631D01*
X001477Y009554D02*
X012257Y009554D01*
X012180Y009477D02*
X001477Y009477D01*
X001477Y009399D02*
X012103Y009399D01*
X012026Y009322D02*
X001477Y009322D01*
X001477Y009245D02*
X009266Y009245D01*
X009189Y009168D02*
X001477Y009168D01*
X001477Y009090D02*
X009112Y009090D01*
X009035Y009013D02*
X001477Y009013D01*
X001477Y008936D02*
X008957Y008936D01*
X008880Y008859D02*
X001477Y008859D01*
X001477Y008781D02*
X008803Y008781D01*
X008726Y008704D02*
X001477Y008704D01*
X001477Y008627D02*
X008648Y008627D01*
X008571Y008550D02*
X001477Y008550D01*
X001477Y008472D02*
X008494Y008472D01*
X008417Y008395D02*
X001477Y008395D01*
X001477Y008318D02*
X007310Y008318D01*
X007587Y008074D02*
X004831Y008074D01*
X003453Y006499D01*
X003759Y006464D02*
X006486Y006464D01*
X006563Y006541D02*
X003759Y006541D01*
X003819Y006619D02*
X006640Y006619D01*
X006717Y006696D02*
X003886Y006696D01*
X003954Y006773D02*
X006795Y006773D01*
X006872Y006850D02*
X004021Y006850D01*
X004089Y006928D02*
X006949Y006928D01*
X007026Y007005D02*
X004157Y007005D01*
X004224Y007082D02*
X007104Y007082D01*
X007181Y007159D02*
X004292Y007159D01*
X004359Y007237D02*
X007258Y007237D01*
X007335Y007314D02*
X004427Y007314D01*
X004495Y007391D02*
X007412Y007391D01*
X007490Y007468D02*
X004562Y007468D01*
X004630Y007546D02*
X007567Y007546D01*
X007644Y007623D02*
X004697Y007623D01*
X004765Y007700D02*
X007721Y007700D01*
X007893Y007932D02*
X007953Y007932D01*
X007893Y008009D02*
X008030Y008009D01*
X008108Y008086D02*
X007893Y008086D01*
X007893Y008164D02*
X008185Y008164D01*
X008262Y008241D02*
X007893Y008241D01*
X007863Y008318D02*
X008339Y008318D01*
X007363Y007777D02*
X004832Y007777D01*
X004900Y007855D02*
X007286Y007855D01*
X009292Y007237D02*
X009818Y007237D01*
X009741Y007159D02*
X009370Y007159D01*
X009447Y007082D02*
X009663Y007082D01*
X009586Y007005D02*
X009524Y007005D01*
X010383Y006310D02*
X014280Y006310D01*
X014280Y006387D02*
X010460Y006387D01*
X010537Y006464D02*
X014280Y006464D01*
X014280Y006233D02*
X010306Y006233D01*
X010374Y006155D02*
X014280Y006155D01*
X014280Y006078D02*
X010451Y006078D01*
X010528Y006001D02*
X014245Y006001D01*
X014170Y005924D02*
X010583Y005924D01*
X010583Y005846D02*
X014170Y005846D01*
X014170Y005769D02*
X010583Y005769D01*
X010583Y005692D02*
X014170Y005692D01*
X014170Y005615D02*
X010583Y005615D01*
X010583Y005537D02*
X014170Y005537D01*
X014208Y005460D02*
X010533Y005460D01*
X010456Y005383D02*
X018020Y005383D01*
X018020Y005460D02*
X014745Y005460D01*
X014783Y005537D02*
X018020Y005537D01*
X018020Y005615D02*
X014783Y005615D01*
X014783Y005692D02*
X018020Y005692D01*
X018020Y005769D02*
X014783Y005769D01*
X014783Y005846D02*
X018020Y005846D01*
X018020Y005924D02*
X014783Y005924D01*
X014708Y006001D02*
X018020Y006001D01*
X018020Y006078D02*
X014673Y006078D01*
X014673Y006155D02*
X018020Y006155D01*
X018020Y006233D02*
X014673Y006233D01*
X014673Y006310D02*
X018020Y006310D01*
X018413Y006310D02*
X024713Y006310D01*
X024713Y006387D02*
X018413Y006387D01*
X018413Y006464D02*
X024713Y006464D01*
X024713Y006541D02*
X018413Y006541D01*
X018413Y006619D02*
X024750Y006619D01*
X024828Y006696D02*
X018413Y006696D01*
X018413Y006773D02*
X024905Y006773D01*
X024982Y006850D02*
X018413Y006850D01*
X018413Y006928D02*
X025059Y006928D01*
X025137Y007005D02*
X018413Y007005D01*
X018413Y007082D02*
X025214Y007082D01*
X025291Y007159D02*
X018413Y007159D01*
X018413Y007237D02*
X025368Y007237D01*
X025445Y007314D02*
X018413Y007314D01*
X018413Y007391D02*
X025523Y007391D01*
X025600Y007468D02*
X018413Y007468D01*
X018413Y007546D02*
X027404Y007546D01*
X027665Y007287D02*
X025697Y007287D01*
X024909Y006499D01*
X024909Y003744D01*
X022744Y001578D01*
X019201Y001578D01*
X019728Y001830D02*
X022717Y001830D01*
X022795Y001907D02*
X019728Y001907D01*
X019728Y001984D02*
X022872Y001984D01*
X022949Y002062D02*
X019680Y002062D01*
X018721Y002062D02*
X018412Y002062D01*
X018541Y001984D02*
X018673Y001984D01*
X018673Y001907D02*
X018618Y001907D01*
X018668Y001830D02*
X018673Y001830D01*
X017989Y002062D02*
X017412Y002062D01*
X017541Y001984D02*
X017861Y001984D01*
X017784Y001907D02*
X017618Y001907D01*
X017668Y001830D02*
X017734Y001830D01*
X017702Y001753D02*
X017700Y001753D01*
X016989Y002062D02*
X016412Y002062D01*
X016541Y001984D02*
X016861Y001984D01*
X016784Y001907D02*
X016618Y001907D01*
X016668Y001830D02*
X016734Y001830D01*
X016702Y001753D02*
X016700Y001753D01*
X015989Y002062D02*
X015829Y002062D01*
X015861Y001984D02*
X015751Y001984D01*
X015784Y001907D02*
X015618Y001907D01*
X015668Y001830D02*
X015734Y001830D01*
X015702Y001753D02*
X015700Y001753D01*
X015657Y002169D02*
X014791Y002169D01*
X014201Y001578D01*
X013989Y002062D02*
X013412Y002062D01*
X013541Y001984D02*
X013861Y001984D01*
X013784Y001907D02*
X013618Y001907D01*
X013668Y001830D02*
X013734Y001830D01*
X013702Y001753D02*
X013700Y001753D01*
X013201Y001578D02*
X013201Y001279D01*
X013492Y000988D01*
X020382Y000988D01*
X020579Y001185D01*
X020885Y001212D02*
X026048Y001212D01*
X026031Y001289D02*
X020885Y001289D01*
X020885Y001366D02*
X026031Y001366D01*
X026031Y001444D02*
X022888Y001444D01*
X022965Y001521D02*
X026036Y001521D01*
X026068Y001598D02*
X023042Y001598D01*
X023120Y001675D02*
X026100Y001675D01*
X026134Y001753D02*
X023197Y001753D01*
X023274Y001830D02*
X026211Y001830D01*
X026288Y001907D02*
X023351Y001907D01*
X023429Y001984D02*
X026439Y001984D01*
X026923Y001984D02*
X030626Y001984D01*
X030626Y001907D02*
X027074Y001907D01*
X027151Y001830D02*
X030626Y001830D01*
X030626Y001753D02*
X027229Y001753D01*
X027262Y001675D02*
X030626Y001675D01*
X030626Y001598D02*
X027294Y001598D01*
X027326Y001521D02*
X030626Y001521D01*
X030626Y001444D02*
X027331Y001444D01*
X027331Y001366D02*
X030626Y001366D01*
X030626Y001289D02*
X027331Y001289D01*
X027314Y001212D02*
X030626Y001212D01*
X030626Y001135D02*
X027282Y001135D01*
X027250Y001057D02*
X030626Y001057D01*
X030626Y000980D02*
X027199Y000980D01*
X027121Y000903D02*
X030626Y000903D01*
X030626Y000826D02*
X027037Y000826D01*
X026325Y000826D02*
X020498Y000826D01*
X020817Y000903D02*
X026241Y000903D01*
X026164Y000980D02*
X020885Y000980D01*
X020885Y001057D02*
X026112Y001057D01*
X026080Y001135D02*
X020885Y001135D01*
X023026Y002139D02*
X015906Y002139D01*
X015983Y002216D02*
X023104Y002216D01*
X023181Y002293D02*
X016060Y002293D01*
X016051Y002562D02*
X015657Y002169D01*
X015581Y002370D02*
X012705Y002370D01*
X012705Y002293D02*
X014637Y002293D01*
X014560Y002216D02*
X012705Y002216D01*
X012705Y002139D02*
X014483Y002139D01*
X015658Y002448D02*
X012705Y002448D01*
X012705Y002525D02*
X015735Y002525D01*
X015813Y002602D02*
X012705Y002602D01*
X012705Y002679D02*
X015890Y002679D01*
X015967Y002757D02*
X012705Y002757D01*
X012705Y002834D02*
X018020Y002834D01*
X018020Y002911D02*
X012705Y002911D01*
X012705Y002988D02*
X018020Y002988D01*
X018020Y003066D02*
X012705Y003066D01*
X012705Y003143D02*
X018020Y003143D01*
X018020Y003220D02*
X012705Y003220D01*
X012705Y003297D02*
X018020Y003297D01*
X018020Y003375D02*
X012705Y003375D01*
X012736Y003452D02*
X018020Y003452D01*
X018020Y003529D02*
X012814Y003529D01*
X012814Y003606D02*
X018020Y003606D01*
X018020Y003684D02*
X012814Y003684D01*
X012814Y003761D02*
X018020Y003761D01*
X018020Y003838D02*
X012814Y003838D01*
X012814Y003915D02*
X018020Y003915D01*
X018020Y003993D02*
X012779Y003993D01*
X012237Y003993D02*
X010536Y003993D01*
X010583Y003915D02*
X012202Y003915D01*
X012202Y003838D02*
X010583Y003838D01*
X010583Y003761D02*
X012202Y003761D01*
X012202Y003684D02*
X010583Y003684D01*
X010583Y003606D02*
X010669Y003606D01*
X010627Y003529D02*
X010583Y003529D01*
X010627Y003452D02*
X010525Y003452D01*
X010448Y003375D02*
X010627Y003375D01*
X010602Y003297D02*
X010371Y003297D01*
X010293Y003220D02*
X010539Y003220D01*
X010539Y003143D02*
X010360Y003143D01*
X010438Y003066D02*
X010539Y003066D01*
X010539Y002988D02*
X010515Y002988D01*
X010736Y003153D02*
X010736Y001775D01*
X010343Y001381D01*
X003256Y001381D01*
X003059Y001578D01*
X003059Y005712D01*
X003059Y005909D01*
X002753Y005924D02*
X001477Y005924D01*
X001477Y006001D02*
X002753Y006001D01*
X002753Y006078D02*
X001477Y006078D01*
X001477Y006155D02*
X002785Y006155D01*
X002753Y005846D02*
X001477Y005846D01*
X001477Y005769D02*
X002753Y005769D01*
X002756Y005692D02*
X001477Y005692D01*
X001477Y005615D02*
X002833Y005615D01*
X002862Y005537D02*
X001477Y005537D01*
X001477Y005460D02*
X002862Y005460D01*
X002862Y005383D02*
X001477Y005383D01*
X001477Y005306D02*
X002862Y005306D01*
X002862Y005228D02*
X001477Y005228D01*
X001477Y005151D02*
X002862Y005151D01*
X002862Y005074D02*
X001477Y005074D01*
X001477Y004997D02*
X002862Y004997D01*
X002862Y004919D02*
X001477Y004919D01*
X001477Y004842D02*
X002862Y004842D01*
X002862Y004765D02*
X001477Y004765D01*
X001477Y004688D02*
X002862Y004688D01*
X002862Y004610D02*
X001477Y004610D01*
X001477Y004533D02*
X002862Y004533D01*
X002862Y004456D02*
X001477Y004456D01*
X001477Y004379D02*
X002862Y004379D01*
X002862Y004302D02*
X001477Y004302D01*
X001477Y004224D02*
X002862Y004224D01*
X002862Y004147D02*
X001477Y004147D01*
X001477Y004070D02*
X002862Y004070D01*
X002862Y003993D02*
X001477Y003993D01*
X001477Y003915D02*
X002862Y003915D01*
X002862Y003838D02*
X001477Y003838D01*
X001477Y003761D02*
X002862Y003761D01*
X002862Y003684D02*
X001477Y003684D01*
X001477Y003606D02*
X002862Y003606D01*
X002862Y003529D02*
X001477Y003529D01*
X001477Y003452D02*
X002862Y003452D01*
X002862Y003375D02*
X001477Y003375D01*
X001477Y003297D02*
X002862Y003297D01*
X002862Y003220D02*
X001477Y003220D01*
X001477Y003143D02*
X002862Y003143D01*
X002862Y003066D02*
X001477Y003066D01*
X001477Y002988D02*
X002862Y002988D01*
X002862Y002911D02*
X001477Y002911D01*
X001477Y002834D02*
X002862Y002834D01*
X002862Y002757D02*
X001477Y002757D01*
X001477Y002679D02*
X002862Y002679D01*
X002862Y002602D02*
X001477Y002602D01*
X001477Y002525D02*
X002862Y002525D01*
X002862Y002448D02*
X001477Y002448D01*
X001477Y002370D02*
X002862Y002370D01*
X002862Y002293D02*
X001477Y002293D01*
X001477Y002216D02*
X002862Y002216D01*
X002862Y002139D02*
X001477Y002139D01*
X001477Y002062D02*
X002862Y002062D01*
X002862Y001984D02*
X001477Y001984D01*
X001477Y001907D02*
X002862Y001907D01*
X002862Y001830D02*
X001477Y001830D01*
X001477Y001753D02*
X002862Y001753D01*
X002862Y001675D02*
X001477Y001675D01*
X001477Y001598D02*
X002862Y001598D01*
X002862Y001521D02*
X001477Y001521D01*
X001477Y001444D02*
X002915Y001444D01*
X002993Y001366D02*
X001477Y001366D01*
X001477Y001289D02*
X003070Y001289D01*
X003147Y001212D02*
X001477Y001212D01*
X001477Y001135D02*
X011898Y001135D01*
X011821Y001212D02*
X010451Y001212D01*
X010529Y001289D02*
X011750Y001289D01*
X011718Y001366D02*
X010606Y001366D01*
X010683Y001444D02*
X011686Y001444D01*
X011673Y001521D02*
X010760Y001521D01*
X010838Y001598D02*
X011673Y001598D01*
X011673Y001675D02*
X010915Y001675D01*
X010933Y001753D02*
X011702Y001753D01*
X011734Y001830D02*
X010933Y001830D01*
X010933Y001907D02*
X011784Y001907D01*
X011861Y001984D02*
X010933Y001984D01*
X010933Y002062D02*
X011989Y002062D01*
X012311Y002139D02*
X010933Y002139D01*
X010933Y002216D02*
X012311Y002216D01*
X012311Y002293D02*
X010933Y002293D01*
X010933Y002370D02*
X012311Y002370D01*
X012311Y002448D02*
X010933Y002448D01*
X010933Y002525D02*
X012311Y002525D01*
X012311Y002602D02*
X010933Y002602D01*
X010933Y002679D02*
X012311Y002679D01*
X012311Y002757D02*
X010933Y002757D01*
X010933Y002834D02*
X012311Y002834D01*
X012311Y002911D02*
X010933Y002911D01*
X010933Y002988D02*
X012311Y002988D01*
X012311Y003066D02*
X011169Y003066D01*
X011239Y003143D02*
X012311Y003143D01*
X012311Y003220D02*
X011239Y003220D01*
X011239Y003297D02*
X012311Y003297D01*
X012311Y003375D02*
X011239Y003375D01*
X011239Y003452D02*
X012279Y003452D01*
X012202Y003529D02*
X011239Y003529D01*
X011197Y003606D02*
X012202Y003606D01*
X012508Y003744D02*
X012508Y001885D01*
X012201Y001578D01*
X012580Y001212D02*
X012821Y001212D01*
X012750Y001289D02*
X012652Y001289D01*
X012684Y001366D02*
X012718Y001366D01*
X012898Y001135D02*
X012503Y001135D01*
X012322Y001057D02*
X013080Y001057D01*
X013221Y000980D02*
X001477Y000980D01*
X001477Y000903D02*
X013298Y000903D01*
X013376Y000826D02*
X001477Y000826D01*
X001477Y001057D02*
X012080Y001057D01*
X012700Y001753D02*
X012702Y001753D01*
X012705Y001830D02*
X012734Y001830D01*
X012705Y001907D02*
X012784Y001907D01*
X012861Y001984D02*
X012705Y001984D01*
X012705Y002062D02*
X012989Y002062D01*
X010933Y003350D02*
X010736Y003153D01*
X010094Y002688D02*
X010094Y002218D01*
X010266Y002218D01*
X010539Y002492D01*
X010539Y001857D01*
X010261Y001578D01*
X003337Y001578D01*
X003256Y001660D01*
X003256Y003302D01*
X003278Y003280D01*
X003706Y003280D01*
X003798Y003372D01*
X003798Y003389D01*
X005503Y003389D01*
X007156Y005043D01*
X008624Y005043D01*
X008528Y004946D01*
X008528Y004509D01*
X008809Y004228D01*
X008528Y003946D01*
X008528Y003509D01*
X008809Y003228D01*
X008528Y002946D01*
X008528Y002509D01*
X008837Y002200D01*
X009274Y002200D01*
X009568Y002495D01*
X009844Y002218D01*
X010016Y002218D01*
X010016Y002688D01*
X010094Y002688D01*
X010094Y002679D02*
X010016Y002679D01*
X010016Y002602D02*
X010094Y002602D01*
X010094Y002525D02*
X010016Y002525D01*
X010016Y002448D02*
X010094Y002448D01*
X010094Y002370D02*
X010016Y002370D01*
X010016Y002293D02*
X010094Y002293D01*
X010341Y002293D02*
X010539Y002293D01*
X010539Y002216D02*
X009289Y002216D01*
X009367Y002293D02*
X009769Y002293D01*
X009692Y002370D02*
X009444Y002370D01*
X009521Y002448D02*
X009615Y002448D01*
X008821Y002216D02*
X003256Y002216D01*
X003256Y002139D02*
X010539Y002139D01*
X010539Y002062D02*
X003256Y002062D01*
X003256Y001984D02*
X010539Y001984D01*
X010539Y001907D02*
X003256Y001907D01*
X003256Y001830D02*
X010513Y001830D01*
X010435Y001753D02*
X003256Y001753D01*
X003256Y001675D02*
X010358Y001675D01*
X010281Y001598D02*
X003318Y001598D01*
X003256Y002293D02*
X008744Y002293D01*
X008666Y002370D02*
X003256Y002370D01*
X003256Y002448D02*
X008589Y002448D01*
X008528Y002525D02*
X003256Y002525D01*
X003256Y002602D02*
X008528Y002602D01*
X008528Y002679D02*
X003256Y002679D01*
X003256Y002757D02*
X008528Y002757D01*
X008528Y002834D02*
X003256Y002834D01*
X003256Y002911D02*
X008528Y002911D01*
X008570Y002988D02*
X003256Y002988D01*
X003256Y003066D02*
X008647Y003066D01*
X008724Y003143D02*
X003256Y003143D01*
X003256Y003220D02*
X008801Y003220D01*
X008740Y003297D02*
X003724Y003297D01*
X003798Y003375D02*
X008662Y003375D01*
X008585Y003452D02*
X005565Y003452D01*
X005643Y003529D02*
X008528Y003529D01*
X008528Y003606D02*
X005720Y003606D01*
X005797Y003684D02*
X008528Y003684D01*
X008528Y003761D02*
X005874Y003761D01*
X005952Y003838D02*
X008528Y003838D01*
X008528Y003915D02*
X006029Y003915D01*
X006106Y003993D02*
X008574Y003993D01*
X008651Y004070D02*
X006183Y004070D01*
X006261Y004147D02*
X008728Y004147D01*
X008806Y004224D02*
X006338Y004224D01*
X006415Y004302D02*
X008735Y004302D01*
X008658Y004379D02*
X006492Y004379D01*
X006570Y004456D02*
X008581Y004456D01*
X008528Y004533D02*
X006647Y004533D01*
X006724Y004610D02*
X008528Y004610D01*
X008528Y004688D02*
X006801Y004688D01*
X006879Y004765D02*
X008528Y004765D01*
X008528Y004842D02*
X006956Y004842D01*
X007033Y004919D02*
X008528Y004919D01*
X008578Y004997D02*
X007110Y004997D01*
X007114Y005240D02*
X007075Y005240D01*
X005421Y003586D01*
X003492Y003586D01*
X003760Y003838D02*
X005395Y003838D01*
X005472Y003915D02*
X003256Y003915D01*
X003256Y003993D02*
X005549Y003993D01*
X005627Y004070D02*
X003256Y004070D01*
X003256Y004147D02*
X005704Y004147D01*
X005781Y004224D02*
X003256Y004224D01*
X003256Y004302D02*
X005858Y004302D01*
X005421Y005122D02*
X009358Y009059D01*
X012508Y009059D01*
X012913Y009399D02*
X013103Y009399D01*
X013026Y009322D02*
X012990Y009322D01*
X012792Y009708D02*
X001477Y009708D01*
X001477Y009786D02*
X012792Y009786D01*
X012792Y009863D02*
X001477Y009863D01*
X001477Y009940D02*
X012792Y009940D01*
X012792Y010017D02*
X001477Y010017D01*
X001477Y010095D02*
X012827Y010095D01*
X012902Y010172D02*
X001477Y010172D01*
X001477Y010249D02*
X012902Y010249D01*
X012902Y010326D02*
X001477Y010326D01*
X001477Y010403D02*
X012853Y010403D01*
X012776Y010481D02*
X001477Y010481D01*
X001477Y010558D02*
X012699Y010558D01*
X012621Y010635D02*
X001477Y010635D01*
X001477Y010712D02*
X012544Y010712D01*
X012467Y010790D02*
X001477Y010790D01*
X001477Y010867D02*
X012390Y010867D01*
X012312Y010944D02*
X001477Y010944D01*
X001477Y011021D02*
X012235Y011021D01*
X012158Y011099D02*
X001477Y011099D01*
X001477Y011176D02*
X012081Y011176D01*
X012003Y011253D02*
X001477Y011253D01*
X001477Y011330D02*
X011926Y011330D01*
X011849Y011408D02*
X001477Y011408D01*
X001477Y011485D02*
X011772Y011485D01*
X011694Y011562D02*
X001477Y011562D01*
X001477Y011639D02*
X011617Y011639D01*
X011540Y011717D02*
X001477Y011717D01*
X001477Y011794D02*
X011524Y011794D01*
X011524Y011871D02*
X001477Y011871D01*
X001477Y011948D02*
X011524Y011948D01*
X011524Y012026D02*
X001477Y012026D01*
X001477Y012103D02*
X011524Y012103D01*
X011524Y012180D02*
X001477Y012180D01*
X001477Y012257D02*
X011524Y012257D01*
X011524Y012335D02*
X001477Y012335D01*
X001477Y012412D02*
X011524Y012412D01*
X011524Y012489D02*
X001477Y012489D01*
X001477Y012566D02*
X011524Y012566D01*
X011524Y012643D02*
X001477Y012643D01*
X001477Y012721D02*
X011524Y012721D01*
X011524Y012798D02*
X001477Y012798D01*
X001477Y012875D02*
X011524Y012875D01*
X011524Y012952D02*
X001477Y012952D01*
X001477Y013030D02*
X011524Y013030D01*
X011524Y013107D02*
X001477Y013107D01*
X001477Y013184D02*
X011524Y013184D01*
X011524Y013261D02*
X001477Y013261D01*
X001477Y013339D02*
X011524Y013339D01*
X011524Y013416D02*
X001477Y013416D01*
X001477Y013493D02*
X011524Y013493D01*
X011524Y013570D02*
X001477Y013570D01*
X001477Y013648D02*
X011524Y013648D01*
X011524Y013725D02*
X001477Y013725D01*
X001477Y013802D02*
X011524Y013802D01*
X011524Y013879D02*
X001477Y013879D01*
X001477Y013957D02*
X011524Y013957D01*
X011524Y014034D02*
X001477Y014034D01*
X001477Y014111D02*
X011524Y014111D01*
X011524Y014188D02*
X001477Y014188D01*
X001477Y014266D02*
X011524Y014266D01*
X011524Y014343D02*
X001477Y014343D01*
X001477Y014420D02*
X011524Y014420D01*
X011524Y014497D02*
X001477Y014497D01*
X001477Y014574D02*
X011524Y014574D01*
X011524Y014652D02*
X001477Y014652D01*
X001477Y014729D02*
X011524Y014729D01*
X011524Y014806D02*
X001477Y014806D01*
X001477Y014883D02*
X011524Y014883D01*
X011524Y014961D02*
X001477Y014961D01*
X001477Y015038D02*
X011524Y015038D01*
X011524Y015115D02*
X001477Y015115D01*
X001477Y015192D02*
X011524Y015192D01*
X011917Y015192D02*
X011917Y015192D01*
X011917Y015115D02*
X011917Y015115D01*
X011917Y015038D02*
X011917Y015038D01*
X011917Y014961D02*
X011917Y014961D01*
X011917Y014883D02*
X011917Y014883D01*
X011917Y014806D02*
X011917Y014806D01*
X011917Y014729D02*
X011917Y014729D01*
X011917Y014652D02*
X011917Y014652D01*
X011917Y014574D02*
X011917Y014574D01*
X011917Y014497D02*
X011917Y014497D01*
X011917Y014420D02*
X011917Y014420D01*
X011917Y014343D02*
X011917Y014343D01*
X011917Y014266D02*
X011917Y014266D01*
X011917Y014188D02*
X011917Y014188D01*
X011917Y014111D02*
X011917Y014111D01*
X011917Y014034D02*
X011917Y014034D01*
X011917Y013957D02*
X011917Y013957D01*
X011917Y013879D02*
X011917Y013879D01*
X011917Y013802D02*
X011917Y013802D01*
X011917Y013725D02*
X011917Y013725D01*
X011917Y013648D02*
X011917Y013648D01*
X011917Y013570D02*
X011917Y013570D01*
X011917Y013493D02*
X011917Y013493D01*
X011917Y013416D02*
X011917Y013416D01*
X011917Y013339D02*
X011917Y013339D01*
X011917Y013261D02*
X011917Y013261D01*
X011917Y013184D02*
X011917Y013184D01*
X011917Y013107D02*
X011917Y013107D01*
X011917Y013030D02*
X011917Y013030D01*
X011917Y012952D02*
X011917Y012952D01*
X011917Y012875D02*
X011917Y012875D01*
X011917Y012798D02*
X011917Y012798D01*
X011917Y012721D02*
X011917Y012721D01*
X011917Y012643D02*
X011917Y012643D01*
X011917Y012566D02*
X011917Y012566D01*
X011917Y012489D02*
X011917Y012489D01*
X011917Y012412D02*
X011917Y012412D01*
X011917Y012335D02*
X011917Y012335D01*
X011917Y012257D02*
X011917Y012257D01*
X011917Y012180D02*
X011917Y012180D01*
X011917Y012103D02*
X011941Y012103D01*
X011917Y012026D02*
X012018Y012026D01*
X012096Y011948D02*
X011917Y011948D01*
X011942Y011871D02*
X012173Y011871D01*
X012250Y011794D02*
X012019Y011794D01*
X012097Y011717D02*
X012327Y011717D01*
X012405Y011639D02*
X012174Y011639D01*
X012251Y011562D02*
X012482Y011562D01*
X012559Y011485D02*
X012328Y011485D01*
X012406Y011408D02*
X012636Y011408D01*
X012714Y011330D02*
X012483Y011330D01*
X012560Y011253D02*
X012791Y011253D01*
X012868Y011176D02*
X012637Y011176D01*
X012715Y011099D02*
X012945Y011099D01*
X013023Y011021D02*
X012792Y011021D01*
X012869Y010944D02*
X013100Y010944D01*
X013177Y010867D02*
X012946Y010867D01*
X013024Y010790D02*
X013254Y010790D01*
X013331Y010712D02*
X013101Y010712D01*
X013178Y010635D02*
X013409Y010635D01*
X013486Y010558D02*
X013255Y010558D01*
X013295Y010481D02*
X013563Y010481D01*
X013580Y010403D02*
X013295Y010403D01*
X013295Y010326D02*
X013580Y010326D01*
X013580Y010249D02*
X013295Y010249D01*
X013295Y010172D02*
X013630Y010172D01*
X013370Y010095D02*
X014447Y010095D01*
X014870Y010240D02*
X013689Y009059D01*
X013508Y009059D01*
X013886Y009059D01*
X014476Y008468D01*
X014476Y005712D01*
X018020Y005306D02*
X010379Y005306D01*
X010302Y005228D02*
X018020Y005228D01*
X018020Y005151D02*
X010378Y005151D01*
X010455Y005074D02*
X018020Y005074D01*
X018020Y004997D02*
X010532Y004997D01*
X010583Y004919D02*
X018020Y004919D01*
X018020Y004842D02*
X010583Y004842D01*
X010583Y004765D02*
X018020Y004765D01*
X018020Y004688D02*
X010583Y004688D01*
X010583Y004610D02*
X018020Y004610D01*
X018020Y004533D02*
X010583Y004533D01*
X010529Y004456D02*
X018020Y004456D01*
X018020Y004379D02*
X010452Y004379D01*
X010375Y004302D02*
X018020Y004302D01*
X018020Y004224D02*
X010305Y004224D01*
X010382Y004147D02*
X018020Y004147D01*
X018020Y004070D02*
X010459Y004070D01*
X009358Y005240D02*
X007114Y005240D01*
X006022Y006001D02*
X003365Y006001D01*
X003365Y006078D02*
X006099Y006078D01*
X006177Y006155D02*
X003333Y006155D01*
X003200Y006233D02*
X001477Y006233D01*
X001477Y006310D02*
X003147Y006310D01*
X003147Y006387D02*
X001477Y006387D01*
X001477Y006464D02*
X003147Y006464D01*
X003147Y006541D02*
X001477Y006541D01*
X001477Y006619D02*
X003147Y006619D01*
X003147Y006696D02*
X001477Y006696D01*
X001477Y006773D02*
X003206Y006773D01*
X003498Y006850D02*
X001477Y006850D01*
X001477Y006928D02*
X003566Y006928D01*
X003633Y007005D02*
X001477Y007005D01*
X001477Y007082D02*
X003701Y007082D01*
X003769Y007159D02*
X001477Y007159D01*
X001477Y007237D02*
X003836Y007237D01*
X003904Y007314D02*
X001477Y007314D01*
X001477Y007391D02*
X003971Y007391D01*
X004039Y007468D02*
X001477Y007468D01*
X001477Y007546D02*
X004107Y007546D01*
X004174Y007623D02*
X001477Y007623D01*
X001477Y007700D02*
X004242Y007700D01*
X004309Y007777D02*
X001477Y007777D01*
X001477Y007855D02*
X004377Y007855D01*
X004444Y007932D02*
X001477Y007932D01*
X001477Y008009D02*
X004512Y008009D01*
X004580Y008086D02*
X001477Y008086D01*
X001477Y008164D02*
X004642Y008164D01*
X004715Y008241D02*
X001477Y008241D01*
X003759Y006387D02*
X006408Y006387D01*
X006331Y006310D02*
X003759Y006310D01*
X003706Y006233D02*
X006254Y006233D01*
X005945Y005924D02*
X003365Y005924D01*
X003365Y005846D02*
X003461Y005846D01*
X003383Y005692D02*
X003362Y005692D01*
X003383Y005615D02*
X003285Y005615D01*
X003256Y005537D02*
X003383Y005537D01*
X003383Y005460D02*
X003256Y005460D01*
X003256Y005383D02*
X003383Y005383D01*
X003418Y005306D02*
X003256Y005306D01*
X003256Y005228D02*
X003737Y005228D01*
X003814Y005151D02*
X003256Y005151D01*
X003256Y005074D02*
X003891Y005074D01*
X003969Y004997D02*
X003256Y004997D01*
X003256Y004919D02*
X004046Y004919D01*
X004123Y004842D02*
X003256Y004842D01*
X003256Y004765D02*
X004200Y004765D01*
X004277Y004688D02*
X003256Y004688D01*
X003256Y004610D02*
X004355Y004610D01*
X004432Y004533D02*
X003256Y004533D01*
X003256Y004456D02*
X004509Y004456D01*
X004586Y004379D02*
X003256Y004379D01*
X003256Y003297D02*
X003261Y003297D01*
X003995Y005615D02*
X005636Y005615D01*
X005868Y005846D02*
X003917Y005846D01*
X009358Y005240D02*
X009846Y005728D01*
X010055Y005728D01*
X014673Y008472D02*
X015577Y008472D01*
X015445Y008604D02*
X015372Y008781D01*
X015372Y008859D02*
X014364Y008859D01*
X014210Y009013D02*
X015388Y009013D01*
X015372Y008973D02*
X015445Y009151D01*
X015581Y009286D01*
X015758Y009360D01*
X015950Y009360D01*
X016128Y009286D01*
X016263Y009151D01*
X016337Y008973D01*
X016337Y008781D01*
X016337Y008859D02*
X018020Y008859D01*
X018020Y008936D02*
X016337Y008936D01*
X016320Y009013D02*
X018020Y009013D01*
X018020Y009090D02*
X016288Y009090D01*
X016246Y009168D02*
X018020Y009168D01*
X018020Y009245D02*
X016169Y009245D01*
X016042Y009322D02*
X018020Y009322D01*
X018020Y009399D02*
X015337Y009399D01*
X015539Y009245D02*
X014154Y009245D01*
X014231Y009322D02*
X015667Y009322D01*
X015462Y009168D02*
X014076Y009168D01*
X014132Y009090D02*
X015420Y009090D01*
X014796Y009399D02*
X014308Y009399D01*
X014385Y009477D02*
X014761Y009477D01*
X014761Y009554D02*
X014463Y009554D01*
X014540Y009631D02*
X014761Y009631D01*
X014761Y009708D02*
X014617Y009708D01*
X014694Y009786D02*
X014761Y009786D01*
X015067Y009649D02*
X016248Y009649D01*
X016248Y012208D01*
X016642Y012602D01*
X016336Y012643D02*
X016200Y012643D01*
X016200Y012566D02*
X016328Y012566D01*
X016250Y012489D02*
X016200Y012489D01*
X016200Y012721D02*
X016336Y012721D01*
X016336Y012798D02*
X016200Y012798D01*
X016180Y012875D02*
X016395Y012875D01*
X016839Y012952D02*
X015105Y012952D01*
X015028Y012875D02*
X015529Y012875D01*
X015509Y012798D02*
X014951Y012798D01*
X014874Y012721D02*
X015509Y012721D01*
X015509Y012643D02*
X014796Y012643D01*
X014783Y012566D02*
X015509Y012566D01*
X015509Y012489D02*
X014783Y012489D01*
X014783Y012412D02*
X015509Y012412D01*
X015523Y012335D02*
X014729Y012335D01*
X015138Y011948D02*
X015598Y011948D01*
X016006Y011408D02*
X016051Y011408D01*
X016051Y011330D02*
X015182Y011330D01*
X014558Y011330D02*
X013270Y011330D01*
X013348Y011253D02*
X016051Y011253D01*
X016051Y011176D02*
X013425Y011176D01*
X013502Y011099D02*
X016051Y011099D01*
X016051Y011021D02*
X013579Y011021D01*
X013657Y010944D02*
X016051Y010944D01*
X016051Y010867D02*
X013734Y010867D01*
X013811Y010790D02*
X016051Y010790D01*
X016051Y010712D02*
X014130Y010712D01*
X014192Y010635D02*
X016051Y010635D01*
X016051Y010558D02*
X014192Y010558D01*
X014192Y010481D02*
X014591Y010481D01*
X015149Y010481D02*
X016051Y010481D01*
X016051Y010403D02*
X015176Y010403D01*
X015176Y010326D02*
X016051Y010326D01*
X016051Y010249D02*
X015176Y010249D01*
X015176Y010172D02*
X016051Y010172D01*
X016051Y010095D02*
X015176Y010095D01*
X015168Y010017D02*
X016051Y010017D01*
X016051Y009940D02*
X015296Y009940D01*
X015373Y009863D02*
X016051Y009863D01*
X016445Y009863D02*
X018020Y009863D01*
X018020Y009940D02*
X016445Y009940D01*
X016445Y010017D02*
X018020Y010017D01*
X018020Y010095D02*
X016445Y010095D01*
X016445Y010172D02*
X018020Y010172D01*
X018020Y010249D02*
X016445Y010249D01*
X016445Y010326D02*
X018020Y010326D01*
X018020Y010403D02*
X016445Y010403D01*
X016445Y010481D02*
X018020Y010481D01*
X018413Y010481D02*
X019858Y010481D01*
X019839Y010528D02*
X019919Y010335D01*
X020067Y010186D01*
X020261Y010106D01*
X020471Y010106D01*
X020665Y010186D01*
X020813Y010335D01*
X020866Y010462D01*
X020919Y010335D01*
X021067Y010186D01*
X021261Y010106D01*
X021471Y010106D01*
X021665Y010186D01*
X021813Y010335D01*
X021894Y010528D01*
X021894Y010738D01*
X021813Y010932D01*
X021665Y011081D01*
X021471Y011161D01*
X021261Y011161D01*
X021067Y011081D01*
X020919Y010932D01*
X020866Y010805D01*
X020813Y010932D01*
X020665Y011081D01*
X020471Y011161D01*
X020261Y011161D01*
X020067Y011081D01*
X019919Y010932D01*
X019839Y010738D01*
X019839Y010528D01*
X019839Y010558D02*
X018413Y010558D01*
X018413Y010635D02*
X019839Y010635D01*
X019839Y010712D02*
X018413Y010712D01*
X018413Y010790D02*
X019860Y010790D01*
X019892Y010867D02*
X018413Y010867D01*
X018413Y010944D02*
X019931Y010944D01*
X020008Y011021D02*
X018413Y011021D01*
X018413Y011099D02*
X020111Y011099D01*
X020621Y011099D02*
X021111Y011099D01*
X021008Y011021D02*
X020724Y011021D01*
X020801Y010944D02*
X020931Y010944D01*
X020892Y010867D02*
X020840Y010867D01*
X020842Y010403D02*
X020890Y010403D01*
X020927Y010326D02*
X020805Y010326D01*
X020728Y010249D02*
X021004Y010249D01*
X021102Y010172D02*
X020630Y010172D01*
X020102Y010172D02*
X018413Y010172D01*
X018413Y010249D02*
X020004Y010249D01*
X019927Y010326D02*
X018413Y010326D01*
X018413Y010403D02*
X019890Y010403D01*
X018916Y009863D02*
X027207Y009863D01*
X027284Y009940D02*
X018839Y009940D01*
X018610Y009649D02*
X027272Y009649D01*
X028846Y011224D01*
X028540Y011253D02*
X018413Y011253D01*
X018413Y011176D02*
X028520Y011176D01*
X028443Y011099D02*
X021621Y011099D01*
X021724Y011021D02*
X028366Y011021D01*
X028288Y010944D02*
X021801Y010944D01*
X021840Y010867D02*
X028211Y010867D01*
X028134Y010790D02*
X021872Y010790D01*
X021894Y010712D02*
X028057Y010712D01*
X027979Y010635D02*
X021894Y010635D01*
X021894Y010558D02*
X027902Y010558D01*
X027825Y010481D02*
X021874Y010481D01*
X021842Y010403D02*
X027748Y010403D01*
X027670Y010326D02*
X021805Y010326D01*
X021728Y010249D02*
X027593Y010249D01*
X027516Y010172D02*
X021630Y010172D01*
X019988Y011733D02*
X019873Y011618D01*
X019113Y011618D01*
X019113Y011600D01*
X019021Y011508D01*
X018593Y011508D01*
X018501Y011600D01*
X018501Y012028D01*
X018593Y012121D01*
X019021Y012121D01*
X019113Y012028D01*
X019113Y012011D01*
X019594Y012011D01*
X019594Y012689D01*
X019577Y012689D01*
X019485Y012782D01*
X019485Y013210D01*
X019577Y013302D01*
X020005Y013302D01*
X020098Y013210D01*
X020098Y012782D01*
X020005Y012689D01*
X019988Y012689D01*
X019988Y011733D01*
X019972Y011717D02*
X030626Y011717D01*
X030626Y011794D02*
X019988Y011794D01*
X019988Y011871D02*
X030626Y011871D01*
X030626Y011948D02*
X019988Y011948D01*
X019988Y012026D02*
X030626Y012026D01*
X030626Y012103D02*
X019988Y012103D01*
X019988Y012180D02*
X030626Y012180D01*
X030626Y012257D02*
X019988Y012257D01*
X019988Y012335D02*
X030626Y012335D01*
X030626Y012412D02*
X019988Y012412D01*
X019988Y012489D02*
X030626Y012489D01*
X030626Y012566D02*
X019988Y012566D01*
X019988Y012643D02*
X030626Y012643D01*
X030626Y012721D02*
X020037Y012721D01*
X020098Y012798D02*
X030626Y012798D01*
X030626Y012875D02*
X020098Y012875D01*
X020098Y012952D02*
X030626Y012952D01*
X030626Y013030D02*
X020098Y013030D01*
X020098Y013107D02*
X030626Y013107D01*
X030626Y013184D02*
X020098Y013184D01*
X020046Y013261D02*
X030626Y013261D01*
X030626Y013339D02*
X019004Y013339D01*
X019004Y013416D02*
X030626Y013416D01*
X030626Y013493D02*
X019004Y013493D01*
X019004Y013570D02*
X030626Y013570D01*
X030626Y013648D02*
X019004Y013648D01*
X019004Y013725D02*
X030626Y013725D01*
X030626Y013802D02*
X019004Y013802D01*
X019030Y013879D02*
X030626Y013879D01*
X030626Y013957D02*
X019107Y013957D01*
X019113Y014034D02*
X030626Y014034D01*
X030626Y014111D02*
X019113Y014111D01*
X019113Y014188D02*
X019181Y014188D01*
X019091Y014420D02*
X019084Y014420D01*
X019091Y014497D02*
X017831Y014497D01*
X017754Y014420D02*
X018530Y014420D01*
X018501Y014343D02*
X017677Y014343D01*
X017600Y014266D02*
X018501Y014266D01*
X018501Y014188D02*
X017522Y014188D01*
X017445Y014111D02*
X018501Y014111D01*
X018501Y014034D02*
X017368Y014034D01*
X017291Y013957D02*
X018507Y013957D01*
X018584Y013879D02*
X017232Y013879D01*
X017232Y013802D02*
X018610Y013802D01*
X018610Y013725D02*
X017232Y013725D01*
X017232Y013648D02*
X018610Y013648D01*
X018610Y013570D02*
X017232Y013570D01*
X017232Y013493D02*
X018610Y013493D01*
X018610Y013416D02*
X017232Y013416D01*
X017232Y013339D02*
X018610Y013339D01*
X018610Y013261D02*
X017232Y013261D01*
X017232Y013184D02*
X018610Y013184D01*
X018610Y013107D02*
X017232Y013107D01*
X017232Y013030D02*
X018563Y013030D01*
X018486Y012952D02*
X017232Y012952D01*
X017232Y012875D02*
X018408Y012875D01*
X018331Y012798D02*
X017232Y012798D01*
X017232Y012721D02*
X018254Y012721D01*
X018177Y012643D02*
X017232Y012643D01*
X017232Y012566D02*
X018099Y012566D01*
X018022Y012489D02*
X017232Y012489D01*
X017232Y012412D02*
X018020Y012412D01*
X018020Y012335D02*
X017232Y012335D01*
X017232Y012257D02*
X018020Y012257D01*
X018020Y012180D02*
X017232Y012180D01*
X017232Y012103D02*
X018020Y012103D01*
X018020Y012026D02*
X017232Y012026D01*
X017232Y011948D02*
X018020Y011948D01*
X018020Y011871D02*
X017232Y011871D01*
X017232Y011794D02*
X018020Y011794D01*
X018020Y011717D02*
X017232Y011717D01*
X017292Y011639D02*
X018020Y011639D01*
X018020Y011562D02*
X017369Y011562D01*
X017447Y011485D02*
X018020Y011485D01*
X018020Y011408D02*
X017524Y011408D01*
X017601Y011330D02*
X018020Y011330D01*
X018020Y011253D02*
X017678Y011253D01*
X017756Y011176D02*
X018020Y011176D01*
X018413Y011330D02*
X028540Y011330D01*
X028540Y011408D02*
X018413Y011408D01*
X018413Y011485D02*
X028587Y011485D01*
X029106Y011485D02*
X030626Y011485D01*
X030626Y011562D02*
X019075Y011562D01*
X018807Y011814D02*
X019791Y011814D01*
X019791Y012996D01*
X019485Y013030D02*
X019004Y013030D01*
X019004Y013107D02*
X019485Y013107D01*
X019485Y013184D02*
X019004Y013184D01*
X019004Y013261D02*
X019537Y013261D01*
X019485Y012952D02*
X019004Y012952D01*
X018965Y012875D02*
X019485Y012875D01*
X019485Y012798D02*
X018888Y012798D01*
X018811Y012721D02*
X019546Y012721D01*
X019594Y012643D02*
X018733Y012643D01*
X018656Y012566D02*
X019594Y012566D01*
X019594Y012489D02*
X018579Y012489D01*
X018502Y012412D02*
X019594Y012412D01*
X019594Y012335D02*
X018424Y012335D01*
X018413Y012257D02*
X019594Y012257D01*
X019594Y012180D02*
X018413Y012180D01*
X018413Y012103D02*
X018575Y012103D01*
X018501Y012026D02*
X018413Y012026D01*
X018413Y011948D02*
X018501Y011948D01*
X018501Y011871D02*
X018413Y011871D01*
X018413Y011794D02*
X018501Y011794D01*
X018501Y011717D02*
X018413Y011717D01*
X018413Y011639D02*
X018501Y011639D01*
X018539Y011562D02*
X018413Y011562D01*
X019039Y012103D02*
X019594Y012103D01*
X019594Y012026D02*
X019113Y012026D01*
X019895Y011639D02*
X030626Y011639D01*
X030626Y011408D02*
X029153Y011408D01*
X029153Y011330D02*
X030626Y011330D01*
X030626Y011253D02*
X029153Y011253D01*
X029153Y011176D02*
X030626Y011176D01*
X030626Y011099D02*
X029153Y011099D01*
X029153Y011021D02*
X030626Y011021D01*
X030626Y010944D02*
X029087Y010944D01*
X028768Y010867D02*
X030626Y010867D01*
X030626Y010790D02*
X028691Y010790D01*
X028613Y010712D02*
X030626Y010712D01*
X030626Y010635D02*
X028536Y010635D01*
X028459Y010558D02*
X030626Y010558D01*
X030626Y010481D02*
X028382Y010481D01*
X028304Y010403D02*
X030626Y010403D01*
X030626Y010326D02*
X028227Y010326D01*
X028150Y010249D02*
X030626Y010249D01*
X030626Y010172D02*
X028073Y010172D01*
X027995Y010095D02*
X030626Y010095D01*
X030626Y010017D02*
X027918Y010017D01*
X027841Y009940D02*
X030626Y009940D01*
X030626Y009863D02*
X027764Y009863D01*
X027687Y009786D02*
X030626Y009786D01*
X030626Y009708D02*
X027609Y009708D01*
X027532Y009631D02*
X030626Y009631D01*
X030626Y009554D02*
X027455Y009554D01*
X027378Y009477D02*
X030626Y009477D01*
X030626Y009399D02*
X018881Y009399D01*
X018413Y009322D02*
X030626Y009322D01*
X030626Y009245D02*
X018413Y009245D01*
X018413Y009168D02*
X030626Y009168D01*
X030626Y009090D02*
X018413Y009090D01*
X018413Y009013D02*
X030626Y009013D01*
X030626Y008936D02*
X018413Y008936D01*
X018413Y008859D02*
X030626Y008859D01*
X030626Y008781D02*
X018413Y008781D01*
X018413Y008704D02*
X030626Y008704D01*
X030626Y008627D02*
X018413Y008627D01*
X018413Y008550D02*
X030626Y008550D01*
X030626Y008472D02*
X018413Y008472D01*
X018413Y008395D02*
X030626Y008395D01*
X030626Y008318D02*
X018413Y008318D01*
X018413Y008241D02*
X030626Y008241D01*
X030626Y008164D02*
X018413Y008164D01*
X018413Y008086D02*
X030626Y008086D01*
X030626Y008009D02*
X018413Y008009D01*
X018413Y007932D02*
X030626Y007932D01*
X030626Y007855D02*
X018413Y007855D01*
X018413Y007777D02*
X030626Y007777D01*
X030626Y007700D02*
X018413Y007700D01*
X018413Y007623D02*
X030626Y007623D01*
X030626Y007546D02*
X027927Y007546D01*
X027972Y007468D02*
X030626Y007468D01*
X030626Y007391D02*
X027972Y007391D01*
X027972Y007314D02*
X030626Y007314D01*
X030626Y007237D02*
X027972Y007237D01*
X027972Y007159D02*
X030626Y007159D01*
X030626Y007082D02*
X027972Y007082D01*
X027904Y007005D02*
X030626Y007005D01*
X030626Y006928D02*
X025616Y006928D01*
X025693Y007005D02*
X027427Y007005D01*
X027359Y007082D02*
X025771Y007082D01*
X025539Y006850D02*
X030626Y006850D01*
X030626Y006773D02*
X025462Y006773D01*
X025384Y006696D02*
X030626Y006696D01*
X030626Y006619D02*
X025307Y006619D01*
X025230Y006541D02*
X030626Y006541D01*
X030626Y006464D02*
X025153Y006464D01*
X025106Y006387D02*
X030626Y006387D01*
X030626Y006310D02*
X025106Y006310D01*
X025106Y006233D02*
X030626Y006233D01*
X030626Y006155D02*
X025106Y006155D01*
X025106Y006078D02*
X030626Y006078D01*
X030626Y006001D02*
X025106Y006001D01*
X025106Y005924D02*
X030626Y005924D01*
X030626Y005846D02*
X025106Y005846D01*
X025106Y005769D02*
X030626Y005769D01*
X030626Y005692D02*
X025106Y005692D01*
X025106Y005615D02*
X030626Y005615D01*
X030626Y005537D02*
X025106Y005537D01*
X025106Y005460D02*
X030626Y005460D01*
X030626Y005383D02*
X025106Y005383D01*
X025106Y005306D02*
X030626Y005306D01*
X030626Y005228D02*
X025106Y005228D01*
X025106Y005151D02*
X030626Y005151D01*
X030626Y005074D02*
X025106Y005074D01*
X025106Y004997D02*
X030626Y004997D01*
X030626Y004919D02*
X025106Y004919D01*
X025106Y004842D02*
X030626Y004842D01*
X030626Y004765D02*
X025106Y004765D01*
X025106Y004688D02*
X030626Y004688D01*
X030626Y004610D02*
X025106Y004610D01*
X025106Y004533D02*
X030626Y004533D01*
X030626Y004456D02*
X025106Y004456D01*
X025106Y004379D02*
X030626Y004379D01*
X030626Y004302D02*
X025106Y004302D01*
X025106Y004224D02*
X030626Y004224D01*
X030626Y004147D02*
X025106Y004147D01*
X025106Y004070D02*
X030626Y004070D01*
X030626Y003993D02*
X025106Y003993D01*
X025106Y003915D02*
X030626Y003915D01*
X030626Y003838D02*
X025106Y003838D01*
X025106Y003761D02*
X030626Y003761D01*
X030626Y003684D02*
X025106Y003684D01*
X025051Y003606D02*
X030626Y003606D01*
X030626Y003529D02*
X024973Y003529D01*
X024896Y003452D02*
X030626Y003452D01*
X030626Y003375D02*
X024819Y003375D01*
X024742Y003297D02*
X030626Y003297D01*
X030626Y003220D02*
X024664Y003220D01*
X024587Y003143D02*
X030626Y003143D01*
X030626Y003066D02*
X024510Y003066D01*
X024433Y002988D02*
X030626Y002988D01*
X030626Y002911D02*
X024355Y002911D01*
X024278Y002834D02*
X030626Y002834D01*
X030626Y002757D02*
X024201Y002757D01*
X024124Y002679D02*
X030626Y002679D01*
X030626Y002602D02*
X024046Y002602D01*
X023969Y002525D02*
X030626Y002525D01*
X030626Y002448D02*
X023892Y002448D01*
X023815Y002370D02*
X030626Y002370D01*
X030626Y002293D02*
X023738Y002293D01*
X023660Y002216D02*
X030626Y002216D01*
X030626Y002139D02*
X023583Y002139D01*
X023506Y002062D02*
X030626Y002062D01*
X024713Y003838D02*
X018413Y003838D01*
X018413Y003761D02*
X024648Y003761D01*
X024571Y003684D02*
X018413Y003684D01*
X018413Y003606D02*
X024494Y003606D01*
X024417Y003529D02*
X018413Y003529D01*
X018413Y003452D02*
X024339Y003452D01*
X024262Y003375D02*
X018413Y003375D01*
X018413Y003297D02*
X024185Y003297D01*
X024108Y003220D02*
X018413Y003220D01*
X018413Y003143D02*
X024030Y003143D01*
X023953Y003066D02*
X018413Y003066D01*
X018413Y002988D02*
X023876Y002988D01*
X023799Y002911D02*
X018413Y002911D01*
X018413Y002834D02*
X023721Y002834D01*
X023644Y002757D02*
X018413Y002757D01*
X018413Y002679D02*
X023567Y002679D01*
X023490Y002602D02*
X018413Y002602D01*
X018413Y002525D02*
X023412Y002525D01*
X023335Y002448D02*
X018380Y002448D01*
X018303Y002370D02*
X023258Y002370D01*
X024713Y003915D02*
X018413Y003915D01*
X018413Y003993D02*
X024713Y003993D01*
X024713Y004070D02*
X018413Y004070D01*
X018413Y004147D02*
X024713Y004147D01*
X024713Y004224D02*
X018413Y004224D01*
X018413Y004302D02*
X024713Y004302D01*
X024713Y004379D02*
X018413Y004379D01*
X018413Y004456D02*
X024713Y004456D01*
X024713Y004533D02*
X018413Y004533D01*
X018413Y004610D02*
X024713Y004610D01*
X024713Y004688D02*
X018413Y004688D01*
X018413Y004765D02*
X024713Y004765D01*
X024713Y004842D02*
X018413Y004842D01*
X018413Y004919D02*
X024713Y004919D01*
X024713Y004997D02*
X018413Y004997D01*
X018413Y005074D02*
X024713Y005074D01*
X024713Y005151D02*
X018413Y005151D01*
X018413Y005228D02*
X024713Y005228D01*
X024713Y005306D02*
X018413Y005306D01*
X018413Y005383D02*
X024713Y005383D01*
X024713Y005460D02*
X018413Y005460D01*
X018413Y005537D02*
X024713Y005537D01*
X024713Y005615D02*
X018413Y005615D01*
X018413Y005692D02*
X024713Y005692D01*
X024713Y005769D02*
X018413Y005769D01*
X018413Y005846D02*
X024713Y005846D01*
X024713Y005924D02*
X018413Y005924D01*
X018413Y006001D02*
X024713Y006001D01*
X024713Y006078D02*
X018413Y006078D01*
X018413Y006155D02*
X024713Y006155D01*
X024713Y006233D02*
X018413Y006233D01*
X018020Y009477D02*
X016354Y009477D01*
X016431Y009554D02*
X018020Y009554D01*
X018020Y009631D02*
X016445Y009631D01*
X016445Y009708D02*
X018020Y009708D01*
X018020Y009786D02*
X016445Y009786D01*
X016445Y010558D02*
X017575Y010558D01*
X017517Y010635D02*
X016445Y010635D01*
X016445Y010712D02*
X017517Y010712D01*
X017517Y010790D02*
X016445Y010790D01*
X016445Y010867D02*
X017508Y010867D01*
X017430Y010944D02*
X016445Y010944D01*
X016445Y011021D02*
X017353Y011021D01*
X017276Y011099D02*
X016445Y011099D01*
X016445Y011176D02*
X017199Y011176D01*
X017121Y011253D02*
X016445Y011253D01*
X016445Y011330D02*
X017044Y011330D01*
X016967Y011408D02*
X016445Y011408D01*
X016445Y011485D02*
X016890Y011485D01*
X016839Y011562D02*
X016445Y011562D01*
X016445Y011639D02*
X016839Y011639D01*
X016839Y011717D02*
X016445Y011717D01*
X016445Y011794D02*
X016839Y011794D01*
X016839Y011871D02*
X016445Y011871D01*
X016445Y011948D02*
X016839Y011948D01*
X016839Y012026D02*
X016445Y012026D01*
X016445Y012103D02*
X016839Y012103D01*
X016839Y012180D02*
X016498Y012180D01*
X016576Y012257D02*
X016839Y012257D01*
X017035Y011618D02*
X017823Y010830D01*
X018413Y010095D02*
X027439Y010095D01*
X027361Y010017D02*
X018413Y010017D01*
X017035Y011618D02*
X017035Y013980D01*
X018610Y015555D01*
X019594Y016539D01*
X019901Y016505D02*
X030626Y016505D01*
X030626Y016428D02*
X023375Y016428D01*
X023352Y016451D02*
X022924Y016451D01*
X022832Y016359D01*
X022832Y015931D01*
X022882Y015881D01*
X022882Y015307D01*
X022921Y015213D01*
X022993Y015141D01*
X023087Y015102D01*
X024645Y015102D01*
X024695Y015052D01*
X025123Y015052D01*
X025216Y015144D01*
X025216Y015572D01*
X025123Y015664D01*
X024695Y015664D01*
X024645Y015614D01*
X023394Y015614D01*
X023394Y015881D01*
X023444Y015931D01*
X023444Y016359D01*
X023352Y016451D01*
X023444Y016351D02*
X030626Y016351D01*
X030626Y016274D02*
X023444Y016274D01*
X023444Y016197D02*
X030626Y016197D01*
X030626Y016119D02*
X023444Y016119D01*
X023444Y016042D02*
X030626Y016042D01*
X030626Y015965D02*
X023444Y015965D01*
X023400Y015888D02*
X030626Y015888D01*
X030626Y015810D02*
X023394Y015810D01*
X023394Y015733D02*
X030626Y015733D01*
X030626Y015656D02*
X025132Y015656D01*
X025209Y015579D02*
X030626Y015579D01*
X030626Y015501D02*
X025216Y015501D01*
X025216Y015424D02*
X030626Y015424D01*
X030626Y015347D02*
X025216Y015347D01*
X025216Y015270D02*
X030626Y015270D01*
X030626Y015192D02*
X025216Y015192D01*
X025187Y015115D02*
X030626Y015115D01*
X030626Y015038D02*
X026537Y015038D01*
X026594Y014961D02*
X030626Y014961D01*
X030626Y014883D02*
X026594Y014883D01*
X026594Y014806D02*
X030626Y014806D01*
X030626Y014729D02*
X026594Y014729D01*
X026594Y014652D02*
X030626Y014652D01*
X030626Y014574D02*
X026594Y014574D01*
X026538Y014497D02*
X030626Y014497D01*
X030626Y014420D02*
X019704Y014420D01*
X019704Y014497D02*
X026037Y014497D01*
X026287Y014767D02*
X019398Y014767D01*
X019398Y014492D01*
X019091Y014574D02*
X017909Y014574D01*
X017986Y014652D02*
X019091Y014652D01*
X019115Y014729D02*
X018063Y014729D01*
X018140Y014806D02*
X019201Y014806D01*
X019235Y014883D02*
X018217Y014883D01*
X018295Y014961D02*
X019313Y014961D01*
X018758Y015424D02*
X022882Y015424D01*
X022882Y015347D02*
X018681Y015347D01*
X018604Y015270D02*
X022897Y015270D01*
X022941Y015192D02*
X018526Y015192D01*
X018449Y015115D02*
X023055Y015115D01*
X022882Y015501D02*
X018835Y015501D01*
X018913Y015579D02*
X022882Y015579D01*
X022882Y015656D02*
X018990Y015656D01*
X019067Y015733D02*
X022882Y015733D01*
X022882Y015810D02*
X019144Y015810D01*
X019222Y015888D02*
X022875Y015888D01*
X022832Y015965D02*
X019299Y015965D01*
X019376Y016042D02*
X022832Y016042D01*
X022832Y016119D02*
X019453Y016119D01*
X019531Y016197D02*
X022832Y016197D01*
X022832Y016274D02*
X019850Y016274D01*
X019901Y016351D02*
X022832Y016351D01*
X022901Y016428D02*
X019901Y016428D01*
X019901Y016583D02*
X030626Y016583D01*
X030626Y016660D02*
X019901Y016660D01*
X019901Y016737D02*
X030626Y016737D01*
X030626Y016814D02*
X019839Y016814D01*
X019288Y016583D02*
X019184Y016583D01*
X019127Y016505D02*
X019283Y016505D01*
X019206Y016428D02*
X019069Y016428D01*
X019011Y016351D02*
X019128Y016351D01*
X019051Y016274D02*
X018953Y016274D01*
X018974Y016197D02*
X018895Y016197D01*
X018897Y016119D02*
X018837Y016119D01*
X018819Y016042D02*
X018786Y016042D01*
X018742Y015965D02*
X018721Y015965D01*
X018665Y015888D02*
X018631Y015888D01*
X018588Y015810D02*
X018554Y015810D01*
X018510Y015733D02*
X018477Y015733D01*
X018433Y015656D02*
X018399Y015656D01*
X018356Y015579D02*
X018322Y015579D01*
X018279Y015501D02*
X018245Y015501D01*
X018201Y015424D02*
X018168Y015424D01*
X018124Y015347D02*
X018090Y015347D01*
X018047Y015270D02*
X018013Y015270D01*
X017970Y015192D02*
X017936Y015192D01*
X017892Y015115D02*
X017859Y015115D01*
X017815Y015038D02*
X017781Y015038D01*
X017738Y014961D02*
X017704Y014961D01*
X017661Y014883D02*
X017627Y014883D01*
X017583Y014806D02*
X017550Y014806D01*
X017506Y014729D02*
X017472Y014729D01*
X017429Y014652D02*
X017395Y014652D01*
X017352Y014574D02*
X017318Y014574D01*
X017274Y014497D02*
X017241Y014497D01*
X017197Y014420D02*
X017163Y014420D01*
X017120Y014343D02*
X016496Y014343D01*
X016418Y014266D02*
X017043Y014266D01*
X016966Y014188D02*
X016341Y014188D01*
X016264Y014111D02*
X016888Y014111D01*
X016839Y014034D02*
X016187Y014034D01*
X016109Y013957D02*
X016839Y013957D01*
X016839Y013879D02*
X016032Y013879D01*
X015955Y013802D02*
X016839Y013802D01*
X016839Y013725D02*
X015878Y013725D01*
X015801Y013648D02*
X016839Y013648D01*
X016839Y013570D02*
X015723Y013570D01*
X015646Y013493D02*
X016839Y013493D01*
X016839Y013416D02*
X015569Y013416D01*
X015492Y013339D02*
X016839Y013339D01*
X016839Y013261D02*
X015414Y013261D01*
X015337Y013184D02*
X016839Y013184D01*
X016839Y013107D02*
X015260Y013107D01*
X015183Y013030D02*
X016839Y013030D01*
X018217Y012405D02*
X018217Y002562D01*
X016051Y002562D01*
X010539Y002448D02*
X010495Y002448D01*
X010539Y002370D02*
X010418Y002370D01*
X013098Y009846D02*
X013098Y010436D01*
X011720Y011814D01*
X011720Y016145D01*
X013492Y016145D01*
X013186Y016351D02*
X005698Y016351D01*
X005690Y016428D02*
X013255Y016428D01*
X013230Y015888D02*
X011917Y015888D01*
X011917Y015810D02*
X017997Y015810D01*
X017920Y015733D02*
X011917Y015733D01*
X011917Y015656D02*
X017843Y015656D01*
X017765Y015579D02*
X011917Y015579D01*
X011917Y015347D02*
X012022Y015347D01*
X011945Y015270D02*
X011917Y015270D01*
X012311Y014961D02*
X013186Y014961D01*
X013249Y014883D02*
X012311Y014883D01*
X016314Y015888D02*
X018074Y015888D01*
X018152Y015965D02*
X016357Y015965D01*
X016357Y016042D02*
X018229Y016042D01*
X018306Y016119D02*
X016357Y016119D01*
X016357Y016197D02*
X018383Y016197D01*
X018460Y016274D02*
X016357Y016274D01*
X016357Y016351D02*
X018519Y016351D01*
X018577Y016428D02*
X016416Y016428D01*
X016493Y016505D02*
X018634Y016505D01*
X018692Y016583D02*
X016570Y016583D01*
X016648Y016660D02*
X018750Y016660D01*
X018808Y016737D02*
X016725Y016737D01*
X016802Y016814D02*
X018866Y016814D01*
X018895Y016892D02*
X016879Y016892D01*
X016957Y016969D02*
X018895Y016969D01*
X018895Y017046D02*
X017034Y017046D01*
X017111Y017123D02*
X018895Y017123D01*
X018949Y017201D02*
X017188Y017201D01*
X017666Y018745D02*
X022901Y018745D01*
X022978Y018823D02*
X017589Y018823D01*
X016509Y019132D02*
X016240Y019132D01*
X016336Y019209D02*
X016477Y019209D01*
X016445Y019286D02*
X016413Y019286D01*
X019436Y019132D02*
X019704Y019132D01*
X019609Y019209D02*
X019468Y019209D01*
X019500Y019286D02*
X019532Y019286D01*
X021164Y018900D02*
X023055Y018900D01*
X023132Y018977D02*
X021304Y018977D01*
X021381Y019054D02*
X023210Y019054D01*
X023287Y019132D02*
X021436Y019132D01*
X021468Y019209D02*
X023364Y019209D01*
X023441Y019286D02*
X021500Y019286D01*
X021500Y019363D02*
X023519Y019363D01*
X023596Y019441D02*
X021500Y019441D01*
X021491Y019518D02*
X023673Y019518D01*
X023750Y019595D02*
X021459Y019595D01*
X021427Y019672D02*
X023828Y019672D01*
X023394Y015656D02*
X024687Y015656D01*
X026038Y015038D02*
X018372Y015038D01*
X018807Y014177D02*
X018807Y012996D01*
X018217Y012405D01*
X019615Y014188D02*
X030626Y014188D01*
X030626Y014266D02*
X019692Y014266D01*
X019704Y014343D02*
X030626Y014343D01*
X013537Y011408D02*
X013193Y011408D01*
X013116Y011485D02*
X013460Y011485D01*
X013383Y011562D02*
X013039Y011562D01*
X012961Y011639D02*
X013305Y011639D01*
X013228Y011717D02*
X012884Y011717D01*
X012807Y011794D02*
X013151Y011794D01*
X013074Y011871D02*
X012730Y011871D01*
X004752Y015347D02*
X004673Y015347D01*
X004673Y015424D02*
X004752Y015424D01*
X004752Y015501D02*
X004673Y015501D01*
X004673Y015579D02*
X004752Y015579D01*
X004752Y015656D02*
X004673Y015656D01*
X004673Y015733D02*
X004752Y015733D01*
X004752Y015810D02*
X004673Y015810D01*
X004673Y015888D02*
X004752Y015888D01*
X004752Y015965D02*
X004673Y015965D01*
X004673Y016042D02*
X004752Y016042D01*
X004752Y016119D02*
X004673Y016119D01*
X004673Y016197D02*
X004752Y016197D01*
X004752Y016428D02*
X004673Y016428D01*
X004673Y016505D02*
X004752Y016505D01*
X004752Y016583D02*
X004673Y016583D01*
X004673Y016660D02*
X004752Y016660D01*
X004752Y016737D02*
X004673Y016737D01*
X004673Y016814D02*
X004752Y016814D01*
X004752Y016892D02*
X004673Y016892D01*
X004673Y016969D02*
X004752Y016969D01*
X004752Y017046D02*
X004673Y017046D01*
X004673Y017123D02*
X004752Y017123D01*
X004752Y017201D02*
X004673Y017201D01*
D20*
X012705Y012602D02*
X013689Y011618D01*
X014870Y011618D01*
X015854Y011618D01*
X015854Y012602D01*
X023138Y015358D02*
X024909Y015358D01*
X023138Y015358D02*
X023138Y016145D01*
M02*
