G75*
G70*
%OFA0B0*%
%FSLAX24Y24*%
%IPPOS*%
%LPD*%
%AMOC8*
5,1,8,0,0,1.08239X$1,22.5*
%
%ADD10R,0.0740X0.0740*%
%ADD11OC8,0.0740*%
%ADD12R,0.3937X0.3937*%
%ADD13OC8,0.0475*%
%ADD14C,0.0079*%
%ADD15C,0.0317*%
%ADD16C,0.0394*%
%ADD17OC8,0.0317*%
%ADD18R,0.0396X0.0396*%
%ADD19OC8,0.0396*%
%ADD20OC8,0.0591*%
%ADD21C,0.0197*%
D10*
X006037Y010710D03*
D11*
X006037Y009710D03*
X006037Y008710D03*
X007037Y008710D03*
X007037Y009710D03*
X007037Y010710D03*
X007037Y007182D03*
X006037Y007182D03*
X006037Y006182D03*
X006037Y005182D03*
X006037Y004182D03*
X006037Y003182D03*
X007037Y003182D03*
X007037Y004182D03*
X007037Y005182D03*
X007037Y006182D03*
D12*
X012640Y012662D03*
D13*
X012640Y012662D03*
X013033Y012269D03*
X013427Y012662D03*
X013033Y013056D03*
X012640Y013450D03*
X012246Y013056D03*
X011852Y012662D03*
X012246Y012269D03*
X012640Y011875D03*
X017955Y016403D03*
X018742Y016403D03*
X012246Y017387D03*
X011655Y017387D03*
X005553Y016206D03*
X004963Y016206D03*
D14*
X005435Y014434D02*
X005455Y014434D01*
X005455Y011383D01*
X005081Y011009D01*
X004356Y010710D02*
X006037Y010710D01*
X005317Y010222D02*
X004451Y010222D01*
X002010Y012662D01*
X003585Y011481D02*
X003585Y014040D01*
X003585Y011481D02*
X004356Y010710D01*
X006037Y009710D02*
X006549Y009198D01*
X007718Y009198D01*
X008309Y009788D01*
X008309Y010497D01*
X007037Y010710D02*
X006734Y011013D01*
X006734Y012466D01*
X011065Y015025D02*
X011065Y017387D01*
X012246Y013056D02*
X011852Y012662D01*
X012246Y012269D01*
X012640Y011875D01*
X013033Y012269D02*
X012640Y012662D01*
X012246Y013056D01*
X013033Y013056D02*
X013427Y012662D01*
X017167Y015222D02*
X017167Y016521D01*
X010278Y006757D02*
X011459Y005576D01*
X012246Y005576D01*
X006037Y005182D02*
X004766Y006454D01*
X004766Y008332D01*
X005356Y008332D02*
X005356Y006863D01*
X006037Y006182D01*
D15*
X005356Y008332D03*
X004766Y008332D03*
X005317Y010222D03*
X005081Y011009D03*
X006734Y012466D03*
X006341Y013922D03*
X005435Y014434D03*
X003585Y014040D03*
X002010Y012662D03*
X008309Y010497D03*
X010278Y006757D03*
X012246Y005576D03*
X019726Y018174D03*
D16*
X004171Y004052D02*
X003311Y004995D01*
X002555Y006024D01*
X001912Y007127D01*
X001389Y008292D01*
X000992Y009505D01*
X000725Y010754D01*
X000592Y012024D01*
X000590Y012087D01*
X000650Y011942D01*
X000817Y011775D01*
X001035Y011685D01*
X001272Y011685D01*
X001490Y011775D01*
X001657Y011942D01*
X001747Y012161D01*
X001747Y012259D01*
X001916Y012189D01*
X001982Y012189D01*
X004150Y010021D01*
X004250Y009921D01*
X004380Y009867D01*
X005001Y009867D01*
X005049Y009820D01*
X005223Y009748D01*
X005352Y009748D01*
X005352Y009426D01*
X005569Y009210D01*
X005352Y008993D01*
X005352Y008805D01*
X005262Y008805D01*
X005088Y008733D01*
X005061Y008706D01*
X005034Y008733D01*
X004860Y008805D01*
X004671Y008805D01*
X004497Y008733D01*
X004364Y008600D01*
X004292Y008426D01*
X004292Y008238D01*
X004364Y008063D01*
X004411Y008016D01*
X004411Y006383D01*
X004465Y006253D01*
X005352Y005366D01*
X005352Y004898D01*
X005569Y004682D01*
X005352Y004466D01*
X005352Y003898D01*
X005569Y003682D01*
X005352Y003466D01*
X005352Y003044D01*
X005126Y003205D01*
X004171Y004052D01*
X004246Y003986D02*
X005352Y003986D01*
X005480Y003594D02*
X004688Y003594D01*
X005131Y003202D02*
X005352Y003202D01*
X006506Y003682D02*
X006537Y003713D01*
X006754Y003497D01*
X007321Y003497D01*
X007722Y003898D01*
X007722Y004466D01*
X007506Y004682D01*
X007722Y004898D01*
X007722Y005466D01*
X007506Y005682D01*
X007722Y005898D01*
X007722Y006466D01*
X007506Y006682D01*
X007722Y006898D01*
X007722Y007466D01*
X007321Y007867D01*
X006754Y007867D01*
X006537Y007651D01*
X006321Y007867D01*
X005754Y007867D01*
X005711Y007824D01*
X005711Y008016D01*
X005736Y008042D01*
X005754Y008025D01*
X006321Y008025D01*
X006722Y008426D01*
X006722Y008844D01*
X007789Y008844D01*
X007919Y008898D01*
X008019Y008997D01*
X008609Y009588D01*
X008663Y009718D01*
X008663Y010182D01*
X008711Y010229D01*
X008783Y010403D01*
X008783Y010591D01*
X008711Y010765D01*
X008577Y010899D01*
X008403Y010971D01*
X008215Y010971D01*
X008041Y010899D01*
X007907Y010765D01*
X007835Y010591D01*
X007835Y010403D01*
X007907Y010229D01*
X007955Y010182D01*
X007955Y009935D01*
X007722Y009703D01*
X007722Y009993D01*
X007506Y010210D01*
X007722Y010426D01*
X007722Y010993D01*
X007321Y011395D01*
X007089Y011395D01*
X007089Y012150D01*
X007136Y012197D01*
X007208Y012371D01*
X007208Y012560D01*
X007136Y012734D01*
X007003Y012867D01*
X006828Y012939D01*
X006640Y012939D01*
X006466Y012867D01*
X006333Y012734D01*
X006261Y012560D01*
X006261Y012371D01*
X006333Y012197D01*
X006380Y012150D01*
X006380Y011395D01*
X005809Y011395D01*
X005809Y014138D01*
X005837Y014166D01*
X005909Y014340D01*
X005909Y014528D01*
X005837Y014702D01*
X005703Y014836D01*
X005529Y014908D01*
X005341Y014908D01*
X005167Y014836D01*
X005033Y014702D01*
X004961Y014528D01*
X004961Y014340D01*
X005033Y014166D01*
X005100Y014099D01*
X005100Y011530D01*
X005053Y011483D01*
X004986Y011483D01*
X004812Y011411D01*
X004679Y011277D01*
X004607Y011103D01*
X004607Y011064D01*
X004503Y011064D01*
X003939Y011628D01*
X003939Y013725D01*
X003986Y013772D01*
X004058Y013946D01*
X004058Y014135D01*
X003986Y014309D01*
X003853Y014442D01*
X003679Y014514D01*
X003490Y014514D01*
X003316Y014442D01*
X003183Y014309D01*
X003111Y014135D01*
X003111Y013946D01*
X003183Y013772D01*
X003230Y013725D01*
X003230Y011943D01*
X002484Y012690D01*
X002484Y012757D01*
X002411Y012931D01*
X002278Y013064D01*
X002104Y013136D01*
X001916Y013136D01*
X001747Y013066D01*
X001747Y013164D01*
X001657Y013383D01*
X001490Y013550D01*
X001272Y013640D01*
X001035Y013640D01*
X000817Y013550D01*
X000650Y013383D01*
X000587Y013229D01*
X000588Y013307D01*
X000714Y014582D01*
X000975Y015836D01*
X001367Y017056D01*
X001887Y018227D01*
X002527Y019337D01*
X003282Y020372D01*
X004143Y021321D01*
X005099Y022174D01*
X006141Y022920D01*
X007255Y023552D01*
X008431Y024062D01*
X009654Y024444D01*
X010910Y024695D01*
X012186Y024811D01*
X013467Y024790D01*
X014739Y024634D01*
X015987Y024344D01*
X017197Y023923D01*
X018356Y023376D01*
X019450Y022709D01*
X020467Y021930D01*
X021396Y021048D01*
X022226Y020072D01*
X022948Y019013D01*
X023553Y017884D01*
X024035Y016697D01*
X024207Y016154D01*
X024206Y016150D01*
X024231Y016077D01*
X024252Y016002D01*
X024258Y015995D01*
X024261Y015986D01*
X024312Y015927D01*
X024360Y015866D01*
X024369Y015862D01*
X024375Y015854D01*
X024419Y015832D01*
X024471Y015659D01*
X024678Y014671D01*
X024803Y013670D01*
X024844Y012662D01*
X024803Y011655D01*
X024678Y010654D01*
X024471Y009666D01*
X024419Y009493D01*
X024375Y009471D01*
X024370Y009464D01*
X024363Y009461D01*
X024313Y009399D01*
X024261Y009339D01*
X024259Y009332D01*
X024254Y009325D01*
X024231Y009250D01*
X024206Y009175D01*
X024207Y009172D01*
X024033Y008635D01*
X023545Y007455D01*
X022936Y006333D01*
X022212Y005281D01*
X021380Y004313D01*
X020451Y003437D01*
X019435Y002664D01*
X018342Y002003D01*
X017186Y001461D01*
X015980Y001045D01*
X014736Y000758D01*
X013468Y000604D01*
X012192Y000584D01*
X011381Y000658D01*
X011381Y001112D01*
X011333Y001228D01*
X011245Y001317D01*
X011129Y001365D01*
X010607Y001365D01*
X010492Y001317D01*
X010440Y001265D01*
X010252Y001265D01*
X009447Y002070D01*
X009331Y002186D01*
X009179Y002249D01*
X007555Y002249D01*
X006722Y003082D01*
X006722Y003466D01*
X006506Y003682D01*
X006594Y003594D02*
X006657Y003594D01*
X006722Y003202D02*
X020142Y003202D01*
X020618Y003594D02*
X007418Y003594D01*
X007722Y003986D02*
X021034Y003986D01*
X021437Y004378D02*
X007722Y004378D01*
X007594Y004770D02*
X021773Y004770D01*
X022110Y005163D02*
X012486Y005163D01*
X012514Y005174D02*
X012648Y005308D01*
X012720Y005482D01*
X012720Y005670D01*
X012648Y005844D01*
X012514Y005977D01*
X012340Y006050D01*
X012152Y006050D01*
X011978Y005977D01*
X011930Y005930D01*
X011605Y005930D01*
X010751Y006784D01*
X010751Y006851D01*
X010679Y007025D01*
X010546Y007159D01*
X010372Y007231D01*
X010183Y007231D01*
X010009Y007159D01*
X009876Y007025D01*
X009804Y006851D01*
X009804Y006663D01*
X009876Y006489D01*
X010009Y006355D01*
X010183Y006283D01*
X010250Y006283D01*
X011158Y005375D01*
X011258Y005275D01*
X011388Y005222D01*
X011930Y005222D01*
X011978Y005174D01*
X012152Y005102D01*
X012340Y005102D01*
X012514Y005174D01*
X012720Y005555D02*
X022400Y005555D01*
X022670Y005947D02*
X012545Y005947D01*
X011947Y005947D02*
X011589Y005947D01*
X011196Y006339D02*
X022940Y006339D01*
X023153Y006731D02*
X010804Y006731D01*
X010581Y007124D02*
X023366Y007124D01*
X023571Y007516D02*
X007672Y007516D01*
X007722Y007124D02*
X009974Y007124D01*
X009804Y006731D02*
X007555Y006731D01*
X007722Y006339D02*
X010048Y006339D01*
X010586Y005947D02*
X007722Y005947D01*
X007633Y005555D02*
X010979Y005555D01*
X012006Y005163D02*
X007722Y005163D01*
X005480Y004770D02*
X003516Y004770D01*
X003188Y005163D02*
X005352Y005163D01*
X005164Y005555D02*
X002900Y005555D01*
X002612Y005947D02*
X004771Y005947D01*
X004430Y006339D02*
X002371Y006339D01*
X002143Y006731D02*
X004411Y006731D01*
X004411Y007124D02*
X001914Y007124D01*
X001737Y007516D02*
X004411Y007516D01*
X004411Y007908D02*
X001561Y007908D01*
X001386Y008300D02*
X004292Y008300D01*
X004457Y008692D02*
X001258Y008692D01*
X001130Y009085D02*
X005444Y009085D01*
X005352Y009477D02*
X001001Y009477D01*
X000914Y009869D02*
X004376Y009869D01*
X003910Y010261D02*
X000831Y010261D01*
X000747Y010653D02*
X003518Y010653D01*
X003126Y011046D02*
X000695Y011046D01*
X000654Y011438D02*
X002733Y011438D01*
X002341Y011830D02*
X001545Y011830D01*
X001747Y012222D02*
X001835Y012222D01*
X002559Y012615D02*
X003230Y012615D01*
X003230Y012222D02*
X002951Y012222D01*
X003230Y013007D02*
X002336Y013007D01*
X001641Y013399D02*
X003230Y013399D01*
X003175Y013791D02*
X000636Y013791D01*
X000675Y014183D02*
X003131Y014183D01*
X004038Y014183D02*
X005026Y014183D01*
X005100Y013791D02*
X003994Y013791D01*
X003939Y013399D02*
X005100Y013399D01*
X005100Y013007D02*
X003939Y013007D01*
X003939Y012615D02*
X005100Y012615D01*
X005100Y012222D02*
X003939Y012222D01*
X003939Y011830D02*
X005100Y011830D01*
X004878Y011438D02*
X004129Y011438D01*
X005809Y011438D02*
X006380Y011438D01*
X006380Y011830D02*
X005809Y011830D01*
X005809Y012222D02*
X006322Y012222D01*
X006283Y012615D02*
X005809Y012615D01*
X005809Y013007D02*
X008265Y013007D01*
X008308Y013110D02*
X008188Y012820D01*
X008188Y012505D01*
X008308Y012215D01*
X008531Y011992D01*
X008821Y011872D01*
X009136Y011872D01*
X009426Y011992D01*
X009559Y012125D01*
X009828Y011855D01*
X010333Y011855D01*
X010691Y012213D01*
X010691Y012718D01*
X010592Y012817D01*
X010592Y013689D01*
X010691Y013788D01*
X010691Y014293D01*
X010333Y014651D01*
X009828Y014651D01*
X009610Y014432D01*
X009610Y014844D01*
X009608Y014845D01*
X009608Y017173D01*
X009610Y017174D01*
X009610Y017599D01*
X009309Y017900D01*
X008884Y017900D01*
X008583Y017599D01*
X008583Y017174D01*
X008585Y017173D01*
X008585Y014845D01*
X008583Y014844D01*
X008583Y014418D01*
X008884Y014118D01*
X009309Y014118D01*
X009470Y014279D01*
X009470Y013788D01*
X009569Y013689D01*
X009569Y013190D01*
X009426Y013333D01*
X009136Y013453D01*
X008821Y013453D01*
X008531Y013333D01*
X008308Y013110D01*
X008690Y013399D02*
X005809Y013399D01*
X005809Y013791D02*
X009470Y013791D01*
X009470Y014183D02*
X009374Y014183D01*
X009610Y014576D02*
X009753Y014576D01*
X009608Y014968D02*
X010591Y014968D01*
X010591Y014828D02*
X010869Y014551D01*
X011261Y014551D01*
X011539Y014828D01*
X011539Y015221D01*
X011419Y015340D01*
X011419Y017071D01*
X011539Y017191D01*
X011539Y017583D01*
X011261Y017861D01*
X010869Y017861D01*
X010591Y017583D01*
X010591Y017191D01*
X010711Y017071D01*
X010711Y015340D01*
X010591Y015221D01*
X010591Y014828D01*
X010409Y014576D02*
X010844Y014576D01*
X010691Y014183D02*
X014392Y014183D01*
X014392Y014293D02*
X014392Y013788D01*
X014490Y013689D01*
X014490Y012817D01*
X014392Y012718D01*
X014392Y012213D01*
X014749Y011855D01*
X015255Y011855D01*
X015612Y012213D01*
X015612Y012718D01*
X015514Y012817D01*
X015514Y013689D01*
X015612Y013788D01*
X015612Y014293D01*
X015255Y014651D01*
X014749Y014651D01*
X014392Y014293D01*
X014674Y014576D02*
X013704Y014576D01*
X013640Y014512D02*
X013940Y014812D01*
X013940Y015237D01*
X013939Y015238D01*
X013939Y015245D01*
X014023Y015162D01*
X014313Y015041D01*
X014628Y015041D01*
X014918Y015162D01*
X015141Y015384D01*
X015261Y015675D01*
X015261Y015989D01*
X015141Y016280D01*
X014918Y016502D01*
X014628Y016622D01*
X014313Y016622D01*
X014023Y016502D01*
X013939Y016418D01*
X013939Y016584D01*
X014228Y016874D01*
X014230Y016874D01*
X014531Y017174D01*
X014531Y017599D01*
X014230Y017900D01*
X013805Y017900D01*
X013505Y017599D01*
X013505Y017598D01*
X013137Y017230D01*
X012993Y017086D01*
X012915Y016898D01*
X012915Y015238D01*
X012914Y015237D01*
X012914Y014812D01*
X013215Y014512D01*
X013640Y014512D01*
X013940Y014968D02*
X016751Y014968D01*
X016694Y015025D02*
X016971Y014748D01*
X017364Y014748D01*
X017641Y015025D01*
X017641Y015418D01*
X017522Y015537D01*
X017522Y016205D01*
X017641Y016325D01*
X017641Y016717D01*
X017364Y016994D01*
X016971Y016994D01*
X016694Y016717D01*
X016694Y016325D01*
X016813Y016205D01*
X016813Y015537D01*
X016694Y015418D01*
X016694Y015025D01*
X016694Y015360D02*
X015117Y015360D01*
X015261Y015752D02*
X016813Y015752D01*
X016813Y016144D02*
X015197Y016144D01*
X014835Y016537D02*
X016694Y016537D01*
X016905Y016929D02*
X014285Y016929D01*
X014106Y016537D02*
X013939Y016537D01*
X013427Y016796D02*
X013427Y015025D01*
X012914Y014968D02*
X011539Y014968D01*
X011286Y014576D02*
X013151Y014576D01*
X012915Y015360D02*
X011419Y015360D01*
X011419Y015752D02*
X012915Y015752D01*
X012915Y016144D02*
X011419Y016144D01*
X011419Y016537D02*
X012915Y016537D01*
X012928Y016929D02*
X011419Y016929D01*
X011539Y017321D02*
X013228Y017321D01*
X013618Y017713D02*
X011409Y017713D01*
X010721Y017713D02*
X009496Y017713D01*
X009610Y017321D02*
X010591Y017321D01*
X010711Y016929D02*
X009608Y016929D01*
X009608Y016537D02*
X010711Y016537D01*
X010711Y016144D02*
X009608Y016144D01*
X009608Y015752D02*
X010711Y015752D01*
X010711Y015360D02*
X009608Y015360D01*
X009096Y014631D02*
X009096Y017387D01*
X008697Y017713D02*
X001659Y017713D01*
X001485Y017321D02*
X008583Y017321D01*
X008585Y016929D02*
X001326Y016929D01*
X001200Y016537D02*
X008585Y016537D01*
X008585Y016144D02*
X001074Y016144D01*
X000957Y015752D02*
X008585Y015752D01*
X008585Y015360D02*
X000876Y015360D01*
X000794Y014968D02*
X008585Y014968D01*
X008583Y014576D02*
X005889Y014576D01*
X005844Y014183D02*
X008819Y014183D01*
X009266Y013399D02*
X009569Y013399D01*
X010081Y014040D02*
X010081Y012466D01*
X010691Y012615D02*
X014392Y012615D01*
X014392Y012222D02*
X010691Y012222D01*
X010592Y013007D02*
X014490Y013007D01*
X014490Y013399D02*
X010592Y013399D01*
X010691Y013791D02*
X014392Y013791D01*
X015002Y014040D02*
X015002Y012466D01*
X015612Y012615D02*
X024842Y012615D01*
X024826Y012222D02*
X015612Y012222D01*
X015514Y013007D02*
X024830Y013007D01*
X024814Y013399D02*
X015514Y013399D01*
X015612Y013791D02*
X024788Y013791D01*
X024739Y014183D02*
X015612Y014183D01*
X015330Y014576D02*
X024690Y014576D01*
X024616Y014968D02*
X017583Y014968D01*
X017641Y015360D02*
X024534Y015360D01*
X024443Y015752D02*
X017522Y015752D01*
X017522Y016144D02*
X024208Y016144D01*
X024086Y016537D02*
X017641Y016537D01*
X017429Y016929D02*
X023941Y016929D01*
X023782Y017321D02*
X014531Y017321D01*
X014417Y017713D02*
X023622Y017713D01*
X023434Y018105D02*
X001833Y018105D01*
X002043Y018498D02*
X023224Y018498D01*
X023014Y018890D02*
X002269Y018890D01*
X002496Y019282D02*
X022764Y019282D01*
X022497Y019674D02*
X002774Y019674D01*
X003060Y020066D02*
X022230Y020066D01*
X021897Y020459D02*
X003361Y020459D01*
X003716Y020851D02*
X021564Y020851D01*
X021191Y021243D02*
X004072Y021243D01*
X004495Y021635D02*
X020778Y021635D01*
X020341Y022027D02*
X004935Y022027D01*
X005442Y022420D02*
X019829Y022420D01*
X019282Y022812D02*
X005989Y022812D01*
X006641Y023204D02*
X018639Y023204D01*
X017890Y023596D02*
X007357Y023596D01*
X008261Y023988D02*
X017010Y023988D01*
X015830Y024381D02*
X009450Y024381D01*
X011770Y024773D02*
X013610Y024773D01*
X014018Y017387D02*
X013427Y016796D01*
X008305Y012222D02*
X007146Y012222D01*
X007185Y012615D02*
X008188Y012615D01*
X007089Y011830D02*
X024810Y011830D01*
X024776Y011438D02*
X007089Y011438D01*
X007670Y011046D02*
X024727Y011046D01*
X024678Y010653D02*
X014527Y010653D01*
X014628Y010553D02*
X014270Y010911D01*
X013765Y010911D01*
X013666Y010812D01*
X012597Y010812D01*
X012499Y010911D01*
X011993Y010911D01*
X011636Y010553D01*
X011636Y010048D01*
X011993Y009690D01*
X012499Y009690D01*
X012597Y009788D01*
X013666Y009788D01*
X013716Y009739D01*
X013680Y009650D01*
X013680Y009336D01*
X013800Y009045D01*
X014023Y008823D01*
X014313Y008703D01*
X014628Y008703D01*
X014918Y008823D01*
X015141Y009045D01*
X015261Y009336D01*
X015261Y009650D01*
X015141Y009941D01*
X014918Y010163D01*
X014628Y010284D01*
X014628Y010553D01*
X014682Y010261D02*
X024596Y010261D01*
X024514Y009869D02*
X015170Y009869D01*
X015261Y009477D02*
X024388Y009477D01*
X024178Y009085D02*
X015157Y009085D01*
X013784Y009085D02*
X008106Y009085D01*
X008499Y009477D02*
X013680Y009477D01*
X014018Y010300D02*
X012246Y010300D01*
X011814Y009869D02*
X008663Y009869D01*
X008724Y010261D02*
X011636Y010261D01*
X011736Y010653D02*
X008757Y010653D01*
X007861Y010653D02*
X007722Y010653D01*
X007558Y010261D02*
X007894Y010261D01*
X007889Y009869D02*
X007722Y009869D01*
X006722Y008692D02*
X024052Y008692D01*
X023895Y008300D02*
X006597Y008300D01*
X005711Y007908D02*
X023733Y007908D01*
X019626Y002809D02*
X006995Y002809D01*
X007387Y002417D02*
X019027Y002417D01*
X018378Y002025D02*
X009492Y002025D01*
X009884Y001633D02*
X017552Y001633D01*
X016547Y001241D02*
X011321Y001241D01*
X011381Y000848D02*
X015130Y000848D01*
X005352Y004378D02*
X003874Y004378D01*
X000762Y011830D02*
X000612Y011830D01*
X000597Y013399D02*
X000666Y013399D01*
X000714Y014576D02*
X004981Y014576D01*
D17*
X002600Y016403D03*
X007915Y014237D03*
X011065Y015025D03*
X011065Y017387D03*
X015789Y014237D03*
X017167Y015222D03*
X017167Y016521D03*
D18*
X007915Y011875D03*
X010278Y007544D03*
X014411Y004198D03*
X010868Y000851D03*
X003978Y006757D03*
D19*
X003388Y009513D03*
X009096Y014631D03*
X009096Y017387D03*
X013427Y015025D03*
X014018Y017387D03*
D20*
X015002Y014040D03*
X015002Y012466D03*
X014018Y010300D03*
X012246Y010300D03*
X010081Y012466D03*
X010081Y014040D03*
X023270Y013450D03*
X023270Y011875D03*
D21*
X010868Y000851D02*
X010081Y000851D01*
X009096Y001836D01*
X007384Y001836D01*
X006037Y003182D01*
M02*
