%
M48
M72
T01C0.0157
T02C0.0236
T03C0.0315
T04C0.0394
T05C0.0400
T06C0.0787
%
T01
X4766Y8332
X5356Y8332
X5317Y10222
X5081Y11009
X6734Y12466
X6341Y13922
X5435Y14434
X3585Y14040
X2010Y12662
X2600Y16403
X7915Y14237
X11065Y15025
X11065Y17387
X15789Y14237
X17167Y15222
X17167Y16521
X19726Y18174
X8309Y10497
X10278Y6757
X12246Y5576
T02
X14411Y4198
X10868Y851
X3978Y6757
X3388Y9513
X7915Y11875
X9096Y14631
X9096Y17387
X13427Y15025
X14018Y17387
X10278Y7544
T03
X12640Y11875
X13033Y12269
X12640Y12662
X12246Y12269
X11852Y12662
X12246Y13056
X12640Y13450
X13033Y13056
X13427Y12662
X17955Y16403
X18742Y16403
X12246Y17387
X11655Y17387
X5553Y16206
X4963Y16206
T04
X1154Y13046
X1154Y12279
X10081Y12466
X10081Y14040
X12246Y10300
X14018Y10300
X15002Y12466
X15002Y14040
X23270Y13450
X23270Y11875
T05
X6037Y3182
X6037Y4182
X6037Y5182
X6037Y6182
X6037Y7182
X7037Y7182
X7037Y6182
X7037Y5182
X7037Y4182
X7037Y3182
X7037Y8710
X6037Y8710
X6037Y9710
X6037Y10710
X7037Y10710
X7037Y9710
T06
X8978Y12662
X14470Y9493
X14470Y15832
X26136Y12662
M30
