G75*
G70*
%OFA0B0*%
%FSLAX24Y24*%
%IPPOS*%
%LPD*%
%AMOC8*
5,1,8,0,0,1.08239X$1,22.5*
%
%ADD10C,0.0079*%
%ADD11C,0.0000*%
D10*
X026616Y010103D02*
X026711Y010739D01*
X026775Y011378D01*
X026809Y012020D01*
X026813Y012663D01*
X026616Y015222D02*
X024648Y016206D01*
X026616Y010103D02*
X024648Y009119D01*
X026813Y012662D02*
X026811Y013305D01*
X026777Y013947D01*
X026712Y014586D01*
X026616Y015221D01*
X024648Y016206D02*
X024466Y016786D01*
X024256Y017357D01*
X024019Y017916D01*
X023755Y018464D01*
X023464Y018998D01*
X023148Y019517D01*
X022807Y020020D01*
X022442Y020506D01*
X022054Y020973D01*
X021643Y021422D01*
X021212Y021849D01*
X020759Y022256D01*
X020288Y022639D01*
X019799Y023000D01*
X019292Y023336D01*
X018770Y023647D01*
X018234Y023932D01*
X017684Y024191D01*
X017122Y024423D01*
X016549Y024627D01*
X015968Y024804D01*
X015378Y024951D01*
X014782Y025070D01*
X014181Y025160D01*
X013576Y025221D01*
X012969Y025252D01*
X012361Y025253D01*
X011754Y025225D01*
X011149Y025167D01*
X010548Y025080D01*
X009951Y024964D01*
X009361Y024819D01*
X008778Y024646D01*
X008205Y024444D01*
X007642Y024215D01*
X007091Y023958D01*
X006553Y023676D01*
X006029Y023367D01*
X005521Y023033D01*
X005030Y022675D01*
X004557Y022293D01*
X004103Y021889D01*
X003669Y021464D01*
X003257Y021017D01*
X002866Y020552D01*
X002499Y020067D01*
X002155Y019566D01*
X001837Y019048D01*
X001544Y018516D01*
X001277Y017970D01*
X001037Y017411D01*
X000825Y016842D01*
X000640Y016263D01*
X000484Y015675D01*
X000357Y015081D01*
X000258Y014481D01*
X000189Y013877D01*
X000149Y013271D01*
X000139Y012663D01*
X000140Y012662D02*
X000154Y012057D01*
X000197Y011453D01*
X000270Y010851D01*
X000371Y010254D01*
X000501Y009663D01*
X000660Y009079D01*
X000847Y008503D01*
X001061Y007936D01*
X001303Y007381D01*
X001571Y006838D01*
X001865Y006309D01*
X002184Y005794D01*
X002528Y005296D01*
X002896Y004814D01*
X003287Y004352D01*
X003699Y003908D01*
X004133Y003485D01*
X004586Y003084D01*
X005058Y002705D01*
X005548Y002349D01*
X006055Y002018D01*
X006577Y001711D01*
X007114Y001430D01*
X007663Y001175D01*
X008224Y000947D01*
X008796Y000747D01*
X009376Y000574D01*
X009965Y000430D01*
X010559Y000315D01*
X011158Y000228D01*
X011761Y000170D01*
X012366Y000142D01*
X012972Y000143D01*
X013577Y000174D01*
X014179Y000233D01*
X014778Y000322D01*
X015372Y000439D01*
X015960Y000586D01*
X016540Y000760D01*
X017111Y000962D01*
X017671Y001192D01*
X018220Y001449D01*
X018755Y001731D01*
X019276Y002040D01*
X019782Y002373D01*
X020271Y002730D01*
X020742Y003111D01*
X021194Y003514D01*
X021626Y003938D01*
X022037Y004383D01*
X022426Y004847D01*
X022792Y005330D01*
X023135Y005829D01*
X023452Y006345D01*
X023745Y006875D01*
X024011Y007419D01*
X024251Y007975D01*
X024463Y008542D01*
X024648Y009119D01*
D11*
X000957Y012279D02*
X000959Y012306D01*
X000965Y012333D01*
X000974Y012359D01*
X000987Y012383D01*
X001003Y012406D01*
X001022Y012425D01*
X001044Y012442D01*
X001068Y012456D01*
X001093Y012466D01*
X001120Y012473D01*
X001147Y012476D01*
X001175Y012475D01*
X001202Y012470D01*
X001228Y012462D01*
X001252Y012450D01*
X001275Y012434D01*
X001296Y012416D01*
X001313Y012395D01*
X001328Y012371D01*
X001339Y012346D01*
X001347Y012320D01*
X001351Y012293D01*
X001351Y012265D01*
X001347Y012238D01*
X001339Y012212D01*
X001328Y012187D01*
X001313Y012163D01*
X001296Y012142D01*
X001275Y012124D01*
X001253Y012108D01*
X001228Y012096D01*
X001202Y012088D01*
X001175Y012083D01*
X001147Y012082D01*
X001120Y012085D01*
X001093Y012092D01*
X001068Y012102D01*
X001044Y012116D01*
X001022Y012133D01*
X001003Y012152D01*
X000987Y012175D01*
X000974Y012199D01*
X000965Y012225D01*
X000959Y012252D01*
X000957Y012279D01*
X000957Y013046D02*
X000959Y013073D01*
X000965Y013100D01*
X000974Y013126D01*
X000987Y013150D01*
X001003Y013173D01*
X001022Y013192D01*
X001044Y013209D01*
X001068Y013223D01*
X001093Y013233D01*
X001120Y013240D01*
X001147Y013243D01*
X001175Y013242D01*
X001202Y013237D01*
X001228Y013229D01*
X001252Y013217D01*
X001275Y013201D01*
X001296Y013183D01*
X001313Y013162D01*
X001328Y013138D01*
X001339Y013113D01*
X001347Y013087D01*
X001351Y013060D01*
X001351Y013032D01*
X001347Y013005D01*
X001339Y012979D01*
X001328Y012954D01*
X001313Y012930D01*
X001296Y012909D01*
X001275Y012891D01*
X001253Y012875D01*
X001228Y012863D01*
X001202Y012855D01*
X001175Y012850D01*
X001147Y012849D01*
X001120Y012852D01*
X001093Y012859D01*
X001068Y012869D01*
X001044Y012883D01*
X001022Y012900D01*
X001003Y012919D01*
X000987Y012942D01*
X000974Y012966D01*
X000965Y012992D01*
X000959Y013019D01*
X000957Y013046D01*
X008584Y012662D02*
X008586Y012701D01*
X008592Y012740D01*
X008602Y012778D01*
X008615Y012815D01*
X008632Y012850D01*
X008652Y012884D01*
X008676Y012915D01*
X008703Y012944D01*
X008732Y012970D01*
X008764Y012993D01*
X008798Y013013D01*
X008834Y013029D01*
X008871Y013041D01*
X008910Y013050D01*
X008949Y013055D01*
X008988Y013056D01*
X009027Y013053D01*
X009066Y013046D01*
X009103Y013035D01*
X009140Y013021D01*
X009175Y013003D01*
X009208Y012982D01*
X009239Y012957D01*
X009267Y012930D01*
X009292Y012900D01*
X009314Y012867D01*
X009333Y012833D01*
X009348Y012797D01*
X009360Y012759D01*
X009368Y012721D01*
X009372Y012682D01*
X009372Y012642D01*
X009368Y012603D01*
X009360Y012565D01*
X009348Y012527D01*
X009333Y012491D01*
X009314Y012457D01*
X009292Y012424D01*
X009267Y012394D01*
X009239Y012367D01*
X009208Y012342D01*
X009175Y012321D01*
X009140Y012303D01*
X009103Y012289D01*
X009066Y012278D01*
X009027Y012271D01*
X008988Y012268D01*
X008949Y012269D01*
X008910Y012274D01*
X008871Y012283D01*
X008834Y012295D01*
X008798Y012311D01*
X008764Y012331D01*
X008732Y012354D01*
X008703Y012380D01*
X008676Y012409D01*
X008652Y012440D01*
X008632Y012474D01*
X008615Y012509D01*
X008602Y012546D01*
X008592Y012584D01*
X008586Y012623D01*
X008584Y012662D01*
X014076Y009493D02*
X014078Y009532D01*
X014084Y009571D01*
X014094Y009609D01*
X014107Y009646D01*
X014124Y009681D01*
X014144Y009715D01*
X014168Y009746D01*
X014195Y009775D01*
X014224Y009801D01*
X014256Y009824D01*
X014290Y009844D01*
X014326Y009860D01*
X014363Y009872D01*
X014402Y009881D01*
X014441Y009886D01*
X014480Y009887D01*
X014519Y009884D01*
X014558Y009877D01*
X014595Y009866D01*
X014632Y009852D01*
X014667Y009834D01*
X014700Y009813D01*
X014731Y009788D01*
X014759Y009761D01*
X014784Y009731D01*
X014806Y009698D01*
X014825Y009664D01*
X014840Y009628D01*
X014852Y009590D01*
X014860Y009552D01*
X014864Y009513D01*
X014864Y009473D01*
X014860Y009434D01*
X014852Y009396D01*
X014840Y009358D01*
X014825Y009322D01*
X014806Y009288D01*
X014784Y009255D01*
X014759Y009225D01*
X014731Y009198D01*
X014700Y009173D01*
X014667Y009152D01*
X014632Y009134D01*
X014595Y009120D01*
X014558Y009109D01*
X014519Y009102D01*
X014480Y009099D01*
X014441Y009100D01*
X014402Y009105D01*
X014363Y009114D01*
X014326Y009126D01*
X014290Y009142D01*
X014256Y009162D01*
X014224Y009185D01*
X014195Y009211D01*
X014168Y009240D01*
X014144Y009271D01*
X014124Y009305D01*
X014107Y009340D01*
X014094Y009377D01*
X014084Y009415D01*
X014078Y009454D01*
X014076Y009493D01*
X014076Y015832D02*
X014078Y015871D01*
X014084Y015910D01*
X014094Y015948D01*
X014107Y015985D01*
X014124Y016020D01*
X014144Y016054D01*
X014168Y016085D01*
X014195Y016114D01*
X014224Y016140D01*
X014256Y016163D01*
X014290Y016183D01*
X014326Y016199D01*
X014363Y016211D01*
X014402Y016220D01*
X014441Y016225D01*
X014480Y016226D01*
X014519Y016223D01*
X014558Y016216D01*
X014595Y016205D01*
X014632Y016191D01*
X014667Y016173D01*
X014700Y016152D01*
X014731Y016127D01*
X014759Y016100D01*
X014784Y016070D01*
X014806Y016037D01*
X014825Y016003D01*
X014840Y015967D01*
X014852Y015929D01*
X014860Y015891D01*
X014864Y015852D01*
X014864Y015812D01*
X014860Y015773D01*
X014852Y015735D01*
X014840Y015697D01*
X014825Y015661D01*
X014806Y015627D01*
X014784Y015594D01*
X014759Y015564D01*
X014731Y015537D01*
X014700Y015512D01*
X014667Y015491D01*
X014632Y015473D01*
X014595Y015459D01*
X014558Y015448D01*
X014519Y015441D01*
X014480Y015438D01*
X014441Y015439D01*
X014402Y015444D01*
X014363Y015453D01*
X014326Y015465D01*
X014290Y015481D01*
X014256Y015501D01*
X014224Y015524D01*
X014195Y015550D01*
X014168Y015579D01*
X014144Y015610D01*
X014124Y015644D01*
X014107Y015679D01*
X014094Y015716D01*
X014084Y015754D01*
X014078Y015793D01*
X014076Y015832D01*
X025742Y012662D02*
X025744Y012701D01*
X025750Y012740D01*
X025760Y012778D01*
X025773Y012815D01*
X025790Y012850D01*
X025810Y012884D01*
X025834Y012915D01*
X025861Y012944D01*
X025890Y012970D01*
X025922Y012993D01*
X025956Y013013D01*
X025992Y013029D01*
X026029Y013041D01*
X026068Y013050D01*
X026107Y013055D01*
X026146Y013056D01*
X026185Y013053D01*
X026224Y013046D01*
X026261Y013035D01*
X026298Y013021D01*
X026333Y013003D01*
X026366Y012982D01*
X026397Y012957D01*
X026425Y012930D01*
X026450Y012900D01*
X026472Y012867D01*
X026491Y012833D01*
X026506Y012797D01*
X026518Y012759D01*
X026526Y012721D01*
X026530Y012682D01*
X026530Y012642D01*
X026526Y012603D01*
X026518Y012565D01*
X026506Y012527D01*
X026491Y012491D01*
X026472Y012457D01*
X026450Y012424D01*
X026425Y012394D01*
X026397Y012367D01*
X026366Y012342D01*
X026333Y012321D01*
X026298Y012303D01*
X026261Y012289D01*
X026224Y012278D01*
X026185Y012271D01*
X026146Y012268D01*
X026107Y012269D01*
X026068Y012274D01*
X026029Y012283D01*
X025992Y012295D01*
X025956Y012311D01*
X025922Y012331D01*
X025890Y012354D01*
X025861Y012380D01*
X025834Y012409D01*
X025810Y012440D01*
X025790Y012474D01*
X025773Y012509D01*
X025760Y012546D01*
X025750Y012584D01*
X025744Y012623D01*
X025742Y012662D01*
M02*
