G75*
G70*
%OFA0B0*%
%FSLAX24Y24*%
%IPPOS*%
%LPD*%
%AMOC8*
5,1,8,0,0,1.08239X$1,22.5*
%
%ADD10C,0.0847*%
%ADD11R,0.0800X0.0800*%
%ADD12OC8,0.0800*%
%ADD13R,0.3997X0.3997*%
%ADD14OC8,0.0535*%
%ADD15C,0.0454*%
%ADD16C,0.0377*%
%ADD17OC8,0.0377*%
%ADD18R,0.0456X0.0456*%
%ADD19OC8,0.0456*%
%ADD20OC8,0.0651*%
D10*
X008978Y012662D03*
X014470Y009493D03*
X014470Y015832D03*
X026136Y012662D03*
D11*
X006037Y010710D03*
D12*
X006037Y003182D03*
X006037Y004182D03*
X006037Y005182D03*
X006037Y006182D03*
X006037Y007182D03*
X007037Y007182D03*
X007037Y006182D03*
X007037Y005182D03*
X007037Y004182D03*
X007037Y003182D03*
X007037Y008710D03*
X006037Y008710D03*
X006037Y009710D03*
X007037Y009710D03*
X007037Y010710D03*
D13*
X012640Y012662D03*
D14*
X012640Y012662D03*
X013033Y012269D03*
X013427Y012662D03*
X013033Y013056D03*
X012640Y013450D03*
X012246Y013056D03*
X011852Y012662D03*
X012246Y012269D03*
X012640Y011875D03*
X017955Y016403D03*
X018742Y016403D03*
X012246Y017387D03*
X011655Y017387D03*
X005553Y016206D03*
X004963Y016206D03*
D15*
X001154Y013046D03*
X001154Y012279D03*
D16*
X002010Y012662D03*
X003585Y014040D03*
X005435Y014434D03*
X006341Y013922D03*
X006734Y012466D03*
X005081Y011009D03*
X005317Y010222D03*
X005356Y008332D03*
X004766Y008332D03*
X008309Y010497D03*
X010278Y006757D03*
X012246Y005576D03*
X019726Y018174D03*
D17*
X017167Y016521D03*
X017167Y015222D03*
X015789Y014237D03*
X011065Y015025D03*
X011065Y017387D03*
X007915Y014237D03*
X002600Y016403D03*
D18*
X007915Y011875D03*
X010278Y007544D03*
X014411Y004198D03*
X010868Y000851D03*
X003978Y006757D03*
D19*
X003388Y009513D03*
X009096Y014631D03*
X009096Y017387D03*
X013427Y015025D03*
X014018Y017387D03*
D20*
X015002Y014040D03*
X015002Y012466D03*
X014018Y010300D03*
X012246Y010300D03*
X010081Y012466D03*
X010081Y014040D03*
X023270Y013450D03*
X023270Y011875D03*
M02*
